<svg xmlns="http://www.w3.org/2000/svg" viewBox="0 0 789.03 642.86">
    <defs>
        <style>
            .icn-1, .icn-2{
                fill:none;
                }
            
            .icn-1, .icn-2, .icn-3{
                stroke:#ffffff;
                stroke-miterlimit:10;
                stroke-width:14px;
                }
            
            .icn-2{
                stroke:#ffffff;
                fill:none;
                }
            
            .icn-3{
                stroke:#ffffff;
                fill:#ffffff;
                }

            .txt-1{
                fill:#ffffff;
                stroke:#ffffff;
                stroke-miterlimit:10;
                stroke-width:7px;
                }

            .txt-2{
                fill:#ffffff;
                stroke:#ffffff;
                stroke-miterlimit:10;
                stroke-width:7px;
                }
        </style>
    </defs>

    <g>
        <g>
            <rect class="icn-1" x="266.78" y="92.32" width="170.65" height="170.65" rx="2.61" ry="2.61"/>
            <rect class="icn-2" x="352.11" y="92.32" width="170.65" height="170.65" rx="85.32" ry="85.32"/>
            <rect class="icn-3" x="266.78" y="7" width="170.65" height="170.65" rx="85.32" ry="85.32"/>
            <g>
                <g>
                    <path class="txt-1" d="M3.86,377.06H9.78l36.07,63.8,35.89-63.8h5.47V480.25H3.86ZM9.33,475H81.74V388.19L48.36,447h-5.2L9.33,387.38Z"/>
                    <path class="txt-1" d="M233.64,480.55H136.29L185,375ZM144.9,475H225l-40-86.94Z"/>
                    <path class="txt-1" d="M367.06,480.55H287.74V377.37h40.2c8.61,0,15.61,1.52,21.08,4.57a31.36,31.36,0,0,1,12.47,12.21,33.52,33.52,0,0,1,4.49,17,32.8,32.8,0,0,1-7.09,20.73A33.54,33.54,0,0,1,341,444Zm-73.84-94.21v53.21h38.13Zm0,88.65h63.43L335,444.8l-4.58.18H293.22v30Zm3.85-92.24,40.38,56.35a28.78,28.78,0,0,0,18.93-42.89A26.07,26.07,0,0,0,345.08,386c-4.4-2.15-10.05-3.23-17.05-3.23Z"/>
                    <path class="txt-1" d="M505.41,377.24v5.51h-39v97.71H461V382.75H422v-5.47Z"/>
                    <path class="txt-1" d="M636.68,377.24v5.51H605.81V475h30.87v5.47H569.83V475h30.69V382.75H569.83v-5.47Z"/>
                    <path class="txt-1" d="M702.26,480.55V377.37H708l72,70v-70h5.48V480.55h-5.48V455l-72.4-70.61v96.13Z"/>
                    <path class="txt-2" d="M3.5,639.36V536.18H9v29.25a73.12,73.12,0,0,1,28.89,5.83,74.13,74.13,0,0,1,39.57,40.29V536.18H82.9V639.36H77.43A67.41,67.41,0,0,0,68.28,605a68.39,68.39,0,0,0-25-25,67.44,67.44,0,0,0-34.37-9.15v68.55Z"/>
                    <path class="txt-2" d="M241.54,536.05h72.67v5.51H247v41.81h58.41v5.48H247V633.8h67.2v5.47H241.54Z"/>
                    <path class="txt-2" d="M553.68,639.36H474.37V536.18h40.19c8.62,0,15.61,1.52,21.09,4.57A31.43,31.43,0,0,1,548.12,553a33.72,33.72,0,0,1,4.49,17,32.8,32.8,0,0,1-7.09,20.73,33.53,33.53,0,0,1-17.95,12.11Zm-73.84-94.21v53.21H518Zm0,88.65h63.43l-21.62-30.19-4.58.18H479.84v30Zm3.86-92.24,40.37,56.35A28.76,28.76,0,0,0,543,555a26.07,26.07,0,0,0-11.3-10.23c-4.31-2.15-10.05-3.23-17.05-3.23Z"/>
                    <path class="txt-2" d="M776.19,541.56H708.27v-5.47h75V639.27H706.57V633.8Zm1.62,92.24V548.56L713.48,633.8Z"/>
                </g>
            </g>
        </g>
    </g>
</svg>