<svg fill="currentColor" viewBox="0 0 24 24" xmlns="http://www.w3.org/2000/svg">
  <path d="M7.2 5.178a1.004 1.004 0 0 0-.052-1.475A2.938 2.938 0 0 0 5.251 3l-.154.004h-.022C3.488 3.101 2.25 4.48 2.254 6.141c0 .89.375 1.362.671 1.74a.966.966 0 0 0 .69.365c.011 0 .032.002.093.002a.893.893 0 0 0 .644-.276L7.2 5.178Z"></path>
  <path d="M18.928 3.005 18.775 3h-.024a2.937 2.937 0 0 0-1.9.703 1.003 1.003 0 0 0-.052 1.474l2.849 2.796a.894.894 0 0 0 .646.277c.06 0 .08 0 .094-.003a.966.966 0 0 0 .688-.365c.299-.378.67-.848.672-1.74.002-1.664-1.235-3.042-2.82-3.137Z"></path>
  <path d="M12.004 4.5c-4.547 0-8.25 3.7-8.25 8.25a8.214 8.214 0 0 0 1.913 5.276L3.973 19.72a.75.75 0 1 0 1.061 1.06l1.693-1.693a8.233 8.233 0 0 0 10.553 0l1.693 1.693a.752.752 0 0 0 1.289-.528.75.75 0 0 0-.228-.532l-1.693-1.694a8.21 8.21 0 0 0 1.913-5.276c0-4.547-3.701-8.25-8.25-8.25Zm.75 8.25a.75.75 0 0 1-.75.75h-3.75a.75.75 0 1 1 0-1.5h3V7.5a.75.75 0 1 1 1.5 0v5.25Z"></path>
</svg>