<svg fill="currentColor" viewBox="0 0 24 24" xmlns="http://www.w3.org/2000/svg">
  <path d="M5.72 5.725c-2.08 2.08-3.126 4.716-3.656 6.81l9.404 9.4c2.094-.526 4.73-1.574 6.81-3.655 2.08-2.082 3.127-4.716 3.656-6.81l-9.403-9.4c-2.094.528-4.73 1.575-6.81 3.655Zm8.372 3.138 1.048-1.045a.74.74 0 0 1 1.045 1.045L15.14 9.91l.523.524a.74.74 0 0 1-1.046 1.046l-.524-.523-1.048 1.046.524.523a.74.74 0 0 1-1.047 1.046L12 13.05l-1.046 1.047.523.523a.74.74 0 0 1-1.046 1.046l-.524-.521L8.86 16.19a.74.74 0 0 1-1.045-1.045l1.045-1.048-.524-.524a.74.74 0 1 1 1.047-1.046l.523.523 1.048-1.046-.523-.523a.74.74 0 0 1 1.046-1.046l.523.523 1.046-1.047-.523-.523a.74.74 0 1 1 1.046-1.046l.524.522Z"></path>
  <path d="M22.34 9.358c.342-2.556.187-5.637-.938-6.76-1.125-1.123-4.204-1.28-6.76-.937-.117.016-.242.033-.37.053l8.015 8.016.053-.372Z"></path>
  <path d="M1.661 14.646c-.342 2.556-.187 5.637.938 6.76.784.785 2.527 1.098 4.378 1.098a18.14 18.14 0 0 0 2.752-.215l-8.016-8.016-.052.373Z"></path>
</svg>