<svg fill="currentColor" viewBox="0 0 24 24" xmlns="http://www.w3.org/2000/svg">
  <path d="M11.745 6.053 8.567 2.875a9.827 9.827 0 0 0-4.52 3.498h7.566a.188.188 0 0 0 .132-.32Z"></path>
  <path d="M7.862 7.875H3.17a9.72 9.72 0 0 0-.757 5.902l5.581-5.582a.188.188 0 0 0-.132-.32Z"></path>
  <path d="M16.126 7.862V3.167a9.742 9.742 0 0 0-5.901-.754l5.58 5.581a.188.188 0 0 0 .32-.132Z"></path>
  <path d="m21.587 10.227-5.58 5.581a.187.187 0 0 0 .131.32h4.692a9.719 9.719 0 0 0 .757-5.901Z"></path>
  <path d="m17.945 11.742 3.18-3.179a9.8 9.8 0 0 0-3.5-4.524v7.571a.188.188 0 0 0 .32.133Z"></path>
  <path d="M10.392 16.023c.07.067.162.105.26.105h2.796a.374.374 0 0 0 .267-.112l2.305-2.344a.375.375 0 0 0 .108-.263l-.003-2.85a.375.375 0 0 0-.111-.268L13.67 7.983a.375.375 0 0 0-.264-.108l-2.852.003a.375.375 0 0 0-.267.111L7.98 10.333a.375.375 0 0 0-.108.264l.003 2.85a.375.375 0 0 0 .115.27l2.403 2.306Z"></path>
  <path d="m12.256 17.945 3.178 3.178a9.827 9.827 0 0 0 4.52-3.498h-7.566a.188.188 0 0 0-.132.32Z"></path>
  <path d="M7.875 16.14v4.695a9.742 9.742 0 0 0 5.901.754l-5.58-5.58a.187.187 0 0 0-.321.131Z"></path>
  <path d="m6.055 12.258-3.18 3.18a9.802 9.802 0 0 0 3.5 4.524V12.39a.187.187 0 0 0-.32-.132Z"></path>
</svg>