<svg fill="currentColor" viewBox="0 0 24 24" xmlns="http://www.w3.org/2000/svg">
  <path d="M4.875 7.5a2.625 2.625 0 1 1 0-5.25 2.625 2.625 0 0 1 0 5.25Z"></path>
  <path d="M12 7.5a2.625 2.625 0 1 1 0-5.25 2.625 2.625 0 0 1 0 5.25Z"></path>
  <path d="M19.125 7.5a2.625 2.625 0 1 1 0-5.25 2.625 2.625 0 0 1 0 5.25Z"></path>
  <path d="M4.875 14.625a2.625 2.625 0 1 1 0-5.25 2.625 2.625 0 0 1 0 5.25Z"></path>
  <path d="M12 14.625a2.625 2.625 0 1 1 0-5.25 2.625 2.625 0 0 1 0 5.25Z"></path>
  <path d="M19.125 14.625a2.625 2.625 0 1 1 0-5.25 2.625 2.625 0 0 1 0 5.25Z"></path>
  <path d="M4.875 21.75a2.625 2.625 0 1 1 0-5.25 2.625 2.625 0 0 1 0 5.25Z"></path>
  <path d="M12 21.75a2.625 2.625 0 1 1 0-5.25 2.625 2.625 0 0 1 0 5.25Z"></path>
  <path d="M19.125 21.75a2.625 2.625 0 1 1 0-5.25 2.625 2.625 0 0 1 0 5.25Z"></path>
</svg>