<svg fill="currentColor" viewBox="0 0 24 24" xmlns="http://www.w3.org/2000/svg">
  <path d="M3 7.688v11.437a2.625 2.625 0 0 0 2.625 2.625h12.75A2.625 2.625 0 0 0 21 19.125V7.687a.188.188 0 0 0-.188-.187H3.188A.187.187 0 0 0 3 7.688Zm12.516 7.107L12.53 17.78a.75.75 0 0 1-1.06 0l-2.986-2.985a.764.764 0 0 1-.04-1.049.75.75 0 0 1 1.086-.026l1.72 1.72v-4.92c0-.404.31-.75.714-.77a.75.75 0 0 1 .786.749v4.94l1.72-1.72a.75.75 0 0 1 1.085.026.764.764 0 0 1-.04 1.05Z"></path>
  <path d="M21 2.25H3a1.5 1.5 0 0 0-1.5 1.5v.75A1.5 1.5 0 0 0 3 6h18a1.5 1.5 0 0 0 1.5-1.5v-.75a1.5 1.5 0 0 0-1.5-1.5Z"></path>
</svg>