<svg fill="currentColor" viewBox="0 0 24 24" xmlns="http://www.w3.org/2000/svg">
  <path d="M11.975 2.281c-5.384 0-9.75 4.365-9.75 9.75a9.75 9.75 0 0 0 9.75 9.75 9.75 9.75 0 0 0 9.75-9.75c0-5.385-4.367-9.75-9.75-9.75Zm5.85 9.528c-.133 1.53-.787 2.33-1.312 2.731-.525.401-1.156.578-1.7.48a1.95 1.95 0 0 1-1.258-.806 2.909 2.909 0 0 1-2.062.824 2.422 2.422 0 0 1-1.807-.79c-.534-.581-.797-1.422-.718-2.307.14-1.64 1.448-2.69 2.665-2.882 1.275-.2 2.449.307 2.949.913l.18.218-.297 2.362c-.056.672.154 1.1.576 1.176.112.02.38-.006.674-.231.315-.241.71-.75.801-1.803.11-1.244-.204-2.306-.902-3.07-.726-.792-1.832-1.211-3.198-1.211-2.532 0-4.773 2.082-4.996 4.64-.107 1.228.266 2.376 1.05 3.231.767.838 1.842 1.3 3.03 1.3.891 0 1.436-.095 2.32-.41a.657.657 0 0 1 .44 1.236c-1.022.364-1.719.487-2.76.487-1.56 0-2.98-.612-3.998-1.723-1.033-1.13-1.53-2.633-1.39-4.233.137-1.562.865-3.03 2.052-4.13C9.351 6.71 10.863 6.1 12.416 6.1c1.743 0 3.184.565 4.165 1.636.942 1.028 1.384 2.473 1.245 4.072Z"></path>
  <path d="M11.84 10.356c-.696.11-1.48.743-1.563 1.7-.047.518.093.995.378 1.306a1.108 1.108 0 0 0 .84.364c.951 0 1.627-.7 1.722-1.784a.651.651 0 0 1 .016-.098l.15-1.192a2.326 2.326 0 0 0-1.544-.296Z"></path>
</svg>