<svg fill="currentColor" viewBox="0 0 24 24" xmlns="http://www.w3.org/2000/svg">
  <path d="M18.897 4.5H7.353a2.105 2.105 0 0 0-1.579.716.745.745 0 0 0-.089.126L1.5 11.613a.75.75 0 0 0 0 .774l4.179 6.26a.76.76 0 0 0 .094.136 2.104 2.104 0 0 0 1.58.717h11.544A2.105 2.105 0 0 0 21 17.397V6.603A2.106 2.106 0 0 0 18.897 4.5Zm-2.584 10.078a.75.75 0 1 1-1.061 1.06l-2.518-2.513-2.515 2.515a.75.75 0 1 1-1.062-1.062l2.515-2.516-2.517-2.516a.751.751 0 1 1 1.064-1.062l2.516 2.518 2.516-2.518a.75.75 0 1 1 1.062 1.062l-2.518 2.516 2.518 2.516Z"></path>
</svg>