<svg fill="currentColor" viewBox="0 0 24 24" xmlns="http://www.w3.org/2000/svg">
  <path d="M18.328 14.406c1.535-2.173 2.184-4.764 1.828-7.298a8.241 8.241 0 0 0-9.31-7.012c-4.5.632-7.648 4.809-7.015 9.309.355 2.526 1.693 4.835 3.767 6.503 1.152.923 2.452 1.57 3.686 1.86a.375.375 0 0 1 .28.432l-.228 1.237a.75.75 0 0 0 .84.891l.835-.117a.094.094 0 0 1 .098.054c.784 1.702 2.13 2.992 3.85 3.673a.75.75 0 0 0 .985-.453c.133-.383-.077-.8-.454-.95a5.558 5.558 0 0 1-2.78-2.432.094.094 0 0 1 .068-.14l.347-.048a.75.75 0 0 0 .584-1.08l-.564-1.135a.374.374 0 0 1 .152-.494c1.106-.618 2.178-1.594 3.03-2.8Zm-7.261.786a.75.75 0 0 1-.276-.052c-1.934-.765-3.576-2.47-4.286-4.45a.75.75 0 1 1 1.411-.507c.68 1.896 2.216 3.083 3.427 3.563a.75.75 0 0 1-.276 1.447Z"></path>
</svg>