<svg fill="currentColor" viewBox="0 0 24 24" xmlns="http://www.w3.org/2000/svg">
  <path d="M12.927 7.36a.75.75 0 0 0-1.06 0L7.49 11.736a.75.75 0 0 0 0 1.06l3.713 3.713a.75.75 0 0 0 1.06 0l4.376-4.375a.749.749 0 0 0 0-1.061L12.927 7.36Zm-2.648 5.171a.749.749 0 0 1-1.154-.947.75.75 0 1 1 1.154.947Zm2.25 2.25a.749.749 0 0 1-1.154-.947.75.75 0 1 1 1.154.947Zm0-4.5a.749.749 0 0 1-1.154-.947.75.75 0 1 1 1.154.947Zm2.25 2.25a.749.749 0 0 1-1.154-.947.75.75 0 1 1 1.154.947Z"></path>
  <path d="M21.826 2.175a4.893 4.893 0 0 0-6.902 0l-3.27 3.276a.187.187 0 0 0 .197.308c.175-.07.36-.11.548-.119a2.236 2.236 0 0 1 1.59.66l3.713 3.711a2.234 2.234 0 0 1 .659 1.591 1.675 1.675 0 0 1-.12.548.188.188 0 0 0 .31.197l3.275-3.27a4.893 4.893 0 0 0 0-6.902Z"></path>
  <path d="M11.921 18.133a2.246 2.246 0 0 1-1.59-.657l-3.713-3.713a2.242 2.242 0 0 1-.442-.628c-.215-.454-.065-1.172.117-1.73a.187.187 0 0 0-.312-.187l-3.62 3.611a4.88 4.88 0 1 0 6.902 6.903l3.41-3.416a.188.188 0 0 0-.072-.31.187.187 0 0 0-.125.001 1.675 1.675 0 0 1-.555.126Z"></path>
</svg>