<svg fill="currentColor" viewBox="0 0 24 24" xmlns="http://www.w3.org/2000/svg">
  <path d="M21.89 8.25a1.403 1.403 0 0 0-1.186.586.094.094 0 0 1-.17-.053V7.065c0-.973-.767-1.791-1.739-1.814a1.781 1.781 0 0 0-1.826 1.78v3.844a.094.094 0 0 1-.094.094h-9.75a.094.094 0 0 1-.094-.094v-3.81c0-.973-.766-1.791-1.738-1.814A1.781 1.781 0 0 0 3.47 7.03v1.753a.094.094 0 0 1-.17.053 1.403 1.403 0 0 0-1.19-.587C1.345 8.274.75 8.92.75 9.685v4.628c0 .764.597 1.411 1.36 1.435a1.404 1.404 0 0 0 1.186-.586.094.094 0 0 1 .173.055v1.719c0 .97.766 1.79 1.738 1.814a1.781 1.781 0 0 0 1.823-1.78v-3.844a.094.094 0 0 1 .094-.094h9.75a.094.094 0 0 1 .094.094v3.81c0 .973.766 1.792 1.738 1.815a1.78 1.78 0 0 0 1.824-1.781v-1.752a.094.094 0 0 1 .17-.054 1.403 1.403 0 0 0 1.19.587c.764-.024 1.359-.67 1.359-1.435v-4.63c0-.764-.597-1.411-1.36-1.436Z"></path>
</svg>