<svg fill="currentColor" viewBox="0 0 24 24" xmlns="http://www.w3.org/2000/svg">
  <path d="m20.813 13.86-.022-1.223a9.63 9.63 0 0 1-1.841-.222l-.235.814a.655.655 0 0 1-1.213.141.657.657 0 0 1-.047-.507l.235-.815a9.688 9.688 0 0 1-1.69-.813l-.49.692a.656.656 0 0 1-1.072-.758l.488-.69a9.598 9.598 0 0 1-1.406-1.406l-.69.49a.656.656 0 0 1-.757-1.073l.69-.488a9.625 9.625 0 0 1-.814-1.69l-.812.234a.656.656 0 1 1-.366-1.26l.81-.235a9.648 9.648 0 0 1-.207-1.528 8.526 8.526 0 0 1-.011-.281l-.854-.015a.656.656 0 0 1-.644-.657 9.75 9.75 0 0 0-7.287 6.918.75.75 0 0 1 .703.734l.02 1.145c.075.003.149.005.223.01a9.648 9.648 0 0 1 1.527.207l.235-.81a.656.656 0 0 1 1.26.366l-.234.811a9.622 9.622 0 0 1 1.687.815l.485-.69a.656.656 0 1 1 1.072.757l-.487.69a9.642 9.642 0 0 1 1.408 1.407l.69-.488a.657.657 0 0 1 .758 1.073l-.692.49c.325.535.598 1.1.814 1.689l.815-.237a.656.656 0 1 1 .366 1.26l-.814.235c.13.59.204 1.19.22 1.794l.857.016a.75.75 0 0 1 .733.819 9.75 9.75 0 0 0 7.19-7.08.656.656 0 0 1-.602-.642Z"></path>
  <path d="M14.133 2.631a.656.656 0 0 1-.656.647h-.011l-.788-.014c.002.061.004.123.008.184.023.415.077.827.161 1.233l.764-.222a.656.656 0 0 1 .366 1.256l-.763.222c.17.45.38.884.625 1.298l.649-.458a.657.657 0 0 1 .757 1.072l-.65.459a8.26 8.26 0 0 0 1.093 1.091l.459-.648a.658.658 0 1 1 1.072.761l-.457.647c.413.245.847.454 1.297.625l.223-.763a.657.657 0 0 1 1.26.366l-.221.762c.477.1.963.157 1.45.171l-.007-.422a.656.656 0 0 1 .645-.667h.011c.041 0 .082.004.122.012a9.75 9.75 0 0 0-7.407-7.665c-.002.019-.001.036-.002.053Z"></path>
  <path d="M9.77 21.445a.75.75 0 0 1 .763-.736l.786.014a8.36 8.36 0 0 0-.17-1.404l-.762.22a.655.655 0 0 1-.836-.702.656.656 0 0 1 .47-.558l.76-.22a8.422 8.422 0 0 0-.625-1.298l-.647.458a.657.657 0 0 1-.758-1.072l.649-.459a8.202 8.202 0 0 0-1.092-1.093l-.459.65a.657.657 0 0 1-1.072-.758l.459-.649a8.312 8.312 0 0 0-1.298-.624l-.22.762a.656.656 0 0 1-1.261-.366l.222-.763a8.312 8.312 0 0 0-1.234-.162l-.125-.005.007.496a.75.75 0 0 1-.736.763h-.014a.747.747 0 0 1-.184-.024 9.75 9.75 0 0 0 7.39 7.682.736.736 0 0 1-.013-.152Z"></path>
</svg>