<svg fill="currentColor" viewBox="0 0 24 24" xmlns="http://www.w3.org/2000/svg">
  <path d="m12 10.94 1.615-1.616a9.707 9.707 0 0 1-2.324-7.043 9.707 9.707 0 0 0-5.635 2.313L12 10.939Z"></path>
  <path d="m14.68 8.262 3.664-3.667a9.707 9.707 0 0 0-5.546-2.306 8.215 8.215 0 0 0 1.882 5.973Z"></path>
  <path d="M15.738 9.321a8.215 8.215 0 0 0 5.974 1.883 9.706 9.706 0 0 0-2.307-5.548l-3.667 3.665Z"></path>
  <path d="M8.26 14.679a8.214 8.214 0 0 0-5.973-1.883 9.707 9.707 0 0 0 2.306 5.548l3.667-3.665Z"></path>
  <path d="m12 13.063-1.615 1.614a9.707 9.707 0 0 1 2.324 7.043 9.706 9.706 0 0 0 5.634-2.312L12 13.062Z"></path>
  <path d="M21.015 12.732a9.707 9.707 0 0 1-6.34-2.35l-1.615 1.616 6.346 6.343a9.707 9.707 0 0 0 2.315-5.634c-.235.016-.47.025-.706.025Z"></path>
  <path d="M10.94 12 4.594 5.656a9.706 9.706 0 0 0-2.315 5.635 9.707 9.707 0 0 1 7.043 2.324L10.94 12Z"></path>
  <path d="M5.656 19.41a9.707 9.707 0 0 0 5.547 2.305 8.214 8.214 0 0 0-1.883-5.973L5.656 19.41Z"></path>
</svg>