<svg fill="currentColor" viewBox="0 0 24 24" xmlns="http://www.w3.org/2000/svg">
  <path d="M2.25 15.108V8.892A1.394 1.394 0 0 1 3.642 7.5h6.443L11.228 6H3.642A2.895 2.895 0 0 0 .75 8.892v6.216A2.895 2.895 0 0 0 3.642 18h4.54c-.015-.114-.01-.23.012-.343l.007-.035.01-.035.305-1.087H3.642a1.394 1.394 0 0 1-1.392-1.392Z"></path>
  <path d="M18.108 6h-4.624c.014.112.01.226-.012.338l-.008.034-.01.034-.306 1.094h4.96A1.394 1.394 0 0 1 19.5 8.892v6.216a1.394 1.394 0 0 1-1.392 1.392h-6.53L10.434 18h7.674A2.896 2.896 0 0 0 21 15.108V8.892A2.896 2.896 0 0 0 18.108 6Z"></path>
  <path d="M7.624 13.789a1.143 1.143 0 0 1-1.01-.61 1.172 1.172 0 0 1 .066-1.21l.015-.022.015-.02 2.553-3.349H4.204a.938.938 0 0 0-.937.938v4.968a.937.937 0 0 0 .937.938h4.614l.458-1.634H7.624Z"></path>
  <path d="m12.94 13.165 1.27-1.663a.243.243 0 0 0-.056-.326.188.188 0 0 0-.113-.035h-2.889l.569-2.025.151-.54.291-1.038.024-.087.365-1.3a.159.159 0 0 0 .003-.027v-.007c0-.002 0-.012-.003-.018-.002-.006 0-.004 0-.006a.106.106 0 0 0-.02-.04l-.004-.005a.134.134 0 0 0-.012-.01l-.005-.004a.094.094 0 0 0-.037-.018h-.048a.088.088 0 0 0-.02.007l-.007.003-.014.01-.005.005a.111.111 0 0 0-.017.02l-.843 1.107-.616.807-.462.601-2.987 3.917a.263.263 0 0 0-.037.088.22.22 0 0 0-.003.06.228.228 0 0 0 .093.175l.026.014c.027.014.058.02.088.02h2.889l-1.398 4.99v.033a.11.11 0 0 0 .003.018v.007a.103.103 0 0 0 .008.02.16.16 0 0 0 .012.018l.004.005.012.011a.107.107 0 0 0 .042.021H9.2a.1.1 0 0 0 .016 0h.006a.115.115 0 0 0 .02-.002.108.108 0 0 0 .02-.008l.006-.003.014-.01.005-.004a.112.112 0 0 0 .017-.02l1.093-1.427.822-1.078 1.721-2.255Z"></path>
  <path d="m14.977 12.044-.022.028-2.556 3.35h5.147a.938.938 0 0 0 .937-.938V9.516a.938.938 0 0 0-.937-.938h-4.7l-.456 1.628h1.651a1.142 1.142 0 0 1 1.006.599A1.183 1.183 0 0 1 15 12.014l-.023.03Z"></path>
  <path d="M22.5 9.5a.75.75 0 0 0-.75.75v3.5a.75.75 0 1 0 1.5 0v-3.5a.75.75 0 0 0-.75-.75Z"></path>
</svg>