<svg fill="currentColor" viewBox="0 0 24 24" xmlns="http://www.w3.org/2000/svg">
  <path d="M20.813 1.5H6c-.908 0-2.152.203-3.005 1.161-.55.616-.745 1.354-.745 1.839a.75.75 0 0 0 .647.743c1.401.194 1.603.278 1.603 1.132V18.75a3.753 3.753 0 0 0 3.75 3.75h9A3.755 3.755 0 0 0 21 18.75V4.5c0-.588.35-1.277.469-1.47l.004-.007c.01-.016.024-.033.037-.051.094-.13.239-.328.239-.607.001-.5-.426-.865-.936-.865ZM3.942 3.894c.245-.415.804-.89 2.076-.89H19.82c-.165.412-.32.946-.32 1.496v3H6V6.375c0-1.75-1-2.257-2.057-2.48Z"></path>
</svg>