<svg fill="currentColor" viewBox="0 0 24 24" xmlns="http://www.w3.org/2000/svg">
  <path d="M18.375 9.75H17.25v-.269A2.996 2.996 0 0 0 15.077 4.5a5.204 5.204 0 0 0-2.967-3.354A5.091 5.091 0 0 0 10.125.75c-1.402 0-2.709.576-3.703 1.626A2.625 2.625 0 0 0 3.257 6.01a2.996 2.996 0 0 0 .493 4.836v9.779a2.628 2.628 0 0 0 2.625 2.625h8.25a2.628 2.628 0 0 0 2.625-2.625v-.375h1.125a3.379 3.379 0 0 0 3.375-3.375v-3.75a3.379 3.379 0 0 0-3.375-3.375ZM8.25 19.5a.75.75 0 0 1-1.5 0V12a.75.75 0 1 1 1.5 0v7.5Zm3 0a.75.75 0 0 1-1.5 0V12a.75.75 0 1 1 1.5 0v7.5Zm3 0a.75.75 0 0 1-1.5 0V12a.75.75 0 1 1 1.5 0v7.5ZM15 9c-.39 0-.963-.243-1.251-.53a.75.75 0 0 0-.53-.22h-5.72a.75.75 0 0 0-.702.494C6.477 9.619 5.69 9.75 5.25 9.75a1.5 1.5 0 0 1 0-3c.004 0 .427.016.769.272a.75.75 0 1 0 .9-1.2 2.985 2.985 0 0 0-1.67-.572c-.22 0-.44.025-.655.074a1.125 1.125 0 0 1 1.94-1.113c.084.117.158.24.22.37A.75.75 0 0 0 8.25 4.5c0-.317-.17-.711-.505-1.172-.021-.03-.046-.058-.068-.087.685-.642 1.54-.991 2.448-.991a3.603 3.603 0 0 1 2.589 1.087 3.759 3.759 0 0 1 1.002 3.32.75.75 0 0 0 1.473.28c.057-.3.088-.605.092-.91A1.5 1.5 0 0 1 15 9Zm5.25 7.875a1.875 1.875 0 0 1-1.875 1.875H17.25v-7.5h1.125a1.875 1.875 0 0 1 1.875 1.875v3.75Z"></path>
</svg>