<svg fill="currentColor" viewBox="0 0 24 24" xmlns="http://www.w3.org/2000/svg">
  <path d="M18.188 21a4.312 4.312 0 1 1 0-8.625 4.312 4.312 0 0 1 0 8.625Zm0-7.125a2.813 2.813 0 1 0 0 5.625 2.813 2.813 0 0 0 0-5.625Z"></path>
  <path d="M5.813 21a4.312 4.312 0 1 1 0-8.624 4.312 4.312 0 0 1 0 8.624Zm0-7.125a2.813 2.813 0 1 0 0 5.626 2.813 2.813 0 0 0 0-5.626Z"></path>
  <path d="M15 6a1.495 1.495 0 0 0 1.5-1.505A1.478 1.478 0 0 0 15.008 3a1.5 1.5 0 1 0-.01 3Z"></path>
  <path d="M17.229 9h-2.051a.188.188 0 0 1-.165-.097l-1.488-2.727a1.453 1.453 0 0 0-2.314-.363l-3.275 3.3c-.275.28-.431.657-.436 1.05 0 .815.59 1.106.867 1.27 1.336.77 2.277 1.333 2.793 1.645a.188.188 0 0 1 .09.16v3.24c0 .404.31.75.714.77a.75.75 0 0 0 .786-.748v-4.03a.75.75 0 0 0-.312-.61l-1.735-1.247a.189.189 0 0 1-.068-.213.188.188 0 0 1 .041-.068l1.969-2.1a.188.188 0 0 1 .3.038l1.024 1.845a.75.75 0 0 0 .656.386h2.625a.749.749 0 0 0 .75-.786.765.765 0 0 0-.771-.714Z"></path>
</svg>