<svg fill="currentColor" viewBox="0 0 24 24" xmlns="http://www.w3.org/2000/svg">
  <path d="M19.499 22.177a.32.32 0 0 0-.167-.281c-1.27-.682-2.427-1.726-2.936-2.25a.471.471 0 0 0-.596-.07c-2.36 1.519-5.232 1.52-7.591.002a.473.473 0 0 0-.601.073c-.505.528-1.65 1.56-2.927 2.238a.333.333 0 0 0-.182.268.315.315 0 0 0 .371.336c.978-.196 1.922-.642 2.822-1.117a.408.408 0 0 1 .375-.003 8.678 8.678 0 0 0 7.866 0 .414.414 0 0 1 .38.003c.895.468 1.838.918 2.812 1.115a.316.316 0 0 0 .375-.314h-.001Z"></path>
  <path d="M22.346 11.574c-.164-.393-.511-.698-.98-.86l-1.116-.445V6.375a3 3 0 0 0-3-3h-1.5V3a1.875 1.875 0 0 0-1.875-1.875h-3.75A1.875 1.875 0 0 0 8.25 3v.375h-1.5a3 3 0 0 0-3 3v3.898l-1.105.44c-.466.155-.827.469-.992.864-.114.276-.246.703-.06 1.24l.004.015 2.187 5.598a1.094 1.094 0 0 0 1.025.695c.023 0 .046 0 .071-.002 1.468-.094 2.625-.81 3.403-1.482 1.112.96 2.42 1.484 3.717 1.484 1.298 0 2.598-.525 3.71-1.486.777.673 1.936 1.39 3.403 1.484a1.095 1.095 0 0 0 1.096-.691l2.187-5.578c.153-.38.136-.833-.05-1.28ZM12.61 7.229l-.054-.02a1.853 1.853 0 0 0-1.112 0l-.028.01-5.909 2.354a.187.187 0 0 1-.257-.175V6.375a1.5 1.5 0 0 1 1.5-1.5h10.5a1.5 1.5 0 0 1 1.5 1.5v3.02a.187.187 0 0 1-.257.175L12.61 7.229Z"></path>
</svg>