<svg fill="currentColor" viewBox="0 0 24 24" xmlns="http://www.w3.org/2000/svg">
  <path d="M12 5.25A2.625 2.625 0 1 0 12 0a2.625 2.625 0 0 0 0 5.25Z"></path>
  <path d="M20.484 6.001H3.516a1.266 1.266 0 0 0-.895 2.16c.237.236.559.37.895.37H8.29c.324 0 .703.144.918.702.25.648.128 1.899-.027 2.868l-.202 1.145a.02.02 0 0 1-.006.016L7.352 22.48a1.284 1.284 0 0 0 1.538 1.475 1.268 1.268 0 0 0 .973-1.032l1.121-6.407s.36-1.522 1.016-1.522c.667 0 1.02 1.522 1.02 1.522l1.12 6.412a1.278 1.278 0 0 0 2.51.054c.035-.166.036-.337.003-.503l-1.622-9.218a.02.02 0 0 0 0-.009.022.022 0 0 0-.005-.007l-.203-1.146c-.155-.969-.278-2.22-.027-2.867.214-.557.605-.703.904-.703h4.784a1.266 1.266 0 0 0 .895-2.159 1.266 1.266 0 0 0-.895-.37v.001Z"></path>
</svg>