<svg fill="currentColor" viewBox="0 0 24 24" xmlns="http://www.w3.org/2000/svg">
  <path d="M12.815 17.27a.862.862 0 0 0-.87-.77.873.873 0 0 0-.853.66l-.853 4.141a1.673 1.673 0 0 0-.044.37c0 .934.782 1.582 1.75 1.582s1.75-.648 1.75-1.583c0-.15-.02-.298-.06-.443l-.82-3.956Z"></path>
  <path d="M19.268 19.121a1.998 1.998 0 0 0-.279-.204l-3.259-2.275c-.317-.199-.656-.194-.902.047a.634.634 0 0 0-.094.805l2.461 3.235c.056.078.12.152.188.22.426.476 1.372.502 1.892 0 .513-.514.507-1.425-.007-1.828Z"></path>
  <path d="M21.717 15.75h-3.3c-.214 0-.417.157-.417.382s.138.368.324.43l3.114.963c.453.103 1.062-.298 1.062-.8 0-.64-.356-.975-.783-.975Z"></path>
  <path d="M6.01 16.132c0-.232-.213-.382-.443-.382h-3.3c-.416 0-.767.45-.767.952 0 .503.592.926 1.045.823l3.161-.964c.206-.061.304-.198.304-.429Z"></path>
  <path d="m8.275 16.645-3.26 2.267a1.513 1.513 0 0 0-.281.203 1.234 1.234 0 0 0 0 1.808 1.379 1.379 0 0 0 2.079-.22l2.463-3.217a.614.614 0 0 0-.094-.797.703.703 0 0 0-.907-.044Z"></path>
  <path d="M13.756 11.362c.469-.254.912-.494 1.327-.757C17.073 9.343 18 7.839 18 5.87 18 2.84 15.372.977 12.899.76c-.304-.027-.703-.02-.933.182-.23.202-.276.589-.289.895-.064 1.576-1.33 2.766-2.672 4.025-1.312 1.233-2.668 2.507-2.94 4.266-.393 2.563 1.02 4.064 1.898 4.73a1.494 1.494 0 0 0 1.84-.02c.172-.137.312-.311.409-.51.699-1.424 2.145-2.208 3.544-2.967Z"></path>
  <path d="M6.554 7.338c.573-.74 1.266-1.392 1.94-2.023.933-.878 1.772-1.668 2.179-2.525-.574-.345-1.283-.532-2.18-.532-.834 0-.956.243-.956.893 0 .589-.306.963-.672 1.437C6.459 5.112 6 5.706 6 6.6c0 .48.06.88.197 1.236.11-.166.228-.332.357-.498Z"></path>
  <path d="M15.484 11.235c-.437.277-.89.523-1.371.783-1.355.735-2.635 1.429-3.229 2.638a2.95 2.95 0 0 1-.088.17.375.375 0 0 0 .183.53c.577.238 1.177.387 1.823.387a5.223 5.223 0 0 0 3.668-1.47A5.037 5.037 0 0 0 18 10.63a4.06 4.06 0 0 0-.063-.704.374.374 0 0 0-.647-.187c-.477.538-1.075 1.031-1.806 1.495Z"></path>
</svg>