<svg fill="currentColor" viewBox="0 0 24 24" xmlns="http://www.w3.org/2000/svg">
  <path d="M23.25 8.25a3.003 3.003 0 0 0-3-3H18V4.5a2.252 2.252 0 0 0-2.25-2.25h-7.5A2.252 2.252 0 0 0 6 4.5v.75H3.75a3.003 3.003 0 0 0-3 3v2.25h22.5V8.25Zm-6.75-3h-9V4.5a.75.75 0 0 1 .75-.75h7.5a.75.75 0 0 1 .75.75v.75Z"></path>
  <path d="M15.75 12.375a1.125 1.125 0 0 1-1.125 1.125h-5.25a1.125 1.125 0 0 1-1.125-1.125v-.188A.188.188 0 0 0 8.062 12H.75v6.75a3 3 0 0 0 3 3h16.5a3 3 0 0 0 3-3V12h-7.313a.188.188 0 0 0-.187.188v.187Z"></path>
</svg>