<svg fill="currentColor" viewBox="0 0 24 24" xmlns="http://www.w3.org/2000/svg">
  <path d="M13.5 21.75h-3a.75.75 0 1 0 0 1.5h3a.75.75 0 1 0 0-1.5Z"></path>
  <path d="M14.25 19.5h-4.5a.75.75 0 1 0 0 1.5h4.5a.75.75 0 1 0 0-1.5Z"></path>
  <path d="M17.317 2.939A7.457 7.457 0 0 0 12 .75a7.482 7.482 0 0 0-7.5 7.5c0 2.185.838 4.23 2.297 5.608L7 14.05c.845.79 2 1.87 2 2.825V18a.75.75 0 0 0 .75.75h1.125a.375.375 0 0 0 .375-.375v-5.493a.375.375 0 0 0-.24-.35 6.126 6.126 0 0 1-1.227-.673.751.751 0 0 1 .602-1.355.75.75 0 0 1 .27.137c.346.245 1.014.609 1.345.609.331 0 .999-.365 1.347-.61a.75.75 0 0 1 .87 1.22c-.382.27-.793.494-1.226.67a.376.376 0 0 0-.241.35v5.495a.375.375 0 0 0 .375.375h1.125A.75.75 0 0 0 15 18v-1.125c0-.932 1.142-2.012 1.976-2.802l.23-.218c1.5-1.433 2.294-3.373 2.294-5.605a7.46 7.46 0 0 0-2.183-5.311Z"></path>
</svg>