<svg fill="currentColor" viewBox="0 0 24 24" xmlns="http://www.w3.org/2000/svg">
  <path d="M20.25 8.25H15V3A2.25 2.25 0 0 0 12.75.75h-9A2.25 2.25 0 0 0 1.5 3v19.5a.75.75 0 0 0 .75.75h4.875a.375.375 0 0 0 .375-.375v-3.354c0-.404.31-.75.714-.77A.752.752 0 0 1 9 19.5v3.375a.375.375 0 0 0 .375.375H21.75a.75.75 0 0 0 .75-.75v-12a2.25 2.25 0 0 0-2.25-2.25ZM4.598 20.244a.75.75 0 1 1-.195-1.488.75.75 0 0 1 .195 1.488Zm0-3.75a.75.75 0 1 1-.195-1.488.75.75 0 0 1 .195 1.488Zm0-3.75a.75.75 0 1 1-.195-1.488.75.75 0 0 1 .195 1.488Zm0-3.75a.75.75 0 1 1-.195-1.487.75.75 0 0 1 .195 1.487Zm0-3.75a.75.75 0 1 1-.195-1.487.75.75 0 0 1 .195 1.487Zm3.75 11.25a.75.75 0 1 1-.195-1.488.75.75 0 0 1 .194 1.488Zm0-3.75a.75.75 0 1 1-.195-1.488.75.75 0 0 1 .194 1.488Zm0-3.75a.75.75 0 1 1-.195-1.487.75.75 0 0 1 .194 1.487Zm0-3.75a.75.75 0 1 1-.195-1.487.75.75 0 0 1 .194 1.487Zm3.75 15a.75.75 0 1 1-.195-1.488.75.75 0 0 1 .194 1.488Zm0-3.75a.75.75 0 1 1-.195-1.488.75.75 0 0 1 .194 1.488Zm0-3.75a.75.75 0 1 1-.195-1.488.75.75 0 0 1 .194 1.488Zm0-3.75a.75.75 0 1 1-.195-1.487.75.75 0 0 1 .194 1.487Zm0-3.75a.75.75 0 1 1-.195-1.487.75.75 0 0 1 .194 1.487Zm8.714 16.506H15v-12h5.25a.75.75 0 0 1 .75.75v11.063a.188.188 0 0 1-.188.187Z"></path>
  <path d="M18.75 18.75a.75.75 0 1 0 0 1.5.75.75 0 0 0 0-1.5Z"></path>
  <path d="M18.75 15a.75.75 0 1 0 0 1.5.75.75 0 0 0 0-1.5Z"></path>
  <path d="M18.75 11.25a.75.75 0 1 0 0 1.5.75.75 0 0 0 0-1.5Z"></path>
  <path d="M15.75 18.75a.75.75 0 1 0 0 1.5.75.75 0 0 0 0-1.5Z"></path>
  <path d="M15.75 15a.75.75 0 1 0 0 1.5.75.75 0 0 0 0-1.5Z"></path>
  <path d="M15.75 11.25a.75.75 0 1 0 0 1.5.75.75 0 0 0 0-1.5Z"></path>
</svg>