<svg fill="currentColor" viewBox="0 0 24 24" xmlns="http://www.w3.org/2000/svg">
  <path d="M19.5 3.75a2.252 2.252 0 0 0-2.25-2.25H6.75A2.252 2.252 0 0 0 4.5 3.75v16.5a2.252 2.252 0 0 0 2.25 2.25h10.5a2.252 2.252 0 0 0 2.25-2.25V3.75ZM7.875 20.25a1.125 1.125 0 1 1 0-2.25 1.125 1.125 0 0 1 0 2.25Zm0-3.75a1.125 1.125 0 1 1 0-2.25 1.125 1.125 0 0 1 0 2.25Zm0-3.75a1.125 1.125 0 1 1 0-2.25 1.125 1.125 0 0 1 0 2.25ZM12 20.25A1.125 1.125 0 1 1 12 18a1.125 1.125 0 0 1 0 2.25Zm0-3.75a1.125 1.125 0 1 1 0-2.25 1.125 1.125 0 0 1 0 2.25Zm0-3.75a1.125 1.125 0 1 1 0-2.25 1.125 1.125 0 0 1 0 2.25Zm5.25 6.375a1.125 1.125 0 1 1-2.25 0v-3.75a1.125 1.125 0 1 1 2.25 0v3.75Zm-1.125-6.375a1.125 1.125 0 1 1 0-2.25 1.125 1.125 0 0 1 0 2.25Zm.905-4.72a.75.75 0 0 1-.53.22h-9a.75.75 0 0 1-.75-.75v-3a.75.75 0 0 1 .75-.75h9a.75.75 0 0 1 .75.75v3a.75.75 0 0 1-.22.53Z"></path>
</svg>