<svg fill="currentColor" viewBox="0 0 24 24" xmlns="http://www.w3.org/2000/svg">
  <path d="M19.5 3h-.75v-.73c0-.404-.31-.75-.714-.77a.75.75 0 0 0-.786.749V3H6.75v-.73c0-.404-.31-.75-.714-.77a.75.75 0 0 0-.786.749V3H4.5a3 3 0 0 0-3 3v.562a.187.187 0 0 0 .188.188h20.625a.188.188 0 0 0 .187-.188V6a3 3 0 0 0-3-3Z"></path>
  <path d="M22.313 8.25H1.688a.187.187 0 0 0-.188.188V19.5a3 3 0 0 0 3 3h15a3 3 0 0 0 3-3V8.437a.188.188 0 0 0-.188-.187ZM11.23 18.802c-.57.45-1.347.698-2.189.698-1.306 0-2.272-.851-2.703-1.58a.75.75 0 1 1 1.292-.764c.05.087.523.844 1.411.844.781 0 1.693-.342 1.693-1.304 0-.293-.057-.7-.328-.979-.4-.41-1.066-.594-1.411-.594a.75.75 0 1 1 0-1.5c.227 0 .816-.122 1.185-.499a1.033 1.033 0 0 0 .308-.754c0-1.089-1.342-1.12-1.495-1.12-.813 0-1.116.497-1.128.518a.75.75 0 1 1-1.292-.762c.358-.61 1.182-1.256 2.42-1.256.77 0 1.489.224 2.022.63.627.477.973 1.184.973 1.99a2.532 2.532 0 0 1-.906 1.96 3.1 3.1 0 0 1 .394.339c.495.506.757 1.207.757 2.027a2.62 2.62 0 0 1-1.003 2.106Zm6.02-.24a.75.75 0 1 1-1.5 0v-6.548l-1.055.777a.751.751 0 0 1-.89-1.207l2.034-1.5a.75.75 0 0 1 .445-.146h.216a.75.75 0 0 1 .75.75v7.874Z"></path>
</svg>