<svg fill="currentColor" viewBox="0 0 24 24" xmlns="http://www.w3.org/2000/svg">
  <path d="M12 15.75a3 3 0 1 0 0-6 3 3 0 0 0 0 6Z"></path>
  <path d="M20.25 6.75h-2.766c-.14 0-.315-.09-.45-.234l-1.216-1.92a.727.727 0 0 0-.065-.086c-.42-.49-.987-.76-1.597-.76H9.844c-.61 0-1.177.27-1.597.76a.728.728 0 0 0-.065.087L6.967 6.518c-.104.114-.25.235-.404.235v-.375a.75.75 0 0 0-.75-.75H4.688a.75.75 0 0 0-.75.75v.375H3.75a2.252 2.252 0 0 0-2.25 2.25V18a2.252 2.252 0 0 0 2.25 2.25h16.5A2.252 2.252 0 0 0 22.5 18V9a2.252 2.252 0 0 0-2.25-2.25ZM12 17.25a4.5 4.5 0 1 1 0-9 4.5 4.5 0 0 1 0 9Z"></path>
</svg>