<svg fill="currentColor" viewBox="0 0 24 24" xmlns="http://www.w3.org/2000/svg">
  <path d="M23.17 12.948c-.17-1.894-.448-2.263-.553-2.402-.241-.32-.627-.53-1.036-.75a.169.169 0 0 1-.043-.266.747.747 0 0 0-.035-1.083.762.762 0 0 0-.519-.197h-.731a.798.798 0 0 0-.094.006.401.401 0 0 0-.066-.022c-.433-.915-1.026-2.169-2.255-2.78-1.823-.907-5.181-.954-5.837-.954-.657 0-4.015.047-5.835.952-1.23.612-1.822 1.865-2.255 2.78l-.004.008a.306.306 0 0 0-.063.016.798.798 0 0 0-.094-.006h-.733a.763.763 0 0 0-.766.692.747.747 0 0 0 .215.585.169.169 0 0 1-.043.266c-.409.221-.797.43-1.036.75-.105.14-.383.508-.552 2.402-.094 1.066-.108 2.17-.034 2.88.154 1.477.443 2.37.455 2.406a.75.75 0 0 0 .62.51v.009a.75.75 0 0 0 .75.75H5.25a.75.75 0 0 0 .75-.75c.404 0 .685-.072.982-.15a7.6 7.6 0 0 1 1.313-.23A42.02 42.02 0 0 1 12 18.188c.836 0 2.32.047 3.753.184.446.037.887.114 1.318.23.285.074.556.142.93.149a.75.75 0 0 0 .75.75h2.625a.75.75 0 0 0 .75-.75v-.006a.75.75 0 0 0 .62-.51c.013-.037.302-.93.456-2.406.074-.71.06-1.812-.034-2.88ZM5.265 8.874c.375-.797.804-1.699 1.568-2.079 1.103-.55 3.39-.797 5.167-.797 1.776 0 4.063.246 5.167.797.763.38 1.19 1.283 1.567 2.079l.047.102a.376.376 0 0 1-.349.535c-1.557-.042-4.839-.177-6.432-.177-1.594 0-4.875.138-6.435.18a.375.375 0 0 1-.35-.535c.017-.035.035-.07.05-.105Zm.56 3.733c-.807.097-1.618.145-2.43.143-.497 0-1.01-.14-1.105-.583-.065-.298-.058-.465-.023-.633.03-.143.076-.247.31-.284.61-.094.951.024 1.948.318.662.194 1.14.454 1.411.659.136.101.064.365-.112.38Zm10.377 3.843c-.617.07-1.851.045-4.188.045-2.337 0-3.57.026-4.188-.045-.636-.07-1.448-.672-.893-1.209.368-.353 1.229-.617 2.375-.766 1.146-.149 1.631-.225 2.701-.225s1.506.047 2.701.226c1.195.178 2.099.446 2.376.766.505.574-.248 1.134-.884 1.211v-.003Zm5.507-4.284c-.093.445-.609.583-1.104.583-.828 0-1.655-.047-2.477-.143-.143-.014-.21-.265-.065-.38.268-.21.75-.464 1.41-.659.998-.294 1.574-.411 2.068-.313.12.024.184.153.191.234a1.89 1.89 0 0 1-.023.679Z"></path>
</svg>