<svg fill="currentColor" viewBox="0 0 24 24" xmlns="http://www.w3.org/2000/svg">
  <path d="M21 18.75H3a.75.75 0 1 1 0-1.5h18a.75.75 0 1 1 0 1.5Z"></path>
  <path d="M19.5 21h-15a.75.75 0 1 1 0-1.5h15a.75.75 0 1 1 0 1.5Z"></path>
  <path d="M1.5 12.75H.75V15a1.5 1.5 0 0 0 1.5 1.5H4.5v-.75a3.003 3.003 0 0 0-3-3Z"></path>
  <path d="M22.5 11.25h.75v-3h-.75a4.505 4.505 0 0 1-4.5-4.5V3H6v.75a4.505 4.505 0 0 1-4.5 4.5H.75v3h.75a4.505 4.505 0 0 1 4.5 4.5v.75h12v-.75a4.505 4.505 0 0 1 4.5-4.5Zm-10.5 3a4.5 4.5 0 1 1 0-9 4.5 4.5 0 0 1 0 9Z"></path>
  <path d="M12 12.75a3 3 0 1 0 0-6 3 3 0 0 0 0 6Z"></path>
  <path d="M19.5 15.75v.75h2.25a1.5 1.5 0 0 0 1.5-1.5v-2.25h-.75a3.004 3.004 0 0 0-3 3Z"></path>
  <path d="M22.5 6.75h.75V4.5a1.5 1.5 0 0 0-1.5-1.5H19.5v.75a3.003 3.003 0 0 0 3 3Z"></path>
  <path d="M4.5 3.75V3H2.25a1.5 1.5 0 0 0-1.5 1.5v2.25h.75a3.003 3.003 0 0 0 3-3Z"></path>
</svg>