<svg fill="currentColor" viewBox="0 0 24 24" xmlns="http://www.w3.org/2000/svg">
  <path d="M22.125 20.25h-2.25a1.125 1.125 0 0 1-1.125-1.125V4.875a1.125 1.125 0 0 1 1.125-1.125h2.25a1.125 1.125 0 0 1 1.125 1.125v14.25a1.125 1.125 0 0 1-1.125 1.125Z"></path>
  <path d="M16.125 20.25h-2.25a1.125 1.125 0 0 1-1.125-1.125v-10.5A1.125 1.125 0 0 1 13.875 7.5h2.25a1.125 1.125 0 0 1 1.125 1.125v10.5a1.125 1.125 0 0 1-1.125 1.125Z"></path>
  <path d="M10.125 20.25h-2.25a1.125 1.125 0 0 1-1.125-1.125v-7.5A1.125 1.125 0 0 1 7.875 10.5h2.25a1.125 1.125 0 0 1 1.125 1.125v7.5a1.125 1.125 0 0 1-1.125 1.125Z"></path>
  <path d="M4.125 20.25h-2.25A1.125 1.125 0 0 1 .75 19.125v-4.5A1.125 1.125 0 0 1 1.875 13.5h2.25a1.125 1.125 0 0 1 1.125 1.125v4.5a1.125 1.125 0 0 1-1.125 1.125Z"></path>
</svg>