<svg fill="currentColor" viewBox="0 0 24 24" xmlns="http://www.w3.org/2000/svg">
  <path d="M2.834 18.242c0 .003 0 .01-.004.018l.004-.018Z"></path>
  <path d="M20.62 19.012a1.255 1.255 0 0 1-.45-.093l-2.661-.944-.02-.008a.482.482 0 0 0-.353-.005c-.064.025-.647.244-1.258.412-.332.09-1.485.387-2.411.387-2.366 0-4.579-.91-6.23-2.56a8.597 8.597 0 0 1-2.536-6.118c0-.592.064-1.183.19-1.762.413-1.904 1.504-3.636 3.073-4.875A9.13 9.13 0 0 1 13.607 1.5c2.448 0 4.728.938 6.422 2.633 1.602 1.607 2.48 3.719 2.472 5.948a8.336 8.336 0 0 1-1.42 4.647l-.01.013-.034.047-.023.032-.007.013a1.007 1.007 0 0 0-.051.098l.738 2.622a1.128 1.128 0 0 1-1.074 1.46Z"></path>
  <path d="M14.056 19.94a.739.739 0 0 0-.482-.38c-.27-.071-.587-.06-.828-.077a9.458 9.458 0 0 1-6.039-2.754 9.338 9.338 0 0 1-2.657-5.284c-.066-.457-.066-.57-.066-.57a.75.75 0 0 0-1.312-.496s-.37.402-.544.806a7.598 7.598 0 0 0 .516 7.034c.122.203.122.296.094.507L2.27 21.16a1.125 1.125 0 0 0 .375 1.074l.021.018c.202.16.452.248.709.248.145 0 .288-.029.422-.084l2.508-.968a.378.378 0 0 1 .268 0 8.665 8.665 0 0 0 2.99.563 8.251 8.251 0 0 0 3.511-.781c.256-.12.657-.25.891-.522a.704.704 0 0 0 .091-.768Z"></path>
</svg>