<svg fill="currentColor" viewBox="0 0 24 24" xmlns="http://www.w3.org/2000/svg">
  <path d="M18.656 3.836A10.66 10.66 0 0 0 11.992 1.5c-2.856 0-5.523 1.1-7.517 3.098C2.548 6.531 1.492 9.083 1.5 11.783c0 1.98.581 3.915 1.671 5.567l.01.012a2.656 2.656 0 0 0 .074.107l.01.019c.053.093.094.208.058.323l-.864 3.125A1.204 1.204 0 0 0 3.601 22.5a1.38 1.38 0 0 0 .49-.107l3.164-1.142.04-.016a.691.691 0 0 1 .523-.007c.076.03.766.294 1.493.497.605.169 1.863.422 2.849.422 2.796 0 5.407-1.083 7.351-3.05A10.332 10.332 0 0 0 22.5 11.79c0-.71-.075-1.417-.224-2.11-.485-2.279-1.77-4.354-3.62-5.843ZM7.5 13.5a1.5 1.5 0 1 1 0-3 1.5 1.5 0 0 1 0 3Zm4.5 0a1.5 1.5 0 1 1 0-3 1.5 1.5 0 0 1 0 3Zm4.5 0a1.5 1.5 0 1 1 0-3 1.5 1.5 0 0 1 0 3Z"></path>
</svg>