<svg fill="currentColor" viewBox="0 0 24 24" xmlns="http://www.w3.org/2000/svg">
  <path d="M3.601 22.5a1.204 1.204 0 0 1-1.142-1.564l.864-3.123c.036-.116-.005-.232-.058-.324l-.01-.019-.035-.049-.04-.057-.009-.013a10.11 10.11 0 0 1-1.67-5.568c-.01-2.7 1.047-5.25 2.974-7.185C6.469 2.6 9.136 1.5 11.992 1.5a10.66 10.66 0 0 1 6.664 2.336 10.278 10.278 0 0 1 3.62 5.845c.149.693.224 1.4.224 2.109a10.32 10.32 0 0 1-2.99 7.306c-1.944 1.97-4.555 3.05-7.35 3.05-.985 0-2.244-.251-2.85-.422-.727-.203-1.416-.468-1.492-.497a.71.71 0 0 0-.524.007l-.04.016-3.163 1.143a1.38 1.38 0 0 1-.49.107Z"></path>
</svg>