<svg fill="currentColor" viewBox="0 0 24 24" xmlns="http://www.w3.org/2000/svg">
  <path d="M17.625 20.25H5.437c-1.517 0-2.823-.402-3.777-1.161C.574 18.224 0 16.94 0 15.375c0-2.698 1.969-4.246 4.104-4.723a.75.75 0 0 0 .569-.58c.36-1.72 1.146-3.195 2.305-4.313A7.199 7.199 0 0 1 12 3.75c1.664 0 3.199.548 4.438 1.584A7.323 7.323 0 0 1 18.41 7.96a.75.75 0 0 0 .533.43c1.266.263 2.394.812 3.243 1.587C23.372 11.057 24 12.536 24 14.25c0 1.688-.674 3.229-1.898 4.34-1.179 1.07-2.769 1.66-4.477 1.66Z"></path>
</svg>