<svg fill="currentColor" viewBox="0 0 24 24" xmlns="http://www.w3.org/2000/svg">
  <path d="M18.563 20.25H6.374c-1.708 0-3.298-.59-4.477-1.66C.674 17.48 0 15.938 0 14.25c0-1.715.628-3.193 1.815-4.276.849-.775 1.98-1.324 3.243-1.588a.75.75 0 0 0 .533-.428 7.324 7.324 0 0 1 1.97-2.625C8.802 4.298 10.337 3.75 12 3.75a7.199 7.199 0 0 1 5.022 2.011c1.16 1.116 1.946 2.591 2.306 4.312a.75.75 0 0 0 .568.581C22.03 11.13 24 12.677 24 15.375c0 1.565-.574 2.85-1.66 3.714-.954.76-2.26 1.161-3.777 1.161Z"></path>
</svg>