<svg fill="currentColor" viewBox="0 0 24 24" xmlns="http://www.w3.org/2000/svg">
  <path d="M21 21.752a.746.746 0 0 1-.53-.22l-18-18a.75.75 0 0 1 1.06-1.06l18 18a.75.75 0 0 1-.53 1.28Z"></path>
  <path d="M1.815 9.22C.628 10.303 0 11.782 0 13.496c0 1.688.674 3.23 1.898 4.34 1.179 1.071 2.769 1.66 4.477 1.66h9.037a.375.375 0 0 0 .266-.64L4.728 7.907a.375.375 0 0 0-.374-.094c-.979.3-1.85.78-2.539 1.407Z"></path>
  <path d="M22.341 18.339c1.086-.865 1.66-2.149 1.66-3.714 0-2.698-1.969-4.246-4.104-4.723a.75.75 0 0 1-.569-.58c-.36-1.72-1.146-3.195-2.305-4.313A7.199 7.199 0 0 0 12.001 3c-1.459 0-2.818.422-3.967 1.224a.375.375 0 0 0-.053.574L21.642 18.46a.375.375 0 0 0 .478.044 3.61 3.61 0 0 0 .221-.164Z"></path>
</svg>