<svg fill="currentColor" viewBox="0 0 24 24" xmlns="http://www.w3.org/2000/svg">
  <path d="M19.896 10.652a.75.75 0 0 1-.569-.58c-.36-1.72-1.146-3.195-2.305-4.313A7.199 7.199 0 0 0 12 3.75c-1.664 0-3.199.548-4.438 1.584A7.324 7.324 0 0 0 5.593 7.96a.75.75 0 0 1-.533.43c-1.265.263-2.394.812-3.243 1.587C.627 11.057 0 12.536 0 14.25c0 1.688.674 3.229 1.898 4.34 1.179 1.07 2.769 1.66 4.477 1.66h12.188c1.517 0 2.823-.402 3.777-1.161 1.086-.865 1.66-2.149 1.66-3.714 0-2.698-1.969-4.246-4.104-4.723Zm-4.463-.419-5.053 6a.75.75 0 0 1-.563.267h-.012a.75.75 0 0 1-.557-.247l-2.152-2.385a.764.764 0 0 1 .014-1.05.75.75 0 0 1 1.086.03l1.59 1.761 4.5-5.344a.75.75 0 1 1 1.147.967v.001Z"></path>
</svg>