<svg fill="currentColor" viewBox="0 0 24 24" xmlns="http://www.w3.org/2000/svg">
  <path d="M22.158 8.883c-.622-.395-1.399-.683-2.254-.84a.75.75 0 0 1-.591-.577c-.369-1.617-1.154-3.006-2.304-4.058C15.663 2.178 13.885 1.5 12 1.5c-1.657 0-3.188.52-4.424 1.5A7.037 7.037 0 0 0 5.61 5.476a.752.752 0 0 1-.548.42c-1.271.23-2.368.689-3.206 1.346C.642 8.195 0 9.542 0 11.137c0 3.16 2.622 5.363 6.375 5.363h4.875v-5.979c0-.404.31-.75.714-.77a.75.75 0 0 1 .786.749v6h5.813c3.405 0 5.437-1.605 5.437-4.294 0-1.408-.637-2.558-1.842-3.323Z"></path>
  <path d="m11.25 19.942-1.72-1.718a.75.75 0 0 0-1.06 1.062l3 2.995a.75.75 0 0 0 1.06 0l3-2.995a.75.75 0 0 0-1.06-1.062l-1.72 1.718V16.5h-1.5v3.442Z"></path>
</svg>