<svg fill="currentColor" viewBox="0 0 24 24" xmlns="http://www.w3.org/2000/svg">
  <path d="M22.203 9.846a6.22 6.22 0 0 0-2.314-1.037.755.755 0 0 1-.571-.572c-.366-1.63-1.153-3.026-2.31-4.085-1.345-1.232-3.123-1.91-5.008-1.91-1.657 0-3.188.52-4.424 1.503a7.035 7.035 0 0 0-1.971 2.484.75.75 0 0 1-.53.416c-1.254.253-2.386.79-3.25 1.552C.63 9.252 0 10.654 0 12.255c0 1.618.68 3.093 1.912 4.16 1.178 1.017 2.763 1.577 4.463 1.577h4.875v-7.189l-1.72 1.72a.75.75 0 0 1-1.085-.026.764.764 0 0 1 .04-1.05l2.985-2.985a.75.75 0 0 1 1.06 0l2.986 2.984c.294.295.31.778.018 1.074a.75.75 0 0 1-1.063.003l-1.721-1.72v7.19h5.813c1.469 0 2.808-.413 3.77-1.162C23.424 15.983 24 14.77 24 13.323c0-1.403-.622-2.606-1.797-3.477Z"></path>
  <path d="M11.25 21.012a.75.75 0 1 0 1.5 0v-3.02h-1.5v3.02Z"></path>
</svg>