<svg fill="currentColor" viewBox="0 0 24 24" xmlns="http://www.w3.org/2000/svg">
  <path d="M15.938 22.5H4.967c-1.382 0-2.574-.367-3.446-1.061C.526 20.646 0 19.469 0 18.038c0-1.38.567-2.543 1.64-3.363.568-.434 1.276-.758 2.032-.94a.75.75 0 0 0 .553-.572c.335-1.526 1.043-2.836 2.078-3.832a6.554 6.554 0 0 1 4.572-1.83c1.515 0 2.913.498 4.043 1.442a6.666 6.666 0 0 1 1.764 2.322.754.754 0 0 0 .522.422c1.125.245 2.129.74 2.888 1.433 1.085.99 1.658 2.34 1.658 3.905 0 1.54-.616 2.947-1.734 3.962-1.073.976-2.522 1.513-4.078 1.513Z"></path>
  <path d="M23.93 9.835a.765.765 0 0 0-.063-.74.75.75 0 0 0-.917-.262c-.502.218-1.148.336-1.871.341-2.593.02-4.753-2.11-4.753-4.702 0-.738.117-1.398.337-1.91a.765.765 0 0 0-.087-.766.75.75 0 0 0-.895-.234c-1.81.788-3.102 2.414-3.528 4.338a.186.186 0 0 0 .08.196.187.187 0 0 0 .07.028 7.619 7.619 0 0 1 3.576 1.668 8.09 8.09 0 0 1 1.859 2.243.766.766 0 0 0 .447.358c1.12.336 2.114.886 2.918 1.62.138.126.27.258.397.394a.188.188 0 0 0 .242.027 6.053 6.053 0 0 0 2.189-2.599Z"></path>
</svg>