<svg fill="currentColor" viewBox="0 0 24 24" xmlns="http://www.w3.org/2000/svg">
  <path d="M7.5 18.234a.98.98 0 0 1-.648-.244l-6-5.25a.985.985 0 0 1 0-1.48l6-5.25a.984.984 0 1 1 1.296 1.48L2.994 12l5.154 4.509a.984.984 0 0 1-.649 1.725Z"></path>
  <path d="M16.5 18.234a.984.984 0 0 1-.648-1.725l5.154-4.51-5.153-4.508a.984.984 0 1 1 1.296-1.482l6 5.25a.985.985 0 0 1 0 1.482l-6 5.25a.979.979 0 0 1-.648.243Z"></path>
  <path d="M9.75 20.481a.985.985 0 0 1-.943-1.266l4.5-15a.984.984 0 1 1 1.885.563l-4.5 15a.984.984 0 0 1-.942.703Z"></path>
</svg>