<svg fill="currentColor" viewBox="0 0 24 24" xmlns="http://www.w3.org/2000/svg">
  <path d="M4.5 9.75H2.25A.752.752 0 0 1 1.5 9c0-.412.337-.75.75-.75H4.5c.412 0 .75.338.75.75s-.338.75-.75.75Z"></path>
  <path d="M5.817 6.571a.753.753 0 0 1-.53-.22L3.698 4.76a.753.753 0 0 1 0-1.059.753.753 0 0 1 1.06 0l1.589 1.59a.744.744 0 0 1 0 1.059.745.745 0 0 1-.53.22Z"></path>
  <path d="M9 5.25a.752.752 0 0 1-.75-.75V2.25c0-.413.338-.75.75-.75s.75.337.75.75V4.5c0 .412-.338.75-.75.75Z"></path>
  <path d="M12.184 6.571a.752.752 0 0 1-.75-.75c0-.197.08-.389.22-.53l1.589-1.589a.753.753 0 0 1 1.06 0c.29.291.29.77 0 1.06l-1.59 1.589a.753.753 0 0 1-.53.22Z"></path>
  <path d="M4.229 14.524a.752.752 0 0 1-.75-.75c0-.197.08-.389.22-.53l1.589-1.588a.752.752 0 0 1 1.06 0c.29.29.29.768 0 1.059l-1.59 1.589a.753.753 0 0 1-.53.22Z"></path>
  <path d="M10.979 7.831a2.232 2.232 0 0 0-3.15-.033 2.232 2.232 0 0 0-.033 3.15l.033.033 1.852 1.851a.376.376 0 0 0 .53 0l2.62-2.62a.376.376 0 0 0 0-.53l-1.852-1.851Z"></path>
  <path d="m21.422 18.268-7.003-7.003a.376.376 0 0 0-.53 0l-2.62 2.62a.376.376 0 0 0 0 .53l7.003 7.003a2.232 2.232 0 0 0 3.15.033c.877-.862.89-2.273.033-3.15-.01-.01-.019-.023-.033-.033Z"></path>
</svg>