<svg fill="currentColor" viewBox="0 0 24 24" xmlns="http://www.w3.org/2000/svg">
  <path d="M19.5 22.498c-1.654 0-3-1.365-3-3.042 0-1.56 1.344-3.065 2.066-3.873.088-.099.164-.184.22-.25a.935.935 0 0 1 1.432 0c.053.062.123.142.204.232.727.81 2.078 2.32 2.078 3.893 0 1.675-1.346 3.04-3 3.04Z"></path>
  <path d="M18.667 12.967 7.823 2.213a2.442 2.442 0 0 0-3.45 0l-.211.212a2.494 2.494 0 0 0-.745 1.75 2.422 2.422 0 0 0 .715 1.731l1.946 1.946-3.968 3.96a2.086 2.086 0 0 0-.61 1.5 2.007 2.007 0 0 0 .633 1.446l6.152 5.906a2.062 2.062 0 0 0 2.863-.008l5.818-5.638a.732.732 0 0 1 .385-.201c.185-.03.372-.043.56-.04h.014a1.057 1.057 0 0 0 .742-1.81ZM7.14 6.79 5.192 4.844a.937.937 0 0 1 0-1.329l.242-.241a.94.94 0 0 1 1.33 0L8.72 5.213 7.139 6.79Z"></path>
</svg>