<svg fill="currentColor" viewBox="0 0 24 24" xmlns="http://www.w3.org/2000/svg">
  <path d="M11.893 9.494a.187.187 0 0 0 .214 0 7.12 7.12 0 0 1 6.02-.957.188.188 0 0 0 .242-.188 6.383 6.383 0 0 0-6.37-6.099 6.383 6.383 0 0 0-6.368 6.1.188.188 0 0 0 .241.188 7.12 7.12 0 0 1 6.021.957v-.001Z"></path>
  <path d="M19 9.967a7.149 7.149 0 0 1-3.895 5.073.188.188 0 0 0-.107.174l.002.165a7.104 7.104 0 0 1-2.21 5.153.19.19 0 0 0-.058.155.187.187 0 0 0 .088.14 6.34 6.34 0 0 0 3.305.926c3.379 0 6.286-2.825 6.375-6.203a6.377 6.377 0 0 0-3.223-5.713.187.187 0 0 0-.278.13Z"></path>
  <path d="M18.308 9.547a.188.188 0 0 0-.126-.206 6.368 6.368 0 0 0-5.362.585.187.187 0 0 0-.03.295 7.121 7.121 0 0 1 2.084 3.816.187.187 0 0 0 .279.127 6.388 6.388 0 0 0 3.155-4.617Z"></path>
  <path d="M9 15.377c0-.055 0-.11.002-.165a.187.187 0 0 0-.107-.173 7.15 7.15 0 0 1-3.894-5.073.188.188 0 0 0-.276-.13 6.378 6.378 0 0 0-3.223 5.713c.092 3.378 2.998 6.203 6.375 6.203a6.34 6.34 0 0 0 3.303-.925.187.187 0 0 0 .03-.296A7.105 7.105 0 0 1 9 15.377Z"></path>
  <path d="M7.875 9c-.7 0-1.395.115-2.057.34a.188.188 0 0 0-.126.207 6.389 6.389 0 0 0 3.155 4.617.188.188 0 0 0 .279-.127 7.121 7.121 0 0 1 2.084-3.816.188.188 0 0 0-.03-.295A6.337 6.337 0 0 0 7.875 9Z"></path>
  <path d="M12 15.748a7.102 7.102 0 0 1-2.003-.287.188.188 0 0 0-.241.188 6.36 6.36 0 0 0 2.118 4.472.188.188 0 0 0 .252 0 6.359 6.359 0 0 0 2.118-4.472.187.187 0 0 0-.242-.188c-.65.19-1.324.287-2.002.287Z"></path>
  <path d="M14.182 14.45a6.372 6.372 0 0 0-2.056-3.824.19.19 0 0 0-.253 0 6.372 6.372 0 0 0-2.056 3.824.187.187 0 0 0 .126.207 6.378 6.378 0 0 0 4.114 0 .188.188 0 0 0 .125-.207Z"></path>
</svg>