<svg fill="currentColor" viewBox="0 0 24 24" xmlns="http://www.w3.org/2000/svg">
  <path d="m20.672 15.76-.003-.003c-.465-.43-1.068-.531-1.507-.606l-.033-.005c-.424-.07-.491-.117-.683-.29-.115-.101-.251-.264-.251-.465s.136-.365.25-.466l1.42-1.26c1.215-1.074 1.884-2.515 1.884-4.059 0-1.543-.668-2.985-1.884-4.06-1.683-1.48-3.985-2.296-6.486-2.296-2.892 0-5.785 1.095-7.941 3.005C3.38 7.072 2.25 9.507 2.25 12.11c0 2.603 1.132 5.038 3.188 6.855a10.791 10.791 0 0 0 3.586 2.082c1.31.459 2.685.697 4.072.703h.085c2.86 0 5.583-.964 7.472-2.644.454-.401.71-.976.719-1.62.01-.664-.252-1.31-.7-1.727ZM5.25 9.75a1.5 1.5 0 1 1 3 0 1.5 1.5 0 0 1-3 0Zm1.875 6.328a1.5 1.5 0 1 1 0-2.999 1.5 1.5 0 0 1 0 3ZM9 6.75a1.5 1.5 0 1 1 3 0 1.5 1.5 0 0 1-3 0Zm3 12.703a2.25 2.25 0 1 1 0-4.499 2.25 2.25 0 0 1 0 4.5ZM15.375 8.25a1.5 1.5 0 1 1 0-3 1.5 1.5 0 0 1 0 3Z"></path>
</svg>