<svg fill="currentColor" viewBox="0 0 24 24" xmlns="http://www.w3.org/2000/svg">
  <path d="M23.605 5.915a.79.79 0 0 0-1.27-.213l-2.397 2.397a.523.523 0 0 1-.734 0L18.15 7.046a.524.524 0 0 1 0-.735l2.385-2.385a.789.789 0 0 0-.247-1.285c-1.861-.797-4.175-.349-5.625 1.092-1.256 1.247-1.632 3.188-1.031 5.33a.516.516 0 0 1-.148.52l-8.105 7.53a2.662 2.662 0 1 0 3.757 3.759l7.598-8.119a.516.516 0 0 1 .51-.148c2.11.562 4.032.187 5.27-1.032.713-.703 1.21-1.695 1.402-2.799.18-1.04.066-2.083-.311-2.859Z"></path>
  <path d="M20.5 17.737c-.653-.543-2.049-1.8-3.471-3.104l-3.097 3.31c1.323 1.406 2.521 2.711 3.046 3.322l.004.004a1.406 1.406 0 0 0 1.006.48h.051c.369-.001.722-.146.985-.404l.003-.003 1.567-1.565a1.38 1.38 0 0 0-.094-2.04Z"></path>
  <path d="M5.557 10.057a.96.96 0 0 0-.141-.504.13.13 0 0 1 .123-.198h.003c.039.004.25.035.548.216.222.134.854.566 1.956 1.666-.012.374.108.741.338 1.037l3.105-2.885a1.58 1.58 0 0 0-1.013-.432.126.126 0 0 1-.01-.012l-.03-.032-1.15-1.586a1.334 1.334 0 0 1-.188-1.224 1.66 1.66 0 0 1 .553-.767c.266-.206.868-.455 1.38-.498a2.48 2.48 0 0 1 .712.045c.112.027.222.06.33.1a.75.75 0 0 0 .868-1.145 4.308 4.308 0 0 0-.585-.66c-.381-.346-1.371-.928-2.671-.928-.744 0-1.481.143-2.17.422-1.8.724-2.976 1.715-3.517 2.24l-.004.004c-.364.36-.7.745-1.008 1.154a1.266 1.266 0 0 0-.22.552.344.344 0 0 1-.362.29h-.05a.968.968 0 0 0-.685.276L.29 8.534l-.015.015a.98.98 0 0 0-.012 1.346l.027.027 2.227 2.172a.984.984 0 0 0 1.37.004l1.381-1.35a.961.961 0 0 0 .29-.691Z"></path>
</svg>