<svg fill="currentColor" viewBox="0 0 24 24" xmlns="http://www.w3.org/2000/svg">
  <path d="M21.56 2.496a.754.754 0 0 0-1.09-.026l-.579.577a.375.375 0 0 0 0 .53l.532.53a.374.374 0 0 0 .531 0l.565-.562a.762.762 0 0 0 .04-1.049Z"></path>
  <path d="m18.72 4.217-8.463 8.447a.42.42 0 0 0-.108.184l-.391 1.166a.183.183 0 0 0 .227.228l1.165-.392a.422.422 0 0 0 .184-.108l8.447-8.463a.422.422 0 0 0 0-.593l-.466-.47a.422.422 0 0 0-.596 0Z"></path>
  <path d="m18.11 9.078-5.714 5.725c-.22.221-.492.385-.79.478l-1.215.407a1.684 1.684 0 0 1-2.078-2.078l.407-1.214c.092-.299.256-.57.477-.791l5.725-5.715a.375.375 0 0 0-.265-.64H4.875A2.625 2.625 0 0 0 2.25 7.875v11.25a2.625 2.625 0 0 0 2.625 2.625h11.25a2.625 2.625 0 0 0 2.625-2.625V9.343a.375.375 0 0 0-.64-.265Z"></path>
</svg>