<svg fill="currentColor" viewBox="0 0 24 24" xmlns="http://www.w3.org/2000/svg">
  <path d="M4.85 10.5c.763 0 1.503-.258 2.099-.734l1.945.792.32-.592c.057-.106.125-.206.202-.299l.667-.676-1.93-1.169A3.375 3.375 0 1 0 4.85 10.5Zm0-5.25a1.875 1.875 0 1 1 0 3.75 1.875 1.875 0 0 1 0-3.75Z"></path>
  <path d="m22.5 7.922-.258-.59c-.21-.488-.691-.75-1.537-.836-.474-.047-1.263-.058-2.33.178-.937.21-5.724 1.322-7.731 2.748-.95.675-1.128 1.579-1.269 2.305-.13.662-.234 1.186-.843 1.64-.703.522-1.279.768-1.574.872A3.363 3.363 0 1 0 8.12 16.02L22.5 7.922ZM11.976 12a.75.75 0 1 1 0-1.5.75.75 0 0 1 0 1.5Zm-7.125 6.75a1.874 1.874 0 1 1 0-3.749 1.874 1.874 0 0 1 0 3.75Z"></path>
  <path d="m16.115 12.18-3.925 2.258 1.295.613.17.082c.876.424 3.207 1.553 5.588 1.693.183.011.35.016.506.016.97-.001 1.485-.25 1.801-.438l.95-.656-6.385-3.568Z"></path>
</svg>