<svg fill="currentColor" viewBox="0 0 24 24" xmlns="http://www.w3.org/2000/svg">
  <path d="M5.705 1.5a.187.187 0 0 0-.175.26l.108.255 1.908 4.449a.188.188 0 0 0 .323.038l3.52-4.702a.187.187 0 0 0-.15-.3H5.706Z"></path>
  <path d="M19.684 2.723 17.75 7.24a.188.188 0 0 0 .084.239.187.187 0 0 0 .089.022h4.734a.188.188 0 0 0 .16-.286l-2.8-4.517a.188.188 0 0 0-.332.025Z"></path>
  <path d="M3.985 2.695 1.186 7.21a.188.188 0 0 0 .16.286H6.08a.188.188 0 0 0 .172-.261L4.313 2.72a.187.187 0 0 0-.328-.025Z"></path>
  <path d="M18.435 1.5h-5.88a.09.09 0 0 0-.074.146l3.746 4.99a.091.091 0 0 0 .128.018.091.091 0 0 0 .03-.037l1.972-4.601.159-.391a.09.09 0 0 0-.038-.113.09.09 0 0 0-.042-.012h-.001Z"></path>
  <path d="M11.203 21 7.01 9.118A.177.177 0 0 0 6.843 9H1.204a.174.174 0 0 0-.138.281L11.19 22.397a.238.238 0 0 0 .3.065.234.234 0 0 0 .111-.285l-.4-1.177Z"></path>
  <path d="M22.795 9h-5.639a.176.176 0 0 0-.166.118l-4.603 13.038a.245.245 0 0 0 .113.296.245.245 0 0 0 .31-.065L22.933 9.281A.175.175 0 0 0 22.795 9Z"></path>
  <path d="m12.15 3.7 2.626 3.5a.187.187 0 0 1-.15.3h-5.25a.187.187 0 0 1-.15-.3l2.625-3.5a.188.188 0 0 1 .3 0Zm-.327 14.546L8.649 9.25A.187.187 0 0 1 8.826 9h6.35a.188.188 0 0 1 .176.25l-3.174 8.996a.187.187 0 0 1-.354 0h-.001Z"></path>
</svg>