<svg fill="currentColor" viewBox="0 0 24 24" xmlns="http://www.w3.org/2000/svg">
  <path d="m20.665 6.066-7.158-4.16a3.006 3.006 0 0 0-3.016 0l-7.158 4.16a.187.187 0 0 0 0 .323l8.572 5.043a.188.188 0 0 0 .19 0l8.571-5.043a.188.188 0 0 0 0-.323ZM12 7.126c-.621 0-1.125-.335-1.125-.75 0-.414.504-.75 1.125-.75s1.125.336 1.125.75c0 .415-.504.75-1.125.75Z"></path>
  <path d="M11.156 12.697 2.531 7.666a.188.188 0 0 0-.281.162v8.152a2.25 2.25 0 0 0 1.118 1.94l7.6 4.558a.188.188 0 0 0 .282-.162v-9.457a.186.186 0 0 0-.094-.162ZM4.5 17.253c-.414 0-.75-.504-.75-1.125s.336-1.125.75-1.125.75.504.75 1.125c0 .62-.336 1.125-.75 1.125Zm4.5-1.5c-.414 0-.75-.504-.75-1.125s.336-1.125.75-1.125.75.504.75 1.125c0 .62-.336 1.125-.75 1.125Z"></path>
  <path d="m21.469 7.666-8.625 5.065a.187.187 0 0 0-.094.161v9.422a.187.187 0 0 0 .281.162l7.601-4.558a2.25 2.25 0 0 0 1.118-1.939v-8.15a.187.187 0 0 0-.281-.163ZM15 19.876c-.414 0-.75-.504-.75-1.125 0-.62.336-1.125.75-1.125s.75.504.75 1.125-.336 1.125-.75 1.125Zm0-4.125c-.414 0-.75-.504-.75-1.125 0-.62.336-1.125.75-1.125s.75.504.75 1.125-.336 1.125-.75 1.125Zm4.5 1.5c-.414 0-.75-.504-.75-1.125 0-.62.336-1.125.75-1.125s.75.504.75 1.125-.336 1.125-.75 1.125Zm0-4.125c-.414 0-.75-.504-.75-1.125 0-.62.336-1.125.75-1.125s.75.504.75 1.125-.336 1.125-.75 1.125Z"></path>
</svg>