<svg fill="currentColor" viewBox="0 0 24 24" xmlns="http://www.w3.org/2000/svg">
  <path d="M13.987 11.627a.188.188 0 0 0 .134-.319l-3.675-3.736a.187.187 0 0 0-.321.131v3.362a.562.562 0 0 0 .563.562h3.299Z"></path>
  <path d="M9.234 12.516a2.046 2.046 0 0 1-.609-1.454V6.75H5.25a3.009 3.009 0 0 0-3 3v10.5a3 3 0 0 0 3 3H12a3 3 0 0 0 3-3v-7.125h-4.313a2.044 2.044 0 0 1-1.453-.61Z"></path>
  <path d="M17.438 5.627h3.299a.188.188 0 0 0 .134-.319l-3.675-3.736a.187.187 0 0 0-.321.131v3.362a.563.563 0 0 0 .563.562Z"></path>
  <path d="M17.438 7.125a2.079 2.079 0 0 1-2.063-2.063V.75h-5.063A2.816 2.816 0 0 0 7.5 3.563V5.25h1.974a1.913 1.913 0 0 1 1.354.57l5.117 5.202c.357.362.556.851.555 1.36v6.368h2.486c1.524 0 2.764-1.262 2.764-2.813V7.126h-4.313Z"></path>
</svg>