<svg fill="currentColor" viewBox="0 0 24 24" xmlns="http://www.w3.org/2000/svg">
  <path d="M20.063 10.5H13.5a2.25 2.25 0 0 1-2.25-2.25V1.687a.188.188 0 0 0-.188-.187H6.75a3 3 0 0 0-3 3v15a3 3 0 0 0 3 3h10.5a3 3 0 0 0 3-3v-8.813a.188.188 0 0 0-.188-.187ZM15.75 18h-7.5a.75.75 0 1 1 0-1.5h7.5a.75.75 0 1 1 0 1.5Zm0-3.75h-7.5a.75.75 0 1 1 0-1.5h7.5a.75.75 0 1 1 0 1.5Z"></path>
  <path d="m19.65 8.839-6.74-6.741a.093.093 0 0 0-.16.066v6.085a.75.75 0 0 0 .75.75h6.085a.094.094 0 0 0 .066-.16Z"></path>
</svg>