<svg fill="currentColor" viewBox="0 0 24 24" xmlns="http://www.w3.org/2000/svg">
  <path d="M13.5 8.999h6.085a.094.094 0 0 0 .066-.16L12.91 2.098a.093.093 0 0 0-.16.066v6.085a.75.75 0 0 0 .75.75Z"></path>
  <path d="M12 12.75c-.413 0-.75.294-.75.656v.844h1.5v-.844c0-.362-.337-.656-.75-.656Z"></path>
  <path d="M20.063 10.5H13.5a2.25 2.25 0 0 1-2.25-2.25V1.687a.188.188 0 0 0-.188-.187H6.75a3 3 0 0 0-3 3v15a3 3 0 0 0 3 3h10.5a3 3 0 0 0 3-3v-8.813a.188.188 0 0 0-.188-.187ZM15.75 18a1.5 1.5 0 0 1-1.5 1.5h-4.5a1.5 1.5 0 0 1-1.5-1.5v-2.25a1.5 1.5 0 0 1 1.5-1.5v-.844c0-1.189 1.01-2.156 2.25-2.156s2.25.967 2.25 2.156v.844a1.5 1.5 0 0 1 1.5 1.5V18Z"></path>
</svg>