<svg fill="currentColor" viewBox="0 0 24 24" xmlns="http://www.w3.org/2000/svg">
  <path d="M21.563 11.25H15A2.25 2.25 0 0 1 12.75 9V2.437a.188.188 0 0 0-.188-.187h-2.496a3.066 3.066 0 0 0-.304-.46C9.222 1.12 8.418.75 7.5.75c-1.766 0-3 1.388-3 3.375v6.75c0 1.172.953 1.875 1.875 1.875a1.856 1.856 0 0 0 1.875-1.875V3.75a.75.75 0 0 0-1.5 0v7.125a.363.363 0 0 1-.375.375c-.105 0-.375-.068-.375-.375v-6.75c0-.907.394-1.875 1.5-1.875C8.892 2.25 9 3.663 9 4.096V10.6c0 .818-.256 1.558-.722 2.084-.473.535-1.131.816-1.903.816s-1.43-.281-1.903-.816c-.466-.526-.722-1.266-.722-2.084V6.75a.75.75 0 0 0-1.5 0v3.85c0 2.414 1.556 4.201 3.75 4.384v5.266a3 3 0 0 0 3 3h9.75a3 3 0 0 0 3-3v-8.813a.188.188 0 0 0-.188-.187Z"></path>
  <path d="M15 9.749h6.085a.094.094 0 0 0 .066-.16L14.41 2.848a.093.093 0 0 0-.16.066v6.085a.75.75 0 0 0 .75.75Z"></path>
</svg>