<svg fill="currentColor" viewBox="0 0 24 24" xmlns="http://www.w3.org/2000/svg">
  <path d="M19.125 5.25h-10.5A3.375 3.375 0 0 0 5.25 8.625v10.5A3.375 3.375 0 0 0 8.625 22.5h10.5a3.375 3.375 0 0 0 3.375-3.375v-10.5a3.375 3.375 0 0 0-3.375-3.375Zm-1.521 9.375h-2.979v2.979c0 .404-.31.75-.714.77a.752.752 0 0 1-.786-.749v-3h-2.979a.765.765 0 0 1-.77-.714.75.75 0 0 1 .749-.786h3v-2.979c0-.404.31-.75.714-.77a.75.75 0 0 1 .786.749v3h3a.75.75 0 0 1 .75.786.765.765 0 0 1-.771.714Z"></path>
  <path d="M18.557 3.75a3.381 3.381 0 0 0-3.182-2.25h-10.5A3.375 3.375 0 0 0 1.5 4.875v10.5a3.38 3.38 0 0 0 2.25 3.182V7.5A3.75 3.75 0 0 1 7.5 3.75h11.057Z"></path>
</svg>