<svg fill="currentColor" viewBox="0 0 24 24" xmlns="http://www.w3.org/2000/svg">
  <path d="M12 .75C7.453.75 3.75 4.453 3.75 9v9.683c0 1.2.47 2.354 1.313 3.21A4.43 4.43 0 0 0 8.25 23.25c1.728 0 3.15-.732 4.224-2.176.21-.281.448-.69.723-1.165.718-1.236 1.701-2.928 2.961-3.784 1.208-.821 2.214-1.854 2.906-2.987A7.798 7.798 0 0 0 20.25 9c0-4.547-3.7-8.25-8.25-8.25Zm4.5 8.625a.75.75 0 0 1-.75-.75c0-1.86-1.682-3.375-3.75-3.375S8.25 6.764 8.25 8.625v1.426c1.275-.368 2.738-.315 3.013-.301a2.25 2.25 0 0 1 1.81 3.558.872.872 0 0 1-.045.056c-.776.89-1.688 2.132-1.803 2.578a.75.75 0 0 1-1.45-.381c.258-.982 1.73-2.729 2.093-3.148a.75.75 0 0 0-.626-1.163H11.2c-.778-.042-2.15.037-2.95.39v2.61a.75.75 0 1 1-1.5 0V8.625C6.75 5.937 9.105 3.75 12 3.75s5.25 2.187 5.25 4.875a.75.75 0 0 1-.75.75Z"></path>
</svg>