<svg fill="currentColor" viewBox="0 0 24 24" xmlns="http://www.w3.org/2000/svg">
  <path d="M19.424 4.58a10.5 10.5 0 1 0-14.85 14.85 10.5 10.5 0 1 0 14.85-14.85ZM2.999 12.006c0-.796.106-1.59.314-2.358.345.74.844 1.38 1.184 2.14.44.977 1.619.706 2.14 1.562.462.76-.032 1.721.314 2.516.251.577.844.703 1.253 1.125.417.426.408 1.009.472 1.564a14.316 14.316 0 0 0 .353 1.949c-3.508-1.232-6.03-4.576-6.03-8.498Zm9 9a9.062 9.062 0 0 1-1.5-.125c.006-.127.008-.246.02-.328.114-.746.488-1.475.991-2.032.497-.55 1.179-.923 1.599-1.547.412-.61.535-1.43.365-2.142-.25-1.052-1.679-1.403-2.45-1.973-.442-.329-.837-.836-1.418-.877-.269-.019-.493.039-.759-.03-.244-.063-.435-.194-.695-.16-.485.064-.79.582-1.312.512-.495-.066-1.004-.645-1.117-1.116-.144-.606.335-.802.848-.856.215-.023.455-.047.66.032.272.1.4.365.643.5.456.25.548-.15.479-.555-.105-.607-.227-.854.314-1.271.375-.288.696-.496.636-1.013-.036-.304-.202-.441-.047-.744.118-.23.44-.438.65-.575.544-.354 2.328-.328 1.6-1.32-.215-.29-.61-.811-.985-.883-.469-.088-.677.435-1.004.666-.337.238-.994.51-1.332.14-.455-.496.301-.659.468-1.006.078-.161 0-.386-.13-.597.17-.072.341-.138.516-.199.11.081.24.13.375.141.313.02.61-.149.883.065.304.234.523.53.926.603.39.071.803-.156.9-.555.058-.243 0-.5-.057-.75a8.945 8.945 0 0 1 4.922 1.51c-.094-.036-.206-.032-.344.032-.285.132-.688.469-.721.803-.038.378.52.432.786.432.398 0 .802-.178.674-.639-.056-.2-.132-.407-.255-.533.295.205.576.426.844.663l-.012.013c-.27.281-.584.504-.769.846a.741.741 0 0 1-.54.418c-.146.034-.312.047-.434.144-.34.267-.146.91.176 1.102.406.243 1.009.129 1.315-.218.24-.272.381-.744.812-.744.19 0 .372.074.507.207.178.185.143.357.18.588.068.41.43.187.65-.02.16.286.304.58.432.88-.242.349-.434.728-1.016.322-.348-.243-.562-.596-1-.706-.381-.093-.773.004-1.15.07-.429.074-.938.107-1.263.432-.314.313-.48.732-.816 1.046-.647.61-.92 1.275-.501 2.136.403.829 1.246 1.278 2.156 1.22.894-.06 1.823-.579 1.797.72-.01.46.087.778.228 1.205.13.394.122.775.151 1.182.03.476.104.948.223 1.41a8.989 8.989 0 0 1-7.099 3.474Z"></path>
</svg>