<svg fill="currentColor" viewBox="0 0 24 24" xmlns="http://www.w3.org/2000/svg">
  <path d="M19.688 5.25H4.313a.563.563 0 0 0-.563.563v8.625c0 .31.252.562.563.562h15.375c.31 0 .562-.252.562-.563V5.813a.562.562 0 0 0-.563-.563Z"></path>
  <path d="M20.25 3h-7.5v-.75a.75.75 0 1 0-1.5 0V3h-7.5A2.252 2.252 0 0 0 1.5 5.25V15a2.252 2.252 0 0 0 2.25 2.25h2.006l-1.227 4.294a.75.75 0 1 0 1.442.412l1.345-4.706h3.934v2.25a.75.75 0 1 0 1.5 0v-2.25h3.934l1.345 4.706a.75.75 0 1 0 1.442-.412l-1.227-4.294h2.006A2.252 2.252 0 0 0 22.5 15V5.25A2.252 2.252 0 0 0 20.25 3ZM21 15a.75.75 0 0 1-.75.75H3.75A.75.75 0 0 1 3 15V5.25a.75.75 0 0 1 .75-.75h16.5a.75.75 0 0 1 .75.75V15Z"></path>
</svg>