<svg fill="currentColor" viewBox="0 0 24 24" xmlns="http://www.w3.org/2000/svg">
  <path d="M16.178 22.5h-3.334a.844.844 0 0 1-.844-.843v-1.3a1.468 1.468 0 0 0-.455-1.066c-.365-.356-.895-.554-1.448-.54-1.001.023-1.847.905-1.847 1.925v.98a.844.844 0 0 1-.844.845H4.107A2.608 2.608 0 0 1 1.5 19.892v-3.299a.844.844 0 0 1 .844-.844h1.299a1.66 1.66 0 0 0 1.176-.515 1.973 1.973 0 0 0 .572-1.403C5.377 12.84 4.559 12 3.605 12H2.344a.844.844 0 0 1-.844-.843v-3.3A2.607 2.607 0 0 1 4.107 5.25h2.59a.375.375 0 0 0 .375-.375v-.303A3.072 3.072 0 0 1 10.197 1.5c1.664.03 3.017 1.425 3.017 3.11v.265a.375.375 0 0 0 .375.375h2.59a2.572 2.572 0 0 1 2.571 2.572v2.59a.375.375 0 0 0 .375.374h.265c1.715 0 3.11 1.36 3.11 3.03 0 1.716-1.378 3.113-3.071 3.113h-.304a.375.375 0 0 0-.375.375v2.625a2.572 2.572 0 0 1-2.572 2.572Z"></path>
</svg>