<svg fill="currentColor" viewBox="0 0 24 24" xmlns="http://www.w3.org/2000/svg">
  <path d="M20.25 21.002a.746.746 0 0 1-.53-.22l-16.5-16.5a.75.75 0 0 1 1.06-1.06l16.5 16.5a.75.75 0 0 1-.53 1.28Z"></path>
  <path d="M11.624 14.806 9.197 12.38a.094.094 0 0 0-.149.023.094.094 0 0 0-.01.056 3.006 3.006 0 0 0 2.507 2.507.093.093 0 0 0 .097-.05.094.094 0 0 0-.018-.109Z"></path>
  <path d="m12.375 9.191 2.431 2.43a.094.094 0 0 0 .16-.079 3.006 3.006 0 0 0-2.51-2.51.094.094 0 0 0-.08.16Z"></path>
  <path d="M23.016 12.814a1.51 1.51 0 0 0-.005-1.63c-1.24-1.918-2.85-3.547-4.653-4.712C16.36 5.182 14.156 4.5 11.985 4.5a10.619 10.619 0 0 0-3.366.553.187.187 0 0 0-.074.31l2.215 2.215a.187.187 0 0 0 .179.049 4.5 4.5 0 0 1 5.437 5.438.187.187 0 0 0 .05.178l3.185 3.188a.188.188 0 0 0 .253.01 16.117 16.117 0 0 0 3.152-3.627Z"></path>
  <path d="M12 16.5a4.5 4.5 0 0 1-4.373-5.562.188.188 0 0 0-.05-.178L4.444 7.625a.188.188 0 0 0-.253-.01c-1.144.975-2.204 2.162-3.172 3.549a1.496 1.496 0 0 0-.03 1.666c1.238 1.937 2.83 3.569 4.606 4.718 2.002 1.295 4.151 1.951 6.39 1.951a11.165 11.165 0 0 0 3.405-.541.189.189 0 0 0 .125-.135.188.188 0 0 0-.05-.176l-2.225-2.225a.187.187 0 0 0-.178-.05A4.499 4.499 0 0 1 12 16.5Z"></path>
</svg>