<svg fill="currentColor" viewBox="0 0 24 24" xmlns="http://www.w3.org/2000/svg">
  <path d="M21.612 2.39a3.047 3.047 0 0 0-2.143-.89h-.036a2.898 2.898 0 0 0-2.079.902.589.589 0 0 0-.05.059l-2.531 3.27c-.264.333-.598.407-.787.217l-.089-.089a2.251 2.251 0 1 0-3.184 3.184l.465.465a.095.095 0 0 1 .027.066.094.094 0 0 1-.027.066l-8.426 8.425c-.22.219-.554.678-.93 2.138-.191.736-.306 1.39-.31 1.418a.75.75 0 0 0 .862.869c.027-.005.677-.114 1.412-.302 1.456-.372 1.924-.715 2.15-.938l8.426-8.427a.094.094 0 0 1 .132 0l.465.465a2.252 2.252 0 0 0 3.184-3.185l-.075-.072c-.234-.234-.118-.567.203-.803l3.27-2.529a.833.833 0 0 0 .068-.061 2.963 2.963 0 0 0 .662-3.268 2.994 2.994 0 0 0-.66-.98Zm-9.857 10.918c-.137.137-.758.371-1.096.033-.338-.338-.105-.957.032-1.094l1.547-1.547a.096.096 0 0 1 .066-.028.093.093 0 0 1 .067.028l.93.93a.094.094 0 0 1 0 .132l-1.546 1.546Z"></path>
</svg>