<svg fill="currentColor" viewBox="0 0 24 24" xmlns="http://www.w3.org/2000/svg">
  <path d="M22.479 4.5H18.21l.418-1.671 1.797-.612a.766.766 0 0 0 .499-.924.75.75 0 0 0-.963-.503l-2.203.75a.75.75 0 0 0-.486.528L16.665 4.5H10.52c-.404 0-.75.31-.77.714A.75.75 0 0 0 10.5 6h.129l.047.406a.39.39 0 0 0 .386.344c1.829 0 3.453.511 4.694 1.478a5.715 5.715 0 0 1 2.109 3.378c.02.093.075.175.154.228a3.375 3.375 0 0 1 1.237 4.052.371.371 0 0 0-.007.259 4.5 4.5 0 0 1 .25 1.48 4.346 4.346 0 0 1-1.002 2.81 3.755 3.755 0 0 1-1.35 1.016.375.375 0 0 0-.197.205c-.194.507-.47.98-.814 1.4a.116.116 0 0 0-.017.124.117.117 0 0 0 .106.068h2.307a2.26 2.26 0 0 0 2.243-2.069L22.378 6h.122a.75.75 0 0 0 .75-.786.765.765 0 0 0-.771-.714Z"></path>
  <path d="M5.095 15a1.117 1.117 0 0 1 .797.328l.727.727a.189.189 0 0 0 .204.04.189.189 0 0 0 .061-.04l.726-.727A1.12 1.12 0 0 1 8.407 15h9.214a.374.374 0 0 0 .379-.371v-.004a1.878 1.878 0 0 0-1.5-1.838c-.038-1.391-.61-2.556-1.665-3.375-.976-.76-2.28-1.162-3.773-1.162H7.688c-3.198 0-5.364 1.817-5.438 4.537a1.878 1.878 0 0 0-1.5 1.838.375.375 0 0 0 .375.375h3.97Z"></path>
  <path d="M8.716 16.5a.374.374 0 0 0-.265.11l-1.038 1.038a.938.938 0 0 1-1.326 0L5.05 16.61a.375.375 0 0 0-.265-.11H1.531a.747.747 0 0 0-.739.617 3.056 3.056 0 0 0-.042.508c0 1.434.99 2.602 2.215 2.625.114.709.39 1.35.805 1.85.613.741 1.505 1.15 2.511 1.15h6.188c1.006 0 1.898-.409 2.511-1.15.415-.502.69-1.142.805-1.85C17.009 20.226 18 19.058 18 17.623c0-.17-.014-.34-.042-.508a.747.747 0 0 0-.739-.616H8.716Z"></path>
</svg>