<svg fill="currentColor" viewBox="0 0 24 24" xmlns="http://www.w3.org/2000/svg">
  <path d="m22.484 12.595-1.5-7.116C20.694 3.927 19.58 3 18 3H6c-.787 0-1.453.22-1.973.653-.52.434-.862 1.046-1.012 1.823l-1.5 7.12a.78.78 0 0 0-.015.154V18a3 3 0 0 0 3 3h15a3 3 0 0 0 3-3v-5.25a.78.78 0 0 0-.016-.155Zm-18-6.815v-.013C4.65 4.903 5.131 4.5 5.998 4.5H18c.872 0 1.353.4 1.513 1.261l.003.019 1.262 5.994a.188.188 0 0 1-.183.226H15a.746.746 0 0 0-.75.742 2.25 2.25 0 1 1-4.5 0A.746.746 0 0 0 9 12H3.405a.189.189 0 0 1-.182-.143.187.187 0 0 1-.001-.083L4.484 5.78Z"></path>
</svg>