<svg fill="currentColor" viewBox="0 0 24 24" xmlns="http://www.w3.org/2000/svg">
  <path d="M21.75 16.5H15a.75.75 0 0 0-.75.75 2.25 2.25 0 0 1-4.5 0A.75.75 0 0 0 9 16.5H2.25a.75.75 0 0 0-.75.75v3a3.003 3.003 0 0 0 3 3h15a3.004 3.004 0 0 0 3-3v-3a.75.75 0 0 0-.75-.75Z"></path>
  <path d="m22.475 8.807-1.493-5.598C20.685 1.669 19.572.75 18 .75H6c-.787 0-1.453.22-1.973.653-.52.434-.855 1.034-1.008 1.803l-1.494 5.6A.745.745 0 0 0 1.5 9v2.25c0 1.654 1.346 3.75 3 3.75h15c1.654 0 3-2.096 3-3.75V9a.75.75 0 0 0-.025-.193Zm-1.823-.557H15a.746.746 0 0 0-.75.742 2.25 2.25 0 0 1-4.5 0A.746.746 0 0 0 9 8.25H3.348a.094.094 0 0 1-.09-.118l1.228-4.616C4.653 2.653 5.134 2.25 6 2.25h12c.871 0 1.352.4 1.512 1.259l1.23 4.623a.094.094 0 0 1-.09.118Z"></path>
</svg>