<svg fill="currentColor" viewBox="0 0 24 24" xmlns="http://www.w3.org/2000/svg">
  <path d="M2.966 9.473a.717.717 0 0 1-.57-.273.696.696 0 0 1-.05-.78c.904-1.509 3.653-5.03 9.653-5.03 2.6 0 4.881.684 6.775 2.03 1.56 1.105 2.433 2.355 2.85 2.958a.694.694 0 0 1-.188.974.728.728 0 0 1-.996-.187c-.753-1.084-3.05-4.38-8.44-4.38-5.262 0-7.641 3.033-8.416 4.334a.703.703 0 0 1-.618.354Z"></path>
  <path d="M15.022 23.253a.713.713 0 0 1-.178-.02c-4.352-1.079-5.977-5.43-6.043-5.61l-.01-.04c-.036-.126-.91-3.11.431-4.857.615-.797 1.55-1.206 2.784-1.206 1.147 0 1.975.357 2.544 1.095.469.603.656 1.347.838 2.063.38 1.491.656 2.275 2.24 2.355.695.035 1.152-.371 1.412-.718.7-.944.822-2.484.294-3.844C18.655 10.717 16.246 7.41 12 7.41c-1.813 0-3.479.583-4.815 1.678-1.106.907-1.982 2.187-2.404 3.504-.782 2.45.244 6.302.254 6.337a.695.695 0 0 1-.51.856.721.721 0 0 1-.878-.497c-.047-.176-1.143-4.284-.24-7.116.985-3.07 4.023-6.163 8.595-6.163 2.112 0 4.108.718 5.774 2.074 1.29 1.055 2.344 2.471 2.895 3.887.7 1.808.513 3.838-.478 5.163-.66.884-1.6 1.346-2.64 1.296-2.713-.136-3.2-2.029-3.556-3.41-.365-1.416-.6-2.1-1.995-2.1-.767 0-1.306.212-1.641.648-.457.598-.493 1.532-.442 2.21.033.472.113.94.239 1.396.111.282 1.564 3.844 5.043 4.706a.696.696 0 0 1 .516.85.72.72 0 0 1-.694.525Z"></path>
  <path d="M9.436 22.927a.725.725 0 0 1-.524-.221c-1.741-1.828-2.727-3.873-3.098-6.429v-.013c-.208-1.692.097-4.088 1.59-5.735 1.102-1.216 2.651-1.834 4.597-1.834 2.3 0 4.108 1.07 5.236 3.089.818 1.467.98 2.928.984 2.988a.706.706 0 0 1-.64.769.715.715 0 0 1-.787-.623 7.22 7.22 0 0 0-.837-2.498c-.874-1.542-2.203-2.325-3.962-2.325-1.518 0-2.707.457-3.524 1.359-1.179 1.3-1.406 3.305-1.245 4.63.325 2.26 1.194 4.059 2.728 5.666a.69.69 0 0 1-.036.989.723.723 0 0 1-.482.188Z"></path>
  <path d="M17.46 20.916c-1.523 0-2.818-.422-3.855-1.26-2.082-1.678-2.315-4.41-2.325-4.525a.715.715 0 1 1 1.427-.111c.005.04.213 2.275 1.818 3.562.95.759 2.22 1.06 3.783.884a.713.713 0 0 1 .793.618.7.7 0 0 1-.63.773c-.335.04-.673.06-1.01.06Z"></path>
  <path d="M18.665 2.287C18.071 1.9 15.963.75 12.001.75c-4.16 0-6.273 1.27-6.74 1.594a.544.544 0 0 0-.086.065.017.017 0 0 1-.01.005.697.697 0 0 0-.24.523.706.706 0 0 0 .718.696.73.73 0 0 0 .417-.131c.02-.015 1.838-1.35 5.942-1.35s5.932 1.33 5.952 1.34a.715.715 0 0 0 .431.14.706.706 0 0 0 .717-.697.698.698 0 0 0-.437-.648Z"></path>
</svg>