<svg fill="currentColor" viewBox="0 0 24 24" xmlns="http://www.w3.org/2000/svg">
  <path d="M24 12c0-.776-.669-2.193-2.137-3.47a9.707 9.707 0 0 0-2.826-1.693.148.148 0 0 0-.184.074.801.801 0 0 1-.022.04l-.45.745a8.589 8.589 0 0 0 .003 8.615l.011.018.41.75a.188.188 0 0 0 .231.085C22.483 15.816 24 13.194 24 12Zm-4.402-.007a.75.75 0 1 1-.195-1.487.75.75 0 0 1 .195 1.487Z"></path>
  <path d="M15.724 11.999c0-1.778.47-3.525 1.363-5.063l.006-.01.216-.359a.187.187 0 0 0-.121-.281 13.324 13.324 0 0 0-1.84-.253.372.372 0 0 1-.202-.075c-.903-.687-2.695-1.889-4.521-2.198a.75.75 0 0 0-.844.946l.498 1.742a.187.187 0 0 1-.113.227c-1.728.642-3.216 1.817-4.3 2.712a.375.375 0 0 1-.472.003 14.547 14.547 0 0 0-.455-.347C3.081 7.686.9 7.508.807 7.501a.75.75 0 0 0-.79.91c.02.09.431 1.907 1.487 3.356a.379.379 0 0 1 0 .448C.448 13.664.037 15.48.018 15.572a.75.75 0 0 0 .789.909c.093-.007 2.274-.188 4.13-1.541.152-.111.3-.224.444-.339a.375.375 0 0 1 .472.004c1.09.9 2.58 2.075 4.312 2.718a.187.187 0 0 1 .114.227l-.5 1.743a.75.75 0 0 0 .844.945c.804-.135 2.432-.602 4.502-2.195a.38.38 0 0 1 .204-.077c.618-.04 1.232-.123 1.839-.248a.188.188 0 0 0 .126-.274l-.212-.388a10.069 10.069 0 0 1-1.358-5.057Z"></path>
</svg>