<svg fill="currentColor" viewBox="0 0 24 24" xmlns="http://www.w3.org/2000/svg">
  <path d="M9.08 7.164a.75.75 0 0 1 1.39.12l1.706 5.69 1.406-2.81a.75.75 0 0 1 1.341 0l1.291 2.586h4.536a9.988 9.988 0 0 0 1-4.47C21.722 5.37 19.386 3 16.545 3 14.29 3 12.794 4.385 12 5.39 11.21 4.384 9.71 3 7.458 3 4.616 3 2.28 5.37 2.25 8.28a9.897 9.897 0 0 0 .418 2.97h4.368L9.08 7.164Z"></path>
  <path d="m15.078 13.832-.829-1.658-1.579 3.158a.75.75 0 0 1-1.392-.12L9.572 9.523l-1.406 2.81a.75.75 0 0 1-.667.414H3.25c.438.915 1.02 1.816 1.747 2.702.88 1.073 2.475 2.788 6.159 5.288a1.493 1.493 0 0 0 1.687 0c3.684-2.5 5.28-4.215 6.16-5.288.316-.385.613-.787.89-1.202h-4.144a.75.75 0 0 1-.67-.415Z"></path>
  <path d="M21.75 12.75h-1c-.25.52-.535 1.02-.855 1.5h1.856a.75.75 0 1 0 0-1.5Z"></path>
  <path d="M2.25 11.25a.75.75 0 1 0 0 1.5h1a10.559 10.559 0 0 1-.581-1.5H2.25Z"></path>
</svg>