<svg fill="currentColor" viewBox="0 0 24 24" xmlns="http://www.w3.org/2000/svg">
  <path d="M18.48 9.26a14.082 14.082 0 0 0-2.502-4.218C14.118 2.89 11.674 1.5 9.75 1.5a.75.75 0 0 0-.726.938c.65 2.484-.697 4.55-2.124 6.736C5.72 10.986 4.5 12.856 4.5 15c0 4.135 3.365 7.5 7.5 7.5s7.5-3.365 7.5-7.5c0-2.03-.343-3.96-1.02-5.74Zm-4.965 10.366c-.484.516-1.09.624-1.515.624-.424 0-1.031-.108-1.515-.624-.485-.516-.735-1.334-.735-2.376 0-1.178.413-2.076.813-2.943.232-.503.469-1.016.61-1.564a.375.375 0 0 1 .585-.211c.428.331.81.72 1.133 1.155.851 1.126 1.359 2.458 1.359 3.563 0 1.043-.254 1.864-.735 2.376Z"></path>
</svg>