<svg fill="currentColor" viewBox="0 0 24 24" xmlns="http://www.w3.org/2000/svg">
  <path d="M21.657 10.125c.438-.438.71-.895.806-1.357.126-.607-.06-1.198-.526-1.663l-5.041-5.04c-.663-.663-1.802-.937-3.02.279l-.094.093a.373.373 0 0 0 0 .531l7.249 7.25a.374.374 0 0 0 .532 0l.094-.093Z"></path>
  <path d="m11.725 7.177-.007.11c-.025.336-.323.897-.65 1.225l-8.852 8.85a2.353 2.353 0 0 0-.706 1.908c.06.634.373 1.263.88 1.77l.571.57c.591.591 1.302.891 1.992.891a2.36 2.36 0 0 0 1.687-.714l8.852-8.85c.332-.331.883-.623 1.227-.65.82-.062 2.042-.154 3.178-.734a.187.187 0 0 0 .047-.298l-7.208-7.208a.188.188 0 0 0-.3.047c-.568 1.078-.648 2.199-.71 3.083Zm-.466 6.883a.937.937 0 1 1-1.454-1.183.937.937 0 0 1 1.454 1.183Z"></path>
</svg>