<svg fill="currentColor" viewBox="0 0 24 24" xmlns="http://www.w3.org/2000/svg">
  <path d="M20.25 21.002a.746.746 0 0 1-.53-.22l-16.5-16.5a.75.75 0 0 1 1.06-1.06l16.5 16.5a.75.75 0 0 1-.53 1.28Z"></path>
  <path d="M20.227 9.564a.75.75 0 0 0-.727-.562h-5.1l1.322-7.236a.865.865 0 0 0-1.531-.686L9.85 6.445a.187.187 0 0 0 .014.251l7.078 7.078a.187.187 0 0 0 .278-.014l2.85-3.524a.767.767 0 0 0 .156-.672Z"></path>
  <path d="m14.136 17.305-7.078-7.078a.188.188 0 0 0-.278.014l-2.852 3.522a.767.767 0 0 0-.155.674.75.75 0 0 0 .727.562h5.1l-1.317 7.236v.005a.861.861 0 0 0 1.524.68l4.34-5.364a.187.187 0 0 0-.012-.251Z"></path>
</svg>