<svg fill="currentColor" viewBox="0 0 24 24" xmlns="http://www.w3.org/2000/svg">
  <path d="M12 14.25a2.25 2.25 0 1 0 0-4.5 2.25 2.25 0 0 0 0 4.5Z"></path>
  <path d="M22.309 14.244a3.163 3.163 0 0 0-2.078-5.416.244.244 0 0 1-.215-.15.244.244 0 0 1 .047-.258 3.18 3.18 0 0 0-2.344-5.313h-.012c-.788 0-1.548.296-2.128.829a.244.244 0 0 1-.41-.168 3.172 3.172 0 0 0-6.339 0 .244.244 0 0 1-.15.215.244.244 0 0 1-.26-.047 3.146 3.146 0 0 0-2.13-.83h-.009A3.183 3.183 0 0 0 3.937 8.42a.244.244 0 0 1-.167.409 3.174 3.174 0 0 0 0 6.339.245.245 0 0 1 .228.287.245.245 0 0 1-.06.123 3.166 3.166 0 0 0 2.347 5.297h.012a3.159 3.159 0 0 0 2.124-.813.244.244 0 0 1 .258-.047.244.244 0 0 1 .15.215 3.174 3.174 0 0 0 6.34 0 .246.246 0 0 1 .15-.215.244.244 0 0 1 .259.047 3.158 3.158 0 0 0 2.123.816h.011a3.162 3.162 0 0 0 2.348-5.297.245.245 0 0 1-.047-.258.245.245 0 0 1 .215-.151 3.155 3.155 0 0 0 2.081-.927Zm-10.31 1.504a3.75 3.75 0 1 1 .001-7.5 3.75 3.75 0 0 1 0 7.5Z"></path>
</svg>