<svg fill="currentColor" viewBox="0 0 24 24" xmlns="http://www.w3.org/2000/svg">
  <path d="M6.274 16.934c-1.06 0-1.922-.383-2.568-1.143-.647-.76-1.071-1.888-1.318-3.53-.364-2.42-.003-4.458 1.016-5.741.6-.756 1.388-1.193 2.277-1.263.762-.061 1.9.248 3 2.062.689 1.137 1.213 2.646 1.437 4.141.272 1.806.07 3.134-.618 4.062-.545.737-1.384 1.194-2.494 1.36a4.984 4.984 0 0 1-.732.052Z"></path>
  <path d="M8.11 23.247a3.25 3.25 0 0 1-1.812-.58 3.74 3.74 0 0 1-1.571-2.372c-.134-.687-.054-1.233.244-1.67.484-.71 1.354-.87 2.273-1.04l.296-.055c.211-.04.428-.094.638-.146.787-.194 1.6-.395 2.272.082.45.32.703.861.779 1.656.086.918-.11 1.833-.554 2.578-.478.802-1.194 1.332-2.016 1.494-.18.035-.365.053-.549.053Z"></path>
  <path d="M17.727 12.436a5 5 0 0 1-.73-.056c-1.11-.164-1.949-.621-2.495-1.36-.687-.927-.89-2.256-.617-4.061.224-1.497.746-3.005 1.432-4.137C16.41 1.014 17.55.7 18.317.756c.886.065 1.673.495 2.274 1.247 1.026 1.283 1.39 3.328 1.024 5.758-.247 1.64-.665 2.763-1.317 3.53-.652.767-1.51 1.145-2.57 1.145Z"></path>
  <path d="M15.891 18.747c-.183 0-.367-.018-.547-.053-.823-.161-1.54-.691-2.016-1.493-.444-.746-.64-1.661-.554-2.579.075-.796.328-1.336.779-1.656.671-.476 1.485-.276 2.272-.081.21.051.426.105.638.146l.295.054c.92.17 1.79.329 2.274 1.04.298.437.378.984.244 1.67a3.74 3.74 0 0 1-1.571 2.373c-.569.381-1.196.579-1.814.579Z"></path>
</svg>