<svg fill="currentColor" viewBox="0 0 24 24" xmlns="http://www.w3.org/2000/svg">
  <path d="M12 2.25c-5.376 0-9.75 4.374-9.75 9.75s4.374 9.75 9.75 9.75 9.75-4.374 9.75-9.75S17.376 2.25 12 2.25Zm6.703 14.25h-2.12a.374.374 0 0 1-.323-.188l-.757-1.297a.375.375 0 0 1-.04-.281l.696-2.809a.375.375 0 0 1 .218-.256l1.317-.557a.375.375 0 0 1 .391.06l1.952 1.68a.376.376 0 0 1 .126.34 8.192 8.192 0 0 1-1.138 3.126.376.376 0 0 1-.322.182ZM6.306 11.116l1.317.557a.374.374 0 0 1 .218.256l.696 2.809a.375.375 0 0 1-.04.28l-.757 1.294a.375.375 0 0 1-.323.188h-2.12a.376.376 0 0 1-.32-.179 8.192 8.192 0 0 1-1.138-3.125.375.375 0 0 1 .126-.34l1.952-1.68a.375.375 0 0 1 .389-.06Zm12.044-4.09-.847 2.409a.377.377 0 0 1-.206.221l-1.387.588a.376.376 0 0 1-.387-.059l-2.637-2.212a.376.376 0 0 1-.136-.285V6.112a.375.375 0 0 1 .167-.311l2.008-1.338a.375.375 0 0 1 .359-.032 8.292 8.292 0 0 1 2.997 2.224.375.375 0 0 1 .069.37ZM9.075 4.464l2.008 1.338a.375.375 0 0 1 .167.311v1.574a.374.374 0 0 1-.134.288l-2.637 2.212a.375.375 0 0 1-.387.058l-1.389-.589a.375.375 0 0 1-.208-.221l-.847-2.408a.375.375 0 0 1 .07-.37 8.293 8.293 0 0 1 3-2.226.375.375 0 0 1 .357.033Zm.811 15.35-.924-2.33a.375.375 0 0 1 .024-.328l.711-1.218a.375.375 0 0 1 .324-.188h3.958a.374.374 0 0 1 .324.188l.711 1.218a.376.376 0 0 1 .025.328l-.918 2.329a.375.375 0 0 1-.267.228 8.277 8.277 0 0 1-3.703 0 .374.374 0 0 1-.265-.227Z"></path>
</svg>