<svg fill="currentColor" viewBox="0 0 24 24" xmlns="http://www.w3.org/2000/svg">
  <path d="M22.647 11.502c-.994-4.495-2.49-6.894-4.71-7.549A5.022 5.022 0 0 0 16.5 3.75c-.642 0-1.202.157-1.794.323-.713.2-1.524.427-2.706.427-1.181 0-1.992-.227-2.707-.427C8.7 3.907 8.14 3.75 7.5 3.75a5.425 5.425 0 0 0-1.487.203c-2.208.652-3.703 3.05-4.712 7.546-1.085 4.839-.55 7.894 1.497 8.603.281.098.576.15.874.15 1.403 0 2.528-1.168 3.297-2.125.868-1.083 1.885-1.632 5.031-1.632 2.81 0 3.973.381 4.978 1.632.631.787 1.228 1.337 1.823 1.683.792.46 1.583.563 2.352.299 1.21-.413 1.904-1.505 2.062-3.246.12-1.335-.065-3.088-.568-5.36ZM9.75 11.25h-1.5v1.5a.75.75 0 0 1-1.5 0v-1.5h-1.5a.75.75 0 0 1 0-1.5h1.5v-1.5a.75.75 0 1 1 1.5 0v1.5h1.5a.75.75 0 0 1 0 1.5Zm3.938.188a.938.938 0 1 1 0-1.876.938.938 0 0 1 0 1.876ZM15.75 13.5a.937.937 0 1 1 0-1.875.937.937 0 0 1 0 1.875Zm0-4.125a.937.937 0 1 1 0-1.875.937.937 0 0 1 0 1.875Zm2.063 2.063a.938.938 0 1 1 0-1.876.938.938 0 0 1 0 1.876Z"></path>
</svg>