<svg fill="currentColor" viewBox="0 0 24 24" xmlns="http://www.w3.org/2000/svg">
  <path d="M3.75 19.5a3 3 0 0 0 3 3h4.313a.188.188 0 0 0 .187-.188v-8.625a.188.188 0 0 0-.188-.187H4.125a.375.375 0 0 0-.375.375V19.5Z"></path>
  <path d="M11.25 11.814V6.75h1.5v5.063a.188.188 0 0 0 .188.187H19.5a2.247 2.247 0 0 0 1.836-.951c.269-.38.413-.834.414-1.299V9a2.25 2.25 0 0 0-2.25-2.25h-1.9a.094.094 0 0 1-.093-.094c0-.016.005-.032.013-.046A3.375 3.375 0 0 0 12 2.758a3.375 3.375 0 0 0-5.52 3.853.094.094 0 0 1-.08.14H4.5a2.25 2.25 0 0 0-2.25 2.25v.75a2.254 2.254 0 0 0 1.5 2.121c.24.086.494.13.75.13h6.563a.187.187 0 0 0 .187-.188Zm1.5-6.938a1.875 1.875 0 1 1 1.875 1.875H12.75V4.876Zm-3.51-1.87a1.875 1.875 0 0 1 2.01 1.87v1.875H9.375a1.875 1.875 0 0 1-.134-3.745Z"></path>
  <path d="M12.938 22.5h4.312a3 3 0 0 0 3-3v-5.625a.375.375 0 0 0-.375-.375h-6.938a.188.188 0 0 0-.187.188v8.624a.188.188 0 0 0 .188.188Z"></path>
</svg>