<svg fill="currentColor" viewBox="0 0 24 24" xmlns="http://www.w3.org/2000/svg">
  <path d="M10.233 15.97a.75.75 0 0 0-1.28.53V18h-.938a1.313 1.313 0 0 1-1.312-1.313V7.125a3 3 0 1 0-3-.055v9.617A4.317 4.317 0 0 0 8.015 21h.938v1.5a.75.75 0 0 0 1.28.53l3-3a.75.75 0 0 0 0-1.06l-3-3ZM5.25 3a1.5 1.5 0 1 1 0 3 1.5 1.5 0 0 1 0-3Z"></path>
  <path d="M20.25 16.903v-9.59A4.317 4.317 0 0 0 15.937 3H15V1.5a.75.75 0 0 0-1.28-.53l-3 3a.75.75 0 0 0 0 1.06l3 3A.75.75 0 0 0 15 7.5V6h.937a1.312 1.312 0 0 1 1.313 1.312v9.591a3 3 0 1 0 3 0ZM18.75 21a1.5 1.5 0 1 1 0-3 1.5 1.5 0 0 1 0 3Z"></path>
</svg>