<svg fill="currentColor" viewBox="0 0 24 24" xmlns="http://www.w3.org/2000/svg">
  <path d="M21 4.502a3 3 0 1 0-4.515 2.588c-.084.978-.537 1.786-1.353 2.404-.832.633-2.003 1.008-3.132 1.008-1.13 0-2.3-.375-3.132-1.008-.816-.618-1.27-1.426-1.354-2.404a3 3 0 1 0-3.005.013c.098 1.916.993 3.604 2.546 4.782.974.738 2.18 1.25 3.445 1.48v3.54a3 3 0 1 0 3 0v-3.54c1.265-.23 2.47-.742 3.445-1.48 1.553-1.178 2.448-2.866 2.545-4.782A3 3 0 0 0 21 4.502Zm-15-1.5a1.5 1.5 0 1 1 0 3 1.5 1.5 0 0 1 0-3Zm6 18a1.5 1.5 0 1 1 0-3 1.5 1.5 0 0 1 0 3Zm6-15a1.5 1.5 0 1 1 0-3 1.5 1.5 0 0 1 0 3Z"></path>
</svg>