<svg fill="currentColor" viewBox="0 0 24 24" xmlns="http://www.w3.org/2000/svg">
  <path d="M9 4.502a3 3 0 1 0-4.5 2.596v9.807a3 3 0 1 0 3 0V7.098A3 3 0 0 0 9 4.502Zm-3-1.5a1.5 1.5 0 1 1 0 3 1.5 1.5 0 0 1 0-3Zm0 18a1.5 1.5 0 1 1 0-3 1.5 1.5 0 0 1 0 3Z"></path>
  <path d="M19.5 16.903v-9.59A4.317 4.317 0 0 0 15.187 3h-.937V1.5a.75.75 0 0 0-1.28-.53l-3 3a.75.75 0 0 0 0 1.06l3 3a.75.75 0 0 0 1.28-.53V6h.937A1.312 1.312 0 0 1 16.5 7.312v9.591a3 3 0 1 0 3 0ZM18 21a1.5 1.5 0 1 1 0-3 1.5 1.5 0 0 1 0 3Z"></path>
</svg>