<svg fill="currentColor" viewBox="0 0 24 24" xmlns="http://www.w3.org/2000/svg">
  <path d="M21.75 8.625h-.51a3.692 3.692 0 0 0-.75-.337c-.826-.272-1.915-.413-3.24-.413-1.325 0-2.414.14-3.237.413-.66.22-.95.463-1.043.557a2.247 2.247 0 0 0-1.939 0c-.094-.094-.384-.337-1.043-.557-.824-.272-1.913-.413-3.238-.413s-2.414.14-3.237.413a3.69 3.69 0 0 0-.75.337H2.25a.75.75 0 0 0 0 1.5h.008c.047 2.13.302 3.412.849 4.323a3.13 3.13 0 0 0 1.496 1.313c.573.245 1.276.365 2.147.365 1.132 0 2.741-.174 3.643-1.677.454-.756.707-1.767.807-3.305a.748.748 0 0 0 .05-.269.75.75 0 1 1 1.5 0c0 .091.017.182.05.268.1 1.539.353 2.549.807 3.305a3.13 3.13 0 0 0 1.496 1.313c.573.245 1.276.365 2.147.365 1.132 0 2.741-.174 3.643-1.677.547-.912.803-2.192.849-4.323h.008a.75.75 0 1 0 0-1.5v-.001Z"></path>
</svg>