<svg fill="currentColor" viewBox="0 0 24 24" xmlns="http://www.w3.org/2000/svg">
  <path d="M12.75 15.022V9.483l7.81-3.55a.75.75 0 0 0 0-1.366L12.31.817a.75.75 0 0 0-1.06.683v13.522a13.706 13.706 0 0 1 1.5 0Z"></path>
  <path d="M21.718 21.445c-.4-2.008-1.645-3.69-3.599-4.865-1.523-.917-3.406-1.467-5.37-1.58v3.738a.75.75 0 0 1-1.5 0V15c-1.962.113-3.845.663-5.369 1.58-1.953 1.174-3.197 2.857-3.599 4.865a1.523 1.523 0 0 0 .302 1.27c.282.348.698.535 1.167.535h16.5c.469 0 .885-.19 1.167-.535a1.524 1.524 0 0 0 .301-1.27Z"></path>
</svg>