<svg fill="currentColor" viewBox="0 0 24 24" xmlns="http://www.w3.org/2000/svg">
  <path d="m13.133 11.383-1.224-1.225a1.5 1.5 0 0 0-2.116-.005l-8.51 7.853c-.31.292-.513.664-.532 1.08a1.505 1.505 0 0 0 .432 1.123l1.828 1.848a1.514 1.514 0 0 0 1.067.445h.055c.417-.016.79-.211 1.087-.524l7.907-8.47a1.5 1.5 0 0 0 .005-2.125Z"></path>
  <path d="m22.969 8.906-.015-.014-1.606-1.59a1.006 1.006 0 0 0-.717-.294c-.215 0-.425.068-.6.194 0-.02.004-.04.005-.057.021-.305.054-.765-.244-1.182a12.09 12.09 0 0 0-1.166-1.351c-.624-.615-1.983-1.773-4.065-2.622a6.542 6.542 0 0 0-2.488-.49c-1.48 0-2.604.667-3.035 1.063a5.62 5.62 0 0 0-.665.76.75.75 0 0 0 .874 1.141c.132-.049.266-.09.403-.123.284-.06.575-.078.864-.054.619.051 1.35.358 1.673.614.549.44.813 1.035.856 1.926.009.179-.362.85-.937 1.616a.75.75 0 0 0 .068.985l1.613 1.612a.75.75 0 0 0 1.031.03c.456-.408 1.15-1.022 1.394-1.172.36-.222.618-.265.689-.272a.899.899 0 0 1 .529.111c0 .008 0 .016-.003.024a.058.058 0 0 1-.012.02l-.085.082-.014.013a1.008 1.008 0 0 0 .002 1.432l1.606 1.59a1.004 1.004 0 0 0 .716.292c.267 0 .523-.104.714-.29l2.602-2.57a1.026 1.026 0 0 0 .013-1.424Z"></path>
</svg>