<svg fill="currentColor" viewBox="0 0 24 24" xmlns="http://www.w3.org/2000/svg">
  <path d="M3.712 9.911c.728-.413 1.637-.107 2.03.642l1.94 3.956a.328.328 0 0 0 .419.161.328.328 0 0 0 .207-.306V3.375c0-.652.602-1.125 1.255-1.125.652 0 1.218.473 1.218 1.125v7.342a.527.527 0 0 0 .506.533.516.516 0 0 0 .525-.516V1.125c0-.652.513-1.125 1.166-1.125.652 0 1.178.473 1.178 1.125v9.592a.527.527 0 0 0 .506.533.516.516 0 0 0 .525-.516V2.625c0-.652.567-1.125 1.22-1.125.652 0 1.218.52 1.218 1.172v8.795a.527.527 0 0 0 .506.533.516.516 0 0 0 .525-.516V5.625c0-.652.52-1.125 1.172-1.125.653 0 1.178.48 1.172 1.125V15.75c0 5.504-3.375 8.25-7.5 8.25h-.75c-4.125 0-5.424-1.856-6.375-4.125l-3.219-7.922c-.312-.844-.17-1.629.556-2.042Z"></path>
</svg>