<svg fill="currentColor" viewBox="0 0 24 24" xmlns="http://www.w3.org/2000/svg">
  <path d="M16.125 7.5h-8.25a.375.375 0 0 0-.375.375v8.25c0 .207.168.375.375.375h8.25a.375.375 0 0 0 .375-.375v-8.25a.375.375 0 0 0-.375-.375Z"></path>
  <path d="M21.75 9a.75.75 0 1 0 0-1.5H21V6a3.003 3.003 0 0 0-3-3h-1.5v-.75a.75.75 0 1 0-1.5 0V3h-2.25v-.75a.75.75 0 1 0-1.5 0V3H9v-.75a.75.75 0 0 0-1.5 0V3H6a3.003 3.003 0 0 0-3 3v1.5h-.75a.75.75 0 0 0 0 1.5H3v2.25h-.75a.75.75 0 1 0 0 1.5H3V15h-.75a.75.75 0 1 0 0 1.5H3V18a3.003 3.003 0 0 0 3 3h1.5v.75a.75.75 0 1 0 1.5 0V21h2.25v.75a.75.75 0 1 0 1.5 0V21H15v.75a.75.75 0 1 0 1.5 0V21H18a3.004 3.004 0 0 0 3-3v-1.5h.75a.75.75 0 1 0 0-1.5H21v-2.25h.75a.75.75 0 1 0 0-1.5H21V9h.75ZM18 16.5a1.5 1.5 0 0 1-1.5 1.5h-9A1.5 1.5 0 0 1 6 16.5v-9A1.5 1.5 0 0 1 7.5 6h9A1.5 1.5 0 0 1 18 7.5v9Z"></path>
</svg>