<svg fill="currentColor" viewBox="0 0 24 24" xmlns="http://www.w3.org/2000/svg">
  <path d="M19.273 4.568C17.27 2.618 14.62 1.5 12 1.5S6.73 2.618 4.727 4.568C2.647 6.594 1.5 9.234 1.5 12c0 1.25.41 2.864 1.541 5.885 1.131 3.022 3.38 4.287 4.331 4.494.272.06.592.121.878.121.494 0 .978-.129 1.406-.375l.656-.375c.707-.413.913-1.319.507-2.032l-4.075-7.152a1.488 1.488 0 0 0-2.042-.551l-.642.375a2.65 2.65 0 0 0-.656.543.187.187 0 0 1-.328-.094A5.375 5.375 0 0 1 3 12c0-2.358.984-4.616 2.773-6.357C7.5 3.963 9.768 3 12 3s4.5.963 6.227 2.643C20.016 7.383 21 9.642 21 12c-.004.281-.03.562-.079.84a.188.188 0 0 1-.328.093 2.65 2.65 0 0 0-.656-.543l-.642-.375a1.487 1.487 0 0 0-2.042.551l-4.072 7.152c-.406.713-.2 1.619.507 2.032l.656.375c.428.246.913.375 1.406.375.286 0 .606-.062.878-.121.95-.207 3.2-1.473 4.33-4.494C22.09 14.865 22.5 13.25 22.5 12c0-2.766-1.146-5.406-3.227-7.432Z"></path>
</svg>