<svg fill="currentColor" viewBox="0 0 24 24" xmlns="http://www.w3.org/2000/svg">
  <path d="M12 2.25c-5.376 0-9.75 4.374-9.75 9.75s4.374 9.75 9.75 9.75 9.75-4.374 9.75-9.75S17.376 2.25 12 2.25Zm1.092 14.024c-.207.15-.43.308-.67.47a.746.746 0 0 1-.844 0c-1.843-1.251-2.64-2.11-3.08-2.645-.938-1.142-1.387-2.316-1.373-3.586v-.03a.188.188 0 0 1 .32-.127l5.669 5.634a.189.189 0 0 1 .031.224.188.188 0 0 1-.053.06Zm3.188.756a.75.75 0 0 1-1.06 0L6.97 8.78a.75.75 0 0 1 1.06-1.06l8.25 8.25a.75.75 0 0 1 0 1.06Zm-.661-3.076a.184.184 0 0 1-.281.018L9.524 8.196a.187.187 0 0 1 .131-.321h.073c.956 0 1.64.499 2.068.957a.278.278 0 0 0 .407 0c.427-.458 1.112-.957 2.068-.957 1.42 0 2.588 1.185 2.603 2.64.012 1.216-.4 2.343-1.256 3.44Z"></path>
</svg>