<svg fill="currentColor" viewBox="0 0 24 24" xmlns="http://www.w3.org/2000/svg">
  <path d="M19.586 21a.75.75 0 0 1-.532-.221L1.906 3.529A.75.75 0 1 1 2.97 2.47l17.148 17.25a.75.75 0 0 1-.532 1.28Z"></path>
  <path d="M17.106 3.75c-2.067 0-3.498 1.163-4.331 2.133a.281.281 0 0 1-.425 0c-.833-.97-2.264-2.133-4.33-2.133a5.05 5.05 0 0 0-1.454.213l12.616 12.689c.14-.161.267-.311.382-.45 1.875-2.285 2.772-4.63 2.747-7.172-.028-2.911-2.364-5.28-5.205-5.28Z"></path>
  <path d="M3.235 6.992a5.393 5.393 0 0 0-.422 2.039c-.025 2.54.873 4.886 2.747 7.172.88 1.072 2.475 2.786 6.16 5.287a1.494 1.494 0 0 0 1.687 0 45.957 45.957 0 0 0 2.464-1.787L3.236 6.993Z"></path>
</svg>