<svg fill="currentColor" viewBox="0 0 24 24" xmlns="http://www.w3.org/2000/svg">
  <path d="M16.543 3C14.288 3 12.793 4.385 12 5.39 11.207 4.384 9.71 3 7.455 3 4.615 3 2.28 5.37 2.25 8.28c-.026 2.542.873 4.888 2.747 7.172.88 1.073 2.475 2.787 6.159 5.288a1.492 1.492 0 0 0 1.687 0c3.684-2.5 5.28-4.215 6.16-5.288 1.874-2.284 2.772-4.63 2.747-7.172C21.72 5.37 19.384 3 16.543 3ZM12 19.5V9.73c0-.92.245-1.817.666-2.635a5.766 5.766 0 0 1 1.024-1.344c.85-.83 1.81-1.251 2.853-1.251 2.022 0 3.685 1.702 3.706 3.797C20.296 13.2 16.107 16.71 12 19.5Z"></path>
</svg>