<svg fill="currentColor" viewBox="0 0 24 24" xmlns="http://www.w3.org/2000/svg">
  <path d="M19.425 4.573a10.5 10.5 0 1 0-14.85 14.849 10.5 10.5 0 1 0 14.85-14.849Zm-10.418 7.62a3 3 0 1 1 5.987-.39 3 3 0 0 1-5.987.39Zm11.25-3.123-4.518.273a.19.19 0 0 1-.161-.074 4.5 4.5 0 0 0-.847-.847.19.19 0 0 1-.075-.161l.274-4.518a.188.188 0 0 1 .254-.164 9.046 9.046 0 0 1 5.235 5.237.188.188 0 0 1-.164.254h.002ZM9.072 3.743l.273 4.518a.19.19 0 0 1-.074.16 4.5 4.5 0 0 0-.847.848.19.19 0 0 1-.161.074L3.746 9.07a.188.188 0 0 1-.164-.254 9.047 9.047 0 0 1 5.237-5.237.187.187 0 0 1 .254.164ZM3.746 14.925l4.518-.273a.19.19 0 0 1 .16.074 4.5 4.5 0 0 0 .848.847.19.19 0 0 1 .074.161l-.273 4.518a.187.187 0 0 1-.254.164 9.046 9.046 0 0 1-5.237-5.237.188.188 0 0 1 .164-.254Zm11.182 5.327-.274-4.518a.19.19 0 0 1 .075-.16 4.5 4.5 0 0 0 .847-.848.19.19 0 0 1 .161-.074l4.518.273a.188.188 0 0 1 .164.254 9.048 9.048 0 0 1-5.237 5.237.186.186 0 0 1-.229-.08.188.188 0 0 1-.025-.084Z"></path>
</svg>