<svg fill="currentColor" viewBox="0 0 24 24" xmlns="http://www.w3.org/2000/svg">
  <path d="M19.487 20.022c-.41-3.604-2.055-5.098-3.256-6.188C15.4 13.078 15 12.684 15 12c0-.675.398-1.061 1.226-1.802 1.215-1.086 2.88-2.574 3.26-6.227a2.204 2.204 0 0 0-.562-1.7 2.358 2.358 0 0 0-1.75-.771H6.826a2.36 2.36 0 0 0-1.753.772 2.206 2.206 0 0 0-.56 1.7c.38 3.64 2.038 5.118 3.25 6.196C8.597 10.913 9 11.3 9 12c0 .708-.404 1.104-1.243 1.863-1.195 1.083-2.836 2.566-3.243 6.159a2.184 2.184 0 0 0 .548 1.697 2.364 2.364 0 0 0 1.763.781h10.35a2.364 2.364 0 0 0 1.762-.781 2.183 2.183 0 0 0 .549-1.697Zm-3.394.228H7.929c-.732 0-.938-.844-.425-1.367 1.241-1.258 3.747-2.159 3.747-3.602V10.5c0-.93-1.782-1.64-2.884-3.15-.182-.249-.163-.6.299-.6h6.69c.395 0 .48.348.3.598-1.086 1.511-2.905 2.217-2.905 3.152v4.781c0 1.431 2.611 2.203 3.768 3.603.467.565.304 1.366-.426 1.366Z"></path>
</svg>