<svg fill="currentColor" viewBox="0 0 24 24" xmlns="http://www.w3.org/2000/svg">
  <path d="M8.578 16.503c-1.024-.024-1.828-.886-1.828-1.91v-1.596a.375.375 0 0 0-.281-.363c-1.582-.415-2.719-1.861-2.719-3.63a3.757 3.757 0 0 1 3.106-3.695.375.375 0 0 0 .31-.32 4.875 4.875 0 0 1 9.667 0 .374.374 0 0 0 .31.32 3.75 3.75 0 0 1-.643 7.444 3.484 3.484 0 0 1-2.224-.816.372.372 0 0 0-.465-.006 2.948 2.948 0 0 1-1.811.635 3.772 3.772 0 0 1-1.022-.15.374.374 0 0 0-.478.361v1.851a1.874 1.874 0 0 1-1.922 1.875Z"></path>
  <path d="M12.347 14.046a.375.375 0 0 0-.347.371v.206a3.38 3.38 0 0 1-2.376 3.223.375.375 0 0 0-.23.505l1.918 4.444a.75.75 0 0 0 1.377-.002l3.458-8.07a.376.376 0 0 0-.29-.518 4.982 4.982 0 0 1-1.683-.544.376.376 0 0 0-.335-.009c-.47.217-.976.35-1.492.394Z"></path>
</svg>