<svg fill="currentColor" viewBox="0 0 24 24" xmlns="http://www.w3.org/2000/svg">
  <path d="M12 18.75a2.25 2.25 0 1 0 0 4.5 2.25 2.25 0 0 0 0-4.5Z"></path>
  <path d="M12 12.75a2.25 2.25 0 1 0 0 4.5 2.25 2.25 0 0 0 0-4.5Z"></path>
  <path d="M12 6.75a2.25 2.25 0 1 0 0 4.5 2.25 2.25 0 0 0 0-4.5Z"></path>
  <path d="M12 .75a2.25 2.25 0 1 0 0 4.5 2.25 2.25 0 0 0 0-4.5Z"></path>
  <path d="M18 12.75a2.25 2.25 0 1 0 0 4.5 2.25 2.25 0 0 0 0-4.5Z"></path>
  <path d="M18 6.75a2.25 2.25 0 1 0 0 4.5 2.25 2.25 0 0 0 0-4.5Z"></path>
  <path d="M18 .75a2.25 2.25 0 1 0 0 4.5 2.25 2.25 0 0 0 0-4.5Z"></path>
  <path d="M6 12.75a2.25 2.25 0 1 0 0 4.5 2.25 2.25 0 0 0 0-4.5Z"></path>
  <path d="M6 6.75a2.25 2.25 0 1 0 0 4.5 2.25 2.25 0 0 0 0-4.5Z"></path>
  <path d="M6 .75a2.25 2.25 0 1 0 0 4.5 2.25 2.25 0 0 0 0-4.5Z"></path>
</svg>