<svg fill="currentColor" viewBox="0 0 24 24" xmlns="http://www.w3.org/2000/svg">
  <path d="M7.563 11.345a.75.75 0 0 1 1.06-.032c3.452 3.252 6.915 5.23 10.99 6.238.55-1.5.599-3.15.124-4.761-.63-2.138-2.097-4-4.242-5.385-1.914-1.236-3.828-1.558-5.679-1.87-2.335-.392-4.541-.764-6.646-2.992-.235-.247-.554-.346-.86-.266-.348.094-.582.37-.694.825-.262 1.067-.094 4.055.645 7.21 1.185 5.07 3.077 7.635 4.456 8.894 1.78 1.626 4.107 2.527 6.418 2.527.436 0 .871-.032 1.302-.096 1.955-.296 3.583-1.278 4.5-2.707-4.195-1.091-7.779-3.166-11.344-6.523a.75.75 0 0 1-.03-1.062Z"></path>
  <path d="M21.91 18.013a25.988 25.988 0 0 1-2.297-.458 7.384 7.384 0 0 1-.675 1.377 27.38 27.38 0 0 0 2.745.563.75.75 0 1 0 .228-1.482Z"></path>
</svg>