<svg fill="currentColor" viewBox="0 0 24 24" xmlns="http://www.w3.org/2000/svg">
  <path d="M3 22.5h-.75A1.5 1.5 0 0 1 .75 21V5.25a1.5 1.5 0 0 1 1.5-1.5H3a1.5 1.5 0 0 1 1.5 1.5V21A1.5 1.5 0 0 1 3 22.5Z"></path>
  <path d="M11.25 8.25a1.5 1.5 0 0 0-1.5-1.5h-3a1.5 1.5 0 0 0-1.5 1.5v1.313a.187.187 0 0 0 .188.187h5.625a.188.188 0 0 0 .187-.188V8.25Z"></path>
  <path d="M5.25 21a1.5 1.5 0 0 0 1.5 1.5h3a1.5 1.5 0 0 0 1.5-1.5v-1.406a.094.094 0 0 0-.094-.094H5.344a.094.094 0 0 0-.094.094V21Z"></path>
  <path d="M11.156 11.25H5.344a.094.094 0 0 0-.094.094v6.562c0 .052.042.094.094.094h5.812a.094.094 0 0 0 .094-.094v-6.562a.094.094 0 0 0-.094-.094Z"></path>
  <path d="M15 22.5h-1.5A1.5 1.5 0 0 1 12 21V3a1.5 1.5 0 0 1 1.5-1.5H15A1.5 1.5 0 0 1 16.5 3v18a1.5 1.5 0 0 1-1.5 1.5Z"></path>
  <path d="m23.245 20.882-1.51-15.938c-.07-.733-.795-1.265-1.62-1.186l-1.492.14c-.825.079-1.437.737-1.368 1.47l1.511 15.938c.07.733.794 1.266 1.619 1.186l1.493-.14c.824-.079 1.436-.737 1.367-1.47Z"></path>
</svg>