<svg fill="currentColor" viewBox="0 0 24 24" xmlns="http://www.w3.org/2000/svg">
  <path d="M12 2.25c-5.376 0-9.75 4.374-9.75 9.75s4.374 9.75 9.75 9.75 9.75-4.374 9.75-9.75S17.376 2.25 12 2.25ZM7.875 16.406a1.125 1.125 0 1 1 0-2.25 1.125 1.125 0 0 1 0 2.25Zm0-3.328a1.125 1.125 0 1 1 0-2.25 1.125 1.125 0 0 1 0 2.25Zm0-3.422a1.125 1.125 0 1 1 0-2.25 1.125 1.125 0 0 1 0 2.25Zm8.625 6.328h-6a.75.75 0 1 1 0-1.5h6a.75.75 0 1 1 0 1.5Zm0-3.328h-6a.75.75 0 1 1 0-1.5h6a.75.75 0 0 1 0 1.5Zm0-3.375h-6a.75.75 0 1 1 0-1.5h6a.75.75 0 1 1 0 1.5Z"></path>
</svg>