<svg fill="currentColor" viewBox="0 0 24 24" xmlns="http://www.w3.org/2000/svg">
  <path d="M1.313 1.313v21.375h21.375V1.313H1.313ZM19.07 6.377l-1.146 1.1a.336.336 0 0 0-.128.32v8.076a.334.334 0 0 0 .128.322l1.119 1.1v.24h-5.63v-.24l1.159-1.127c.114-.114.114-.148.114-.321V9.319l-3.225 8.19h-.436l-3.754-8.19v5.49a.758.758 0 0 0 .208.63l1.508 1.829v.241H4.71v-.241l1.509-1.83a.732.732 0 0 0 .194-.63V8.461a.556.556 0 0 0-.18-.47L4.891 6.377v-.241h4.163l3.218 7.057 2.829-7.057h3.968v.242Z"></path>
</svg>