<svg fill="currentColor" viewBox="0 0 24 24" xmlns="http://www.w3.org/2000/svg">
  <path d="M0 3.75v16.5h24V3.75H0Zm21.75 8.24c0 1.206-.075 2.124-.177 3.62-.101 1.495-.9 2.547-2.77 2.712-1.87.165-4.489.18-6.803.175-2.297.005-4.928-.005-6.803-.175-1.875-.17-2.663-1.22-2.77-2.713-.108-1.493-.177-2.413-.177-3.62 0-1.206.005-1.99.177-3.619.171-1.63 1.078-2.537 2.77-2.702 1.691-.165 4.606-.165 6.803-.165s5.11 0 6.803.165c1.694.165 2.599 1.078 2.77 2.702.172 1.624.177 2.418.177 3.62Z"></path>
  <path d="M17.23 13.258v.037c0 .84-.52 1.335-1.217 1.335-.695 0-1.164-.557-1.231-1.335 0 0-.061-.408-.061-1.233-.004-.448.02-.895.071-1.34.124-.877.552-1.336 1.247-1.336.695 0 1.242.598 1.242 1.506v.026h2.324c0-1.13-.284-2.145-.855-2.785-.572-.64-1.418-.96-2.54-.96a5.066 5.066 0 0 0-1.548.221 2.757 2.757 0 0 0-1.215.779c-.34.373-.603.868-.79 1.492-.188.624-.282 1.406-.282 2.356 0 .928.077 1.702.227 2.325.15.624.375 1.12.675 1.49.29.365.681.634 1.125.774.453.145.984.217 1.594.217 1.287 0 2.215-.329 2.771-.965.557-.636.827-1.562.827-2.779h-2.375c.01 0 .01.13.01.175Z"></path>
  <path d="M9.248 13.258v.037c0 .84-.52 1.335-1.216 1.335-.695 0-1.164-.557-1.231-1.335 0 0-.061-.408-.061-1.233-.005-.448.02-.895.071-1.34.124-.877.552-1.336 1.247-1.336.695 0 1.242.599 1.242 1.506v.026h2.325c0-1.13-.281-2.145-.856-2.785-.574-.64-1.418-.96-2.54-.96a5.065 5.065 0 0 0-1.548.221 2.757 2.757 0 0 0-1.216.779c-.34.37-.602.866-.793 1.49-.19.624-.281 1.406-.281 2.356 0 .928.077 1.702.226 2.326.15.623.375 1.118.676 1.49.289.364.68.633 1.125.773.453.145.984.217 1.593.217 1.288 0 2.216-.328 2.772-.964.557-.636.835-1.563.835-2.78h-2.38a.82.82 0 0 1 .01.178Z"></path>
</svg>