<svg fill="currentColor" viewBox="0 0 24 24" xmlns="http://www.w3.org/2000/svg">
  <path d="M8.102 13.602c-.457 0-.849.213-1.165.65-.317.436-.472.964-.472 1.593 0 .63.16 1.168.472 1.6.311.432.703.65 1.165.65.427 0 .797-.217 1.11-.65.313-.43.472-.964.472-1.599 0-.634-.16-1.163-.472-1.593-.311-.431-.681-.651-1.11-.651Z"></path>
  <path d="M15.952 13.602c-.452 0-.85.213-1.165.65-.317.436-.473.964-.473 1.593 0 .63.161 1.168.473 1.6.31.432.708.65 1.165.65.427 0 .797-.217 1.115-.65.318-.43.472-.964.472-1.599 0-.634-.16-1.163-.472-1.593-.311-.431-.683-.651-1.115-.651Z"></path>
  <path d="M21.532 7.734c-.005 0 .136-.726.015-1.99-.11-1.266-.375-2.428-.808-3.494 0 0-.221.04-.643.147-.422.107-1.112.322-2.054.752-.93.431-1.909 1.005-2.928 1.701-.693-.198-1.728-.3-3.114-.3-1.32 0-2.355.102-3.114.3-2.24-1.57-4.116-2.436-5.63-2.6-.432 1.067-.7 2.235-.803 3.504-.121 1.266.02 1.996.02 1.996C1.252 9.085.75 11.01.75 12.6c0 1.228.035 2.34.307 3.327.28.98.637 1.781 1.059 2.397.436.623.973 1.17 1.587 1.618.628.473 1.205.813 1.728 1.026.527.223 1.125.386 1.808.503.506.098 1.018.166 1.532.203 0 0 1.406.076 3.234.076s3.23-.076 3.23-.076a13.386 13.386 0 0 0 1.531-.205 8.387 8.387 0 0 0 1.803-.503c.523-.218 1.1-.553 1.734-1.026a6.797 6.797 0 0 0 1.582-1.62c.422-.614.779-1.416 1.06-2.397.281-.98.305-2.1.305-3.33 0-1.537-.502-3.488-1.718-4.859Zm-3.284 11.863c-1.402.665-3.46.934-6.193.934h-.105c-2.732 0-4.792-.264-6.167-.934-1.376-.67-2.075-2.037-2.075-4.098 0-1.234.432-2.234 1.28-3 .373-.328.824-.559 1.387-.696.563-.137 1.075-.14 1.557-.127.472.02 1.135.112 1.974.178.838.066 1.471.152 2.1.152.586 0 1.365-.102 2.616-.203 1.25-.101 2.185-.152 2.787-.051.618.102 1.155.315 1.612.747.89.802 1.334 1.802 1.336 3-.005 2.061-.713 3.433-2.109 4.098Z"></path>
</svg>