<svg fill="currentColor" viewBox="0 0 24 24" xmlns="http://www.w3.org/2000/svg">
  <path d="M21.956 12.618c-.123-1.565-.55-2.718-1.473-2.69a.047.047 0 0 0-.044.064c.24.59.454 1.73.43 2.722a.047.047 0 0 1-.012.034.047.047 0 0 1-.066.003.047.047 0 0 1-.015-.033c-.103-.994-.333-1.93-.76-2.786A8.75 8.75 0 0 0 3.66 11.854a.188.188 0 0 1-.156.146l-.405.057c-.807.113-1.261 1.636-1.018 3.399.244 1.762 1.102 3.103 1.908 2.99l.62-.087a.187.187 0 0 1 .185.087 8.752 8.752 0 0 0 15.89-2.629.187.187 0 0 1 .173-.144l.206-.011c.71-.119 1.02-1.464.893-3.044Zm-17.527.058a.047.047 0 0 1 .045-.07c.011 0 .022.006.03.014.451.469.95 1.296 1.093 2.337.152 1.08-.105 2.12-.428 2.713a.047.047 0 0 1-.058.02.046.046 0 0 1-.028-.054c.19-.677.242-1.586.106-2.566-.131-.953-.408-1.794-.76-2.394Zm8.38 5.146a.728.728 0 0 1-.639-1.07.726.726 0 1 1 .64 1.07Zm3.836-.22a.72.72 0 1 1-.07-1.44.72.72 0 0 1 .07 1.44Z"></path>
  <path d="M7.758 3.28a.015.015 0 0 1 .004.01c.005.009.01.013.015.023v.004a.27.27 0 0 0 .107.127c.094.07.235.112.403.14a2.985 2.985 0 0 0 .694.015c-.019-.02-.037-.043-.056-.061h-.061a2.438 2.438 0 0 1-.544-.043.924.924 0 0 1-.393-.159.434.434 0 0 1-.066-.066.21.21 0 0 1 0-.107c.023-.108.112-.225.258-.347.157-.129.328-.239.51-.328.043-.02.08-.043.123-.061.004-.005.014-.005.023-.01-.038.162-.042.33-.01.492.108.558.544.952 1.088.966l.188 1.14.595-.141-.188-1.093c.507-.215.764-.754.657-1.312a1.2 1.2 0 0 0-.183-.445c-.249-.038-.731-.038-1.369.098.052-.014.098-.033.15-.047a6.34 6.34 0 0 1 1.008-.197c.028-.004.056-.004.084-.01l.164-.013h.028c.17-.01.339-.006.507.014.097.011.193.033.286.065a.287.287 0 0 0 .16.422 1.22 1.22 0 0 1-.234.263c-.053.042-.11.084-.165.126l-.305.179-.014.07a.016.016 0 0 0 .01-.005l.393-.22a2.34 2.34 0 0 0 .16-.113 1.366 1.366 0 0 0 .262-.262l.014-.028a.288.288 0 0 0 .232-.391.283.283 0 0 0-.265-.176.32.32 0 0 0-.131.032 1.153 1.153 0 0 0-.385-.126 2.975 2.975 0 0 0-.825-.019.634.634 0 0 1-.093.01 1.179 1.179 0 0 0-.877-.174 1.212 1.212 0 0 0-.834.61 2.05 2.05 0 0 0-.178.079l-.094.042a2.848 2.848 0 0 0-.652.427c-.145.136-.23.267-.248.389a.288.288 0 0 0 .047.21Z"></path>
</svg>