<svg fill="currentColor" viewBox="0 0 24 24" xmlns="http://www.w3.org/2000/svg">
  <path d="M21.898 14.231a9.644 9.644 0 0 0 .23-2.116c0-5.453-4.486-9.877-10.022-9.877-.573 0-1.146.047-1.711.14A5.793 5.793 0 0 0 7.309 1.5C4.104 1.5 1.5 4.065 1.5 7.226a5.604 5.604 0 0 0 .797 2.899 9.898 9.898 0 0 0-.203 1.985c0 5.458 4.486 9.877 10.016 9.877a10.15 10.15 0 0 0 1.833-.164 5.88 5.88 0 0 0 2.748.677c3.21 0 5.809-2.565 5.809-5.726a5.531 5.531 0 0 0-.602-2.543Zm-4.648 2.597c-.465.645-1.149 1.16-2.035 1.52-.886.361-1.932.543-3.136.543-1.438 0-2.642-.252-3.588-.744a4.735 4.735 0 0 1-1.652-1.444c-.427-.601-.64-1.203-.64-1.781 0-.361.14-.673.416-.935.273-.252.629-.383 1.044-.383.345 0 .64.098.881.3.23.192.427.476.585.848.154.356.348.693.578 1.005.198.257.477.47.837.64.367.17.854.257 1.454.257.825 0 1.504-.175 2.012-.52.504-.333.745-.738.745-1.23 0-.388-.126-.695-.389-.935-.273-.252-.629-.449-1.072-.58a20.85 20.85 0 0 0-1.838-.448c-1.04-.22-1.922-.482-2.625-.777-.716-.3-1.296-.722-1.723-1.241-.432-.53-.646-1.198-.646-1.98a3.181 3.181 0 0 1 .679-1.996c.448-.574 1.1-1.023 1.947-1.329.832-.306 1.822-.46 2.938-.46.897 0 1.68.105 2.335.302.657.196 1.215.475 1.658.814.443.34.766.7.973 1.078.208.379.313.76.313 1.125 0 .35-.137.673-.411.952a1.389 1.389 0 0 1-1.028.426c-.372 0-.662-.087-.864-.262-.188-.164-.383-.416-.597-.782-.251-.465-.552-.837-.897-1.1-.34-.25-.897-.382-1.674-.382-.716 0-1.301.14-1.734.422-.416.268-.618.58-.618.946a.856.856 0 0 0 .202.574c.165.19.368.343.596.449.257.129.527.231.804.306.282.076.744.191 1.385.333.814.17 1.558.367 2.215.569.667.213 1.242.469 1.712.771.467.295.855.698 1.132 1.176.268.469.405 1.061.405 1.74a3.52 3.52 0 0 1-.679 2.213Z"></path>
</svg>