<svg fill="currentColor" viewBox="0 0 24 24" xmlns="http://www.w3.org/2000/svg">
  <path d="M11.25 22.5v-1.707c-3.725-.215-5.988-2.134-6-5.043h3.375c.083 1.235 1.118 2.177 2.625 2.344V13.5l-1.255-.328c-2.86-.665-4.39-2.315-4.39-4.785 0-2.912 2.086-4.82 5.645-5.106V1.5h1.5v1.781c3.628.296 5.578 2.238 5.625 4.969H15c-.036-1.128-.742-2.034-2.25-2.156v4.312l1.445.341c3.037.665 4.555 2.237 4.555 4.816 0 3.015-2.05 4.963-6 5.218V22.5h-1.5Zm0-12.375V6.094c-1.293.071-2.216.866-2.216 1.993 0 1.046.768 1.73 2.216 2.038Zm1.5 3.656v4.313c1.788-.072 2.643-.887 2.643-2.146 0-1.152-.855-1.928-2.643-2.167Z"></path>
</svg>