<svg fill="currentColor" viewBox="0 0 24 24" xmlns="http://www.w3.org/2000/svg">
  <path d="M22.1 9.123V9.12l-.033-.107a10.095 10.095 0 0 0-.07-.228l-.003-.01a10.454 10.454 0 0 0-1.073-2.314 10.554 10.554 0 0 0-3.503-3.456 10.449 10.449 0 0 0-6.394-1.458c-1.13.119-3.037.525-4.583 1.883 5.629-2.874 13.15.587 12.51 7.023-.228 2.297-2.178 3.875-3.994 4.142-.322.049-.65.052-.975.01-4.433-.617-4.162-4.251-2.815-5.805-1.781-.011-3.163 2.193-2.491 4.36C7.13 10.29 8.692 5.8 12 4.44c-3.889-.562-7.534 1.322-8.705 4.598.14-1.198.419-2.374.832-3.507 0 0-2.12 1.676-2.552 5.199a9.325 9.325 0 0 0-.024.22 9.08 9.08 0 0 0-.038.495v.038l-.008.21v.058c0 .083-.003.165-.003.248 0 5.799 4.701 10.5 10.5 10.5S22.5 17.8 22.5 12c0-.973-.135-1.941-.4-2.877Z"></path>
</svg>