<svg fill="currentColor" viewBox="0 0 24 24" xmlns="http://www.w3.org/2000/svg">
  <path d="M18.74 9.516c-.038-.802-.155-1.618-.507-2.349a3.865 3.865 0 0 0-.774-1.087 4.95 4.95 0 0 0-.998-.764c-.801-.478-1.758-.797-3.956-1.454C10.306 3.206 9 3 9 3v16.795L12.745 21s.005-9.319.005-14.04v-.177c0-.436.352-.788.755-.788h.023c.399 0 .727.352.727.788v6.248c.515.249 1.368.436 1.96.427.391.01.779-.081 1.124-.267.356-.197.654-.485.863-.835.232-.394.39-.828.464-1.28.087-.506.092-1.035.073-1.56Z"></path>
  <path d="M4.062 16.775c1.284-.46 4.186-1.383 4.186-1.383V13.18s-3.586 1.162-5.218 1.739c-.403.145-.81.276-1.204.445-.46.192-.91.408-1.317.694-.183.117-.332.28-.432.473a.815.815 0 0 0-.023.638c.094.239.272.436.473.59.366.277.802.446 1.238.572a12.3 12.3 0 0 0 4.144.624c.68-.01 1.687-.09 2.343-.207V16.78s-.515.117-1.936.586c-.215.07-.43.154-.656.201-.333.07-.672.104-1.012.103-.305-.014-.62-.033-.905-.145-.103-.047-.216-.103-.258-.216-.037-.093.014-.187.08-.253.131-.136.319-.21.497-.281Z"></path>
  <path d="M24 16.217c-.005-.281-.173-.525-.37-.703-.333-.295-.746-.483-1.158-.633-.258-.089-.436-.154-.69-.234-1.18-.385-2.432-.525-3.67-.53-.374.014-1.082.024-1.453.066-1.026.117-3.154.722-3.154.722v2.287s3.164-1.012 4.523-1.49a4.426 4.426 0 0 1 1.42-.216c.305.01.62.033.91.145.103.042.21.103.258.211.042.122-.043.235-.136.305-.22.178-.502.248-.76.347-1.922.68-6.22 2.095-6.22 2.095v2.203s5.494-1.856 8.006-2.756c.417-.155.84-.286 1.238-.488.37-.187.74-.403 1.022-.717a.925.925 0 0 0 .234-.614Z"></path>
</svg>