<svg fill="currentColor" viewBox="0 0 24 24" xmlns="http://www.w3.org/2000/svg">
  <path d="M4.068 11.956a.463.463 0 0 0 .457-.519.46.46 0 0 0-.058-.17c-.772-1.34-.835-2.444-.35-3.282.67-1.152 2.514-1.577 4.935-1.138a.462.462 0 0 0 .462-.716.461.461 0 0 0-.297-.191c-1.368-.248-2.625-.243-3.627.014-1.046.268-1.829.81-2.271 1.57-.657 1.133-.596 2.565.347 4.2a.462.462 0 0 0 .402.232Z"></path>
  <path d="M16.95 6.734c1.512.02 2.467.436 2.944 1.26.666 1.147.118 2.943-1.466 4.805a.46.46 0 0 0 .546.716.463.463 0 0 0 .159-.12c.896-1.053 1.516-2.135 1.793-3.127.287-1.031.207-1.979-.235-2.737-.647-1.114-1.88-1.694-3.73-1.718h-.007a.46.46 0 1 0-.006.921h.003Z"></path>
  <path d="M15.303 19.451a.463.463 0 0 0-.633.157c-.77 1.273-1.714 1.974-2.661 1.974-1.336 0-2.625-1.374-3.456-3.676a.463.463 0 0 0-.872.312c.469 1.302 1.1 2.379 1.828 3.116.755.765 1.62 1.171 2.5 1.171 1.283 0 2.51-.859 3.452-2.419a.46.46 0 0 0-.159-.633v-.002Z"></path>
  <path d="M20.237 15.87a1.506 1.506 0 0 0-1.402 2.077c-1.96.914-5.615.225-8.994-1.716-1.542-.886-2.913-1.963-3.965-3.113a.464.464 0 0 0-.803.29.46.46 0 0 0 .12.332c1.115 1.218 2.563 2.356 4.188 3.29 1.888 1.083 3.856 1.81 5.692 2.1.542.088 1.09.133 1.64.136 1.084 0 2.016-.201 2.743-.6a1.51 1.51 0 1 0 .783-2.797h-.002Zm0 2.093a.591.591 0 0 1-.367-.128.47.47 0 0 0-.103-.104.591.591 0 1 1 .469.232Z"></path>
  <path d="M3.848 15.869c.026-.997.581-2.204 1.578-3.43C6.513 11.106 8.084 9.814 9.85 8.8c1.558-.895 3.056-1.495 4.597-1.823a.46.46 0 1 0-.194-.901c-1.633.348-3.224.984-4.865 1.926-3.946 2.266-6.58 5.584-6.46 8.117a1.515 1.515 0 1 0 .92-.25Zm-.084 2.09a.586.586 0 1 1 .008-1.172.586.586 0 0 1-.008 1.173Z"></path>
  <path d="M12.01 4.513a1.51 1.51 0 0 0 1.243-.648c.839.548 1.594 1.64 2.147 3.1.61 1.612.93 3.533.93 5.556 0 1.743-.243 3.391-.703 4.856a.456.456 0 0 0 .144.492.462.462 0 0 0 .738-.216c.488-1.553.746-3.297.746-5.132 0-2.211-.364-4.302-1.053-6.047-.676-1.71-1.6-2.925-2.679-3.523a1.514 1.514 0 1 0-1.514 1.562Zm0-2.094A.586.586 0 1 1 12 3.591a.586.586 0 0 1 .01-1.172Z"></path>
  <path d="M11.766 11.404a1.141 1.141 0 1 0 .483 2.232 1.144 1.144 0 0 0 .71-1.773 1.142 1.142 0 0 0-1.193-.459Z"></path>
</svg>