<svg fill="currentColor" viewBox="0 0 24 24" xmlns="http://www.w3.org/2000/svg">
  <path d="M17.625 12h-.75v2.25h.75V12Z"></path>
  <path d="M5.25 14.25h6.075L9.075 12H5.25v2.25Z"></path>
  <path d="M17.086 2.817a.407.407 0 0 1-.047-.028 10.258 10.258 0 0 0-1.612-.694l-.254-.084A10.462 10.462 0 0 0 12 1.5C6.202 1.5 1.5 6.202 1.5 12a10.486 10.486 0 0 0 5.41 9.178c.018.01.032.024.05.033.518.277 1.057.509 1.613.694l.254.084c1.025.333 2.095.505 3.173.511 5.798 0 10.5-4.702 10.5-10.5a10.489 10.489 0 0 0-5.414-9.183ZM12 19.987a7.59 7.59 0 0 1-1.275-.112 7.979 7.979 0 0 1-1.336-.342c-.089-.028-.178-.056-.262-.09a7.606 7.606 0 0 1-.891-.402 7.984 7.984 0 0 1-4.224-7.046c0-1.743.582-3.347 1.533-4.66l11.12 11.12c-1.318.951-2.921 1.533-4.665 1.533Zm6.46-3.328L7.34 5.541c1.313-.947 2.912-1.529 4.66-1.529.427.002.854.04 1.275.113.454.075.901.19 1.336.342.084.028.173.056.262.09.29.109.57.235.844.379a7.981 7.981 0 0 1 4.275 7.069 7.964 7.964 0 0 1-1.533 4.654Z"></path>
  <path d="M16.5 12h-1.594l1.594 1.594V12Z"></path>
  <path d="M18.75 12H18v2.25h.75V12Z"></path>
  <path d="M16.88 9.972c-.413-.192-1.031-.267-2.138-.267h-.168c-.596.004-.746-.005-.938-.286-.131-.197-.047-.694.174-1.027a.376.376 0 0 0-.119-.529.387.387 0 0 0-.19-.057 2.516 2.516 0 0 1-.859-.183c-.496-.21-.73-.567-.73-1.082 0-1.21 1.021-1.299 1.068-1.299v-.75c-.563 0-1.819.516-1.819 2.049 0 .82.422 1.453 1.205 1.78.182.075.37.131.562.17-.154.459-.168.98.08 1.345.422.623.952.619 1.56.614h.165c1.233 0 1.622.108 1.823.202.268.121.32.351.31.736v.046h.75v-.046c0-.333.014-1.07-.736-1.416Z"></path>
  <path d="M18.75 11.44c0-1.204-.14-1.837-.427-2.324-.403-.675-1.05-1.05-1.823-1.05h-.816c.136-.39.254-.929.164-1.449-.15-.881-.895-1.406-2.02-1.406v.75c.985 0 1.224.426 1.285.783.117.68-.32 1.504-.324 1.514a.375.375 0 0 0 .142.504.38.38 0 0 0 .186.049H16.5c.51 0 .91.23 1.177.684.145.249.323.633.323 1.94h.75v.006Z"></path>
</svg>