<svg fill="currentColor" viewBox="0 0 24 24" xmlns="http://www.w3.org/2000/svg">
  <path d="M11.308 14.25c-.718-.486-1.441-.964-2.16-1.45-.093-.064-.16-.07-.257 0l-1.823 1.225c1.463.973 4.37 2.915 4.37 2.915v-2.522c0-.057-.074-.13-.13-.168Z"></path>
  <path d="M9.145 11.284a150.56 150.56 0 0 0 2.162-1.446.354.354 0 0 0 .131-.25V7.164s-2.906 1.928-4.372 2.904c.643.429 1.25.839 1.865 1.239.048.03.16.013.214-.023Z"></path>
  <path d="M12.649 9.814c.74.502 1.485 1 2.232 1.492a.201.201 0 0 0 .18 0l1.864-1.241-4.363-2.917V9.65a.224.224 0 0 0 .087.165Z"></path>
  <path d="M12.098 10.796a.247.247 0 0 0-.222.008c-.226.14-.444.29-.664.438l-1.189.797 1.821 1.212a.289.289 0 0 0 .293.006l1.829-1.22-1.868-1.241Z"></path>
  <path d="M6.61 11.117v1.857l1.388-.93-1.389-.927Z"></path>
  <path d="M12 1.5C6.201 1.5 1.5 6.201 1.5 12S6.201 22.5 12 22.5 22.5 17.799 22.5 12 17.799 1.5 12 1.5Zm6.516 12.422c0 .27-.125.462-.352.614a2229.974 2229.974 0 0 0-5.78 3.852c-.274.184-.523.176-.796-.006a1162.413 1162.413 0 0 0-5.749-3.829c-.24-.159-.356-.354-.356-.643v-3.738c0-.288.119-.485.358-.643C7.758 8.257 9.68 6.98 11.594 5.7c.272-.182.52-.188.794-.004a1609.92 1609.92 0 0 0 5.778 3.852c.219.146.349.326.349.594v3.78Z"></path>
  <path d="M14.824 12.806c-.706.48-1.415.954-2.127 1.423-.113.074-.136.155-.134.29v2.406l4.359-2.906-1.806-1.213c-.108-.076-.182-.074-.292 0Z"></path>
  <path d="M17.344 12.967v-1.858l-1.387.932 1.387.926Z"></path>
</svg>