<svg fill="currentColor" viewBox="0 0 24 24" xmlns="http://www.w3.org/2000/svg">
  <path d="M5.912 14.77a2.206 2.206 0 1 1-2.206-2.207h2.206v2.207Z"></path>
  <path d="M7.023 14.768a2.206 2.206 0 0 1 4.412 0v5.524a2.206 2.206 0 0 1-4.412 0v-5.524Z"></path>
  <path d="M9.23 5.912a2.206 2.206 0 1 1 2.207-2.206v2.206H9.23Z"></path>
  <path d="M9.23 7.023a2.206 2.206 0 0 1 0 4.412H3.706a2.206 2.206 0 1 1 0-4.412H9.23Z"></path>
  <path d="M18.088 9.227a2.206 2.206 0 1 1 2.206 2.208h-2.206V9.227Z"></path>
  <path d="M16.976 9.23a2.206 2.206 0 1 1-4.411 0V3.706a2.206 2.206 0 1 1 4.411 0V9.23Z"></path>
  <path d="M14.77 18.086a2.207 2.207 0 1 1-2.207 2.206v-2.206h2.207Z"></path>
  <path d="M14.77 16.974a2.206 2.206 0 1 1 0-4.412h5.524a2.206 2.206 0 1 1 0 4.412H14.77Z"></path>
</svg>