<svg fill="currentColor" viewBox="0 0 24 24" xmlns="http://www.w3.org/2000/svg">
  <path d="M.272 13.031a.1.1 0 0 0-.094.094L0 14.467l.175 1.32a.1.1 0 0 0 .096.094.1.1 0 0 0 .094-.094l.208-1.32-.206-1.342a.1.1 0 0 0-.094-.094H.272Zm.987-.735a.1.1 0 1 0-.2 0l-.234 2.171.234 2.124a.1.1 0 1 0 .2 0l.268-2.124-.268-2.171Zm3.718-2.003a.187.187 0 0 0-.182.182l-.187 3.994.187 2.582a.182.182 0 0 0 .364 0l.212-2.582-.212-3.994a.188.188 0 0 0-.182-.182Zm-1.925 1.389a.145.145 0 0 0-.14.14L2.7 14.468l.211 2.561a.14.14 0 0 0 .282 0l.24-2.56-.24-2.648a.146.146 0 0 0-.14-.14Zm3.88 5.55a.226.226 0 0 0 .223-.223l.184-2.538-.184-5.319a.223.223 0 0 0-.446 0l-.163 5.318.163 2.54a.226.226 0 0 0 .223.221Zm4.003.011a.31.31 0 0 0 .305-.306l.128-2.465-.128-6.14a.304.304 0 1 0-.61 0l-.115 6.14.115 2.469a.309.309 0 0 0 .305.302Zm-2.017-.01a.266.266 0 0 0 .264-.264l.156-2.5-.156-5.356a.264.264 0 1 0-.527 0l-.141 5.357.14 2.5a.265.265 0 0 0 .264.262v.002Zm-4.907-.023a.166.166 0 0 0 .16-.16l.227-2.582-.226-2.456a.161.161 0 0 0-.323 0l-.2 2.455.2 2.582a.164.164 0 0 0 .162.161ZM2.1 17.07a.125.125 0 0 0 .121-.118l.255-2.485-.254-2.578a.12.12 0 1 0-.241 0l-.224 2.578.224 2.485a.123.123 0 0 0 .12.118Zm7.822-8.044a.286.286 0 0 0-.285.285l-.127 5.162.127 2.484a.285.285 0 0 0 .569 0l.14-2.484-.14-5.163a.286.286 0 0 0-.284-.284Zm-3.97 8.211a.207.207 0 0 0 .202-.201l.198-2.565-.2-4.908a.202.202 0 0 0-.405 0l-.175 4.908.176 2.566a.205.205 0 0 0 .204.2Zm2.211-.242.17-2.522-.17-5.497a.243.243 0 1 0-.486 0l-.151 5.497.151 2.524a.243.243 0 0 0 .486 0v-.002Zm12.883-5.692a2.896 2.896 0 0 0-1.14.23c-.235-2.681-2.467-4.782-5.188-4.782a5.246 5.246 0 0 0-1.888.355c-.223.087-.281.177-.284.35v9.439a.36.36 0 0 0 .319.351l8.182.005A2.964 2.964 0 0 0 24 14.277c0-1.642-1.322-2.974-2.953-2.974h-.001Zm-9.104-3.855a.328.328 0 0 0-.325.328l-.134 6.698.134 2.431a.324.324 0 0 0 .454.31.326.326 0 0 0 .196-.313v.003l.145-2.431-.145-6.7a.328.328 0 0 0-.325-.326Z"></path>
</svg>