<svg fill="currentColor" viewBox="0 0 24 24" xmlns="http://www.w3.org/2000/svg">
  <path d="M23.699 10.998c-.154-.166-1.258-1.514-1.853-2.24l-.67-.818-.01-.01-.009-.01c-.244-.274-.592-.587-1.114-.587-.085.001-.17.008-.254.02l-.054.008c-.115.012-.471.07-1.319.21-.656.107-1.646.27-1.796.284l-.033.003-.032.006c-.469.084-.78.292-.917.619-.073.172-.151.522.138.93.072.104.32.449.747 1.04l.879 1.218-5.22 1.22-5.12-8.389-.01-.016-.01-.015-.02-.03c-.21-.308-.47-.691-1.224-.691-.053 0-.108 0-.17.005-.215.012-1.004.074-1.916.146-1.008.08-2.386.187-2.565.192h-.035l-.037.004c-.428.042-.739.215-.923.515-.307.502-.067 1.064.012 1.249.158.373 1.597 3.406 2.866 6.083a616.475 616.475 0 0 1 1.785 3.78 1.634 1.634 0 0 0 1.545 1.013c.155-.001.31-.018.462-.052h.01l.009-.002c.65-.159 2.71-.682 4.181-1.06l.281.49c1.028 1.805 1.777 3.11 2.023 3.444.127.177.502.693 1.208.693.256 0 .49-.066.738-.136l.072-.02h.005c.494-.14 7.064-2.445 7.4-2.594l.01-.005c.256-.113.641-.283.76-.722.076-.287.008-.578-.206-.865l-.003-.004-.004-.005a758.117 758.117 0 0 0-2.114-2.786 90.187 90.187 0 0 0 2.033-.541c.538-.16.7-.501.75-.69.037-.148.085-.526-.276-.884Zm-15 2.728c-.835.195-1.417.331-1.777.417L5.4 11.08a1816.267 1816.267 0 0 0-2.493-5.01l.382-.033 1.959-.168c.785 1.325 3.483 5.874 4.514 7.608l-1.062.248Zm8.35 3.123c-1.134.375-1.749.58-2.081.691A370.2 370.2 0 0 1 13.446 15l5.423-1.382c.234.32.683.925 1.569 2.106-.848.283-2.26.751-3.388 1.125Zm2.62-5.701L18.555 9.67l1.226-.216.562.698.56.694-1.234.302Z"></path>
</svg>