<svg fill="currentColor" viewBox="0 0 24 24" xmlns="http://www.w3.org/2000/svg">
  <path d="M19.156 13.994a.985.985 0 1 1 .907-.608.977.977 0 0 1-.907.608Zm-4.789 0a.984.984 0 1 1 .907-.608.977.977 0 0 1-.907.608Zm7.13 5.572C23.02 18.473 24 16.834 24 14.976c0-3.332-3.211-6.063-7.238-6.063-4.027 0-7.239 2.732-7.239 6.063 0 3.332 3.211 6.063 7.239 6.063.816 0 1.633-.11 2.34-.328a.67.67 0 0 1 .217-.055.78.78 0 0 1 .382.11l1.58.928a.544.544 0 0 0 .163.055.234.234 0 0 0 .218-.218.67.67 0 0 0-.036-.181c-.02-.069-.234-.75-.345-1.185a.897.897 0 0 1-.015-.162.535.535 0 0 1 .234-.439"></path>
  <path d="M11.537 8.368a1.147 1.147 0 0 1 0-2.294c.599 0 1.143.546 1.143 1.147.055.6-.49 1.147-1.143 1.147Zm-5.768 0a1.147 1.147 0 1 1 1.143-1.15 1.152 1.152 0 0 1-1.143 1.148v.002ZM8.653 2.25C3.863 2.25 0 5.473 0 9.516c0 2.184 1.143 4.15 2.993 5.462.164.108.195.35.195.444a.533.533 0 0 1-.031.21c-.164.546-.373 1.43-.382 1.477-.008.047-.054.164-.054.219a.257.257 0 0 0 .272.273.336.336 0 0 0 .164-.055l1.905-1.093c.164-.11.273-.11.436-.11.093.002.186.02.272.055.87.274 1.85.383 2.83.383h.49a6.246 6.246 0 0 1-.272-1.803c0-3.66 3.537-6.609 7.891-6.609h.49c-.6-3.442-4.192-6.119-8.546-6.119Z"></path>
</svg>