<svg fill="currentColor" viewBox="0 0 24 24" xmlns="http://www.w3.org/2000/svg">
  <path d="M22.5 8.137c0-4.881-3.2-6.312-3.2-6.312-1.614-.74-4.384-1.052-7.263-1.075h-.07c-2.878.023-5.647.335-7.26 1.075 0 0-3.2 1.43-3.2 6.312 0 1.118-.022 2.454.013 3.871.116 4.773.876 9.478 5.292 10.646 2.036.539 3.784.651 5.192.574 2.553-.14 3.984-.91 3.984-.91l-.084-1.852s-1.825.575-3.874.505c-2.03-.07-4.171-.219-4.5-2.71a5.083 5.083 0 0 1-.046-.698c1.485.331 2.997.533 4.518.602 1.544.07 2.992-.09 4.463-.266 2.821-.336 5.277-2.074 5.586-3.66.488-2.5.449-6.102.449-6.102Zm-3.775 6.289H16.38V8.69c0-1.21-.51-1.823-1.527-1.823-1.125 0-1.69.728-1.69 2.167v3.14h-2.328v-3.14c0-1.44-.563-2.167-1.69-2.167-1.019 0-1.528.613-1.528 1.823v5.736H5.274v-5.91c0-1.208.309-2.167.926-2.878.638-.71 1.472-1.074 2.508-1.074 1.2 0 2.107.46 2.707 1.382l.585.977.584-.977c.6-.922 1.508-1.382 2.707-1.382 1.036 0 1.87.364 2.508 1.074.618.71.927 1.67.926 2.878v5.91Z"></path>
</svg>