<svg fill="currentColor" viewBox="0 0 24 24" xmlns="http://www.w3.org/2000/svg">
  <path d="M19.913 6.977c-.02.129-.044.261-.07.397-.899 4.594-3.973 6.178-7.9 6.178h-2a.969.969 0 0 0-.96.819L7.96 20.83l-.29 1.832a.51.51 0 0 0 .505.589h3.546a.852.852 0 0 0 .844-.716l.035-.18.667-4.219.043-.231a.851.851 0 0 1 .843-.717h.53c3.437 0 6.126-1.389 6.912-5.406.328-1.678.158-3.08-.71-4.065a3.388 3.388 0 0 0-.972-.741Z"></path>
  <path d="M18.07 2.395C17.056 1.243 15.22.75 12.874.75H6.058a.973.973 0 0 0-.963.82L2.257 19.475a.583.583 0 0 0 .578.673h4.208l1.056-6.67-.033.21a.969.969 0 0 1 .96-.819h2c3.926 0 7-1.587 7.9-6.178.026-.136.049-.268.07-.398.266-1.697-.003-2.853-.925-3.9Z"></path>
</svg>