<svg fill="currentColor" viewBox="0 0 24 24" xmlns="http://www.w3.org/2000/svg">
  <path d="M22.354 5.343c-.234-1.096-.82-1.818-1.903-2.169-1.083-.351-3.044-.21-4.412.787-1.256.915-2.169 2.551-2.532 3.67a.187.187 0 0 0 .241.234c.505-.178 1.018-.333 1.594-.302a1.193 1.193 0 0 1 1.167 1.185c.014.459-.009.876-.168 1.298-.504 1.344-1.295 2.646-2.23 3.785a3.4 3.4 0 0 1-.468.463c-.479.389-.882.286-1.191-.244-.253-.435-.422-.885-.572-1.363-.581-1.86-.788-3.789-1.116-5.696-.155-.913-.328-1.864-.844-2.665-.544-.834-1.34-1.152-2.344-1.031-.689.084-1.73.82-2.24 1.237 0 0-2.626 2.197-3.836 3.344l.994 1.266s.84-.586 1.29-.858c.266-.158.58-.191.806.01.21.183.45.422.577.66.267.502.525 1.026.689 1.565a315.194 315.194 0 0 1 1.772 6.245c.295 1.067.652 2.07 1.312 2.979.906 1.246 1.857 1.531 3.325 1.007 1.19-.426 2.185-1.227 3.094-2.056 1.552-1.415 2.77-3.064 4.008-4.741a22 22 0 0 0 2.41-4.076c.652-1.452.91-2.975.577-4.534Z"></path>
</svg>