<svg fill="currentColor" viewBox="0 0 24 24" xmlns="http://www.w3.org/2000/svg">
  <path d="M23.99 15.377c-.069-.558-.352-1.043-.844-1.442a.157.157 0 0 0-.02-.02l-.025-.018-.008-.006-.26-.188-.01-.006-.033-.024a.166.166 0 0 0-.039-.016c-.826-.492-2.193-.836-4.285-.098-.5-.84-.556-1.513-.222-2.544.06-.18.004-.299-.174-.375-.358-.153-.848-.075-1.196.017-.162.042-.26.134-.29.273-.22 1.031-.861 1.974-1.48 2.883l-.037.053c-.382-.809-.302-1.435-.037-2.22.053-.157.012-.261-.135-.339-.41-.211-1.024-.066-1.269.006-.31.09-.643.93-1.015 1.933a9.312 9.312 0 0 1-.222.57c-.115.234-.225.502-.341.785-.263.642-.559 1.364-.981 1.818-.154-.34.088-.876.323-1.396.278-.614.54-1.195.238-1.566a.554.554 0 0 0-.39-.202.621.621 0 0 0-.289.047c.031-.265.033-.474-.044-.727-.111-.36-.398-.562-.794-.552-.901.027-1.663.698-2.145 1.257-.32.375-1.03.66-1.655.911-.246.105-.48.199-.676.292-.312-.263-.708-.529-1.125-.81-1.172-.786-2.5-1.678-2.546-2.888C1.898 9 3.933 7.732 5.708 6.828c1.346-.685 2.516-1.138 3.577-1.386 1.491-.349 2.75-.278 3.742.208.543.266.797.844.636 1.438-.422 1.544-2.17 2.603-3.665 3.08-.9.286-1.667.406-2.344.367-.848-.05-1.541-.475-1.837-.657a.994.994 0 0 0-.15-.084l-.014-.003a.15.15 0 0 0-.15.047c-.06.072-.039.187-.017.245.288.753.884 1.23 1.77 1.415.29.058.584.086.88.083 2.072 0 4.716-1.194 5.687-2.178.663-.67 1.145-1.36 1.345-2.548.208-1.245-.635-2.11-1.495-2.508-2.09-.964-4.462-.583-6.085-.094C5.69 4.826 3.726 5.866 2.2 7.11.32 8.642-.36 10.063.18 11.34c.554 1.31 1.904 2.128 3.21 2.92.421.256.822.499 1.184.75l-.333.161c-1.096.531-2.34 1.129-3.029 2.117-.5.719-.594 1.435-.278 2.128.169.37.469.62.885.744.217.062.442.092.667.089.811 0 1.704-.328 2.19-.631.859-.54 1.415-1.263 1.654-2.151.213-.79.162-1.576-.147-2.277l1.052-.53c-.507 1.687-.118 2.695.31 3.25.157.206.44.329.758.335.317.005.61-.114.774-.318.313-.386.543-.839.756-1.291-.012.295.002.594.103.848.09.228.24.38.432.438.204.062.444.01.674-.148 1.04-.711 1.75-2.418 2.321-3.79.081-.195.16-.382.235-.558.14.506.337.994.585 1.457.056.1.051.144-.024.227-.113.123-.27.273-.437.431-.506.48-1.135 1.078-1.219 1.605-.033.21.112.403.338.447.678.135 1.495-.063 2.186-.528.628-.422.865-1.01.703-1.743-.156-.706.2-1.582 1.06-2.607.14.587.327 1.062.586 1.478l-.007.005c-.625.546-1.482 1.294-1.349 2.201a.626.626 0 0 0 .514.535c.09.017.183.015.273-.006.819-.172 1.435-.518 1.883-1.058.448-.54.285-1.138.134-1.602 1.171-.318 2.215-.31 3.192.024.548.187.941.495 1.168.92.286.535.132 1.029-.435 1.39-.174.111-.258.18-.263.265a.124.124 0 0 0 .047.104c.066.054.268.148.726-.14.422-.265.67-.625.733-1.078.012-.125.012-.25 0-.376ZM5.253 16.552l-.005.06c-.073.686-.422 1.284-1.038 1.781-.387.313-.808.504-1.184.54-.262.026-.453-.01-.567-.106-.084-.071-.13-.179-.14-.328-.077-1.194 1.796-2.381 2.85-2.771.076.267.104.546.084.824Zm4.797-3.368c-.173.988-.679 2.854-1.474 3.579-.038.034-.07.046-.084.043-.015-.003-.026-.02-.038-.047-.265-.615-.167-1.654.235-2.47.309-.629.75-1.045 1.243-1.171a.243.243 0 0 1 .063-.01.074.074 0 0 1 .046.013.078.078 0 0 1 .01.063Zm3.914 3.603c-.15.156-.354.135-.306.078l.761-.808c-.061.278-.243.508-.455.73Zm3.158-.699a.659.659 0 0 1-.231.066c-.022-.426.39-.904.797-1.223.109.443-.115.912-.566 1.157Z"></path>
</svg>