<svg fill="currentColor" viewBox="0 0 24 24" xmlns="http://www.w3.org/2000/svg">
  <path d="M19.24 13.088c-.234-.54-.595-1.013-1.316-1.411a4.599 4.599 0 0 0-1.191-.47c.28-.13.538-.304.764-.515.332-.296.583-.672.731-1.092.136-.427.192-.875.164-1.322-.051-.787-.206-1.551-.618-2.1-.413-.548-.994-.97-1.763-1.266-.59-.224-1.195-.365-2.133-.417V1.5h-1.875v3h-1.5v-3H8.581v3H4.5v2.25h1.306c.408 0 .685.037.825.108a.62.62 0 0 1 .305.281c.061.117.09.394.09.82v8.12c0 .421-.029.693-.09.815-.06.122-.094.23-.239.295-.145.066-.15.061-.553.061H4.906L4.5 19.5h4.078v3H10.5v-3H12v3h1.875v-3.019c1.219-.06 2.086-.22 2.784-.483.905-.337 1.599-.83 2.096-1.476.497-.647.656-1.636.7-2.4.03-.68-.002-1.556-.214-2.034ZM10.5 7.03H12v3.47h-1.5V7.031Zm0 9.938V12.75H12v4.219h-1.5Zm3.375-9.755c.281.117.464.352.647.595.201.268.305.624.305 1.003 0 .366-.136.68-.352.961-.178.23-.319.39-.6.52V7.215Zm1.35 8.752c-.366.323-.577.473-1.036.647a2.637 2.637 0 0 1-.314.089V12.82c.183.027.362.081.53.16.365.154.712.323.928.618.239.34.37.743.375 1.158-.002.511-.133.9-.484 1.21h.001Z"></path>
</svg>