<svg fill="currentColor" viewBox="0 0 24 24" xmlns="http://www.w3.org/2000/svg">
  <path d="M12 7.21a4.786 4.786 0 1 0 0 9.573 4.786 4.786 0 0 0 0-9.572Z"></path>
  <path d="M18.871 7.643a2.18 2.18 0 1 0 0-4.362 2.18 2.18 0 0 0 0 4.361Z"></path>
  <path d="m21.556 7.65-.091-.2-.146.164a3.281 3.281 0 0 1-1.316.906l-.14.052.057.137A8.505 8.505 0 0 1 20.578 12c0 4.73-3.848 8.578-8.578 8.578-4.73 0-8.578-3.847-8.578-8.578 0-4.73 3.847-8.578 8.578-8.578a8.481 8.481 0 0 1 3.676.83l.135.06.059-.136a3.29 3.29 0 0 1 .968-1.27l.172-.137-.196-.097A10.388 10.388 0 0 0 12 1.5C6.21 1.5 1.5 6.21 1.5 12S6.21 22.5 12 22.5 22.5 17.79 22.5 12a10.414 10.414 0 0 0-.944-4.35Z"></path>
</svg>