<svg fill="currentColor" viewBox="0 0 24 24" xmlns="http://www.w3.org/2000/svg">
  <path d="M12 1.5C6.2 1.5 1.5 6.2 1.5 12S6.2 22.5 12 22.5 22.5 17.8 22.5 12 17.8 1.5 12 1.5ZM8.016 16.589a.725.725 0 0 1-.631.358.698.698 0 0 1-.369-.101.725.725 0 0 1-.262-.994l.716-1.192a.41.41 0 0 1 .354-.201h.106c.52 0 .883.312.99.615l-.904 1.515Zm6.068-2.344-4.694.005H6.27a.725.725 0 0 1-.727-.757c.015-.394.359-.692.75-.692h2.262l2.68-4.563-.868-1.48a.736.736 0 0 1 .227-.992.73.73 0 0 1 1.025.242l.464.793h.005l.465-.793a.73.73 0 0 1 1.022-.242c.333.212.42.656.222.994l-.868 1.48-.844 1.438-1.832 3.124v.006h2.7c.339 0 .763.181.935.474l.015.03c.151.258.237.435.237.692a.647.647 0 0 1-.055.242l-.001-.001Zm3.644.005h-1.27v.005l.928 1.58a.74.74 0 0 1-.242 1.01.727.727 0 0 1-.741.01.737.737 0 0 1-.269-.261l-1.373-2.337-.853-1.454-1.1-1.881a1.798 1.798 0 0 1-.03-1.781c.217-.384.383-.485.383-.485l2.448 4.14h2.106c.393 0 .731.304.75.692a.733.733 0 0 1-.735.762h-.002Z"></path>
</svg>