<svg fill="currentColor" viewBox="0 0 24 24" xmlns="http://www.w3.org/2000/svg">
  <path d="M8.85 11.993A3.15 3.15 0 1 0 12 8.843a3.158 3.158 0 0 0-3.15 3.15Z"></path>
  <path d="M22.348 10.209v.002a9.687 9.687 0 0 0-.328-1.352h-7.29c.893.797 1.47 1.883 1.47 3.143a4.058 4.058 0 0 1-.577 2.097l-4.795 8.328a.09.09 0 0 1 0 .013v.013-.012a10.473 10.473 0 0 0 2.124.012c.47-.042.936-.117 1.396-.222 4.668-1.066 8.152-5.244 8.152-10.234 0-.6-.05-1.197-.152-1.788Z"></path>
  <path d="M12 16.196c-1.575 0-2.887-.84-3.623-2.1L3.563 5.77l-.007-.011a10.5 10.5 0 0 0 6.166 16.488v-.003l3.642-6.31a3.941 3.941 0 0 1-1.364.263Z"></path>
  <path d="m4.279 4.905 3.625 6.246A4.18 4.18 0 0 1 12 7.784h9.618a11.553 11.553 0 0 0-1.209-2.06l.006.004c.47.642.874 1.331 1.203 2.056h.008a11.532 11.532 0 0 0-1.203-2.062.121.121 0 0 1-.017-.013 10.497 10.497 0 0 0-16.134-.815l.007.011Z"></path>
</svg>