<svg fill="currentColor" viewBox="0 0 24 24" xmlns="http://www.w3.org/2000/svg">
  <path d="M11.977.703C5.789.703.727 5.766.727 11.953c0 6.188 5.062 11.25 11.25 11.25 4.003 0 7.537-2.119 9.53-5.292a.321.321 0 0 0-.222-.49.322.322 0 0 0-.205.035 5.093 5.093 0 0 1-.863.403c-1.725.591-2.676.614-3.848.563-1.308-.056-2.902-.506-4.022-1.172-1.12-.666-2.04-1.622-2.536-2.452-.497-.83-.797-1.87-.661-3.201.136-1.36 1.378-2.466 2.831-2.466 1.57 0 2.85 1.247 2.85 2.817 0 .797-.38 1.486-.867 2.04-.108.098-.356.454.272.937.745.572 2.419.844 3.745.778 1.327-.066 2.77-.59 3.76-1.631.787-.83 1.49-2.161 1.49-3.628C23.227 4.58 17.79.704 11.977.704Z"></path>
</svg>