<svg fill="currentColor" viewBox="0 0 24 24" xmlns="http://www.w3.org/2000/svg">
  <path d="m15.502 16.5 3.643-9H16.73l-2.492 5.816L12.465 7.5H10.61l-1.903 5.816-1.342-2.65L6.15 14.39l1.233 2.11H9.76l1.72-5.216 1.64 5.216h2.382Z"></path>
  <path d="M2.287 13.41h1.484c.405.006.81-.044 1.2-.15l.384-1.18 1.072-3.3a2.613 2.613 0 0 0-.28-.367C5.596 7.804 4.791 7.5 3.73 7.5H0v9h2.287v-3.09Zm1.964-3.84c.215.217.323.506.323.869 0 .362-.094.652-.282.868-.207.238-.589.357-1.145.357h-.86V9.246h.863c.519 0 .886.108 1.101.324Zm13.414 5.318.693-1.746h2.001l-.95-2.649L20.598 7.5l3.403 9h-2.51l-.58-1.612h-3.245Z"></path>
</svg>