<svg fill="currentColor" viewBox="0 0 24 24" xmlns="http://www.w3.org/2000/svg">
  <path d="m23.16 13.2-1.18-3.66a.511.511 0 0 0-.029-.098l-2.367-7.356a.941.941 0 0 0-1.45-.468.926.926 0 0 0-.337.473l-2.257 7.01H8.416l-2.259-7.01a.926.926 0 0 0-.884-.654h-.005a.945.945 0 0 0-.896.657l-2.37 7.363c0 .006-.005.012-.007.019L.793 13.2a1.366 1.366 0 0 0 .49 1.522l10.38 7.613a.527.527 0 0 0 .627-.003l10.382-7.61a1.365 1.365 0 0 0 .488-1.522ZM7.644 10.178l2.894 8.989-6.945-8.99h4.051Zm5.775 8.99 2.775-8.617.12-.375h4.055l-6.284 8.128-.666.864Zm5.275-16.386 2.033 6.32h-4.07l2.037-6.32Zm-3.498 7.392-2.016 6.261-1.203 3.73-3.214-9.991h6.432ZM5.262 2.78 7.3 9.1H3.235l2.028-6.32ZM1.907 13.856a.29.29 0 0 1-.103-.323l.89-2.766 6.545 8.465-7.332-5.376Zm20.14 0-7.332 5.374.025-.032 6.518-8.433.89 2.766a.29.29 0 0 1-.102.324"></path>
</svg>