<svg fill="currentColor" viewBox="0 0 24 24" xmlns="http://www.w3.org/2000/svg">
  <path d="M11.376 15.954h1.248v-3.403h3.14v-1.21h-3.14V7.938h-1.248v3.403h-3.1v1.21h3.1v3.403Z"></path>
  <path d="M5.59 20.87h1.06v-3.026h2.798V16.9H6.649v-3.063H5.59V16.9H2.792v.945H5.59v3.025Z"></path>
  <path d="M17.351 9.94h1.06V6.916h2.835v-.908H18.41V2.945h-1.059v3.063h-2.798v.908h2.798V9.94Z"></path>
  <path d="M11.565 23.246h.908V21.09h1.929v-.793h-1.93V18.14h-.907v2.156h-1.89v.793h1.89v2.156Z"></path>
  <path d="M5.628 9.94h.985V6.878h2.836v-.87H6.61V2.945h-.984v3.063H2.792v.87h2.836V9.94Z"></path>
  <path d="M20.425 14.473h.907v-2.117h1.918v-.832h-1.918V9.406h-.907v2.118h-1.89v.832h1.89v2.117Z"></path>
  <path fill-rule="evenodd" d="M17.351 20.87h1.06v-3.026h2.835V16.9H18.41v-3.063h-1.059V16.9h-2.798v.945h2.798v3.025Z" clip-rule="evenodd"></path>
  <path d="M14.39 3.473V2.83H12.5V.75h-.68v2.08H9.928v.643h1.89v2.08h.68v-2.08h1.892ZM2.63 14.325h.68v-2.08h1.893v-.642H3.311v-2.04h-.68v2.041H.75v.681l1.88-.004v2.044Z"></path>
</svg>