<svg fill="currentColor" viewBox="0 0 24 24" xmlns="http://www.w3.org/2000/svg">
  <path d="M17.66 1.5H6.495C4.954 1.5 4.5 2.663 4.5 3.394V21.19c0 .824.442 1.13.69 1.231.248.101.933.188 1.344-.289 0 0 5.272-6.135 5.362-6.226.137-.138.137-.138.274-.138h3.411c1.434 0 1.664-1.025 1.814-1.629.124-.505 1.522-7.687 1.99-9.963C19.74 2.437 19.3 1.5 17.66 1.5Zm-.265 12.64c.124-.506 1.522-7.688 1.99-9.964l-1.99 9.963ZM17 4.53l-.469 2.425c-.055.265-.388.544-.696.544h-4.497c-.489 0-.839.288-.839.778v.63c0 .491.352.84.844.84h3.837c.345 0 .684.38.609.75-.076.369-.426 2.182-.469 2.385-.043.202-.274.549-.685.549h-3.011c-.548 0-.714.072-1.081.53-.367.457-3.669 4.434-3.669 4.434-.033.038-.066.027-.066-.015V4.495c0-.313.272-.68.679-.68h8.96A.582.582 0 0 1 17 4.53Z"></path>
</svg>