<svg fill="currentColor" viewBox="0 0 24 24" xmlns="http://www.w3.org/2000/svg">
  <path d="M14.719 1.706c-.872-.144-2.147-.21-3.013-.206-.811.001-1.621.07-2.421.206C7.14 2.08 6.75 2.862 6.75 4.309V6H12v.75H5.045c-1.948 0-3.53 2.328-3.545 5.209V12c0 .504.048 1.006.147 1.5.435 2.17 1.792 3.75 3.398 3.75H6v-2.53c0-1.467.977-2.81 2.578-3.098l.463-.058h5.678c.238 0 .476-.03.706-.094a2.46 2.46 0 0 0 1.825-2.39V4.31c0-1.356-1.157-2.378-2.531-2.604Zm-5.582 3.24a.955.955 0 1 1-.006-1.91.955.955 0 0 1 .006 1.91Z"></path>
  <path d="M22.279 10.172c-.502-1.997-1.8-3.422-3.324-3.422h-.83v2.224c0 1.855-1.219 3.198-2.706 3.428-.15.024-.303.035-.455.035H9.285c-.24 0-.48.03-.714.092-1.046.274-1.821 1.144-1.821 2.273v4.77c0 1.36 1.366 2.156 2.706 2.546 1.604.466 3.35.55 5.27 0 1.274-.364 2.524-1.1 2.524-2.546V18H12v-.75h6.955c1.38 0 2.576-1.169 3.162-2.874A7.35 7.35 0 0 0 22.5 12a7.53 7.53 0 0 0-.221-1.828Zm-7.443 8.765a.955.955 0 1 1 .007 1.91.955.955 0 0 1-.007-1.91Z"></path>
</svg>