<svg fill="currentColor" viewBox="0 0 24 24" xmlns="http://www.w3.org/2000/svg">
  <path d="M5.944 11.64c1.86-2.746 3.651-4.35 3.651-4.35s-1.973-2.292-4.35-3.159l-.154-.037A10.506 10.506 0 0 0 3.619 18.33c0-.206.028-3.296 2.325-6.69Z"></path>
  <path d="M22.5 12.002a10.486 10.486 0 0 0-3.591-7.908l-.15.042c-2.377.867-4.355 3.16-4.355 3.16s1.79 1.602 3.652 4.35c2.297 3.393 2.325 6.482 2.32 6.688a10.444 10.444 0 0 0 2.124-6.332Z"></path>
  <path d="M9.43 3.792c1.374.614 2.56 1.622 2.56 1.622s1.195-1.003 2.569-1.622c1.725-.773 3.042-.53 3.389-.445a10.503 10.503 0 0 0-11.897 0c.337-.084 1.65-.333 3.38.445Z"></path>
  <path d="M16.814 13.73c-2.17-2.668-4.823-4.402-4.823-4.402s-2.639 1.735-4.814 4.402c-1.866 2.292-2.56 3.975-2.934 5.053l-.061.225a10.5 10.5 0 0 0 15.637 0l-.066-.225c-.375-1.078-1.073-2.761-2.939-5.053Z"></path>
</svg>