<svg fill="currentColor" viewBox="0 0 24 24" xmlns="http://www.w3.org/2000/svg">
  <path d="M22.444 9.76a1.688 1.688 0 1 1-3.376 0 1.688 1.688 0 0 1 3.376 0Zm-1.697-3.244a3.254 3.254 0 0 0-3.253 3.22l-2.025 2.906a2.404 2.404 0 0 0-1.49.328l-9.18-3.689a2.428 2.428 0 1 0-2.371 2.949c.436 0 .864-.118 1.237-.343l9.179 3.685a2.426 2.426 0 0 0 4.786-.277l3.117-2.278a3.251 3.251 0 0 0 0-6.501Zm0 1.073a2.177 2.177 0 1 1-.005 4.355 2.177 2.177 0 0 1 .005-4.355Zm-18.319.422a1.79 1.79 0 0 1 1.58.947l-.886-.356v.004a1.416 1.416 0 0 0-1.06 2.625v.005l.755.3a1.783 1.783 0 1 1-.39-3.525Zm12.788 5.26a1.786 1.786 0 1 1-1.58 2.62c.295.117.586.234.881.356a1.419 1.419 0 1 0 1.055-2.634l-.746-.3c.129-.026.259-.04.39-.043Z"></path>
</svg>