<svg fill="currentColor" viewBox="0 0 24 24" xmlns="http://www.w3.org/2000/svg">
  <path d="m12.141 12.719-1.537 4.486h-.005l-1.19 3.426c.084.024.163.042.248.066h.014a9.03 9.03 0 0 0 2.32.305c.39.003.781-.026 1.167-.085a8.642 8.642 0 0 0 1.89-.455c-.132-.28-.413-.904-.427-.932l-2.48-6.811Z"></path>
  <path d="M3.788 8.46C3.317 9.52 3 10.824 3 12c0 .295.014.59.042.881.324 3.338 2.48 6.14 5.442 7.402.122.051.249.103.375.15L4.5 8.466c-.375-.014-.445.009-.712-.005Z"></path>
  <path d="M20.166 8.222a8.816 8.816 0 0 0-.708-1.247c-.075-.112-.16-.225-.24-.337a9.048 9.048 0 0 0-3.979-3.029A8.869 8.869 0 0 0 11.995 3a8.977 8.977 0 0 0-7.003 3.361 9.187 9.187 0 0 0-.82 1.2c.666.005 1.49.005 1.584.005.849 0 2.156-.103 2.156-.103.441-.029.488.614.052.665 0 0-.44.052-.928.075l2.948 8.766 1.772-5.311-1.256-3.45c-.44-.024-.848-.075-.848-.075-.441-.024-.385-.694.046-.666 0 0 1.336.103 2.133.103.849 0 2.157-.103 2.157-.103.435-.028.492.614.051.666 0 0-.436.051-.923.075l2.92 8.7.81-2.7c.409-1.05.615-1.917.615-2.611 0-.998-.361-1.692-.67-2.231-.408-.67-.793-1.233-.793-1.894 0-.745.563-1.44 1.36-1.44h.103C18.689 6 19.092 7.22 19.144 8.049v.029c.019.337.004.586.004.88 0 .816-.154 1.74-.614 2.898l-1.828 5.287-1.045 3.08a5.92 5.92 0 0 0 .248-.117c2.658-1.285 4.594-3.844 5.002-6.877.06-.403.09-.81.089-1.219a8.957 8.957 0 0 0-.834-3.787Z"></path>
  <path d="M12 2.25a9.753 9.753 0 0 1 3.797 18.734A9.753 9.753 0 0 1 8.203 3.016 9.689 9.689 0 0 1 12 2.25Zm0-.75C6.201 1.5 1.5 6.201 1.5 12S6.201 22.5 12 22.5 22.5 17.799 22.5 12 17.799 1.5 12 1.5Z"></path>
</svg>