<svg fill="currentColor" viewBox="0 0 24 24" xmlns="http://www.w3.org/2000/svg">
  <path d="M23.766 9.898c-.067-.056-.668-.513-1.959-.513-.34.002-.678.032-1.013.09-.245-1.707-1.658-2.532-1.714-2.58l-.345-.2-.223.324a4.79 4.79 0 0 0-.612 1.427c-.234.97-.089 1.885.4 2.665-.59.335-1.546.412-1.747.422H.748a.746.746 0 0 0-.748.751 11.309 11.309 0 0 0 .692 4.07c.545 1.428 1.358 2.49 2.402 3.134 1.182.724 3.108 1.137 5.278 1.137.982 0 1.962-.09 2.928-.268a12.066 12.066 0 0 0 3.829-1.394 10.479 10.479 0 0 0 2.605-2.14c1.257-1.416 2.003-3 2.549-4.407h.222c1.37 0 2.216-.546 2.683-1.014.31-.294.553-.652.713-1.049l.1-.29-.235-.165Z"></path>
  <path d="M2.217 11.08H4.33a.187.187 0 0 0 .188-.188V8.995a.188.188 0 0 0-.188-.188H2.217a.188.188 0 0 0-.188.188v1.896a.195.195 0 0 0 .188.187v.002Zm2.916 0h2.115a.187.187 0 0 0 .187-.188V8.995a.188.188 0 0 0-.187-.188H5.133a.188.188 0 0 0-.188.188v1.896a.195.195 0 0 0 .188.187v.002Zm2.972 0h2.114a.187.187 0 0 0 .187-.188V8.995a.187.187 0 0 0-.187-.188H8.105a.188.188 0 0 0-.188.188v1.896a.181.181 0 0 0 .188.187v.002Zm2.928 0h2.115a.187.187 0 0 0 .187-.188V8.995a.188.188 0 0 0-.187-.188h-2.115a.187.187 0 0 0-.188.188v1.896a.187.187 0 0 0 .188.187v.002Zm-5.9-2.71h2.115a.195.195 0 0 0 .187-.187V6.285a.188.188 0 0 0-.187-.187H5.133a.187.187 0 0 0-.188.187v1.896a.203.203 0 0 0 .188.188v.001Zm2.972 0h2.114a.195.195 0 0 0 .187-.187V6.285a.187.187 0 0 0-.187-.187H8.105a.187.187 0 0 0-.188.187v1.896a.188.188 0 0 0 .188.188v.001Zm2.928 0h2.115a.195.195 0 0 0 .187-.187V6.285a.195.195 0 0 0-.187-.187h-2.115a.187.187 0 0 0-.188.187v1.896a.195.195 0 0 0 .188.188v.001Zm0-2.72h2.115a.188.188 0 0 0 .187-.188v-1.9a.195.195 0 0 0-.187-.187h-2.115a.187.187 0 0 0-.188.188v1.895a.195.195 0 0 0 .188.188v.004Zm2.949 5.43h2.115a.187.187 0 0 0 .187-.188V8.995a.187.187 0 0 0-.187-.188h-2.115a.187.187 0 0 0-.188.188v1.896a.196.196 0 0 0 .188.187"></path>
</svg>