<svg fill="currentColor" viewBox="0 0 24 24" xmlns="http://www.w3.org/2000/svg">
  <path d="M20.797 18.987a7.85 7.85 0 0 1-.188-.103c-.303-.18-.61-.494-.555-.836.113-.747.135-1.1-.023-1.35a.731.731 0 0 0-.36-.29v-.003a1.3 1.3 0 0 0 .133-.475c.067-.515-.235-2.062-.642-3.314-.38-1.156-1.371-2.343-2.096-3.213l-.169-.204c-1.12-1.356-1.14-1.79-1.244-3.875a111.47 111.47 0 0 0-.055-1.031C15.463 1.942 14.25.75 12 .75c-1.181 0-2.091.335-2.706.997-.491.529-.763 1.253-.763 2.04a30.9 30.9 0 0 0 .101 2.544c.066 1.674.047 1.933-.39 2.698-.104.184-.392.51-.697.854-.398.448-.848.956-1.095 1.37-.177.295-.276.591-.38.905-.16.479-.34 1.021-.851 1.715-.59.8-.728 1.388-.516 2.224-.232.302-.226.673-.223.948.007.095.002.191-.014.286-.107.355-.582.44-1.03.477-.075.005-.146.01-.214.013-.34.019-.634.035-.803.296-.163.251-.053.647.1 1.194.034.121.069.246.103.378.086.328-.008.491-.126.695-.114.198-.244.422-.244.823 0 .688.937.844 2.018 1.029.345.058.703.118 1.06.198.546.125 1.08.292 1.598.501.456.175.816.313 1.24.313.758 0 1.323-.458 1.87-.9l.101-.082c.26-.21 1.008-.188 1.61-.171.162.005.315.01.452.01h.292c.632-.004 1.497-.01 1.98.117.175.046.29.174.435.337.275.307.617.691 1.565.691.909 0 1.385-.408 1.937-.881.335-.288.682-.585 1.175-.837.184-.094.357-.182.52-.263 1.06-.534 1.645-.828 1.645-1.304 0-.465-.574-.774-.953-.978ZM9.896 4.143a.652.652 0 0 1 .584.422c.092.26.085.488.01.606 0 0-.01-.047-.017-.067a.696.696 0 0 0-.302-.403.533.533 0 0 0-.419-.069c-.2.053-.394.235-.417.881-.242-.49-.109-.844.043-1.078a.669.669 0 0 1 .518-.292Zm-.82 17.578c-.076.743-.863.732-1.103.713-.46-.039-1.015-.22-1.553-.395-.212-.07-.43-.14-.644-.204-.618-.182-1.411-.316-2.049-.422l-.424-.072c-.13-.023-.216-.06-.244-.108-.047-.077.018-.246.09-.441.098-.26.231-.62.226-1.058 0-.183-.069-.389-.133-.588-.076-.235-.154-.477-.09-.592.057-.104.316-.117.543-.117h.106c.167 0 .31.003.41-.024.305-.085.697-.325.835-.651.042-.102.064-.325.094-.656.017-.194.035-.393.057-.496a.166.166 0 0 1 .099-.12c.077-.036.318-.09.873.191.524.265 1.073 1.212 1.603 2.127.167.288.325.56.483.814.658 1.056.883 1.481.82 2.1v-.001Zm6.039-1.48a3.216 3.216 0 0 1-.213.512.027.027 0 0 1-.035.014.027.027 0 0 1-.016-.034c.08-.28.114-.573.099-.864-.012-.222-.019-.356-.125-.399-.106-.043-.2.039-.443.26l-.177.16c-.506.443-1.26.968-2.607 1.095-.789.074-1.293-.218-1.449-.382a.102.102 0 0 0-.144-.004.104.104 0 0 0-.024.108c.1.32.056.574-.023.758-.044.104-.087.097-.094-.015a1.861 1.861 0 0 0-.14-.666 14.557 14.557 0 0 0-.417-.838v-.002c.152-.07.415-.226.533-.51.118-.284.21-.844-.46-1.488-.295-.284-1.036-.804-1.69-1.266-.511-.358-1.04-.729-1.11-.82-.21-.276-.298-.436-.324-.921l.008-.323.013-.117a.023.023 0 0 1 .01-.017.027.027 0 0 1 .035 0c.005.004.008.01.009.017.02.154.05.306.094.455.05.175.112.356.17.43.149.199.354.347.546.399a.258.258 0 0 0 .235-.034c.137-.11.124-.356.103-.766-.023-.422-.053-1 .086-1.62.264-1.171.512-1.523.826-1.968l.124-.178a6.12 6.12 0 0 1 .219-.292c.35-.45.747-.96.652-1.92a9.379 9.379 0 0 1-.04-.533.047.047 0 0 1 .088-.028l.023.036.057.094c.228.375.64 1.058 1.176 1.058a.638.638 0 0 0 .111-.01c1.096-.184 2.433-1.418 2.445-1.43.147-.14.134-.288.077-.37a.243.243 0 0 0-.302-.082c-.154.066-.335.148-.526.235-.648.294-1.734.785-1.98.672a1.082 1.082 0 0 1-.31-.254.046.046 0 0 1-.006-.035.047.047 0 0 1 .073-.029c.262.108.447.068.665-.004l.047-.015c.44-.145.666-.224 1.442-.567.245-.115.5-.208.762-.278.188-.047.301-.076.362-.203a.312.312 0 0 0-.024-.334c-.071-.088-.19-.12-.328-.09-.15.036-.22.141-.3.211-.113.096-.235.195-.806.406-1.266.468-1.621.497-2.12.16-.46-.313-.71-.62-.71-.75 0-.1.256-.267.409-.367.062-.041.121-.08.17-.115.203-.151.609-.534.627-.55.253-.254.84-.103 1.172.12a.105.105 0 0 0 .08.02.1.1 0 0 0 .079-.121c-.197-.819-.006-1.282.188-1.526a1.059 1.059 0 0 1 .819-.397c.6 0 1.02.468 1.02 1.144 0 .516-.132.787-.257.952a.081.081 0 0 1-.145-.041.084.084 0 0 1 .013-.054 1.15 1.15 0 0 0 .157-.586.776.776 0 0 0-.79-.782c-.184 0-.631.07-.786.724-.037.17-.043.347-.016.519l.004.033c.042.346.717.587 1.277.727.532.134.609.292.414.92-.195.63.146 1.23.267 1.387.148.181.279.377.39.584.127.247.231.506.31.773.102.318.19.593.498.994.52.675.828 2.28.703 3.656-.01.114-.024.202-.036.266-.02.119-.034.197.031.253.065.055.148.032.34-.03l.161-.051c.194-.055.391-.1.59-.131a.102.102 0 0 0 .075-.055c.16-.324.18-.713.187-1.053l.003-.13c.009-.365.02-.888-.138-1.5a.047.047 0 0 1 .066-.058c.012.005.02.015.024.027.16.383.266.786.312 1.198.12 1.058-.089 1.504-.09 1.508a.075.075 0 0 0 .044.105c.125.045.237.12.326.22.068.077.043.112-.054.075a1.7 1.7 0 0 0-.598-.107c-.488 0-.848.232-1.009.43a.813.813 0 0 0-.18.529l-.002.002c-.35-.035-.607.057-.819.291l-.004.005c-.293.363-.187 1.154-.06 1.803.06.303.262 1.197.08 1.767v-.001Zm4.505.473c-.737.314-1.192.68-1.594 1.002-.265.213-.516.413-.81.57-.475.25-1.168.305-1.56-.362-.11-.187-.033-.462.074-.841.143-.504.34-1.193.174-2.093l-.116-.624c-.132-.694-.183-.955-.132-1.163.03-.115.161-.14.275-.14a.98.98 0 0 1 .124.008c.062.213.175.407.328.568.267.274.639.413 1.104.414.099.008 1.216.073 1.713-1.05.069.009.171.033.202.108.06.15-.013.418-.072.633a1.583 1.583 0 0 0-.076.392c.014.75.516 1.068 1.21 1.508.085.053.172.108.26.166.09.058.135.112.135.159-.024.224-.937.617-1.24.745Z"></path>
</svg>