<svg fill="currentColor" viewBox="0 0 24 24" xmlns="http://www.w3.org/2000/svg">
  <path d="m1.87 6.996 9.254 4.468c.24.115.562.175.88.175.319 0 .64-.06.881-.175l9.253-4.468c.487-.234.487-.618 0-.853l-9.253-4.468a2.122 2.122 0 0 0-.88-.175c-.318 0-.64.06-.881.175L1.87 6.143c-.487.235-.487.618 0 .853Z"></path>
  <path d="m22.139 11.574-1.914-.924c-.224-.11-.285-.104-.52.005-.235.11-6.825 3.292-6.825 3.292a2.15 2.15 0 0 1-.88.176c-.318 0-.64-.06-.88-.176 0 0-6.416-3.093-6.717-3.242-.325-.158-.42-.158-.716-.017l-1.828.88c-.486.235-.486.619 0 .854l9.255 4.468c.24.114.562.174.88.174.318 0 .64-.06.88-.174l9.254-4.468c.497-.23.497-.613.01-.848Z"></path>
  <path d="M22.14 17.006s-1.69-.815-1.914-.926c-.224-.111-.285-.104-.52.006-.235.109-6.82 3.299-6.82 3.299-.277.12-.577.179-.88.174-.317 0-.64-.06-.88-.174 0 0-6.415-3.094-6.716-3.243-.328-.16-.422-.16-.717-.017l-1.828.88c-.487.235-.487.619 0 .854l9.253 4.468c.24.12.563.175.88.175.319 0 .64-.06.881-.175l9.255-4.466c.492-.238.492-.62.006-.855Z"></path>
</svg>