<svg fill="currentColor" viewBox="0 0 24 24" xmlns="http://www.w3.org/2000/svg">
  <path d="M4.8 1.5c-1.876 0-3.3 1.506-3.3 3.365v14.27c0 1.858 1.518 3.365 3.394 3.365h14.213c1.875 0 3.393-1.507 3.393-3.364v-.146c-.063-.026-5.413-2.277-8.18-3.595-1.866 2.276-4.274 3.656-6.773 3.656-4.227 0-5.663-3.667-3.661-6.08.436-.527 1.179-1.03 2.331-1.313 1.802-.439 4.67.274 7.36 1.153.5-.917.9-1.887 1.193-2.89H6.485v-.827h4.271V7.602H5.582V6.77h5.174V4.64s0-.358.367-.358h2.088v2.484h5.117v.832h-5.117v1.496h4.176a16.85 16.85 0 0 1-1.768 4.426c1.265.454 2.311.885 3.159 1.167 2.827.937 3.62 1.052 3.722 1.064V4.865c0-1.86-1.519-3.365-3.393-3.365H4.8Zm2.325 11.378a6.297 6.297 0 0 0-.547.03c-.53.053-1.523.284-2.067.76-1.628 1.407-.653 3.981 2.643 3.981 1.915 0 3.83-1.214 5.334-3.158-1.94-.937-3.61-1.633-5.363-1.613Z"></path>
</svg>