<svg fill="currentColor" viewBox="0 0 24 24" xmlns="http://www.w3.org/2000/svg">
  <path d="M2.272 17.756a14.087 14.087 0 0 0 7.166 4.497 12.3 12.3 0 0 0 7.467-.81 10.57 10.57 0 0 0 3.131-2.202.298.298 0 0 0-.093-.4.552.552 0 0 0-.375-.002 18.84 18.84 0 0 1-5.464 1.844c-1.997.22-4.018.08-5.966-.414a20.94 20.94 0 0 1-5.583-2.836.234.234 0 0 0-.284.324Z"></path>
  <path d="M18.148 18.204a7.882 7.882 0 0 1 2.294-.104l.032.006a.469.469 0 0 1 .345.565 9.599 9.599 0 0 1-.709 2.16.12.12 0 0 0 .132.152.119.119 0 0 0 .05-.02 3.907 3.907 0 0 0 1.459-3.02.584.584 0 0 0-.48-.62 4.488 4.488 0 0 0-3.228.673.12.12 0 0 0-.026.167.118.118 0 0 0 .131.041Z"></path>
  <path d="M14.26 15.232a7.683 7.683 0 0 1-1.355 1.185 6.336 6.336 0 0 1-3.126.88 4.664 4.664 0 0 1-2.695-.93 4.559 4.559 0 0 1-1.282-4.7 5.267 5.267 0 0 1 3.06-3.238 17.235 17.235 0 0 1 4.909-.728V5.954a1.773 1.773 0 0 0-1.537-1.513c-.495-.068-1-.002-1.461.191A2.292 2.292 0 0 0 9.5 6.257a.563.563 0 0 1-.59.315l-2.385-.21a.533.533 0 0 1-.393-.477 4.86 4.86 0 0 1 1.716-2.974 6.744 6.744 0 0 1 4.237-1.41 6.85 6.85 0 0 1 3.95 1.297 4.07 4.07 0 0 1 1.44 3.291v6.043a3.96 3.96 0 0 0 .375 1.466l.743 1.09a.609.609 0 0 1 0 .526l-2.202 1.861a.586.586 0 0 1-.595-.02 11.475 11.475 0 0 1-1.536-1.823Zm-.496-5.477c-.69-.014-1.38.032-2.063.136A2.954 2.954 0 0 0 9.75 11.37a2.953 2.953 0 0 0 .143 2.531 1.903 1.903 0 0 0 2.209.572 3.685 3.685 0 0 0 1.662-2.606V9.755"></path>
</svg>