<svg fill="currentColor" viewBox="0 0 24 24" xmlns="http://www.w3.org/2000/svg">
  <path d="M23.25 6.004a3 3 0 0 0-4.987-2.252 3.026 3.026 0 0 0-.596.717v.003c-.025.042-.05.085-.073.128l-.01.023a2.59 2.59 0 0 0-.057.113l-.016.035-.044.104-.017.044a3.679 3.679 0 0 0-.037.099l-.017.05a3.115 3.115 0 0 0-.045.15l-.024.094c-.005.02-.01.038-.013.058l-.019.093-.01.06c-.006.032-.01.066-.014.099l-.008.058-.009.109c0 .017-.002.033-.003.05a3.07 3.07 0 0 0-.001.3v.03c.002.043.006.088.01.132l.002.022a2.36 2.36 0 0 0 .042.27c0 .01.004.02.006.03.008.04.018.08.028.12v.01c.01.041.022.082.035.123l.01.032.04.117.01.026a3.466 3.466 0 0 0 .1.238l.015.032.05.098a3.03 3.03 0 0 0 1.396 1.31l.018.009c.083.037.168.07.254.1l.045.016.07.022.064.018.09.024.081.018.054.011.086.016.044.007a3.8 3.8 0 0 0 .127.016l.036.003.104.008.04.002c.047 0 .091.004.137.004.055 0 .108 0 .162-.005l.05-.004.109-.008.058-.008c.033-.004.066-.008.1-.014l.058-.01c.032-.006.065-.012.094-.019l.058-.013c.032-.008.064-.015.094-.024l.054-.016c.032-.009.065-.019.096-.03l.05-.016.1-.037.043-.017.104-.044.035-.016a2.47 2.47 0 0 0 .112-.056l.023-.011c.044-.024.087-.047.129-.073h.003c.27-.16.514-.36.723-.593a2.993 2.993 0 0 0 .75-1.985Z"></path>
  <path d="m17.408 9.494-4.948 3.848a.75.75 0 0 1-.92 0l-6.75-5.25a.75.75 0 1 1 .92-1.184L12 11.8l4.417-3.435a4.494 4.494 0 0 1-.067-4.615H4.126A2.628 2.628 0 0 0 1.5 6.375v11.25a2.628 2.628 0 0 0 2.625 2.625h15.75a2.627 2.627 0 0 0 2.625-2.625V9.9a4.492 4.492 0 0 1-5.092-.406Z"></path>
</svg>