<svg fill="currentColor" viewBox="0 0 24 24" xmlns="http://www.w3.org/2000/svg">
  <path d="M19.969.75H16.5a1.031 1.031 0 0 0 0 2.063h.98L15.74 4.55a7.392 7.392 0 0 0-5.615-2.582c-4.084 0-7.406 3.322-7.406 7.406 0 3.734 2.778 6.83 6.375 7.334v1.76H7.78a1.031 1.031 0 1 0 0 2.062h1.313v1.688a1.031 1.031 0 0 0 2.062 0V20.53h1.313a1.031 1.031 0 1 0 0-2.062h-1.313v-1.76c3.597-.503 6.375-3.6 6.375-7.334 0-1.05-.223-2.087-.656-3.043l2.063-2.063v.981a1.031 1.031 0 1 0 2.062 0V1.781A1.031 1.031 0 0 0 19.969.75Zm-9.844 13.969a5.344 5.344 0 1 1 5.344-5.344 5.35 5.35 0 0 1-5.344 5.344Z"></path>
</svg>