<svg fill="currentColor" viewBox="0 0 24 24" xmlns="http://www.w3.org/2000/svg">
  <path d="M12 5.25A2.625 2.625 0 1 0 12 0a2.625 2.625 0 0 0 0 5.25Z"></path>
  <path d="M14.25 6h-4.5a3.009 3.009 0 0 0-3 3v5.04c0 .509.395.941.903.96a.938.938 0 0 0 .972-.938V9.389A.383.383 0 0 1 8.975 9a.375.375 0 0 1 .4.375v13.546a1.078 1.078 0 0 0 2.156 0v-6.687a.48.48 0 0 1 .438-.485.469.469 0 0 1 .5.469v6.703a1.078 1.078 0 1 0 2.156 0V9.388a.383.383 0 0 1 .35-.387.375.375 0 0 1 .4.375v4.665c0 .508.395.941.903.96a.937.937 0 0 0 .972-.938V9a3.009 3.009 0 0 0-3-3Z"></path>
</svg>