<svg fill="currentColor" viewBox="0 0 24 24" xmlns="http://www.w3.org/2000/svg">
  <path d="M2.258 5.316A1.5 1.5 0 0 0 1.5 6.624v13.91a1.5 1.5 0 0 0 2.262 1.296l3.944-2.58a.374.374 0 0 0 .17-.316V2.181a.375.375 0 0 0-.586-.311L2.258 5.316Z"></path>
  <path d="M9.954 1.842a.375.375 0 0 0-.579.313v16.761a.375.375 0 0 0 .17.315l4.5 2.926a.375.375 0 0 0 .58-.314V5.093a.375.375 0 0 0-.17-.315l-4.5-2.936Z"></path>
  <path d="M21.775 2.179a1.483 1.483 0 0 0-1.535-.007l-3.945 2.579a.375.375 0 0 0-.17.315v16.756a.375.375 0 0 0 .587.31l5.019-3.443a1.5 1.5 0 0 0 .769-1.313V3.501a1.535 1.535 0 0 0-.725-1.322Z"></path>
</svg>