<svg fill="currentColor" viewBox="0 0 24 24" xmlns="http://www.w3.org/2000/svg">
  <path d="M12 18a1.5 1.5 0 1 0 0-3 1.5 1.5 0 0 0 0 3Z"></path>
  <path d="M4.677 1.5a2.25 2.25 0 0 0-2.013 1.244L1.211 5.65a2.262 2.262 0 0 0-.073 1.85h13.04a.188.188 0 0 0 .16-.088l3.538-5.625a.188.188 0 0 0-.158-.287H4.677Z"></path>
  <path d="m22.79 5.654-1.454-2.906a2.236 2.236 0 0 0-1.537-1.193l-3.744 5.948-2.086 3.332a6 6 0 0 0-3.938 0L8.938 9.091a.187.187 0 0 0-.159-.088H2.397a.188.188 0 0 0-.157.289l3.876 6.034a6 6 0 1 0 11.766 0l4.788-7.448a2.261 2.261 0 0 0 .12-2.224ZM12.194 19.497a3 3 0 1 1-.392-5.987 3 3 0 0 1 .393 5.987Z"></path>
</svg>