<svg fill="currentColor" viewBox="0 0 24 24" xmlns="http://www.w3.org/2000/svg">
  <path d="M12.75 21.75h-1.5a1.5 1.5 0 0 1-1.5-1.5l.003-4.023a.188.188 0 0 0-.282-.163l-3.484 2.019a1.476 1.476 0 0 1-2.016-.54l-.773-1.342-.003-.005a1.484 1.484 0 0 1 .542-2.007l3.497-2.027a.188.188 0 0 0 0-.324L3.74 9.812a1.472 1.472 0 0 1-.541-2.015l.77-1.339a1.476 1.476 0 0 1 2.02-.54L9.47 7.933a.188.188 0 0 0 .282-.163L9.75 3.75a1.5 1.5 0 0 1 1.5-1.5h1.5a1.5 1.5 0 0 1 1.5 1.5v4.018a.186.186 0 0 0 .188.188.187.187 0 0 0 .093-.025l3.485-2.019a1.477 1.477 0 0 1 2.016.54l.773 1.343.003.004a1.478 1.478 0 0 1-.546 2.01l-3.494 2.024a.188.188 0 0 0-.068.256c.016.028.04.052.068.069l3.494 2.024a1.473 1.473 0 0 1 .542 2.016l-.77 1.338a1.474 1.474 0 0 1-2.02.541l-3.483-2.015a.188.188 0 0 0-.281.162v4.026a1.5 1.5 0 0 1-1.5 1.5Z"></path>
</svg>