<svg fill="currentColor" viewBox="0 0 24 24" xmlns="http://www.w3.org/2000/svg">
  <path d="M2.25 8.25v.03a.815.815 0 0 1-.197.527v.003c-.253.299-.553.834-.553 1.69 0 .776.248 1.323.547 1.683a.89.89 0 0 1 .203.567 1.5 1.5 0 0 0 1.5 1.5h.375a.375.375 0 0 0 .375-.375v-6.75a.375.375 0 0 0-.375-.375H3.75a1.5 1.5 0 0 0-1.5 1.5Z"></path>
  <path d="m21.195 8.747-.043-.008A.187.187 0 0 1 21 8.555V2.909c0-.593-.394-1.125-.98-1.328-.558-.192-1.14-.035-1.485.4a20.208 20.208 0 0 1-2.405 2.423c-1.108.937-2.167 1.605-3.14 1.983a.375.375 0 0 0-.242.35v7.281a.751.751 0 0 0 .454.689c.907.388 1.886 1.023 2.906 1.888a20.314 20.314 0 0 1 2.423 2.445 1.23 1.23 0 0 0 .99.462c.165 0 .33-.028.488-.081.602-.2.99-.713.99-1.306v-5.666a.187.187 0 0 1 .157-.185l.04-.006c.45-.122 1.303-.646 1.303-1.756 0-1.11-.853-1.633-1.304-1.755Z"></path>
  <path d="M11.25 15V7.125a.375.375 0 0 0-.375-.375h-4.5A.375.375 0 0 0 6 7.125v14.25A1.125 1.125 0 0 0 7.125 22.5h2.459a1.53 1.53 0 0 0 1.215-.584 1.484 1.484 0 0 0 .244-1.361 30.22 30.22 0 0 0-.27-.806c-.371-1.073-.86-1.738-.99-3.25A1.5 1.5 0 0 0 11.25 15Z"></path>
</svg>