<svg fill="currentColor" viewBox="0 0 24 24" xmlns="http://www.w3.org/2000/svg">
  <path d="M12 2.25c-5.376 0-9.75 4.374-9.75 9.75s4.374 9.75 9.75 9.75 9.75-4.374 9.75-9.75S17.376 2.25 12 2.25ZM12 6a2.257 2.257 0 0 1 2.25 2.25v3c0 .121-.01.242-.03.361a.094.094 0 0 1-.118.075.094.094 0 0 1-.044-.028l-3.957-4.353a.188.188 0 0 1-.022-.223A2.254 2.254 0 0 1 12 6Zm1.5 12h-2.979a.765.765 0 0 1-.77-.714.75.75 0 0 1 .749-.786h.75v-.832a4.861 4.861 0 0 1-2.307-1.095c-.93-.8-1.443-1.843-1.443-2.938V10.5a.746.746 0 0 1 1.29-.514.762.762 0 0 1 .21.533v1.116c0 1.203 1.313 2.6 3 2.6a2.7 2.7 0 0 0 .237-.01.185.185 0 0 1 .154.06l.988 1.087a.095.095 0 0 1 .021.088.094.094 0 0 1-.063.065c-.192.06-.388.108-.587.143v.832h.729c.404 0 .75.31.77.714A.752.752 0 0 1 13.5 18Zm-3.651-6.511 1.709 1.88a.047.047 0 0 1-.045.078 2.263 2.263 0 0 1-1.746-1.922.047.047 0 0 1 .057-.051c.01.002.018.007.025.015Zm7.155 5.613a.75.75 0 0 1-1.059-.05l-9-9.845A.75.75 0 0 1 8.055 6.2l9 9.844a.75.75 0 0 1-.05 1.059Zm-.504-5.467a3.615 3.615 0 0 1-.56 1.916.095.095 0 0 1-.07.045.093.093 0 0 1-.079-.03l-.9-.99a.188.188 0 0 1-.035-.195c.095-.237.143-.49.144-.746V10.52a.764.764 0 0 1 .64-.762c.462-.069.86.306.86.756v1.121Z"></path>
</svg>