<svg fill="currentColor" viewBox="0 0 24 24" xmlns="http://www.w3.org/2000/svg">
  <path d="M19.774 1.752a1.212 1.212 0 0 0-1.06-.21L9.372 4.055a1.514 1.514 0 0 0-1.12 1.477v10.594a.735.735 0 0 1-.522.695l-.005.003-2.438.843c-.932.312-1.536 1.178-1.536 2.205A2.603 2.603 0 0 0 4.84 22.01a2.567 2.567 0 0 0 2.337.353l.018-.006 1.024-.372A2.243 2.243 0 0 0 9.75 19.87V9.934c0-.342.224-.62.57-.707l.01-.003 8.186-2.186a.188.188 0 0 1 .234.181v6.653c0 .316-.2.58-.52.688l-.012.004-2.386.85a2.301 2.301 0 0 0-1.582 2.208 2.61 2.61 0 0 0 2.216 2.605c.407.06.822.02 1.211-.114l.017-.006 1.024-.372a2.242 2.242 0 0 0 1.532-2.113V2.719a1.208 1.208 0 0 0-.476-.967Z"></path>
</svg>