<svg fill="currentColor" viewBox="0 0 24 24" xmlns="http://www.w3.org/2000/svg">
  <path d="M12 2.25c-5.376 0-9.75 4.374-9.75 9.75s4.374 9.75 9.75 9.75 9.75-4.374 9.75-9.75S17.376 2.25 12 2.25ZM12 18c-.98 0-1.759-.415-1.863-1.293a.186.186 0 0 1 .11-.191.188.188 0 0 1 .077-.016h3.35a.187.187 0 0 1 .187.21C13.74 17.571 12.969 18 12 18Zm4.594-2.25H7.406c-.555 0-.843-.703-.524-1.078.765-.907 1.306-1.288 1.306-3.788 0-2.29 1.207-3.103 2.203-3.5a.532.532 0 0 0 .297-.313C10.861 6.497 11.35 6 12 6s1.138.497 1.313 1.072a.535.535 0 0 0 .297.313c.994.395 2.203 1.21 2.203 3.5 0 2.5.54 2.88 1.306 3.787.316.375.026 1.078-.525 1.078Z"></path>
</svg>