<svg fill="currentColor" viewBox="0 0 24 24" xmlns="http://www.w3.org/2000/svg">
  <path d="M12 2.25c-5.376 0-9.75 4.374-9.75 9.75s4.374 9.75 9.75 9.75 9.75-4.374 9.75-9.75S17.376 2.25 12 2.25ZM6.883 14.672c.765-.907 1.306-1.288 1.306-3.788 0-.117.003-.23.009-.34a.187.187 0 0 1 .328-.118l4.594 5.01a.187.187 0 0 1-.036.283.188.188 0 0 1-.102.03H7.406c-.554.001-.84-.702-.523-1.077Zm6.98 2.035C13.76 17.585 12.982 18 12 18c-.98 0-1.758-.415-1.863-1.293a.186.186 0 0 1 .11-.191.188.188 0 0 1 .077-.016h3.353a.187.187 0 0 1 .187.207Zm3.141.816a.75.75 0 0 1-1.059-.05l-9-9.938a.75.75 0 0 1 1.11-1.009l9 9.938a.75.75 0 0 1-.05 1.06Zm-.082-2.373-6.774-7.39a.187.187 0 0 1 .06-.299c.062-.027.123-.052.183-.076a.531.531 0 0 0 .296-.313C10.863 6.497 11.351 6 12 6c.65 0 1.139.497 1.313 1.072a.532.532 0 0 0 .297.313c.994.395 2.203 1.21 2.203 3.5 0 2.5.54 2.88 1.306 3.787.08.096.125.216.13.34a.188.188 0 0 1-.327.138Z"></path>
</svg>