<svg fill="currentColor" viewBox="0 0 24 24" xmlns="http://www.w3.org/2000/svg">
  <path d="M21 21.752a.746.746 0 0 1-.53-.22l-18-18a.75.75 0 0 1 1.06-1.06l18 18a.75.75 0 0 1-.53 1.28Z"></path>
  <path d="m20.63 15.999-.23-.278c-1.031-1.247-1.655-2-1.655-5.531 0-1.828-.437-3.328-1.3-4.453-.635-.832-1.494-1.462-2.627-1.928a.14.14 0 0 1-.038-.031C14.373 2.414 13.258 1.5 12 1.5c-1.257 0-2.37.914-2.778 2.276a.147.147 0 0 1-.038.03 7.401 7.401 0 0 0-1.026.516.375.375 0 0 0-.07.586L20.36 17.177a.375.375 0 0 0 .638-.31 1.66 1.66 0 0 0-.368-.868Z"></path>
  <path d="M5.256 10.19c0 3.532-.623 4.285-1.655 5.53L3.37 16a1.648 1.648 0 0 0-.217 1.763c.289.61.905.988 1.609.988h9.899a.374.374 0 0 0 .265-.64l-9-9a.375.375 0 0 0-.638.234 10.54 10.54 0 0 0-.033.845Z"></path>
  <path d="M12 22.5a3.753 3.753 0 0 0 3.303-1.975.187.187 0 0 0-.074-.25.187.187 0 0 0-.092-.025H8.866a.188.188 0 0 0-.167.275 3.753 3.753 0 0 0 3.302 1.975Z"></path>
</svg>