<svg fill="currentColor" viewBox="0 0 24 24" xmlns="http://www.w3.org/2000/svg">
  <path d="M12.137 2.25c-5.484-.073-9.96 4.403-9.886 9.887.073 5.259 4.355 9.54 9.614 9.614 5.484.075 9.96-4.402 9.885-9.885-.072-5.26-4.354-9.542-9.613-9.615Zm7.973 8.997-4.363-.005a.094.094 0 0 1-.091-.073 3.754 3.754 0 0 0-1.287-2.07.094.094 0 0 1-.025-.114l1.937-3.911a.093.093 0 0 1 .059-.05.094.094 0 0 1 .076.012 8.26 8.26 0 0 1 3.788 6.108.093.093 0 0 1-.094.103Zm-10.35.96a2.25 2.25 0 1 1 4.481-.411 2.25 2.25 0 0 1-4.48.41ZM7.72 5.073l1.938 3.91a.094.094 0 0 1-.025.114 3.754 3.754 0 0 0-1.287 2.07.094.094 0 0 1-.094.075l-4.363.004a.095.095 0 0 1-.07-.03.094.094 0 0 1-.024-.073 8.26 8.26 0 0 1 3.788-6.108.094.094 0 0 1 .137.038Zm-.017 13.844 2.64-3.473a.094.094 0 0 1 .113-.028 3.743 3.743 0 0 0 3.094 0 .094.094 0 0 1 .114.028l2.64 3.473a.096.096 0 0 1 .017.074.093.093 0 0 1-.043.063 8.234 8.234 0 0 1-8.548 0 .095.095 0 0 1-.044-.063.094.094 0 0 1 .017-.074Z"></path>
</svg>