<svg fill="currentColor" viewBox="0 0 24 24" xmlns="http://www.w3.org/2000/svg">
  <path d="M20.578 7.795c-.875-1.527-2.225-2.382-4.011-2.542-.946-.085-1.828.158-2.683.392C13.221 5.828 12.594 6 12 6c-.594 0-1.219-.173-1.878-.355-.857-.234-1.743-.481-2.692-.392-1.706.16-3.07 1.036-3.952 2.535-.815 1.388-1.228 3.31-1.228 5.712 0 1.893.703 4.241 1.875 6.281.6 1.043 2.203 3.469 4.086 3.469 1.442 0 2.21-.443 2.77-.766.39-.224.624-.36 1.017-.36.393 0 .628.136 1.017.36.562.323 1.329.766 2.772.766 1.883 0 3.485-2.427 4.086-3.469 1.175-2.04 1.875-4.387 1.875-6.281.002-2.464-.381-4.33-1.17-5.705ZM10.125 16.5C9.504 16.5 9 15.492 9 14.25c0-1.243.504-2.25 1.125-2.25s1.125 1.007 1.125 2.25c0 1.242-.504 2.25-1.125 2.25Zm3.75 0c-.621 0-1.125-1.008-1.125-2.25 0-1.243.504-2.25 1.125-2.25S15 13.007 15 14.25c0 1.242-.504 2.25-1.125 2.25Z"></path>
  <path d="M12.427 5.248c.616-.082 1.774-.367 2.757-1.35a4.594 4.594 0 0 0 1.313-2.728.373.373 0 0 0-.401-.419c-.596.045-1.723.275-2.753 1.306A4.575 4.575 0 0 0 12 4.839a.374.374 0 0 0 .427.409Z"></path>
</svg>