<svg fill="currentColor" viewBox="0 0 24 24" xmlns="http://www.w3.org/2000/svg">
  <path d="M10.5 14.25a.75.75 0 0 1-.53-1.28l7.403-7.404a2.611 2.611 0 0 0-1.248-.316H4.875A2.628 2.628 0 0 0 2.25 7.875v11.25a2.628 2.628 0 0 0 2.625 2.625h11.25a2.627 2.627 0 0 0 2.625-2.625V7.875c0-.436-.108-.865-.316-1.248L11.03 14.03a.747.747 0 0 1-.53.22Z"></path>
  <path d="M21 2.25h-5.25a.75.75 0 1 0 0 1.5h3.44l-1.817 1.816c.449.244.817.612 1.06 1.06l1.817-1.815V8.25a.75.75 0 1 0 1.5 0V3a.75.75 0 0 0-.75-.75Z"></path>
</svg>