<svg fill="currentColor" viewBox="0 0 24 24" xmlns="http://www.w3.org/2000/svg">
  <path d="M15.938 22.5H4.967c-1.382 0-2.574-.367-3.446-1.061C.526 20.646 0 19.469 0 18.038c0-1.25.472-2.335 1.366-3.137.714-.641 1.695-1.088 2.766-1.258.002 0 .003 0 .004-.002.302-1.829 1.117-3.38 2.358-4.485A6.574 6.574 0 0 1 10.875 7.5c1.417 0 2.741.44 3.83 1.274a6.668 6.668 0 0 1 1.978 2.494.749.749 0 0 0 .524.422c1.22.263 2.27.81 3.055 1.594.972.971 1.488 2.265 1.488 3.741 0 1.54-.616 2.947-1.734 3.962-1.073.976-2.522 1.513-4.078 1.513Z"></path>
  <path d="M18.183 10.391c.567.168 1.113.4 1.629.69a.187.187 0 0 0 .273-.115c.113-.407.168-.828.165-1.25a4.516 4.516 0 0 0-4.495-4.466 4.474 4.474 0 0 0-2.583.812h-.003a.158.158 0 0 0 .047.282A7.614 7.614 0 0 1 15.62 7.58a8.153 8.153 0 0 1 2.124 2.462.75.75 0 0 0 .439.348Z"></path>
  <path d="M23.25 10.5h-1.5a.75.75 0 1 1 0-1.5h1.5a.75.75 0 1 1 0 1.5Z"></path>
  <path d="M15.75 4.5a.75.75 0 0 1-.75-.75v-1.5a.75.75 0 1 1 1.5 0v1.5a.75.75 0 0 1-.75.75Z"></path>
  <path d="M11.507 6.256a.746.746 0 0 1-.53-.22l-1.061-1.06a.75.75 0 0 1 1.06-1.061l1.061 1.06a.75.75 0 0 1-.53 1.281Z"></path>
  <path d="M19.993 6.256a.75.75 0 0 1-.53-1.28l1.06-1.061a.75.75 0 1 1 1.06 1.06l-1.06 1.061a.746.746 0 0 1-.53.22Z"></path>
</svg>