<svg fill="currentColor" viewBox="0 0 24 24" xmlns="http://www.w3.org/2000/svg">
  <path d="M22.986 8.566c-.26-.618-.692-1.064-1.25-1.288l-.007-.003c-.254-.1-.524-.15-.797-.15h-.03c-1.277.02-2.58 1.104-3.243 2.7-.486 1.168-.542 2.423-.15 3.359.26.618.693 1.064 1.253 1.289l.007.002c.254.1.524.15.797.15 1.289 0 2.606-1.085 3.28-2.702.48-1.166.534-2.42.14-3.357Z"></path>
  <path d="M17.885 15.45c-.737-.442-1.433-.86-1.887-1.612C14.743 11.756 13.986 10.5 12 10.5c-1.986 0-2.746 1.256-4.003 3.338-.456.752-1.153 1.171-1.892 1.616-.847.509-1.722 1.035-2.1 2.07a3.15 3.15 0 0 0-.218 1.172c0 1.685 1.313 3.056 2.925 3.056.832 0 1.718-.288 2.655-.594.9-.293 1.832-.596 2.637-.596.806 0 1.735.303 2.632.596.936.304 1.817.592 2.651.592 1.61 0 2.92-1.371 2.92-3.056a3.14 3.14 0 0 0-.222-1.172c-.378-1.036-1.254-1.562-2.1-2.071Z"></path>
  <path d="M7.032 8.852c.558.7 1.266 1.085 1.993 1.085.1 0 .199-.007.297-.022 1.517-.223 2.463-2.074 2.152-4.218-.13-.902-.476-1.741-.973-2.364-.557-.698-1.266-1.083-1.993-1.083-.1 0-.198.007-.297.022-1.517.223-2.462 2.075-2.152 4.219.13.9.476 1.738.973 2.361Z"></path>
  <path d="M14.68 9.916c.098.015.197.022.297.022.728 0 1.435-.385 1.993-1.085.496-.623.841-1.461.973-2.362.31-2.143-.636-3.995-2.153-4.219a2.01 2.01 0 0 0-.297-.022c-.727 0-1.435.386-1.992 1.084-.497.623-.844 1.462-.973 2.365-.31 2.143.635 3.994 2.152 4.217Z"></path>
  <path d="m5.231 14.475.007-.002c.559-.225.991-.67 1.25-1.289.393-.937.338-2.19-.147-3.358-.672-1.615-1.988-2.701-3.276-2.701-.273 0-.543.05-.797.15l-.007.002c-.557.223-.99.67-1.25 1.288-.392.938-.337 2.192.148 3.36.672 1.614 1.989 2.7 3.277 2.7.272 0 .542-.05.795-.15Z"></path>
</svg>