<svg fill="currentColor" viewBox="0 0 24 24" xmlns="http://www.w3.org/2000/svg">
  <path d="M12.137 2.25c-5.484-.073-9.96 4.403-9.886 9.887.073 5.259 4.355 9.54 9.614 9.614 5.484.075 9.96-4.402 9.885-9.885-.072-5.26-4.354-9.542-9.613-9.615Zm-.173 7.131a3.116 3.116 0 0 1 .797-1.631c.604-.644 1.46-1 2.412-1 .4 0 .797.067 1.175.2.468.167.89.444 1.231.807.5.541.799 1.24.844 1.975.013.178.013.357 0 .535a4.04 4.04 0 0 1-.627 1.884 3.73 3.73 0 0 1-.404.516c-.616.656-1.403 1.019-2.218 1.019a2.794 2.794 0 0 1-1.185-.263 3.317 3.317 0 0 1-1.034-.756 3.925 3.925 0 0 1-1.031-2.406c-.009-.12-.012-.24-.009-.36a3.48 3.48 0 0 1 .05-.519Zm-7.018 1.141a2.806 2.806 0 0 1 .374-1.216A2.607 2.607 0 0 1 6.693 8.18a2.993 2.993 0 0 1 1.564-.112 2.672 2.672 0 0 1 1.442.797 2.71 2.71 0 0 1 .723 1.81 3.357 3.357 0 0 1-.557 1.905c-.199.3-.449.563-.739.777a2.545 2.545 0 0 1-.688.362 2.31 2.31 0 0 1-.759.13c-.044 0-.087 0-.13-.005a2.216 2.216 0 0 1-.508-.086 2.51 2.51 0 0 1-.478-.193c-.844-.445-1.48-1.367-1.605-2.444a3.104 3.104 0 0 1-.012-.599Zm2.527 8.372a8.31 8.31 0 0 1-2.903-3.312.188.188 0 0 1 .076-.246c.87-.49 1.983-.757 3.034-.757.797 0 1.439.094 2.001.276a.374.374 0 0 1 .121.645c-1.094.89-1.8 1.994-2.13 3.317a.13.13 0 0 1-.199.077Zm4.528 1.357a8.208 8.208 0 0 1-3.08-.596.187.187 0 0 1-.112-.21c.018-.096.04-.183.057-.256.334-1.333 1.161-2.438 2.391-3.196 1.092-.673 2.484-1.043 3.915-1.043 1.46 0 2.813.355 3.913 1.027a.128.128 0 0 1 .043.172A8.256 8.256 0 0 1 12 20.25Z"></path>
  <path d="M7.546 13.842Z"></path>
  <path d="M6.312 8.352Z"></path>
  <path d="M10.133 12.088Z"></path>
  <path d="M6.31 8.35Z"></path>
  <path d="M7.042 13.753Z"></path>
  <path d="M4.959 11.117c.125 1.078.762 1.998 1.605 2.443-.845-.444-1.48-1.367-1.605-2.443Z"></path>
  <path d="M11.922 10.266Z"></path>
  <path d="M14.274 13.536Z"></path>
  <path d="M11.996 9.213Z"></path>
  <path d="M17.58 7.76Z"></path>
  <path d="M18.422 10.266Z"></path>
  <path d="M11.914 9.905Z"></path>
  <path d="M17.963 11.867Z"></path>
  <path d="M9.697 8.86Z"></path>
  <path d="M8.906 13.5Z"></path>
  <path d="M4.945 10.522Z"></path>
  <path d="M9.126 13.352Z"></path>
  <path d="M10.134 12.086Z"></path>
  <path d="M5.19 9.553Z"></path>
  <path d="M9.125 13.355Z"></path>
</svg>