<svg fill="currentColor" viewBox="0 0 24 24" xmlns="http://www.w3.org/2000/svg">
  <path d="M13.5 12c2.475 0 4.662-2.33 4.876-5.195.106-1.439-.345-2.78-1.271-3.778C16.188 2.042 14.907 1.5 13.5 1.5c-1.418 0-2.7.54-3.61 1.518-.92.99-1.368 2.334-1.265 3.786C8.836 9.67 11.022 12 13.5 12Z"></path>
  <path d="M23.221 20.614c-.396-2.195-1.63-4.038-3.571-5.332-1.724-1.15-3.908-1.782-6.15-1.782-2.242 0-4.426.633-6.15 1.781-1.94 1.294-3.175 3.138-3.57 5.332-.091.503.031 1 .336 1.365a1.451 1.451 0 0 0 1.134.522h16.5a1.451 1.451 0 0 0 1.135-.522 1.66 1.66 0 0 0 .336-1.364Z"></path>
  <path d="M4.875 13.5v-1.875H6.75a.75.75 0 1 0 0-1.5H4.875V8.25a.75.75 0 0 0-1.5 0v1.875H1.5a.75.75 0 1 0 0 1.5h1.875V13.5a.75.75 0 1 0 1.5 0Z"></path>
</svg>