<svg fill="currentColor" viewBox="0 0 24 24" xmlns="http://www.w3.org/2000/svg">
  <path d="M0 8.25v7.5a3 3 0 0 0 3 3h18a3 3 0 0 0 3-3v-7.5a3 3 0 0 0-3-3H3a3 3 0 0 0-3 3Zm21-1.5a1.5 1.5 0 0 1 1.5 1.5v7.5a1.5 1.5 0 0 1-1.5 1.5H3a1.5 1.5 0 0 1-1.5-1.5v-.532a.372.372 0 0 1 .223-.342 1.5 1.5 0 0 0 .902-1.376v-3a1.5 1.5 0 0 0-.902-1.376.372.372 0 0 1-.223-.342V8.25A1.5 1.5 0 0 1 3 6.75h18Z"></path>
  <path d="M2.25 8.25a.557.557 0 0 0 .22.447 2.25 2.25 0 0 1 .905 1.803v3a2.25 2.25 0 0 1-.905 1.803.557.557 0 0 0-.22.447.75.75 0 0 0 .75.75h18a.75.75 0 0 0 .75-.75v-7.5A.75.75 0 0 0 21 7.5H3a.75.75 0 0 0-.75.75Z"></path>
  <path d="M0 8.25v7.5a3 3 0 0 0 3 3h18a3 3 0 0 0 3-3v-7.5a3 3 0 0 0-3-3H3a3 3 0 0 0-3 3Zm21-1.5a1.5 1.5 0 0 1 1.5 1.5v7.5a1.5 1.5 0 0 1-1.5 1.5H3a1.5 1.5 0 0 1-1.5-1.5v-.532a.372.372 0 0 1 .223-.342 1.5 1.5 0 0 0 .902-1.376v-3a1.5 1.5 0 0 0-.902-1.376.372.372 0 0 1-.223-.342V8.25A1.5 1.5 0 0 1 3 6.75h18Z"></path>
</svg>