<svg fill="currentColor" viewBox="0 0 24 24" xmlns="http://www.w3.org/2000/svg">
  <path d="m18.703 4.654-.02-.313-.135-2.185A1.5 1.5 0 0 0 17.052.75H6.947a1.5 1.5 0 0 0-1.495 1.406l-.137 2.186-.02.31c-.06.902-.104 1.554.175 3.078.078.427.245 1.062.456 1.867.591 2.25 1.58 6.017 1.58 9.17v3.358a1.125 1.125 0 0 0 1.125 1.125h6.738a1.125 1.125 0 0 0 1.125-1.125v-3.357c0-3.614.999-7.186 1.594-9.32.205-.732.367-1.312.44-1.716.282-1.524.238-2.176.175-3.078Zm-1.64-2.228.07 1.125a.188.188 0 0 1-.188.199h-9.89a.187.187 0 0 1-.188-.2l.07-1.124a.187.187 0 0 1 .188-.176h9.75a.188.188 0 0 1 .188.176Z"></path>
</svg>