<svg fill="currentColor" viewBox="0 0 24 24" xmlns="http://www.w3.org/2000/svg">
  <path d="M20.71 3.18c-2.737-1.083-5.838-1.68-8.732-1.68-2.979 0-6.084.587-8.745 1.653-.951.386-1.115 1.066-.95 1.573l.19.477a.75.75 0 0 0 1 .407 95.63 95.63 0 0 1 1.265-.552C6.8 4.202 9.314 3.75 11.999 3.75c2.694 0 5.067.433 7.254 1.324.208.085.698.301 1.227.537a.75.75 0 0 0 1.001-.402l.174-.428.016-.042c.162-.479.007-1.174-.962-1.56Z"></path>
  <path d="M19.18 6.603c-2.133-.86-4.757-1.353-7.2-1.353-2.465.002-4.909.46-7.207 1.354a7.57 7.57 0 0 0-.2.088.75.75 0 0 0-.376.997l.727 1.589c1.542 3.378 4.414 9.66 5.73 12.378A1.487 1.487 0 0 0 12 22.5a1.488 1.488 0 0 0 1.348-.847l.002-.006L19.787 7.7a.747.747 0 0 0-.39-1.006l-.21-.087-.006-.003ZM9.099 10.497a1.5 1.5 0 1 1-.196-2.992 1.5 1.5 0 0 1 .196 2.992Zm3 6a1.499 1.499 0 1 1-.196-2.992 1.499 1.499 0 0 1 .196 2.992Zm3-5.25a1.499 1.499 0 1 1-.196-2.992 1.499 1.499 0 0 1 .196 2.992Z"></path>
</svg>