<svg fill="currentColor" viewBox="0 0 24 24" xmlns="http://www.w3.org/2000/svg">
  <path d="M4.54 13.432a.375.375 0 0 0-.587.387c.832 3.675 4.124 6.428 8.048 6.428.833 0 1.661-.126 2.456-.375a.375.375 0 0 0 .037-.703 52.483 52.483 0 0 1-5.132-2.607c-1.663-.955-3.272-2-4.822-3.13Z"></path>
  <path d="M23.096 15.915a10.965 10.965 0 0 0-.689-.822.742.742 0 0 0-1.245.24c0 .008-.005.015-.008.022a.738.738 0 0 0 .148.753c1.066 1.172 1.238 1.805 1.194 1.939-.093.104-.799.323-2.726-.166a19.213 19.213 0 0 1-1.552-.466c.346-.396.652-.823.916-1.277l.025-.042a8.22 8.22 0 0 0 1.044-4.987C19.755 6.976 16.247 3.75 12 3.75a8.22 8.22 0 0 0-4.987 1.682 8.316 8.316 0 0 0-2.149 2.43c-.007.014-.016.028-.024.041a8.225 8.225 0 0 0-.648 1.43 23.66 23.66 0 0 1-.506-.453 18.417 18.417 0 0 1-.676-.656c-1.386-1.418-1.55-2.138-1.507-2.27.094-.105.728-.276 2.279.06a.742.742 0 0 0 .728-.248l.017-.021a.738.738 0 0 0-.406-1.192c-.368-.083-.74-.148-1.115-.194-1.44-.165-2.383.119-2.802.844-.152.262-.298.707-.128 1.34.252.941 1.15 2.082 2.42 3.277.404.381.846.768 1.317 1.155a38.638 38.638 0 0 0 2.614 1.963 52.904 52.904 0 0 0 5.026 3.079 49.08 49.08 0 0 0 4.323 2.073c.413.172.816.33 1.21.477.558.207 1.096.39 1.608.543l.052.015c1.206.36 2.223.548 3.023.563h.081c1.014 0 1.702-.3 2.043-.89.426-.733.191-1.703-.697-2.883Z"></path>
</svg>