<svg fill="currentColor" viewBox="0 0 24 24" xmlns="http://www.w3.org/2000/svg">
  <path d="M15 1.5H9A1.5 1.5 0 0 0 7.5 3v19.313a.188.188 0 0 0 .188.187h8.625a.188.188 0 0 0 .187-.188V3A1.5 1.5 0 0 0 15 1.5Z"></path>
  <path d="M21.75 9h-3.375a.375.375 0 0 0-.375.375v12.75a.375.375 0 0 0 .375.375h3.75a1.125 1.125 0 0 0 1.125-1.125V10.5a1.5 1.5 0 0 0-1.5-1.5Z"></path>
  <path d="M2.25 6a1.5 1.5 0 0 0-1.5 1.5v13.875A1.125 1.125 0 0 0 1.875 22.5h3.75A.375.375 0 0 0 6 22.125V6.375A.375.375 0 0 0 5.625 6H2.25Z"></path>
</svg>