<svg fill="currentColor" viewBox="0 0 24 24" xmlns="http://www.w3.org/2000/svg">
  <path d="M12 21.75c-5.376 0-9.75-4.381-9.75-9.766 0-2.927 1.277-5.672 3.504-7.526a1.031 1.031 0 1 1 1.32 1.585 7.702 7.702 0 0 0-2.761 5.941c0 4.248 3.448 7.704 7.687 7.704 4.239 0 7.688-3.456 7.688-7.704a7.687 7.687 0 0 0-2.805-5.937 1.03 1.03 0 1 1 1.313-1.59 9.745 9.745 0 0 1 3.554 7.527c0 5.385-4.374 9.766-9.75 9.766Z"></path>
  <path d="M12 12.75a1.031 1.031 0 0 1-1.031-1.031V3.28a1.031 1.031 0 1 1 2.062 0v8.438A1.031 1.031 0 0 1 12 12.75Z"></path>
</svg>