<svg fill="currentColor" viewBox="0 0 24 24" xmlns="http://www.w3.org/2000/svg">
  <path d="M21 8.616V2.85a2.094 2.094 0 0 0-2.096-2.1h-5.762c-.378 0-.74.15-1.008.417L.614 12.683a2.103 2.103 0 0 0 0 2.97l5.484 5.484a2.102 2.102 0 0 0 2.968 0L20.584 9.624c.267-.268.416-.63.417-1.008ZM16.5 6.75a1.5 1.5 0 1 1 0-3 1.5 1.5 0 0 1 0 3Z"></path>
  <path d="M23.25 3a.75.75 0 0 0-.75.75v5.97L10.25 21.97a.751.751 0 1 0 1.06 1.06l12.283-12.28a1.398 1.398 0 0 0 .407-1v-6a.75.75 0 0 0-.75-.75Z"></path>
</svg>