<svg fill="currentColor" viewBox="0 0 24 24" xmlns="http://www.w3.org/2000/svg">
  <path d="M19.125 5.25H4.969A2.719 2.719 0 0 0 2.25 7.969v7.406A2.625 2.625 0 0 0 4.875 18h.375v1.86a1.89 1.89 0 0 0 1.89 1.89h9.72a1.89 1.89 0 0 0 1.89-1.89V18h.375a2.625 2.625 0 0 0 2.625-2.625v-7.5a2.625 2.625 0 0 0-2.625-2.625ZM17.25 19.86a.392.392 0 0 1-.39.39H7.14a.392.392 0 0 1-.39-.39v-7.47a.392.392 0 0 1 .39-.39h9.72a.392.392 0 0 1 .39.39v7.47Zm1.219-10.114a1.125 1.125 0 1 1-.18-2.242 1.125 1.125 0 0 1 .18 2.242Z"></path>
  <path d="M16.125 2.25h-8.25A2.63 2.63 0 0 0 5.277 4.5h13.446a2.63 2.63 0 0 0-2.598-2.25Z"></path>
</svg>