<svg fill="currentColor" viewBox="0 0 24 24" xmlns="http://www.w3.org/2000/svg">
  <path d="M12 13.688a1.687 1.687 0 1 0 0-3.375 1.687 1.687 0 0 0 0 3.374Z"></path>
  <path d="M8.918 16.022a1.03 1.03 0 0 1-.771-.346 5.531 5.531 0 0 1 0-7.348 1.031 1.031 0 1 1 1.54 1.37 3.469 3.469 0 0 0 0 4.608 1.031 1.031 0 0 1-.77 1.716h.001Z"></path>
  <path d="M15.082 16.022a1.031 1.031 0 0 1-.77-1.716 3.469 3.469 0 0 0 0-4.607 1.032 1.032 0 1 1 1.54-1.37 5.531 5.531 0 0 1 0 7.347 1.03 1.03 0 0 1-.77.346Z"></path>
  <path d="M6.529 18.409a1.03 1.03 0 0 1-.754-.329 8.906 8.906 0 0 1 0-12.163A1.031 1.031 0 1 1 7.28 7.326a6.844 6.844 0 0 0 0 9.346 1.032 1.032 0 0 1-.753 1.734v.003Z"></path>
  <path d="M17.47 18.406a1.031 1.031 0 0 1-.752-1.734 6.844 6.844 0 0 0 0-9.346 1.03 1.03 0 1 1 1.506-1.41 8.906 8.906 0 0 1 0 12.164 1.028 1.028 0 0 1-.753.326Z"></path>
  <path d="M20.11 20.533a1.032 1.032 0 0 1-.77-1.719 10.235 10.235 0 0 0 0-13.625 1.031 1.031 0 0 1 1.537-1.375 12.297 12.297 0 0 1 0 16.375 1.032 1.032 0 0 1-.768.344Z"></path>
  <path d="M3.891 20.533a1.028 1.028 0 0 1-.769-.344 12.297 12.297 0 0 1 0-16.375A1.031 1.031 0 0 1 4.66 5.189a10.235 10.235 0 0 0 0 13.625 1.032 1.032 0 0 1-.768 1.719Z"></path>
</svg>