<svg fill="currentColor" viewBox="0 0 24 24" xmlns="http://www.w3.org/2000/svg">
  <path d="M21.387 6.533c-.786-.784-1.836-1.332-3.055-1.594a.75.75 0 0 1-.524-.422 6.668 6.668 0 0 0-1.978-2.494C14.741 1.19 13.417.75 12 .75a6.574 6.574 0 0 0-4.383 1.656C6.483 3.416 5.7 4.812 5.347 6.429a.752.752 0 0 1-.55.57c-1.171.296-1.673.589-2.306 1.152-.897.799-1.366 1.887-1.366 3.136 0 1.433.526 2.609 1.522 3.402.872.694 2.064 1.061 3.447 1.061h10.968c1.557 0 3.006-.537 4.079-1.513 1.117-1.015 1.734-2.422 1.734-3.962 0-1.476-.516-2.77-1.488-3.742Z"></path>
  <path d="M5.25 21a.75.75 0 0 1-.624-1.166l1.5-2.25a.75.75 0 1 1 1.248.832l-1.5 2.25A.75.75 0 0 1 5.25 21Z"></path>
  <path d="M7.5 23.25a.749.749 0 0 1-.624-1.166l3-4.5a.749.749 0 1 1 1.248.832l-3 4.5a.75.75 0 0 1-.625.334Z"></path>
  <path d="M12.75 21a.75.75 0 0 1-.624-1.166l1.5-2.25a.75.75 0 0 1 1.248.832l-1.5 2.25a.75.75 0 0 1-.624.334Z"></path>
  <path d="M15 23.25a.75.75 0 0 1-.624-1.166l3-4.5a.75.75 0 0 1 1.248.832l-3 4.5a.75.75 0 0 1-.624.334Z"></path>
</svg>