<svg fill="currentColor" viewBox="0 0 24 24" xmlns="http://www.w3.org/2000/svg">
  <path d="M22.68 1.521a.763.763 0 0 0-.527.065L21 2.16l-1.162-.581a.75.75 0 0 0-.671 0l-1.177.582-1.162-.582a.75.75 0 0 0-.673 0L15 2.16l-1.146-.579a.75.75 0 0 0-.673-.002l-1.18.583-1.163-.582a.752.752 0 0 0-.672 0L9 2.16l-1.164-.58a.75.75 0 0 0-1.086.683V13.5l.002.003h8.998a1.5 1.5 0 0 1 1.5 1.5v4.872c0 1.45 1.55 2.625 3 2.625h.563a2.437 2.437 0 0 0 2.437-2.437V2.25a.75.75 0 0 0-.57-.729Zm-3.18 9.73h-5.976c-.405 0-.755-.312-.773-.717a.749.749 0 0 1 .75-.784h5.976c.405 0 .754.312.772.717a.749.749 0 0 1-.749.783Zm0-3.75h-8.976c-.405 0-.755-.312-.773-.717a.75.75 0 0 1 .75-.784h8.976c.405 0 .754.312.772.717a.749.749 0 0 1-.749.783Z"></path>
  <path d="M15.75 19.875V15.75A.75.75 0 0 0 15 15H2.25a1.505 1.505 0 0 0-1.5 1.502c0 2.37.27 3.355.678 4.105.69 1.274 1.94 1.893 3.822 1.893h11.516a.188.188 0 0 0 .134-.32c-.444-.444-1.15-1.04-1.15-2.305Z"></path>
</svg>