<svg fill="currentColor" viewBox="0 0 24 24" xmlns="http://www.w3.org/2000/svg">
  <path d="M12 2.25c-5.376 0-9.75 4.374-9.75 9.75 0 5.384 4.366 9.75 9.75 9.75 5.376 0 9.75-4.374 9.75-9.75 0-5.385-4.366-9.75-9.75-9.75Zm0 14.672a4.406 4.406 0 0 1 0-8.813h.197l-.661-.66a.657.657 0 0 1 .928-.929l1.875 1.875a.655.655 0 0 1 0 .928l-1.875 1.875a.656.656 0 1 1-.928-.928l.844-.843c-.112-.005-.24-.005-.38-.005a3.094 3.094 0 1 0 3.094 3.094.656.656 0 1 1 1.312 0A4.411 4.411 0 0 1 12 16.922Z"></path>
</svg>