<svg fill="currentColor" viewBox="0 0 24 24" xmlns="http://www.w3.org/2000/svg">
  <path d="M12 2.25c-5.376 0-9.75 4.374-9.75 9.75s4.374 9.75 9.75 9.75 9.75-4.374 9.75-9.75S17.376 2.25 12 2.25Zm5.625 8.538a.404.404 0 0 1-.404.404H14.43a.403.403 0 0 1-.285-.69l1.039-1.038-.263-.306a4.096 4.096 0 1 0 .913 4.208.748.748 0 0 1 .958-.458.752.752 0 0 1 .458.958A5.596 5.596 0 1 1 7.002 9.43a5.597 5.597 0 0 1 4.969-3.026 5.547 5.547 0 0 1 4.048 1.732l.026.03.202.234.689-.689a.396.396 0 0 1 .436-.089.404.404 0 0 1 .252.375l.001 2.791Z"></path>
</svg>