<svg fill="currentColor" viewBox="0 0 24 24" xmlns="http://www.w3.org/2000/svg">
  <path d="M16.761 10.497a3.725 3.725 0 0 0 2.652-1.099l3.61-3.607a.764.764 0 0 0 .04-1.05.75.75 0 0 0-1.087-.025L18.76 7.93a.576.576 0 0 1-.814 0 .592.592 0 0 1 .012-.827L21.16 3.9a.75.75 0 0 0-.026-1.085.732.732 0 0 0-.496-.19.783.783 0 0 0-.554.23l-3.2 3.2a.576.576 0 0 1-.814 0 .593.593 0 0 1 .011-.827l3.203-3.203A.751.751 0 0 0 19.258.94a.732.732 0 0 0-.496-.19.784.784 0 0 0-.553.23l-3.607 3.607a3.726 3.726 0 0 0-1.1 2.652v.386a.75.75 0 0 1-.219.531l-1.67 1.67a.188.188 0 0 1-.265 0L3.226 1.703A.75.75 0 0 0 2.168 1.7c-.71.704-1.09 1.697-1.09 2.872-.005 1.94 1.015 4.172 2.662 5.817l4.006 4.005a3.037 3.037 0 0 0 2.904.79.747.747 0 0 1 .698.174l.535.493c.138.14.215.33.215.527v.26c0 .59.231 1.157.646 1.577l4.221 4.292.004.005a2.498 2.498 0 1 0 3.533-3.533l-6.327-6.327a.189.189 0 0 1 0-.266l1.669-1.669a.748.748 0 0 1 .53-.22h.387Z"></path>
  <path d="M9.891 16.779a4.562 4.562 0 0 1-3.204-1.325l-.65-.65a.375.375 0 0 0-.53 0L1.524 18.77c-.71.71-.964 1.755-.612 2.779.02.058.043.114.07.169.473.968 1.39 1.53 2.395 1.53a2.612 2.612 0 0 0 1.858-.77l5.313-5.34a.22.22 0 0 0 .062-.174v-.012a.218.218 0 0 0-.241-.2 4.548 4.548 0 0 1-.477.028Z"></path>
</svg>