<svg fill="currentColor" viewBox="0 0 24 24" xmlns="http://www.w3.org/2000/svg">
  <path d="M12.609 15.728a8.081 8.081 0 0 1-1.326-.01 8.256 8.256 0 0 1-5.985-3.42.188.188 0 0 0-.252-.05.188.188 0 0 0-.065.067l-3.375 6.066c-.129.234-.149.515-.013.744a.787.787 0 0 0 .667.371h3.656a.716.716 0 0 1 .639.344l1.812 3.031a.762.762 0 0 0 .644.375.827.827 0 0 0 .683-.45l3.099-6.804a.188.188 0 0 0-.184-.264Z"></path>
  <path d="m22.389 18.369-3.353-6.055a.187.187 0 0 0-.316-.017 8.273 8.273 0 0 1-3.67 2.88.754.754 0 0 0-.41.386l-1.727 3.802a.37.37 0 0 0 0 .309l1.419 3.121a.827.827 0 0 0 .68.455.764.764 0 0 0 .642-.381l1.806-3.027a.727.727 0 0 1 .646-.342H21.8c.312 0 .55-.163.656-.47a.793.793 0 0 0-.066-.661Z"></path>
  <path d="M12.012 9.75a2.25 2.25 0 1 0 0-4.5 2.25 2.25 0 0 0 0 4.5Z"></path>
  <path d="M12.012.75a6.757 6.757 0 0 0-6.75 6.75 6.758 6.758 0 0 0 6.75 6.75 6.758 6.758 0 0 0 6.75-6.75 6.757 6.757 0 0 0-6.75-6.75Zm0 10.5a3.75 3.75 0 1 1 0-7.499 3.75 3.75 0 0 1 0 7.499Z"></path>
</svg>