<svg fill="currentColor" viewBox="0 0 24 24" xmlns="http://www.w3.org/2000/svg">
  <path d="M15.415 7.352a1.25 1.25 0 1 0 0 2.501 1.25 1.25 0 0 0 0-2.501Z"></path>
  <path d="M22.38 2.346v-.004a.956.956 0 0 0-.71-.717c-1.397-.34-3.594.023-6.03.998-2.454.984-4.754 2.437-6.308 3.994a15.033 15.033 0 0 0-1.385 1.586c-1.047-.047-1.969.102-2.746.441-2.706 1.191-3.48 4.24-3.685 5.491a1.172 1.172 0 0 0 1.275 1.36h.006l3.015-.33c.003.039.008.074.011.106.039.368.203.71.464.972l1.471 1.472c.261.262.604.426.971.464l.101.011-.328 3.011v.007a1.172 1.172 0 0 0 1.348 1.276c1.259-.203 4.306-.966 5.493-3.687.336-.772.485-1.69.443-2.735a14.762 14.762 0 0 0 1.592-1.385c1.567-1.56 3.024-3.84 3.999-6.259.97-2.407 1.335-4.621 1.002-6.072Zm-5.02 8.198a2.755 2.755 0 1 1 0-3.894 2.735 2.735 0 0 1 0 3.894Z"></path>
  <path d="M7.59 18.115a.75.75 0 0 0-.515.125c-.3.205-.6.408-.904.605-.615.4-1.35-.302-.985-.937l.57-.985a.75.75 0 0 0-.71-1.167c-.633.08-1.22.367-1.67.818-.172.172-.694.694-.975 2.684-.08.572-.13 1.147-.15 1.724a.75.75 0 0 0 .75.769h.018a16.61 16.61 0 0 0 1.725-.15c1.99-.281 2.513-.803 2.685-.975.452-.45.74-1.041.815-1.675a.75.75 0 0 0-.653-.836Z"></path>
</svg>