<svg fill="currentColor" viewBox="0 0 24 24" xmlns="http://www.w3.org/2000/svg">
  <path d="M20.135 5.601a.75.75 0 0 0-.8-.333 40.27 40.27 0 0 0-2.565.667c-1.643.487-3.25 1.121-5.056 1.996-.872.424-1.218.626-2.25 1.225l-.21.125c-1.545.89-2.676 1.875-3.46 3.014C4.936 13.542 4.5 15 4.5 16.624c0 1.91.736 3.614 2.074 4.798C7.922 22.618 9.8 23.25 12 23.25c2.192 0 4.073-.672 5.438-1.942 1.328-1.235 2.062-2.971 2.062-4.889 0-1.171-.29-2.203-.57-3.197-.59-2.095-1.1-3.905 1.158-6.757a.75.75 0 0 0 .047-.864Z"></path>
  <path d="M10.266 5.603C7.897 4.316 4.756 3.782 4.624 3.76a.75.75 0 0 0-.826.484.772.772 0 0 0 .177.79c1.493 1.583 1.54 3.224 1.343 4.904a.208.208 0 0 0 .117.213.208.208 0 0 0 .239-.042c.768-.774 1.704-1.478 2.83-2.128l.21-.122c1.037-.603 1.422-.828 2.35-1.278l.125-.06a.187.187 0 0 0 .03-.32 8.366 8.366 0 0 0-.953-.598Z"></path>
  <path d="M10.98 4.287c.162.087.333.187.512.295.495.303.96.655 1.386 1.05a.187.187 0 0 0 .2.035 31.496 31.496 0 0 1 3.925-1.36.188.188 0 0 0 .119-.263 51.978 51.978 0 0 0-.71-1.396.75.75 0 0 0-.662-.398c-.09 0-1.56.017-3.603.998-.425.205-.838.432-1.237.68a.188.188 0 0 0 .01.326l.06.033Z"></path>
  <path d="M9.812 2.85c.342-.224.691-.433 1.043-.624a.094.094 0 0 0 .011-.158C9.648 1.151 8.536.802 8.47.783a.75.75 0 0 0-.823.273 10.2 10.2 0 0 0-.904 1.517.094.094 0 0 0 .06.132 23.11 23.11 0 0 1 2.138.67.094.094 0 0 0 .084-.01l.788-.516Z"></path>
</svg>