<svg fill="currentColor" viewBox="0 0 24 24" xmlns="http://www.w3.org/2000/svg">
  <path d="M17.25 1.5H6.75A5.256 5.256 0 0 0 1.5 6.75v10.5a5.256 5.256 0 0 0 5.25 5.25h10.5a5.256 5.256 0 0 0 5.25-5.25V6.75a5.256 5.256 0 0 0-5.25-5.25Zm1.697 8.344-1.561 1.838a1.96 1.96 0 0 1-2.54.396c-.667-.411-1.702-.902-2.845-.902-1.143 0-2.178.49-2.845.902a1.962 1.962 0 0 1-2.54-.396L5.052 9.844a2.366 2.366 0 0 1 .21-3.294C6.568 5.362 8.796 3.945 12 3.945s5.432 1.417 6.737 2.605a2.366 2.366 0 0 1 .21 3.294Z"></path>
</svg>