<svg fill="currentColor" viewBox="0 0 24 24" xmlns="http://www.w3.org/2000/svg">
  <path d="M12 2.25c-5.376 0-9.75 4.374-9.75 9.75s4.374 9.75 9.75 9.75 9.75-4.374 9.75-9.75S17.376 2.25 12 2.25Zm-1.875 15H8.812a2.065 2.065 0 0 1-2.062-2.063v-1.312a.75.75 0 1 1 1.5 0v1.313a.562.562 0 0 0 .563.562h1.312a.75.75 0 1 1 0 1.5Zm0-9H8.812a.563.563 0 0 0-.562.563v1.312a.75.75 0 1 1-1.5 0V8.812A2.065 2.065 0 0 1 8.813 6.75h1.312a.75.75 0 1 1 0 1.5Zm7.125 6.938a2.064 2.064 0 0 1-2.063 2.062h-1.312a.75.75 0 1 1 0-1.5h1.313a.562.562 0 0 0 .562-.563v-1.312a.75.75 0 1 1 1.5 0v1.313Zm0-5.063a.75.75 0 1 1-1.5 0V8.812a.563.563 0 0 0-.563-.562h-1.312a.75.75 0 1 1 0-1.5h1.313a2.065 2.065 0 0 1 2.062 2.063v1.312Z"></path>
</svg>