<svg fill="currentColor" viewBox="0 0 24 24" xmlns="http://www.w3.org/2000/svg">
  <path d="M12 20.062c-2.454 0-5.221-.544-7.403-1.453-.8-.337-1.485-.882-2.046-1.313a.187.187 0 0 0-.301.15v.59c0 1.315 1.101 2.494 3.1 3.319C7.14 22.093 9.5 22.5 12 22.5s4.86-.407 6.65-1.145c1.999-.824 3.1-2.004 3.1-3.32v-.59a.188.188 0 0 0-.301-.149c-.56.43-1.246.976-2.047 1.313-2.181.909-4.948 1.453-7.402 1.453Z"></path>
  <path d="M21.75 5.93c-.038-1.296-1.133-2.456-3.094-3.274C16.863 1.91 14.5 1.5 12 1.5s-4.863.41-6.652 1.156C3.39 3.472 2.294 4.63 2.254 5.923l-.004.827c0 .3.244.772.686 1.16.522.455 1.296.905 2.24 1.3 2.007.838 4.559 1.337 6.824 1.337 2.265 0 4.817-.5 6.825-1.34.943-.394 1.718-.844 2.24-1.3.441-.384.685-.856.685-1.157v-.82Z"></path>
  <path d="M19.402 10.593c-2.18.911-4.948 1.453-7.402 1.453-2.454 0-5.221-.542-7.403-1.453-.8-.335-1.485-.88-2.046-1.312a.188.188 0 0 0-.301.15v1.444c0 .3.244.678.686 1.065.522.457 1.296.906 2.24 1.3 2.007.838 4.559 1.338 6.824 1.338 2.265 0 4.817-.501 6.825-1.34.943-.394 1.718-.843 2.24-1.3.441-.385.685-.763.685-1.064V9.432a.186.186 0 0 0-.104-.168.187.187 0 0 0-.197.019c-.56.43-1.246.975-2.047 1.31Z"></path>
  <path d="M19.402 14.624c-2.181.91-4.948 1.454-7.402 1.454-2.454 0-5.221-.544-7.403-1.454-.8-.336-1.485-.881-2.046-1.312a.187.187 0 0 0-.301.15v1.397c0 .3.244.678.685 1.064.522.457 1.297.906 2.24 1.3 2.008.838 4.56 1.339 6.825 1.339 2.266 0 4.817-.5 6.825-1.34.943-.393 1.718-.843 2.24-1.3.441-.386.685-.764.685-1.063v-1.397a.187.187 0 0 0-.301-.15c-.56.43-1.246.976-2.047 1.313Z"></path>
</svg>