<svg fill="currentColor" viewBox="0 0 24 24" xmlns="http://www.w3.org/2000/svg">
  <path d="M22.456 5.22a.75.75 0 0 0-.616-.69c-4.055-.728-5.748-1.254-9.531-2.963a.75.75 0 0 0-.618 0C7.907 3.276 6.214 3.802 2.16 4.529a.75.75 0 0 0-.617.691c-.18 2.865.205 5.534 1.145 7.933a16.38 16.38 0 0 0 3.359 5.274c2.506 2.66 5.167 3.814 5.675 4.019a.75.75 0 0 0 .562 0c.508-.205 3.169-1.36 5.675-4.019a16.379 16.379 0 0 0 3.352-5.274c.94-2.4 1.326-5.068 1.145-7.933Zm-6.14 3.52-5.194 6a.748.748 0 0 1-.535.26h-.031a.75.75 0 0 1-.525-.214l-2.306-2.26a.75.75 0 1 1 1.05-1.071l1.734 1.7 4.673-5.396a.75.75 0 1 1 1.135.982h-.002Z"></path>
</svg>