<svg fill="currentColor" viewBox="0 0 24 24" xmlns="http://www.w3.org/2000/svg">
  <path d="M12 4.5c1.551 0 2.846-1.208 3-2.719.014-.14-.14-.281-.28-.281a.61.61 0 0 0-.223.042c-.01.004-.99.38-2.497.38s-2.489-.375-2.496-.38a.76.76 0 0 0-.249-.042h-.002A.267.267 0 0 0 9 1.781C9.157 3.29 10.454 4.5 12 4.5Z"></path>
  <path d="m22.748 4.211-6.06-2.121a.188.188 0 0 0-.247.148 4.5 4.5 0 0 1-8.878 0 .187.187 0 0 0-.25-.148l-6.06 2.12a.75.75 0 0 0-.49.849l.78 4.125a.75.75 0 0 0 .652.605l2.292.258a.375.375 0 0 1 .332.384l-.343 11.292a.75.75 0 0 0 .774.773h13.5a.75.75 0 0 0 .774-.773l-.343-11.292a.375.375 0 0 1 .333-.384l2.291-.258a.75.75 0 0 0 .652-.605l.78-4.125a.75.75 0 0 0-.489-.849Z"></path>
</svg>