<svg fill="currentColor" viewBox="0 0 24 24" xmlns="http://www.w3.org/2000/svg">
  <path d="M18.844 3.607C16.997 1.764 14.568.75 12 .75h-.017A9.75 9.75 0 0 0 2.25 10.5v4.719a3.732 3.732 0 0 0 2.357 3.484l1.112.442a.746.746 0 0 1 .457.55l.469 2.349a1.504 1.504 0 0 0 1.47 1.206h.51A.375.375 0 0 0 9 22.875v-1.854c0-.404.31-.75.714-.77A.752.752 0 0 1 10.5 21v1.875a.375.375 0 1 0 .75 0v-1.854c0-.404.31-.75.714-.77a.752.752 0 0 1 .786.749v1.875a.375.375 0 1 0 .75 0v-1.854c0-.404.31-.75.714-.77A.752.752 0 0 1 15 21v1.875a.375.375 0 0 0 .375.375h.51a1.505 1.505 0 0 0 1.471-1.206l.469-2.35a.75.75 0 0 1 .456-.55l1.112-.44a3.732 3.732 0 0 0 2.357-3.485v-4.64a9.79 9.79 0 0 0-2.906-6.972ZM8.047 15.744a2.625 2.625 0 1 1-.343-5.239 2.625 2.625 0 0 1 .343 5.24Zm5.125 2.877a.768.768 0 0 1-.436.129h-1.472a.75.75 0 0 1-.744-.921l.745-2.231c.126-.317.325-.551.641-.592.387-.047.656.135.826.573l.75 2.25a.75.75 0 0 1-.31.792Zm3.125-2.877a2.625 2.625 0 1 1-.34-5.239 2.625 2.625 0 0 1 .34 5.24Z"></path>
</svg>