<svg fill="currentColor" viewBox="0 0 24 24" xmlns="http://www.w3.org/2000/svg">
  <path d="m21.61 16.36-1.593-.921a4.2 4.2 0 0 1 .981-.75 1.031 1.031 0 0 0-.997-1.805 6.263 6.263 0 0 0-1.807 1.504L14.064 12l4.129-2.384A6.256 6.256 0 0 0 20 11.12a1.03 1.03 0 1 0 .997-1.806 4.205 4.205 0 0 1-.981-.75l1.593-.92a1.031 1.031 0 1 0-1.03-1.786l-1.594.92a4.208 4.208 0 0 1-.16-1.225A1.03 1.03 0 0 0 17.814 4.5h-.02a1.03 1.03 0 0 0-1.031 1.012c-.015.79.12 1.576.398 2.316l-4.129 2.386V5.446a6.257 6.257 0 0 0 2.207-.812 1.032 1.032 0 0 0-1.065-1.767 4.2 4.2 0 0 1-1.142.474V1.78a1.031 1.031 0 1 0-2.062 0v1.56a4.187 4.187 0 0 1-1.142-.474 1.031 1.031 0 0 0-1.065 1.767 6.258 6.258 0 0 0 2.207.812v4.768L6.84 7.828c.279-.74.414-1.526.4-2.317A1.031 1.031 0 0 0 6.209 4.5h-.02a1.031 1.031 0 0 0-1.013 1.05c.008.415-.046.83-.16 1.228L3.424 5.86a1.031 1.031 0 1 0-1.031 1.786l1.593.92c-.288.298-.619.55-.981.75A1.031 1.031 0 1 0 4 11.122a6.263 6.263 0 0 0 1.807-1.505L9.938 12 5.81 14.384a6.263 6.263 0 0 0-1.807-1.505 1.03 1.03 0 1 0-.997 1.806c.362.2.693.453.981.75l-1.594.924a1.03 1.03 0 0 0-.122 1.721 1.033 1.033 0 0 0 1.153.065l1.594-.92c.113.399.167.812.16 1.226a1.031 1.031 0 0 0 1.01 1.049h.02a1.032 1.032 0 0 0 1.03-1.012 6.263 6.263 0 0 0-.398-2.316l4.13-2.386v4.768a6.256 6.256 0 0 0-2.207.812 1.031 1.031 0 0 0 1.065 1.767c.355-.213.74-.373 1.142-.474v1.56a1.031 1.031 0 0 0 2.062 0v-1.56c.402.101.787.26 1.142.474a1.031 1.031 0 1 0 1.065-1.767 6.256 6.256 0 0 0-2.207-.812v-4.768l4.13 2.386a6.262 6.262 0 0 0-.4 2.317 1.031 1.031 0 0 0 1.031 1.012h.02a1.03 1.03 0 0 0 1.013-1.05 4.206 4.206 0 0 1 .16-1.228l1.593.92a1.032 1.032 0 1 0 1.031-1.784Z"></path>
</svg>