<svg fill="currentColor" viewBox="0 0 24 24" xmlns="http://www.w3.org/2000/svg">
  <path d="M9.75 24.002a1.165 1.165 0 0 1-1.094-.75l-1.868-4.856a.753.753 0 0 0-.43-.431L1.5 16.096a1.172 1.172 0 0 1 0-2.188l4.856-1.868a.752.752 0 0 0 .431-.43l1.869-4.858a1.172 1.172 0 0 1 2.188 0l1.868 4.856a.751.751 0 0 0 .43.431l4.829 1.858a1.195 1.195 0 0 1 .779 1.13 1.162 1.162 0 0 1-.75 1.069l-4.856 1.867a.753.753 0 0 0-.431.431l-1.869 4.858a1.165 1.165 0 0 1-1.094.75Z"></path>
  <path d="M4.125 8.25a.688.688 0 0 1-.642-.44l-.79-2.056a.341.341 0 0 0-.197-.197L.44 4.767a.688.688 0 0 1 0-1.284l2.055-.79a.343.343 0 0 0 .197-.198L3.476.46a.703.703 0 0 1 .566-.454.688.688 0 0 1 .725.435l.79 2.055a.343.343 0 0 0 .197.198l2.055.79a.688.688 0 0 1 0 1.284l-2.055.79a.341.341 0 0 0-.197.197l-.79 2.055a.688.688 0 0 1-.642.44Z"></path>
  <path d="M18.75 12a.75.75 0 0 1-.7-.48l-1.071-2.784a.374.374 0 0 0-.216-.215L13.98 7.45a.75.75 0 0 1 0-1.4l2.783-1.071a.375.375 0 0 0 .216-.216L18.042 2a.77.77 0 0 1 .617-.496.75.75 0 0 1 .79.476l1.07 2.783a.374.374 0 0 0 .216.216l2.784 1.07a.75.75 0 0 1 0 1.4l-2.784 1.07a.375.375 0 0 0-.215.216l-1.07 2.783a.75.75 0 0 1-.7.481Z"></path>
</svg>