<svg fill="currentColor" viewBox="0 0 24 24" xmlns="http://www.w3.org/2000/svg">
  <path d="M19.954 5.545a11.25 11.25 0 0 0-16.377 15.41l.009.01.047.048c.034.04.074.084.12.13a1.93 1.93 0 0 0 2.83-.019 7.365 7.365 0 0 1 10.84 0 1.931 1.931 0 0 0 2.843.003l.15-.164.009-.01a11.247 11.247 0 0 0-.469-15.41l-.002.002Zm-8.704.457a.75.75 0 0 1 1.5 0v1.5a.75.75 0 0 1-1.5 0v-1.5ZM6 14.252H4.5a.75.75 0 1 1 0-1.5H6a.75.75 0 1 1 0 1.5Zm2.287-4.463a.75.75 0 0 1-1.06 0l-1.06-1.06a.75.75 0 1 1 1.06-1.06l1.06 1.06a.75.75 0 0 1 0 1.06Zm6.999 1.083-2.227 3.54a1.455 1.455 0 0 1-.328.327 1.412 1.412 0 0 1-1.64-2.297l3.539-2.226a.48.48 0 0 1 .548 0 .472.472 0 0 1 .108.656Zm1.487-1.083a.75.75 0 0 1-1.06-1.06l1.06-1.06a.75.75 0 1 1 1.06 1.06l-1.06 1.06Zm2.727 4.463H18a.75.75 0 1 1 0-1.5h1.5a.75.75 0 0 1 0 1.5Z"></path>
</svg>