<svg fill="currentColor" viewBox="0 0 24 24" xmlns="http://www.w3.org/2000/svg">
  <path d="M4.875 23.25h-1.5a1.125 1.125 0 0 1-1.125-1.125v-6.75a1.125 1.125 0 0 1 1.125-1.125h1.5A1.125 1.125 0 0 1 6 15.375v6.75a1.125 1.125 0 0 1-1.125 1.125Z"></path>
  <path d="M15.375 23.25h-1.5a1.125 1.125 0 0 1-1.125-1.125v-11.25a1.125 1.125 0 0 1 1.125-1.125h1.5a1.125 1.125 0 0 1 1.125 1.125v11.25a1.125 1.125 0 0 1-1.125 1.125Z"></path>
  <path d="M20.625 23.25h-1.5A1.125 1.125 0 0 1 18 22.125v-16.5A1.125 1.125 0 0 1 19.125 4.5h1.5a1.125 1.125 0 0 1 1.125 1.125v16.5a1.125 1.125 0 0 1-1.125 1.125Z"></path>
  <path d="M10.125 23.25h-1.5A1.125 1.125 0 0 1 7.5 22.125V1.875A1.125 1.125 0 0 1 8.625.75h1.5a1.125 1.125 0 0 1 1.125 1.125v20.25a1.125 1.125 0 0 1-1.125 1.125Z"></path>
</svg>