<svg fill="currentColor" viewBox="0 0 24 24" xmlns="http://www.w3.org/2000/svg">
  <path d="M22.5 20.996h-.563a.188.188 0 0 1-.187-.187v-7.992a.186.186 0 0 0-.158-.188.188.188 0 0 0-.088.007c-.43.135-.877.21-1.327.224-.056 0-.108.003-.16.003a5.073 5.073 0 0 1-2.477-.64.386.386 0 0 0-.375 0 5.071 5.071 0 0 1-2.477.64 4.974 4.974 0 0 1-2.459-.647.385.385 0 0 0-.38 0 5.052 5.052 0 0 1-4.965-.009.386.386 0 0 0-.382 0 4.978 4.978 0 0 1-2.474.656c-.05 0-.102 0-.158-.002h-.003a4.92 4.92 0 0 1-1.372-.239.188.188 0 0 0-.245.178v8.009a.188.188 0 0 1-.188.187h-.539a.766.766 0 0 0-.772.717.75.75 0 0 0 .749.783h20.976c.405 0 .755-.31.773-.716a.749.749 0 0 0-.75-.784Zm-12-3.187a.187.187 0 0 1-.188.187H6.187A.188.188 0 0 1 6 17.81v-3a.563.563 0 0 1 .562-.563h3.375a.562.562 0 0 1 .563.563v3Zm7.312 3.187h-3.375a.188.188 0 0 1-.187-.187v-6a.563.563 0 0 1 .562-.563h2.625a.563.563 0 0 1 .563.563v6a.187.187 0 0 1-.188.187Z"></path>
  <path d="m23.089 7.982-2.012-4.617C20.55 2.232 19.347 1.5 18.01 1.5H5.985c-1.335 0-2.538.732-3.065 1.865L.908 7.982c-.422.91.135 1.844.136 1.844l.013.021c.023.037.064.094.088.13l.007.01.234.284.029.03.234.227.02.016c.137.118.284.225.44.318v.003c.51.309 1.091.481 1.687.5h.116a3.566 3.566 0 0 0 2.432-.952l.016-.015a.372.372 0 0 1 .51 0l.016.015a3.623 3.623 0 0 0 4.896 0 .375.375 0 0 1 .51 0 3.624 3.624 0 0 0 4.885.01.37.37 0 0 1 .502 0 3.6 3.6 0 0 0 2.452.942h.116a3.344 3.344 0 0 0 1.641-.502c.045-.026.087-.055.13-.083.334-.224.623-.507.856-.835l.082-.123a.374.374 0 0 0 .022-.04c.078-.158.495-.972.11-1.8Z"></path>
</svg>