<svg fill="currentColor" viewBox="0 0 24 24" xmlns="http://www.w3.org/2000/svg">
  <path d="M16.5.75h-9a3.003 3.003 0 0 0-3 3v12a3.003 3.003 0 0 0 3 3h9a3.004 3.004 0 0 0 3-3v-12a3.003 3.003 0 0 0-3-3ZM9.75 3h4.5a.75.75 0 1 1 0 1.5h-4.5a.75.75 0 0 1 0-1.5Zm-1.5 13.5a1.5 1.5 0 1 1 0-3 1.5 1.5 0 0 1 0 3Zm7.5 0a1.5 1.5 0 1 1 0-3 1.5 1.5 0 0 1 0 3ZM18 9a.75.75 0 0 1-.75.75H6.75A.75.75 0 0 1 6 9V7.5a.75.75 0 0 1 .75-.75h10.5a.75.75 0 0 1 .75.75V9Z"></path>
  <path d="M16.28 19.722a.75.75 0 0 0-1.06 1.06l.22.22H8.56l.22-.22a.75.75 0 0 0-1.06-1.06l-2.25 2.25a.749.749 0 1 0 1.06 1.06l.53-.53h9.88l.53.53a.75.75 0 0 0 1.06-1.06l-2.25-2.25Z"></path>
</svg>