<svg fill="currentColor" viewBox="0 0 24 24" xmlns="http://www.w3.org/2000/svg">
  <path d="M12 2.25A9.75 9.75 0 0 0 2.25 12c0 5.384 4.365 9.75 9.75 9.75 5.384 0 9.75-4.366 9.75-9.75 0-5.385-4.366-9.75-9.75-9.75Zm3.923 13.25a5.262 5.262 0 0 1-9.14-2.874.75.75 0 0 1-.944-1.156l1.106-1.106a.75.75 0 0 1 1.049-.012l1.156 1.106a.75.75 0 0 1-.844 1.219 3.762 3.762 0 0 0 6.503 1.82.75.75 0 0 1 1.114 1.004v-.002Zm2.239-2.97-1.107 1.106a.75.75 0 0 1-1.048.012l-1.157-1.106a.75.75 0 0 1 .83-1.224 3.758 3.758 0 0 0-6.492-1.82.75.75 0 1 1-1.117-1.001 5.258 5.258 0 0 1 9.135 2.886.75.75 0 0 1 .956 1.147Z"></path>
</svg>