<svg fill="currentColor" viewBox="0 0 24 24" xmlns="http://www.w3.org/2000/svg">
  <path d="M24 6v12a3.004 3.004 0 0 1-3 3H3a3.003 3.003 0 0 1-3-3V6a3.003 3.003 0 0 1 3-3h18a3.003 3.003 0 0 1 3 3ZM1.5 18A1.5 1.5 0 0 0 3 19.5h18a1.5 1.5 0 0 0 1.5-1.5V6A1.5 1.5 0 0 0 21 4.5H3A1.5 1.5 0 0 0 1.5 6v12Z"></path>
  <path d="M0 6a3.003 3.003 0 0 1 3-3h18a3.003 3.003 0 0 1 3 3v12a3.004 3.004 0 0 1-3 3H3a3.003 3.003 0 0 1-3-3V6Zm22.5 12V6A1.5 1.5 0 0 0 21 4.5H3A1.5 1.5 0 0 0 1.5 6v12A1.5 1.5 0 0 0 3 19.5h18a1.5 1.5 0 0 0 1.5-1.5Zm-.75 0a.75.75 0 0 1-.75.75H3a.75.75 0 0 1-.75-.75V6A.75.75 0 0 1 3 5.25h18a.75.75 0 0 1 .75.75v12Z"></path>
</svg>