<svg fill="currentColor" viewBox="0 0 24 24" xmlns="http://www.w3.org/2000/svg">
  <path d="M18 24H6a3.003 3.003 0 0 1-3-3V3a3.003 3.003 0 0 1 3-3h12a3.003 3.003 0 0 1 3 3v18a3.004 3.004 0 0 1-3 3ZM6 1.5A1.5 1.5 0 0 0 4.5 3v18A1.5 1.5 0 0 0 6 22.5h12a1.5 1.5 0 0 0 1.5-1.5V3A1.5 1.5 0 0 0 18 1.5H6Z"></path>
  <path d="M18 0a3.003 3.003 0 0 1 3 3v18a3.004 3.004 0 0 1-3 3H6a3.003 3.003 0 0 1-3-3V3a3.003 3.003 0 0 1 3-3h12ZM6 22.5h12a1.5 1.5 0 0 0 1.5-1.5V3A1.5 1.5 0 0 0 18 1.5H6A1.5 1.5 0 0 0 4.5 3v18A1.5 1.5 0 0 0 6 22.5Zm0-.75a.75.75 0 0 1-.75-.75V3A.75.75 0 0 1 6 2.25h12a.75.75 0 0 1 .75.75v18a.75.75 0 0 1-.75.75H6Z"></path>
</svg>