<svg fill="currentColor" viewBox="0 0 24 24" xmlns="http://www.w3.org/2000/svg">
  <path d="M5.042 11.719a.75.75 0 0 0-1.025-.275l-2.33 1.344a1.86 1.86 0 0 0-.881 1.168c-.116.484-.04.994.213 1.422l.205.354a1.875 1.875 0 0 0 2.56.685l2.328-1.342a.75.75 0 0 0 .275-1.025l-1.345-2.33Z"></path>
  <path d="m17.945 20.66-4.412-8.756a.094.094 0 0 1 .038-.123l.389-.225a.748.748 0 0 0 .274-1.024l-2.228-3.86a.749.749 0 0 0-1.024-.275l-4.05 2.335a1.862 1.862 0 0 0-.874 1.138 1.633 1.633 0 0 0-.064.457c.003.357.431 1.064.85 1.795.45.785.901 1.588 1.234 1.788.212.127.586.23.9.23h.04L5.3 22.183a.75.75 0 1 0 1.362.63l4.39-9.5a.372.372 0 0 1 .154-.167l.9-.52a.096.096 0 0 1 .074-.008.095.095 0 0 1 .056.048l4.37 8.672a.75.75 0 1 0 1.34-.675v-.003Z"></path>
  <path d="m22.978 5.423-2.162-3.738A1.879 1.879 0 0 0 18.257 1L13.88 3.52a1.861 1.861 0 0 0-.874 1.139c-.062.2-.082.412-.06.621.082.592.61 1.425 1.239 2.526.636 1.112 1.355 2.366 1.73 2.638.319.224.698.345 1.087.345.328 0 .65-.086.934-.25l4.376-2.522a1.861 1.861 0 0 0 .881-1.165 1.92 1.92 0 0 0-.215-1.429Z"></path>
</svg>