<svg fill="currentColor" viewBox="0 0 24 24" xmlns="http://www.w3.org/2000/svg">
  <path d="M21 12a9.03 9.03 0 0 0 1.5-.126A10.5 10.5 0 0 0 12.126 1.5 9.03 9.03 0 0 0 12 3c0 4.963 4.037 9 9 9Z"></path>
  <path d="M11.876 22.499A9.243 9.243 0 0 0 12 21c0-4.963-4.037-9-9-9a9.03 9.03 0 0 0-1.5.126 10.5 10.5 0 0 0 10.376 10.373Z"></path>
  <path d="M13.575 10.425A10.43 10.43 0 0 1 10.5 3c0-.47.031-.94.094-1.406a10.505 10.505 0 0 0-9 9C2.06 10.53 2.53 10.5 3 10.5a10.43 10.43 0 0 1 7.425 3.075A10.431 10.431 0 0 1 13.5 21a10.73 10.73 0 0 1-.094 1.407 10.506 10.506 0 0 0 9-9c-.466.062-.936.093-1.406.093a10.43 10.43 0 0 1-7.425-3.075Z"></path>
</svg>