<svg fill="currentColor" viewBox="0 0 24 24" xmlns="http://www.w3.org/2000/svg">
  <path d="m13.716 19.115-5.625-15a1.031 1.031 0 0 0-1.931 0l-5.625 15a1.031 1.031 0 0 0 1.931.723l1.695-4.52a.094.094 0 0 1 .088-.06h5.753a.093.093 0 0 1 .088.06l1.695 4.52a1.031 1.031 0 0 0 1.931-.723Zm-8.711-6.047 2.033-5.421a.094.094 0 0 1 .175 0l2.033 5.422a.094.094 0 0 1-.087.126H5.093a.093.093 0 0 1-.077-.04.093.093 0 0 1-.011-.086v-.001Z"></path>
  <path d="M18.786 7.945c-1.956-.014-3.707 1.12-4.453 2.879a1.031 1.031 0 1 0 1.898.806c.417-.98 1.396-1.615 2.5-1.622 1.515-.01 2.738 1.242 2.738 2.759a.07.07 0 0 1-.068.07 39.17 39.17 0 0 0-3.334.225c-2.566.302-4.098 1.7-4.098 3.743 0 1.087.41 2.062 1.156 2.75.7.645 1.656 1 2.688 1 1.453 0 2.704-.375 3.653-1.089h.003a1.032 1.032 0 1 0 2.062.01v-6.704c0-2.633-2.11-4.807-4.745-4.827Zm-.974 10.547c-.821 0-1.78-.442-1.78-1.687 0-.5.179-.85.582-1.136.392-.278.994-.476 1.694-.559.99-.116 2.1-.18 3.053-.21a.094.094 0 0 1 .094.1c-.127 2.349-1.324 3.492-3.642 3.492Z"></path>
</svg>