<svg fill="currentColor" viewBox="0 0 24 24" xmlns="http://www.w3.org/2000/svg">
  <path d="m1.872 8.344 6.758.287c.216.017 1.12.057 1.12 1.213 0 1.115-.898 1.187-1.132 1.213l-6.746.287c-.594-.006-1.122-.677-1.122-1.5s.528-1.494 1.122-1.5Zm6.63 6.171-5.003.391c-.593 0-1.249-.782-1.249-1.588v-.015c0-.766.522-1.39 1.166-1.397l5.084.08c1.25.155 1.25.912 1.25 1.238 0 1.073-1.022 1.273-1.247 1.291ZM4.227 1.5l4.189.419c1.148.043 1.335.808 1.335 1.287 0 .862-.629 1.153-1.25 1.153L4.234 4.5C3.552 4.49 3 3.82 3 3s.547-1.484 1.226-1.5Zm-1.61 3.352 5.924.291c.44.03 1.21.14 1.21 1.236 0 .562-.204 1.2-1.172 1.29l-5.963.183C2 7.845 1.5 7.219 1.5 6.379c0-.84.5-1.52 1.115-1.527Z"></path>
  <path d="m17.469 13.082-.047.094a.764.764 0 0 1 .317-.34.773.773 0 0 0-.27.246Z"></path>
  <path d="M9.185 21.533c.442.623 1.175.967 2.066.967a.75.75 0 0 0 .67-.415c.141-.284.715-1.125 1.322-2.01.844-1.235 1.891-2.77 2.589-3.976l.006-.01c.96-1.664 1.423-2.576 1.585-2.907l.047-.094a.773.773 0 0 1 .624-.338h1.187a3.97 3.97 0 0 0 3.97-3.97V6.97A3.97 3.97 0 0 0 19.28 3h-2.287a.819.819 0 0 1-.45-.135C15.47 2.162 13.439 1.5 11.252 1.5c-.35 0-.665.007-.95.018a.375.375 0 0 0-.291.594l.005.007c.401.58.486 1.21.486 1.631 0 .4-.082.795-.244 1.161a.815.815 0 0 0 0 .66 2.992 2.992 0 0 1 0 2.361.811.811 0 0 0 0 .656 2.913 2.913 0 0 1 0 2.325.85.85 0 0 0 0 .688c.168.376.25.784.244 1.196 0 .384-.094.998-.375 1.461a.734.734 0 0 0-.054.64c.018.047.036.097.053.149.056.175.07.36.04.542-.14.907-.453 1.702-.784 2.539-.145.365-.294.741-.432 1.138-.288.823-.202 1.65.236 2.267Z"></path>
</svg>