<svg fill="currentColor" viewBox="0 0 24 24" xmlns="http://www.w3.org/2000/svg">
  <path d="m22.128 15.656-6.758-.287c-.216-.017-1.12-.057-1.12-1.213 0-1.116.898-1.187 1.132-1.213l6.746-.287c.594.006 1.122.677 1.122 1.5 0 .824-.528 1.494-1.122 1.5Zm-6.63-6.172 5.003-.39c.593 0 1.249.782 1.249 1.588v.015c0 .765-.522 1.389-1.166 1.397l-5.084-.081c-1.25-.154-1.25-.912-1.25-1.237 0-1.073 1.022-1.273 1.247-1.292ZM19.773 22.5l-4.189-.419c-1.148-.043-1.335-.808-1.335-1.288 0-.861.629-1.153 1.25-1.153l4.266-.14c.681.01 1.234.68 1.234 1.5s-.547 1.484-1.226 1.5Zm1.61-3.352-5.924-.29c-.44-.03-1.21-.141-1.21-1.237 0-.562.204-1.2 1.172-1.29l5.962-.182c.617.006 1.116.632 1.116 1.472s-.5 1.52-1.115 1.527Z"></path>
  <path d="m6.532 10.914.047-.094a.763.763 0 0 1-.317.34.768.768 0 0 0 .27-.246Z"></path>
  <path d="M14.815 2.467c-.442-.624-1.174-.967-2.065-.967a.75.75 0 0 0-.67.414c-.141.285-.716 1.125-1.322 2.012C9.914 5.16 8.866 6.695 8.168 7.9l-.005.01c-.96 1.664-1.423 2.575-1.586 2.907l-.046.094a.766.766 0 0 1-.272.244.741.741 0 0 1-.353.094H4.72a3.97 3.97 0 0 0-3.97 3.97v1.81A3.97 3.97 0 0 0 4.72 21h2.287c.16 0 .316.048.449.136 1.075.702 3.107 1.364 5.294 1.364.35 0 .665-.007.95-.018a.375.375 0 0 0 .29-.594l-.004-.007c-.402-.58-.486-1.21-.486-1.631 0-.4.082-.795.243-1.161a.814.814 0 0 0 0-.659 2.99 2.99 0 0 1 0-2.362.811.811 0 0 0 0-.656 2.912 2.912 0 0 1 0-2.325.85.85 0 0 0 0-.688 2.828 2.828 0 0 1-.243-1.196c0-.384.094-.998.375-1.462a.732.732 0 0 0 .053-.64 4.056 4.056 0 0 1-.053-.148 1.163 1.163 0 0 1-.04-.543c.14-.906.453-1.7.785-2.538.144-.365.294-.742.432-1.138.288-.823.202-1.65-.237-2.267Z"></path>
</svg>