<svg fill="currentColor" viewBox="0 0 24 24" xmlns="http://www.w3.org/2000/svg">
  <path d="M4.5 19.5a.75.75 0 0 1-.67-1.086l1.124-2.25a.75.75 0 0 1 1.342.672l-1.125 2.25a.75.75 0 0 1-.671.414Z"></path>
  <path d="M5.625 22.5a.75.75 0 0 1-.67-1.086l.75-1.5a.75.75 0 0 1 1.34.672l-.75 1.5a.75.75 0 0 1-.67.414Z"></path>
  <path d="M17.625 19.5a.75.75 0 0 1-.67-1.086l1.124-2.25a.75.75 0 1 1 1.342.672l-1.125 2.25a.75.75 0 0 1-.671.414Z"></path>
  <path d="M18.75 22.5a.75.75 0 0 1-.67-1.086l.75-1.5a.75.75 0 1 1 1.34.672l-.75 1.5a.75.75 0 0 1-.67.414Z"></path>
  <path d="M19.024 6.416a7.09 7.09 0 0 0-2.232-3.84A7.172 7.172 0 0 0 5.459 5.009 5.009 5.009 0 0 0 .75 9.998c0 2.758 2.246 5 5.006 5h3.109l-.605 3.627A.75.75 0 0 0 9 19.5h1.5v3a.75.75 0 0 0 1.36.436l3.75-5.25A.75.75 0 0 0 15 16.5h-1.29l.375-1.5h4.868a4.292 4.292 0 0 0 .07-8.583Z"></path>
</svg>