<svg fill="currentColor" viewBox="0 0 24 24" xmlns="http://www.w3.org/2000/svg">
  <path d="m22.977 8.503-2.069-2.069a.937.937 0 0 0-1.265-.046 1.444 1.444 0 0 1-1.954-.075 1.444 1.444 0 0 1-.075-1.954.937.937 0 0 0-.047-1.265l-2.07-2.071a.933.933 0 0 0-1.319 0L10.88 4.32a1.87 1.87 0 0 0-.448.726.362.362 0 0 1-.226.227 1.865 1.865 0 0 0-.727.449l-8.456 8.456a.933.933 0 0 0 0 1.319l2.07 2.068a.937.937 0 0 0 1.266.047 1.439 1.439 0 0 1 2.029 2.029.937.937 0 0 0 .047 1.266l2.069 2.068a.933.933 0 0 0 1.318 0l8.456-8.456c.204-.204.358-.453.45-.726a.36.36 0 0 1 .226-.227c.274-.091.522-.245.726-.449l3.298-3.297a.933.933 0 0 0 0-1.317Zm-10.705-1.39a.75.75 0 0 1-1.06 0l-.54-.54a.75.75 0 0 1 1.06-1.06l.54.54a.75.75 0 0 1 0 1.06Zm2.063 2.063a.75.75 0 0 1-1.06 0l-.516-.516a.751.751 0 0 1 1.06-1.06l.516.515a.75.75 0 0 1 0 1.062v-.001Zm2.062 2.062a.75.75 0 0 1-1.06 0l-.516-.515a.75.75 0 0 1 1.06-1.06l.516.515a.75.75 0 0 1 .003 1.063l-.003-.003Zm2.083 2.088a.749.749 0 0 1-1.06 0l-.537-.54a.748.748 0 0 1 .531-1.286.752.752 0 0 1 .532.229l.537.539a.748.748 0 0 1 0 1.06l-.003-.002Z"></path>
</svg>