<svg fill="currentColor" viewBox="0 0 24 24" xmlns="http://www.w3.org/2000/svg">
  <path d="M12 2.25A9.75 9.75 0 0 0 2.25 12 9.75 9.75 0 0 0 12 21.75 9.75 9.75 0 0 0 21.75 12 9.75 9.75 0 0 0 12 2.25ZM8.14 7.61l4.923 3.328a1.523 1.523 0 0 1-1.746 2.496 1.557 1.557 0 0 1-.375-.375L7.613 8.138a.381.381 0 0 1 .531-.531l-.003.003ZM12 20.25c-4.547 0-8.25-3.7-8.25-8.25a8.182 8.182 0 0 1 2.525-5.94.663.663 0 1 1 .92.955A6.869 6.869 0 0 0 5.078 12 6.931 6.931 0 0 0 12 18.923 6.931 6.931 0 0 0 18.923 12a6.93 6.93 0 0 0-6.26-6.89v2.577a.663.663 0 0 1-1.326 0V4.413A.663.663 0 0 1 12 3.75c4.55 0 8.25 3.703 8.25 8.25 0 4.547-3.7 8.25-8.25 8.25Z"></path>
</svg>