<svg fill="currentColor" viewBox="0 0 24 24" xmlns="http://www.w3.org/2000/svg">
  <path d="M19.5 3h-.75v-.73c0-.404-.31-.75-.714-.77a.75.75 0 0 0-.786.749V3H6.75v-.73c0-.404-.31-.75-.714-.77a.75.75 0 0 0-.786.749V3H4.5a3 3 0 0 0-3 3v.562a.187.187 0 0 0 .188.188h20.625a.188.188 0 0 0 .187-.188V6a3 3 0 0 0-3-3Z"></path>
  <path d="M22.36 8.25H1.64a.14.14 0 0 0-.14.14V19.5a3 3 0 0 0 3 3h15a3 3 0 0 0 3-3V8.39a.14.14 0 0 0-.14-.14ZM10.5 14.41a1.34 1.34 0 0 1-1.34 1.34H5.84a1.34 1.34 0 0 1-1.34-1.34v-3.32a1.34 1.34 0 0 1 1.34-1.34h3.32a1.34 1.34 0 0 1 1.34 1.34v3.32Z"></path>
</svg>