<svg fill="currentColor" viewBox="0 0 24 24" xmlns="http://www.w3.org/2000/svg">
  <path d="M13.059 15.305a1.5 1.5 0 0 0 .003-2.121 1.5 1.5 0 0 0-2.12.004 1.5 1.5 0 0 0-.004 2.12 1.5 1.5 0 0 0 2.12-.003Z"></path>
  <path d="M16.5 1.5h-.703a.469.469 0 0 1-.369-.177A1.497 1.497 0 0 0 14.25.75h-4.5a1.5 1.5 0 0 0-1.224.634.281.281 0 0 1-.23.116H7.5c-1.725 0-3 1.352-3 3v11.953c0 1.09 1.2 1.972 3.89 2.857 1.137.366 2.291.675 3.459.925.1.02.203.02.302 0a35.287 35.287 0 0 0 3.458-.925c2.691-.885 3.891-1.766 3.891-2.857V4.5a3 3 0 0 0-3-3ZM8.625 6h6.75a.375.375 0 0 1 .375.375v2.25a.375.375 0 0 1-.375.375h-6.75a.375.375 0 0 1-.375-.375v-2.25A.375.375 0 0 1 8.625 6Zm3.57 11.244a3 3 0 1 1-.39-5.987 3 3 0 0 1 .39 5.987Z"></path>
  <path d="m18.53 21.97-2.235-2.235a.763.763 0 0 0-1.049-.04.75.75 0 0 0-.026 1.085l.22.22H8.56l.205-.205a.763.763 0 0 0 .04-1.05.75.75 0 0 0-1.085-.025l-2.25 2.25a.75.75 0 1 0 1.06 1.06l.53-.53h9.88l.53.53a.75.75 0 0 0 1.06-1.06Z"></path>
</svg>