<svg fill="currentColor" viewBox="0 0 24 24" xmlns="http://www.w3.org/2000/svg">
  <path d="M21.469 1.5H18.28a1.031 1.031 0 1 0 0 2.063h.698l-2.792 2.792a7.017 7.017 0 0 0-8.374 0L7.458 6l1.24-1.24A1.032 1.032 0 0 0 7.24 3.303L6 4.542l-.98-.98h.699a1.031 1.031 0 1 0 0-2.062H2.53A1.031 1.031 0 0 0 1.5 2.531V5.72a1.031 1.031 0 1 0 2.063 0v-.7l.979.98-1.239 1.238a1.031 1.031 0 1 0 1.459 1.459L6 7.458l.355.355A6.993 6.993 0 0 0 4.969 12 7.04 7.04 0 0 0 12 19.031a6.994 6.994 0 0 0 4.193-1.39l1.104 1.104-1.244 1.244a1.032 1.032 0 0 0 1.459 1.46l1.241-1.243 1.986 1.991A1.031 1.031 0 1 0 22.2 20.74l-1.989-1.99 1.237-1.237a1.031 1.031 0 1 0-1.459-1.459l-1.235 1.235-1.104-1.107a7.017 7.017 0 0 0-.005-8.367l2.793-2.794v.698a1.032 1.032 0 0 0 2.062 0V2.53a1.031 1.031 0 0 0-1.031-1.03ZM7.03 12a4.969 4.969 0 1 1 9.938 0 4.969 4.969 0 0 1-9.938 0Z"></path>
</svg>