<svg fill="currentColor" viewBox="0 0 24 24" xmlns="http://www.w3.org/2000/svg">
  <path d="M19.425 5.325a10.419 10.419 0 0 0-6.39-3.025.38.38 0 0 1-.323-.264.74.74 0 0 0-1.423 0 .38.38 0 0 1-.323.264A10.5 10.5 0 0 0 1.5 12.727a.77.77 0 0 0 .34.65.75.75 0 0 0 .94-.097 2.433 2.433 0 0 1 3.437-.003.746.746 0 0 0 1.059.007 2.934 2.934 0 0 1 3.82-.275.386.386 0 0 1 .154.309v6.91c0 .403-.31.75-.712.77a.75.75 0 0 1-.788-.748.75.75 0 0 0-.764-.75c-.421.007-.745.38-.735.801a2.253 2.253 0 0 0 2.22 2.199c1.26.016 2.28-1.028 2.28-2.288v-6.894a.386.386 0 0 1 .153-.31 2.934 2.934 0 0 1 3.816.272.75.75 0 0 0 1.06 0 2.434 2.434 0 0 1 3.44 0 .75.75 0 0 0 .916.113.769.769 0 0 0 .364-.666 10.432 10.432 0 0 0-3.075-7.402Z"></path>
</svg>