<svg fill="currentColor" viewBox="0 0 24 24" xmlns="http://www.w3.org/2000/svg">
  <path d="M13.875 19.51c-.24 0-.473-.078-.666-.22l-.031-.024-4.287-3.516H5.625A1.125 1.125 0 0 1 4.5 14.625v-5.25a1.125 1.125 0 0 1 1.125-1.124H8.89l4.287-3.516.031-.024A1.125 1.125 0 0 1 15 5.618v12.766a1.125 1.125 0 0 1-1.125 1.125Z"></path>
  <path d="M18 15.754a.75.75 0 0 1-.67-1.087c.445-.886.67-1.781.67-2.663 0-.908-.218-1.778-.668-2.66a.75.75 0 0 1 1.336-.681c.56 1.098.832 2.19.832 3.34 0 1.117-.282 2.24-.83 3.337a.75.75 0 0 1-.67.414Z"></path>
</svg>