<svg fill="currentColor" viewBox="0 0 24 24" xmlns="http://www.w3.org/2000/svg">
  <path d="M12.375 19.51c-.24 0-.473-.078-.666-.22l-.031-.024-4.287-3.516H4.125A1.125 1.125 0 0 1 3 14.625v-5.25a1.125 1.125 0 0 1 1.125-1.124H7.39l4.287-3.516.031-.024a1.125 1.125 0 0 1 1.792.907v12.766a1.125 1.125 0 0 1-1.125 1.125Z"></path>
  <path d="M16.5 15.754a.75.75 0 0 1-.67-1.087c.445-.886.67-1.781.67-2.663 0-.908-.218-1.778-.668-2.66a.75.75 0 0 1 1.336-.681c.56 1.098.832 2.19.832 3.34 0 1.117-.282 2.24-.83 3.337a.75.75 0 0 1-.67.414Z"></path>
  <path d="M18.75 17.999a.75.75 0 0 1-.65-1.125c.885-1.545 1.4-2.838 1.4-4.875 0-2.068-.512-3.353-1.398-4.873a.75.75 0 0 1 1.297-.752C20.387 8.069 21 9.603 21 11.999c0 2.36-.613 3.902-1.6 5.625a.751.751 0 0 1-.65.375Z"></path>
</svg>