<svg fill="currentColor" viewBox="0 0 24 24" xmlns="http://www.w3.org/2000/svg">
  <path d="M10.875 19.5a1.12 1.12 0 0 1-.697-.244L5.895 15.75h-3.27A1.125 1.125 0 0 1 1.5 14.624v-5.25A1.125 1.125 0 0 1 2.625 8.25h3.27l4.283-3.506A1.125 1.125 0 0 1 12 5.625v12.75a1.125 1.125 0 0 1-1.125 1.124Z"></path>
  <path d="M15 15.754a.75.75 0 0 1-.67-1.088c.445-.884.67-1.78.67-2.662 0-.909-.218-1.779-.668-2.66a.75.75 0 0 1 1.336-.681c.56 1.096.832 2.19.832 3.34 0 1.119-.281 2.242-.83 3.338a.749.749 0 0 1-.67.413Z"></path>
  <path d="M17.25 18a.75.75 0 0 1-.65-1.126C17.488 15.332 18 14.04 18 12c0-2.07-.512-3.354-1.398-4.872a.75.75 0 0 1 1.296-.755C18.887 8.067 19.5 9.6 19.5 11.999c0 2.364-.612 3.904-1.6 5.625a.75.75 0 0 1-.65.375Z"></path>
  <path d="M19.5 20.25a.75.75 0 0 1-.628-1.16C20.15 17.133 21 15.178 21 12c0-3.117-.852-5.091-2.132-7.096a.75.75 0 0 1 .795-1.136.75.75 0 0 1 .47.329c1.42 2.227 2.367 4.423 2.367 7.904 0 3.035-.687 5.326-2.372 7.91a.75.75 0 0 1-.628.34Z"></path>
</svg>