<svg fill="currentColor" viewBox="0 0 24 24" xmlns="http://www.w3.org/2000/svg">
  <path d="M15 6.375H9A2.625 2.625 0 0 0 6.375 9v6A2.625 2.625 0 0 0 9 17.625h6A2.625 2.625 0 0 0 17.625 15V9A2.625 2.625 0 0 0 15 6.375Z"></path>
  <path d="M15.75 4.5v-3A.75.75 0 0 0 15 .75H9a.75.75 0 0 0-.75.75v3A3.754 3.754 0 0 0 4.5 8.25v7.5a3.754 3.754 0 0 0 3.75 3.75v3a.75.75 0 0 0 .75.75h6a.75.75 0 0 0 .75-.75v-3a3.754 3.754 0 0 0 3.75-3.75v-7.5a3.754 3.754 0 0 0-3.75-3.75ZM18.375 15A3.379 3.379 0 0 1 15 18.375H9A3.379 3.379 0 0 1 5.625 15V9A3.379 3.379 0 0 1 9 5.625h6A3.379 3.379 0 0 1 18.375 9v6Z"></path>
</svg>