<svg fill="currentColor" viewBox="0 0 24 24" xmlns="http://www.w3.org/2000/svg">
  <path d="M16.25 14.267a6.375 6.375 0 0 0-8.471 0 .985.985 0 1 0 1.308 1.47 4.406 4.406 0 0 1 5.854 0 .985.985 0 0 0 1.309-1.471Z"></path>
  <path d="M12.014 8.61a10.38 10.38 0 0 0-7.116 2.808.986.986 0 1 0 1.344 1.438 8.45 8.45 0 0 1 11.543 0 .985.985 0 1 0 1.344-1.438 10.382 10.382 0 0 0-7.116-2.809Z"></path>
  <path d="M21.657 8.247a14.484 14.484 0 0 0-19.287 0 .984.984 0 1 0 1.313 1.467 12.516 12.516 0 0 1 16.66 0 .984.984 0 1 0 1.313-1.468Z"></path>
  <path d="M12.013 19.938a1.5 1.5 0 1 0 0-3 1.5 1.5 0 0 0 0 3Z"></path>
</svg>