<svg fill="currentColor" viewBox="0 0 24 24" xmlns="http://www.w3.org/2000/svg">
  <path d="M11.988 5.25a2.625 2.625 0 1 0 0-5.25 2.625 2.625 0 0 0 0 5.25Z"></path>
  <path d="m18.498 13.027-.484-1.613v-.005l-1.053-3.51h-.002l-.118-.395A2.103 2.103 0 0 0 14.826 6H9.2a2.102 2.102 0 0 0-2.016 1.504l-.118.396h-.003l-1.052 3.509v.005l-.486 1.613a.951.951 0 0 0 .589 1.179.937.937 0 0 0 1.2-.618l1.199-3.996.102-.34a.375.375 0 0 1 .72.199l-2.05 6.834a.75.75 0 0 0 .718.965h1.36v5.377c0 .771.493 1.373 1.124 1.373.632 0 1.125-.602 1.125-1.373V17.25h.75v5.377c0 .771.494 1.373 1.125 1.373.632 0 1.125-.602 1.125-1.373V17.25h1.407a.75.75 0 0 0 .718-.965l-2.05-6.835a.374.374 0 0 1 .72-.198l.102.34 1.199 3.995a.939.939 0 0 0 1.2.617c.48-.162.735-.69.59-1.177Z"></path>
</svg>