<svg xmlns="http://www.w3.org/2000/svg" viewBox="0 0 1140.25 276.33">
    <defs>
        <style>
            .icn-1, .icn-2{
                fill:none;
                }
            
            .icn-1, .icn-2, .icn-3{
                stroke:#000000;
                stroke-miterlimit:10;
                stroke-width:14px;
                }
            
            .icn-2{
                stroke:#000000;
                fill:none;
                }
            
            .icn-3{
                stroke:#000000;
                fill:#000000;
                }

            .txt-1{
                fill:#000000;
                stroke:#000000;
                stroke-miterlimit:10;
                stroke-width:7px;
                }

            .txt-2{
                fill:#000000;
                stroke:#000000;
                stroke-miterlimit:10;
                stroke-width:7px;
                }
        </style>
    </defs>

    <g>
        <g>
            <rect class="icn-1" x="7" y="98.68" width="170.65" height="170.65" rx="2.61" ry="2.61"/>
            <rect class="icn-2" x="92.33" y="98.68" width="170.65" height="170.65" rx="85.32" ry="85.32"/>
            <rect class="icn-3" x="7" y="13.36" width="170.65" height="170.65" rx="85.32" ry="85.32"/>
            <g>
                <g>
                    <path class="txt-1" d="M355.08,10.42H361l36.07,63.79L433,10.42h5.48V113.6H355.08Zm5.48,97.89H433V21.55L399.59,80.32h-5.21L360.56,20.74Z"/>
                    <path class="txt-1" d="M584.86,113.91H487.51L536.23,8.36Zm-88.73-5.56h80.12l-40-86.95Z"/>
                    <path class="txt-1" d="M718.28,113.91H639V10.73h40.19c8.62,0,15.61,1.52,21.09,4.57a31.47,31.47,0,0,1,12.47,12.2,33.68,33.68,0,0,1,4.49,17,32.8,32.8,0,0,1-7.09,20.73,33.64,33.64,0,0,1-18,12.11ZM644.44,19.7V72.9h38.13Zm0,88.65h63.43L686.25,78.16l-4.57.18H644.44v30Zm3.86-92.24,40.37,56.35a27.67,27.67,0,0,0,16.42-10,27.75,27.75,0,0,0,6.55-18.12,27.75,27.75,0,0,0-4-14.77,26,26,0,0,0-11.3-10.23c-4.4-2.15-10-3.23-17-3.23Z"/>
                    <path class="txt-1" d="M856.63,10.6v5.51h-39v97.71h-5.39V16.11h-39V10.64Z"/>
                    <path class="txt-1" d="M987.9,10.6v5.51H957v92.24H987.9v5.47H921.06v-5.47h30.68V16.11H921.06V10.64Z"/>
                    <path class="txt-1" d="M1053.49,113.91V10.73h5.74l72,70v-70h5.47V113.91h-5.47V88.39l-72.41-70.61v96.13Z"/>
                    <path class="txt-2" d="M354.72,272.72V169.54h5.48v29.25a73.19,73.19,0,0,1,28.89,5.83,74.25,74.25,0,0,1,39.57,40.28V169.54h5.47V272.72h-5.47a67.55,67.55,0,0,0-9.16-34.37,68.36,68.36,0,0,0-25-25,67.21,67.21,0,0,0-34.36-9.15v68.55Z"/>
                    <path class="txt-2" d="M592.76,169.41h72.68v5.51H598.23v41.81h58.41v5.47H598.23v45h67.21v5.47H592.76Z"/>
                    <path class="txt-2" d="M904.91,272.72H825.59V169.54h40.2c8.61,0,15.61,1.52,21.08,4.57a31.4,31.4,0,0,1,12.47,12.2,33.58,33.58,0,0,1,4.49,17.05,32.8,32.8,0,0,1-7.09,20.73A33.65,33.65,0,0,1,878.8,236.2Zm-73.85-94.21v53.2H869.2Zm0,88.64H894.5L872.87,237l-4.57.18H831.06v30Zm3.86-92.23,40.38,56.35a28.79,28.79,0,0,0,18.93-42.89,26,26,0,0,0-11.31-10.23c-4.3-2.15-10-3.23-17-3.23Z"/>
                    <path class="txt-2" d="M1127.42,174.92H1059.5v-5.47h75V272.63h-76.72v-5.48Zm1.61,92.23V181.92l-64.33,85.23Z"/>
                </g>
            </g>
        </g>
    </g>
</svg>