<svg fill="currentColor" viewBox="0 0 24 24" xmlns="http://www.w3.org/2000/svg">
  <path d="M18.928 3.005 18.774 3h-.024c-.69 0-1.338.277-1.9.703-.56.426-.725.797-.725.797l4.125 4.03s.527-.267.826-.648c.298-.382.669-.848.67-1.74.004-1.664-1.233-3.042-2.818-3.137Z"></path>
  <path d="M5.073 3.005 5.226 3h.025c.69 0 1.338.277 1.899.703.561.426.726.797.726.797L3.75 8.53s-.528-.267-.826-.648c-.298-.382-.67-.848-.671-1.742-.003-1.662 1.235-3.04 2.82-3.135Z"></path>
  <path d="M18.343 18.028v-.004c1.58-1.9 2.33-4.513 1.673-7.279-.639-2.696-3.406-5.423-6.11-6.03A8.263 8.263 0 0 0 3.755 12.75a8.21 8.21 0 0 0 1.912 5.278L3.423 20.25l-.001.002v.002l1.079 1.055h.003l2.224-2.22.002-.001h.001a8.233 8.233 0 0 0 10.55 0h.003l2.217 2.22c0 .001 0 .002.002.002l.002-.001 1.12-1.06-2.282-2.221ZM12.754 13.5H7.501v-1.495l.002-.003h3.75V6.75h1.5l.001 6.75Z"></path>
</svg>