<svg fill="currentColor" viewBox="0 0 24 24" xmlns="http://www.w3.org/2000/svg">
  <path d="m10.125 2.25 6.07 6.008V2.25h-6.07Z"></path>
  <path d="M8.506 2.734 3.75 6.28H12L8.506 2.734Z"></path>
  <path d="M15.75 16.125h6v-6l-6 6Z"></path>
  <path d="M21.281 8.531 17.72 3.75V12l3.562-3.469Z"></path>
  <path d="M2.25 7.781v6l6-6h-6Z"></path>
  <path d="m15.469 21.281 4.781-3.562H12l3.469 3.562Z"></path>
  <path d="M2.719 15.469 6.28 20.25V12l-3.56 3.469Z"></path>
  <path d="m16.194 10.412-2.603-2.6h-3.182l-2.604 2.6v3.176l2.607 2.603c.02 0 .041-.003.062-.003h3.117l2.603-2.6v-3.176Z"></path>
  <path d="m7.781 15.758.001 5.996h6l-6-5.996Z"></path>
</svg>