<svg fill="currentColor" viewBox="0 0 24 24" xmlns="http://www.w3.org/2000/svg">
  <path d="M12.02 2.281c-5.384 0-9.75 4.365-9.75 9.75a9.75 9.75 0 0 0 9.75 9.75 9.75 9.75 0 0 0 9.75-9.75c0-5.385-4.367-9.75-9.75-9.75Zm5.85 9.528c-.134 1.53-.787 2.33-1.313 2.731-.525.401-1.157.578-1.702.48a1.95 1.95 0 0 1-1.266-.82 2.853 2.853 0 0 1-2.05.839 2.422 2.422 0 0 1-1.806-.79c-.534-.581-.797-1.422-.72-2.307.144-1.64 1.45-2.69 2.667-2.882 1.275-.2 2.448.307 2.949.912l.18.219-.298 2.361c-.055.673.155 1.101.577 1.177.112.02.38-.006.674-.231.315-.241.71-.75.801-1.803.109-1.245-.204-2.306-.904-3.07-.726-.792-1.832-1.211-3.198-1.211-2.532 0-4.773 2.082-4.996 4.64-.107 1.228.265 2.376 1.05 3.231.767.837 1.845 1.3 3.03 1.3.89 0 1.435-.096 2.32-.412l.62-.22.44 1.236-.618.22c-1.023.365-1.72.488-2.76.488-1.56 0-2.98-.612-3.999-1.723-1.035-1.13-1.529-2.633-1.39-4.233.137-1.562.866-3.03 2.052-4.13C9.396 6.71 10.909 6.1 12.462 6.1c1.743 0 3.184.565 4.166 1.636.94 1.028 1.382 2.473 1.242 4.072Z"></path>
  <path d="M11.884 10.357c-.695.109-1.479.742-1.563 1.7-.046.518.094.994.38 1.306a1.109 1.109 0 0 0 .839.363c.923 0 1.584-.693 1.725-1.809l.082-.65h.004l.077-.615a2.327 2.327 0 0 0-1.544-.296Z"></path>
</svg>