<svg fill="currentColor" viewBox="0 0 24 24" xmlns="http://www.w3.org/2000/svg">
  <path d="M18.328 14.407c1.535-2.173 2.184-4.764 1.828-7.298-.634-4.5-4.81-7.647-9.31-7.012-4.5.635-7.648 4.806-7.015 9.306.355 2.526 1.693 4.836 3.767 6.504 1.262 1.014 2.7 1.692 4.034 1.937l-.392 2.12a.374.374 0 0 0 .422.44l1.416-.198c.745 1.682 1.952 2.835 3.675 3.516l.698.276.552-1.395-.698-.276c-1.235-.488-2.085-1.226-2.672-2.34l1.024-.144a.374.374 0 0 0 .284-.538l-.961-1.93c1.218-.603 2.414-1.649 3.348-2.968Zm-7.539.734c-1.934-.765-3.576-2.47-4.286-4.45l-.253-.707 1.411-.506.254.706c.68 1.896 2.215 3.083 3.426 3.563l.698.275-.552 1.395-.698-.276Z"></path>
</svg>