<svg fill="currentColor" viewBox="0 0 24 24" xmlns="http://www.w3.org/2000/svg">
  <path d="M1.299 15.802a1.875 1.875 0 0 0 0 2.65l4.249 4.25a1.875 1.875 0 0 0 2.65 0l3.52-3.521-6.9-6.9-3.52 3.52Z"></path>
  <path d="M23.25 6.897a1.868 1.868 0 0 0-.55-1.33L18.433 1.3a1.882 1.882 0 0 0-2.66 0l-3.399 3.401 6.924 6.924 3.4-3.4a1.867 1.867 0 0 0 .551-1.33Z"></path>
  <path d="m12.799 18.103 5.437-5.438-6.904-6.9-5.437 5.438 6.904 6.9Zm.92-6.633a.75.75 0 1 1 1.061 1.061.75.75 0 0 1-1.061-1.061Zm-2.25-2.25a.75.75 0 1 1 1.061 1.06.75.75 0 0 1-1.061-1.06Zm0 4.5a.75.75 0 1 1 1.061 1.061.75.75 0 0 1-1.061-1.061Zm-1.19-2.25a.75.75 0 1 1-1.06 1.061.75.75 0 0 1 1.06-1.061Z"></path>
</svg>