<svg fill="currentColor" viewBox="0 0 24 24" xmlns="http://www.w3.org/2000/svg">
  <path d="M14.164 2.638a.65.65 0 0 1-.16.417l-.006.24L12.7 3.27a8.313 8.313 0 0 0 .17 1.417l1.158-.337.366 1.26-1.158.337c.17.45.38.884.625 1.298l.997-.704.758 1.072-.998.706A8.275 8.275 0 0 0 15.71 9.41l.737-1.041 1.071.757-.736 1.038c.414.245.848.454 1.298.625l.35-1.21 1.261.367-.351 1.21c.478.1.964.158 1.453.172l-.02-1.156.817-.014a9.75 9.75 0 0 0-7.441-7.673.66.66 0 0 1 .016.154Z"></path>
  <path d="m10.032 20.703 1.308.023a8.318 8.318 0 0 0-.17-1.404l-1.131.329-.367-1.26 1.13-.329a8.273 8.273 0 0 0-.624-1.297l-.953.674-.758-1.072.955-.675a8.194 8.194 0 0 0-1.091-1.093l-.652.922-1.07-.757.652-.922a8.31 8.31 0 0 0-1.298-.625l-.299 1.029-1.26-.366.299-1.032a8.316 8.316 0 0 0-1.458-.168l.019 1.047-.83.015a9.744 9.744 0 0 0 7.584 7.804l.014-.843Z"></path>
  <path d="m20.843 14.187-.026-1.55a9.661 9.661 0 0 1-1.843-.222l-.364 1.263-1.263-.366.367-1.265a9.7 9.7 0 0 1-1.69-.814l-.767 1.085-1.072-.757.766-1.083a9.572 9.572 0 0 1-1.407-1.407l-1.04.735-.757-1.072 1.039-.735a9.66 9.66 0 0 1-.815-1.69l-1.207.35-.366-1.26 1.206-.35a9.89 9.89 0 0 1-.149-.874h-.022l-.036-.656-.016-.281-.84-.015a.626.626 0 0 1-.085-.008l-.297-.006.002-.116a.656.656 0 0 1-.259-.616 9.75 9.75 0 0 0-7.457 7.715l.755-.013.021 1.18.32.018.656.036v.022c.295.037.586.087.874.15l.313-1.079 1.258.369-.314 1.078a9.625 9.625 0 0 1 1.69.815l.682-.964 1.072.758-.678.961c.517.419.988.89 1.406 1.406l.999-.703.757 1.072-1.001.705a9.73 9.73 0 0 1 .813 1.69l1.184-.343.366 1.26-1.183.343c.13.59.204 1.19.222 1.795l1.379.025-.014.772a9.747 9.747 0 0 0 7.5-7.369l-.679.011Z"></path>
</svg>