<svg fill="currentColor" viewBox="0 0 24 24" xmlns="http://www.w3.org/2000/svg">
  <path d="M14.376 11.135h-3.118l.719-2.564.301-1.074.185-.657.201-.718a.16.16 0 0 0 .003-.02v-.02a.07.07 0 0 0 0-.012v-.006c0-.005-.003-.01-.005-.014v-.002a.11.11 0 0 0-.094-.064h-.005a.105.105 0 0 0-.084.047l-.586.804-.882 1.198-.392.538-1.66 2.278L7.5 12.852h3.114l-1.406 5.016a.188.188 0 0 0-.003.023v.004a.093.093 0 0 0 .004.035v.003c.001.006.004.01.006.015a.11.11 0 0 0 .071.055h.027a.099.099 0 0 0 .062-.024l.002-.002a.12.12 0 0 0 .02-.021l1.07-1.46.61-.835 3.299-4.526Z"></path>
  <path d="m13.583 6.307-.007.035-.01.034-.315 1.125h6.295V16.5h-7.92L10.534 18h10.513V6H13.6c.01.103.004.206-.016.307Z"></path>
  <path d="M2.297 7.5h7.945L11.334 6H.797v12h7.476c-.01-.104-.005-.21.016-.313l.007-.035.01-.034.313-1.118H2.297v-9Z"></path>
  <path d="M12.41 15.43h6.12V8.577h-5.58l-.456 1.627h3.724l-1.085 1.49-2.723 3.734Z"></path>
  <path d="M7.5 13.797H5.659l1.085-1.49L9.46 8.578H3.314v6.851h5.607l.458-1.632H7.5Z"></path>
  <path d="M23.297 9.5h-1.5v5h1.5v-5Z"></path>
</svg>