<svg fill="currentColor" viewBox="0 0 24 24" xmlns="http://www.w3.org/2000/svg">
  <path d="M21 9.75h-3.75v-.269A2.997 2.997 0 0 0 15.077 4.5a5.202 5.202 0 0 0-2.967-3.354A5.092 5.092 0 0 0 10.125.75c-1.402 0-2.708.576-3.703 1.625a2.625 2.625 0 0 0-3.165 3.633A2.98 2.98 0 0 0 2.25 8.262a2.937 2.937 0 0 0 .974 2.182c.16.146.337.275.526.384V22.5a.75.75 0 0 0 .75.75h12a.75.75 0 0 0 .75-.75v-2.25H21a.75.75 0 0 0 .75-.75v-9a.75.75 0 0 0-.75-.75ZM8.25 20.25h-1.5v-9h1.5v9Zm3 0h-1.5v-9h1.5v9Zm3 0h-1.5v-9h1.5v9ZM15 9c-.39 0-.963-.243-1.251-.53l-.22-.22H6.976l-.178.494c-.272.75-.883.956-1.347.998a1.598 1.598 0 0 1-1.214-.407 1.453 1.453 0 0 1-.484-1.078 1.49 1.49 0 0 1 .437-1.064l.024-.023c.278-.27.65-.42 1.037-.42.004 0 .428.016.769.272l.6.45.9-1.2-.6-.45a2.985 2.985 0 0 0-1.67-.572c-.22 0-.44.025-.656.073a1.125 1.125 0 0 1 1.94-1.11l.011.016.019.022c.098.127.177.269.234.419l.264.703 1.406-.527-.263-.703a3.164 3.164 0 0 0-.525-.902c.682-.642 1.538-.991 2.445-.991a3.603 3.603 0 0 1 2.589 1.087 3.76 3.76 0 0 1 1.002 3.32l-.14.736 1.473.281.14-.736c.058-.3.088-.606.092-.911A1.5 1.5 0 0 1 15.001 9Zm5.25 9.75h-3v-7.5h3v7.5Z"></path>
</svg>