<svg fill="currentColor" viewBox="0 0 24 24" xmlns="http://www.w3.org/2000/svg">
  <path d="m15 9-1.383-2.817c-.29-.652-.29-.652-1.242-.652-.622 0-.692 0-1.078.342l-3.361 3.24c-.39.396-.436.442-.436 1.246 0 .594.177.685.868 1.074l2.882 1.598v4.219h1.5v-5.344s-1.36-.797-2.264-1.406l2.292-2.414c.877 1.336 1.28 2.414 1.781 2.414H18V9h-3Z"></path>
  <path d="M18.188 21a4.312 4.312 0 1 1 0-8.625 4.312 4.312 0 0 1 0 8.625Zm0-7.125a2.813 2.813 0 1 0 0 5.625 2.813 2.813 0 0 0 0-5.625Z"></path>
  <path d="M5.813 21a4.312 4.312 0 1 1 0-8.624 4.312 4.312 0 0 1 0 8.624Zm0-7.125a2.813 2.813 0 1 0 0 5.626 2.813 2.813 0 0 0 0-5.626Z"></path>
  <path d="M15 6a1.495 1.495 0 0 0 1.5-1.505A1.478 1.478 0 0 0 15.008 3a1.5 1.5 0 1 0-.01 3Z"></path>
</svg>