<svg fill="currentColor" viewBox="0 0 24 24" xmlns="http://www.w3.org/2000/svg">
  <path d="m9.37 15.75-.715-.263a4.704 4.704 0 0 1-1.5-1.082c-.653-.699-1.373-1.909-1.096-3.709.244-1.58 2.072-3.478 3.25-4.587 1.277-1.201 3.094-3.087 3.007-4.648L12.281.75h.712C15.4.75 18 2.513 18 5.363c0 2.136-1.031 3.638-3.23 5.01-.375.235-.77.454-1.192.682-1.436.78-3.529 2.336-4.018 4l-.19.695Z"></path>
  <path d="M8.493 5.323c.929-.871 1.768-1.661 2.177-2.522a3.057 3.057 0 0 0-.268-.144c-.556-.267-1.223-.391-2.098-.391H7.51l.027.773c.022.659-.284 1.055-.672 1.556C6.459 5.12 6 5.715 6 6.608c0 .48.06.88.197 1.236a8.44 8.44 0 0 1 .357-.499c.571-.737 1.268-1.39 1.94-2.022Z"></path>
  <path d="M15.484 11.243c-.436.277-.89.522-1.37.783-1.531.83-2.977 1.615-3.434 3.162l-.028.093a5.179 5.179 0 0 0 2.15.469c1.39 0 2.694-.522 3.668-1.47A5.033 5.033 0 0 0 18 10.64a4.33 4.33 0 0 0-.262-1.453c-.532.759-1.273 1.434-2.254 2.056Z"></path>
  <path d="M12.596 16.875h-1.193a.187.187 0 0 0-.183.151l-1.19 6a.186.186 0 0 0 .04.155.187.187 0 0 0 .145.069h3.574a.188.188 0 0 0 .184-.224l-1.191-6a.187.187 0 0 0-.186-.151Z"></path>
  <path d="m15.267 16.61-.532.532a.187.187 0 0 0-.024.237L17.5 21.56a.188.188 0 0 0 .289.028l1.926-1.926a.187.187 0 0 0-.028-.29l-4.182-2.787a.187.187 0 0 0-.237.024Z"></path>
  <path d="M18.188 15.75a.188.188 0 0 0-.188.188v.403a.188.188 0 0 0 .157.185l4.125.687a.188.188 0 0 0 .218-.184v-1.091a.188.188 0 0 0-.188-.188h-4.125Z"></path>
  <path d="m8.734 16.61.533.532a.187.187 0 0 1 .023.237L6.503 21.56a.188.188 0 0 1-.289.028l-1.927-1.926a.187.187 0 0 1 .029-.29l4.182-2.787a.187.187 0 0 1 .236.024Z"></path>
  <path d="M5.813 15.75H1.688a.188.188 0 0 0-.188.188v1.09a.187.187 0 0 0 .218.185l4.125-.687A.187.187 0 0 0 6 16.341v-.404a.188.188 0 0 0-.188-.187Z"></path>
</svg>