<svg fill="currentColor" viewBox="0 0 24 24" xmlns="http://www.w3.org/2000/svg">
  <path d="M22.5 14.256v-1.5h-3.75v-2.668c1.38-1.31 1.5-3.036 1.5-4.838V4.5h-1.5v.75c0 1.313-.087 2.257-.464 2.992C17.25 6 15.202 5.25 12 5.25c-1.866 0-3.525.33-4.708 1.14-.698.478-1.18 1.168-1.532 1.862-.416-.725-.51-1.651-.51-3.002V4.5h-1.5v.75c0 1.755.121 3.439 1.5 4.744v2.762H1.5v1.5l3.75-.006c0 .89.173 2.489.487 3.267-1.209 1.081-1.987 2.279-1.987 4.233v.75h1.5v-.75c0-1.297.427-2.096 1.227-2.874C7.5 21 8.297 21.75 11.25 21.75V8.25h1.5v13.5c3.047 0 3.75-.75 4.773-2.874.8.778 1.227 1.578 1.227 2.874v.75h1.5v-.75c0-1.954-.778-3.151-1.987-4.233.314-.778.487-2.376.487-3.267l3.75.006Z"></path>
  <path d="M12 1.5c-2.253 0-4.5 0-4.5 3.938C8.724 4.78 10.282 4.5 12 4.5c1.13 0 2.16.124 3.065.375.504.14 1.156.408 1.435.563C16.5 1.5 14.253 1.5 12 1.5Z"></path>
</svg>