<svg fill="currentColor" viewBox="0 0 24 24" xmlns="http://www.w3.org/2000/svg">
  <path d="M14.25 21.75h-4.5v1.5h4.5v-1.5Z"></path>
  <path d="M15 19.5H9V21h6v-1.5Z"></path>
  <path d="M17.317 2.939A7.457 7.457 0 0 0 12 .75a7.482 7.482 0 0 0-7.5 7.5c0 2.185.838 4.23 2.297 5.608L7 14.05c.845.79 2 1.87 2 2.825v1.875h2.25v-6.135l-2.076-1.178.857-1.231L12 11.25l1.935-1.05.896 1.204-2.081 1.219v6.127H15v-1.875c0-.932 1.142-2.012 1.976-2.802l.23-.218c1.5-1.433 2.294-3.373 2.294-5.605a7.46 7.46 0 0 0-2.183-5.311Z"></path>
</svg>