<svg fill="currentColor" viewBox="0 0 24 24" xmlns="http://www.w3.org/2000/svg">
  <path d="M1.5 21.375A1.125 1.125 0 0 0 2.625 22.5h18.75a1.125 1.125 0 0 0 1.125-1.125V8.25h-21v13.125Zm15-11.438a.188.188 0 0 1 .188-.187h1.875a.188.188 0 0 1 .187.188v1.874a.188.188 0 0 1-.188.188h-1.875a.188.188 0 0 1-.187-.188V9.938Zm0 3.75a.188.188 0 0 1 .188-.187h1.875a.188.188 0 0 1 .187.188v1.874a.188.188 0 0 1-.188.188h-1.875a.188.188 0 0 1-.187-.188v-1.874Zm-3.75-3.75a.188.188 0 0 1 .188-.187h1.874a.188.188 0 0 1 .188.188v1.874a.188.188 0 0 1-.188.188h-1.874a.188.188 0 0 1-.188-.188V9.938Zm0 3.75a.188.188 0 0 1 .188-.187h1.874a.188.188 0 0 1 .188.188v1.874a.188.188 0 0 1-.188.188h-1.874a.188.188 0 0 1-.188-.188v-1.874Zm0 3.75a.188.188 0 0 1 .188-.187h1.874a.188.188 0 0 1 .188.188v1.875a.188.188 0 0 1-.188.187h-1.874a.188.188 0 0 1-.188-.188v-1.875ZM9 13.688a.188.188 0 0 1 .188-.187h1.874a.188.188 0 0 1 .188.188v1.874a.188.188 0 0 1-.188.188H9.188A.188.188 0 0 1 9 15.562v-1.874Zm0 3.75a.188.188 0 0 1 .188-.187h1.874a.188.188 0 0 1 .188.188v1.875a.188.188 0 0 1-.188.187H9.188A.188.188 0 0 1 9 19.312v-1.875Zm-3.75-3.75a.188.188 0 0 1 .188-.187h1.875a.188.188 0 0 1 .187.188v1.874a.188.188 0 0 1-.188.188H5.438a.188.188 0 0 1-.187-.188v-1.874Zm0 3.75a.188.188 0 0 1 .188-.187h1.875a.188.188 0 0 1 .187.188v1.875a.188.188 0 0 1-.188.187H5.438a.188.188 0 0 1-.187-.188v-1.875Z"></path>
  <path d="M21.375 3h-2.621V1.5h-2.25V3H7.496V1.5h-2.25V3H2.625A1.116 1.116 0 0 0 1.5 4.114V6.75h21V4.114A1.117 1.117 0 0 0 21.375 3Z"></path>
</svg>