<svg fill="currentColor" viewBox="0 0 24 24" xmlns="http://www.w3.org/2000/svg">
  <path d="M22.45 17.35c-.244-.26-1.108-1.031-2.697-2.05-1.6-1.03-2.78-1.67-3.118-1.82a.18.18 0 0 0-.183.023 59.029 59.029 0 0 0-1.513 1.248c-.317.273-.317.273-.578.188-.457-.15-1.878-.905-3.117-2.146-1.238-1.241-2.032-2.698-2.182-3.155-.085-.26-.085-.26.188-.578.042-.05.823-.967 1.249-1.512a.18.18 0 0 0 .022-.184c-.149-.339-.79-1.518-1.819-3.118-1.02-1.588-1.79-2.451-2.05-2.696a.183.183 0 0 0-.183-.04 15.11 15.11 0 0 0-2.625 1.192 15.844 15.844 0 0 0-2.28 1.61.18.18 0 0 0-.06.176c.098.456.566 2.362 2.02 5.002 1.482 2.694 2.51 4.075 4.687 6.245 2.177 2.17 3.601 3.259 6.299 4.742 2.64 1.453 4.546 1.921 5.002 2.018a.181.181 0 0 0 .176-.059 15.83 15.83 0 0 0 1.61-2.28c.48-.835.88-1.714 1.193-2.625a.184.184 0 0 0-.04-.181Z"></path>
</svg>