<svg fill="currentColor" viewBox="0 0 24 24" xmlns="http://www.w3.org/2000/svg">
  <path d="M21.375 6.75h-3.89c-.141 0-.316-.09-.452-.234l-1.28-2.006c-.472-.76-.753-.76-1.597-.76H9.844c-.844 0-1.078 0-1.597.76l-1.28 2.006c-.104.113-.25.234-.404.234V6a.375.375 0 0 0-.375-.375H4.313A.375.375 0 0 0 3.938 6v.75H2.625A1.125 1.125 0 0 0 1.5 7.875v11.25a1.125 1.125 0 0 0 1.125 1.125h18.75a1.125 1.125 0 0 0 1.125-1.125V7.875a1.125 1.125 0 0 0-1.125-1.125ZM12 17.25c-2.242 0-4.114-1.604-4.453-3.75H5.502l2.748-2.748 2.748 2.748H9.094a3.003 3.003 0 0 0 4.81 1.57L15 16.078l-.172.175A4.53 4.53 0 0 1 12 17.25Zm3.75-2.524L12.99 12h1.916a3.011 3.011 0 0 0-4.828-1.564L9 9.375l.147-.115a4.509 4.509 0 0 1 2.842-1.01A4.439 4.439 0 0 1 16.406 12h2.106l-2.762 2.726Z"></path>
</svg>