<svg fill="currentColor" viewBox="0 0 24 24" xmlns="http://www.w3.org/2000/svg">
  <path d="M12 15.75a3 3 0 1 0 0-6 3 3 0 0 0 0 6Z"></path>
  <path d="M21.375 6.75h-3.89c-.141 0-.316-.09-.452-.234l-1.278-2.007c-.52-.759-.755-.759-1.599-.759H9.844c-.844 0-1.125 0-1.597.76l-1.28 2.006c-.104.113-.25.234-.404.234V6a.375.375 0 0 0-.375-.375H4.313A.375.375 0 0 0 3.938 6v.75H2.625A1.125 1.125 0 0 0 1.5 7.875v11.25a1.125 1.125 0 0 0 1.125 1.125h18.75a1.125 1.125 0 0 0 1.125-1.125V7.875a1.125 1.125 0 0 0-1.125-1.125Zm-9.164 10.495a4.5 4.5 0 1 1-.422-8.99 4.5 4.5 0 0 1 .422 8.99Z"></path>
</svg>