<svg fill="currentColor" viewBox="0 0 24 24" xmlns="http://www.w3.org/2000/svg">
  <path d="M22.875 10.5c-.14-.234-1.529-.834-1.529-.834.242-.125.407-.15.407-.666 0-.563-.003-.75-.378-.75h-1.272l-.016-.035c-.821-1.793-.931-2.246-2.156-2.857C16.288 4.541 13.207 4.5 12 4.5c-1.207 0-4.288.041-5.93.858-1.225.61-1.195.923-2.155 2.857 0 .005-.01.02-.02.035H2.623c-.372 0-.375.188-.375.75 0 .516.165.541.407.666 0 0-1.341.646-1.529.834-.188.188-.375 1.5-.375 3.75s.188 4.5.188 4.5h.56c0 .656.096.75.377.75h3.75c.281 0 .375-.094.375-.75h12c0 .656.094.75.375.75h3.844c.187 0 .281-.14.281-.75h.563s.187-2.297.187-4.5-.234-3.516-.375-3.75ZM5.872 12.607c-.854.093-1.712.14-2.571.143-.957 0-.99.061-1.058-.536a3.382 3.382 0 0 1 .024-.821l.03-.143h.14c.563 0 1.091.024 2.089.318.507.152.984.39 1.41.706.205.148.252.289.252.289l-.316.044Zm11.585 3.375-.207.518H6.75s.018-.029-.234-.524c-.188-.367.046-.601.417-.734.718-.259 2.817-.992 5.067-.992s4.39.632 5.086.992c.258.133.578.227.371.742v-.002ZM5.41 9.582a4.51 4.51 0 0 1-.454.003c.122-.218.19-.46.31-.713.374-.797.803-1.699 1.567-2.079 1.103-.55 3.39-.797 5.167-.797 1.777 0 4.064.246 5.167.797.764.38 1.19 1.283 1.567 2.079.121.255.188.5.314.719-.094.005-.202 0-.46-.01H5.41Zm16.3 2.63c-.1.585-.007.538-1.01.538a24.236 24.236 0 0 1-2.572-.143c-.133-.024-.171-.25-.064-.333a4.4 4.4 0 0 1 1.41-.706c.998-.294 1.56-.333 2.114-.314a.15.15 0 0 1 .145.14c.026.274.018.549-.023.82v-.002Z"></path>
</svg>