<svg fill="currentColor" viewBox="0 0 24 24" xmlns="http://www.w3.org/2000/svg">
  <path d="M20.985 10.35a.766.766 0 0 0-.047-.146l-2.25-5.25A.75.75 0 0 0 18 4.5H6a.75.75 0 0 0-.69.455l-2.25 5.25a.77.77 0 0 0-.046.145c-.01.05-.014.1-.014.15v8.625a.375.375 0 0 0 .375.375h1.5a.375.375 0 0 0 .375-.375V18h13.5v1.125a.375.375 0 0 0 .375.375h1.5a.375.375 0 0 0 .375-.375V10.5a.75.75 0 0 0-.015-.15ZM6.75 15a1.5 1.5 0 1 1 0-3 1.5 1.5 0 0 1 0 3Zm10.5 0a1.5 1.5 0 1 1 0-3 1.5 1.5 0 0 1 0 3ZM4.887 9.75 6.495 6h11.01l1.608 3.75H4.887Z"></path>
</svg>