<svg fill="currentColor" viewBox="0 0 24 24" xmlns="http://www.w3.org/2000/svg">
  <path d="M21.75 17.25H2.25v1.5h19.5v-1.5Z"></path>
  <path d="M20.25 19.5H3.75V21h16.5v-1.5Z"></path>
  <path d="M22.5 8.25a4.505 4.505 0 0 1-4.5-4.5V3H6v.75a4.505 4.505 0 0 1-4.5 4.5H.75v3h.75a4.505 4.505 0 0 1 4.5 4.5v.75h12v-.75a4.505 4.505 0 0 1 4.5-4.5h.75v-3h-.75Zm-10.5 6a4.5 4.5 0 1 1 0-9 4.5 4.5 0 0 1 0 9Z"></path>
  <path d="M4.5 3.75V3H.75v3.75h.75a3.003 3.003 0 0 0 3-3Z"></path>
  <path d="M1.5 12.75H.75v3.75H4.5v-.75a3.003 3.003 0 0 0-3-3Z"></path>
  <path d="M22.5 6.75h.75V3H19.5v.75a3.003 3.003 0 0 0 3 3Z"></path>
  <path d="M19.5 15.75v.75h3.75v-3.75h-.75a3.004 3.004 0 0 0-3 3Z"></path>
  <path d="M12 12.75a3 3 0 1 0 0-6 3 3 0 0 0 0 6Z"></path>
</svg>