<svg fill="currentColor" viewBox="0 0 24 24" xmlns="http://www.w3.org/2000/svg">
  <path d="M21 14.645c.036-.052.07-.106.107-.156A8.182 8.182 0 0 0 22.5 9.93c.015-4.654-3.912-8.43-8.768-8.43-4.236 0-7.77 2.882-8.597 6.709a8.1 8.1 0 0 0-.188 1.726c0 4.66 3.777 8.537 8.633 8.537.772 0 1.812-.233 2.382-.389a15.46 15.46 0 0 0 1.282-.42c.147-.055.375-.112.558-.06l3.629 1.05a.187.187 0 0 0 .234-.228l-.83-3.164c-.058-.234-.066-.278.165-.616Z"></path>
  <path d="M14.65 19.468a7.75 7.75 0 0 1-1.09.096c-1.989 0-3.867-.525-5.39-1.51a8.629 8.629 0 0 1-2.49-2.311c-1.222-1.62-1.888-3.68-1.888-5.836 0-.146.005-.287.01-.429a.203.203 0 0 0-.353-.146 7.442 7.442 0 0 0-.697 9.152c.116.176.181.313.161.404l-.66 3.387a.187.187 0 0 0 .245.212l3.187-1.136a.788.788 0 0 1 .606.01c.954.375 2.009.606 3.064.606a7.943 7.943 0 0 0 5.467-2.156.2.2 0 0 0-.172-.343Z"></path>
</svg>