<svg fill="currentColor" viewBox="0 0 24 24" xmlns="http://www.w3.org/2000/svg">
  <path d="M22.158 8.883c-.739-.469-1.698-.787-2.747-.916-.311-1.833-1.135-3.4-2.403-4.56C15.663 2.178 13.885 1.5 12 1.5c-1.657 0-3.188.52-4.424 1.5a7.017 7.017 0 0 0-2.123 2.832c-1.437.203-2.671.685-3.595 1.406C.642 8.195 0 9.542 0 11.138 0 14.296 2.621 16.5 6.375 16.5h4.875V9.75h1.5v6.75h5.813c3.405 0 5.437-1.605 5.437-4.294 0-1.408-.637-2.558-1.842-3.323Z"></path>
  <path d="M11.25 19.66 9 17.39l-1.06 1.08L12 22.5l4.061-4.031-1.06-1.078-2.25 2.27V16.5h-1.5v3.16Z"></path>
</svg>