<svg fill="currentColor" viewBox="0 0 24 24" xmlns="http://www.w3.org/2000/svg">
  <path d="M15.938 22.5H4.967c-1.382 0-2.574-.367-3.446-1.061C.526 20.646 0 19.469 0 18.038c0-1.38.567-2.543 1.64-3.363.683-.522 1.567-.885 2.494-1.032.284-1.73 1.028-3.212 2.17-4.312a6.554 6.554 0 0 1 4.571-1.83c1.515-.001 2.913.498 4.043 1.442a6.675 6.675 0 0 1 1.913 2.675c1.274.21 2.419.735 3.261 1.503 1.085.988 1.658 2.34 1.658 3.904 0 1.54-.616 2.947-1.734 3.962-1.073.976-2.522 1.513-4.078 1.513Z"></path>
  <path d="M17.885 10.31c1.242.324 2.344.905 3.218 1.703.122.11.238.226.35.344 1.191-.863 2.132-2.106 2.547-3.346-.761.331-1.655.462-2.538.462-3.442 0-5.434-1.993-5.434-5.435 0-.883.13-1.777.461-2.538-1.894.634-3.797 2.493-4.337 4.6a7.63 7.63 0 0 1 3.728 1.693 8.11 8.11 0 0 1 2.005 2.516Z"></path>
</svg>