<svg fill="currentColor" viewBox="0 0 24 24" xmlns="http://www.w3.org/2000/svg">
  <path d="m9.406 6.256-3.15 3.15 3.663 3.663 3.15-3.15-3.663-3.663Z"></path>
  <path d="m14.128 10.977-3.15 3.15 8.334 8.371L22.5 19.31l-8.372-8.333Z"></path>
  <path d="M5.25 8.25H1.5v1.5h3.75v-1.5Z"></path>
  <path d="m4.23 3.166-1.06 1.06 2.652 2.652 1.06-1.06-2.651-2.652Z"></path>
  <path d="M9.75 1.5h-1.5v3.75h1.5V1.5Z"></path>
  <path d="M13.777 3.169 11.125 5.82l1.06 1.061 2.652-2.652-1.06-1.06Z"></path>
  <path d="M5.822 11.122 3.17 13.773l1.06 1.061 2.652-2.652-1.06-1.06Z"></path>
</svg>