<svg fill="currentColor" viewBox="0 0 24 24" xmlns="http://www.w3.org/2000/svg">
  <path d="M12 8.672a7.868 7.868 0 0 1 6.323-.857c-.4-3.135-3.084-5.565-6.324-5.565a6.385 6.385 0 0 0-6.323 5.563 7.868 7.868 0 0 1 6.323.859Z"></path>
  <path d="M15.75 15.554a7.852 7.852 0 0 1-2.455 5.535 6.33 6.33 0 0 0 2.83.665 6.382 6.382 0 0 0 6.375-6.375 6.376 6.376 0 0 0-2.769-5.254 7.9 7.9 0 0 1-3.981 5.429Z"></path>
  <path d="M13.293 9.665a7.869 7.869 0 0 1 2.314 4.214 6.38 6.38 0 0 0 2.722-4.486 6.369 6.369 0 0 0-5.036.272Z"></path>
  <path d="M8.252 15.554a7.9 7.9 0 0 1-3.984-5.429A6.375 6.375 0 0 0 1.5 15.379a6.382 6.382 0 0 0 6.375 6.375 6.328 6.328 0 0 0 2.832-.665 7.851 7.851 0 0 1-2.455-5.535Z"></path>
  <path d="M8.393 13.879a7.869 7.869 0 0 1 2.314-4.214 6.37 6.37 0 0 0-5.035-.272 6.382 6.382 0 0 0 2.721 4.486Z"></path>
  <path d="M14.198 16.188a7.885 7.885 0 0 1-4.397 0 6.37 6.37 0 0 0 2.198 4.043 6.37 6.37 0 0 0 2.199-4.044Z"></path>
  <path d="M9.797 14.604a6.375 6.375 0 0 0 4.406 0A6.371 6.371 0 0 0 12 10.516a6.372 6.372 0 0 0-2.203 4.088Z"></path>
</svg>