<svg fill="currentColor" viewBox="0 0 24 24" xmlns="http://www.w3.org/2000/svg">
  <path d="M19.5 16.5c-.591-.04-.985-.188-1.313-.563-.657-.75-.657-1.687.257-2.46l1.539-1.365c2.356-2.082 2.356-5.495 0-7.577-1.737-1.528-4.068-2.285-6.49-2.285-2.829 0-5.784 1.031-8.063 3.052-4.24 3.75-4.24 9.887 0 13.635 2.11 1.863 4.952 2.793 7.765 2.812h.086c2.812 0 5.581-.914 7.556-2.661.912-.807.912-1.041.004-2.421-.217-.355-.639-.12-1.342-.167ZM5.25 9.75a1.5 1.5 0 1 1 3 0 1.5 1.5 0 0 1-3 0Zm1.874 6.328a1.5 1.5 0 1 1 0-2.999 1.5 1.5 0 0 1 0 3ZM9 6.75a1.5 1.5 0 1 1 3 0 1.5 1.5 0 0 1-3 0Zm3 12.703a2.25 2.25 0 1 1 0-4.499 2.25 2.25 0 0 1 0 4.5ZM15.374 8.25a1.5 1.5 0 1 1 0-3 1.5 1.5 0 0 1 0 3Z"></path>
</svg>