<svg fill="currentColor" viewBox="0 0 24 24" xmlns="http://www.w3.org/2000/svg">
  <path d="m23.303 5.22-3.8 3.79-2.278-2.27 3.801-3.788c-2.12-1.03-5.093-1.035-6.853.72-1.655 1.65-1.862 4.247-1.056 6.29l-8.45 8.383a.563.563 0 0 0 0 .797l2.45 2.442a.563.563 0 0 0 .797 0l8.438-8.46c2.023.76 4.594.545 6.222-1.079 1.758-1.755 1.754-4.703.73-6.825Z"></path>
  <path d="m17.13 14.469-3.366 3.375 3.54 3.746a.51.51 0 0 0 .734.01l2.812-2.834a.518.518 0 0 0-.011-.736l-3.708-3.561Z"></path>
  <path d="M5.578 9.937c0-.228-.188-.437-.35-.599l-.011-.011-.073-.07a.05.05 0 0 1-.012-.037.758.758 0 0 1 .446-.093c.06.006.278.042.582.23.158.098 1.53 1.417 2.059 1.908a.516.516 0 0 0 .007.72l.348.367 3.078-3.054-.387-.368a.51.51 0 0 0-.718-.003C9.47 7.77 9.187 7.266 9.094 6.937c-.207-.725.194-1.312.656-1.687.274-.217.838-.379 1.36-.422a2.47 2.47 0 0 1 .544.028c.163.024.295.054.346.066.177.048.35.11.516.187l.563-.89a4.142 4.142 0 0 0-.629-.83 5.391 5.391 0 0 0-.243-.239c-.365-.335-1.312-.9-2.559-.9-.72 0-1.433.14-2.098.413-1.755.72-2.901 1.7-3.427 2.22l-.004.003a10.29 10.29 0 0 0-.979 1.14c-.25.353-.224.742-.205 1 0 .015 0 .032.003.047a.863.863 0 0 0-1.11.086L.093 8.888a.318.318 0 0 0 0 .45l2.953 2.943a.315.315 0 0 0 .446 0l1.737-1.735c.161-.16.349-.381.349-.609Z"></path>
</svg>