<svg fill="currentColor" viewBox="0 0 24 24" xmlns="http://www.w3.org/2000/svg">
  <path d="M22.5 6h-2.25l-9.325 3.302-2.771-1.48a3.383 3.383 0 1 0-1.205 1.943l2.447 1.487-.395 1.732-2.046 1.254a3.363 3.363 0 1 0 1.162 1.781L22.501 7.5V6ZM4.852 9a1.875 1.875 0 1 1 0-3.75 1.875 1.875 0 0 1 0 3.75Zm0 9.75a1.875 1.875 0 1 1 0-3.75 1.875 1.875 0 0 1 0 3.75ZM11.976 12a.75.75 0 1 1 0-1.499.75.75 0 0 1 0 1.498Z"></path>
  <path d="m16.115 12.18-3.925 2.258 8.06 2.81h2.25v-1.5l-6.385-3.568Z"></path>
</svg>