<svg fill="currentColor" viewBox="0 0 24 24" xmlns="http://www.w3.org/2000/svg">
  <path d="m2.25 17.2 9 5.3v-9.188l-9-5.343v9.23ZM9 13.5c.414 0 .75.504.75 1.125S9.414 15.75 9 15.75s-.75-.504-.75-1.125S8.586 13.5 9 13.5ZM4.5 15c.414 0 .75.504.75 1.125s-.336 1.125-.75 1.125-.75-.504-.75-1.125S4.086 15 4.5 15Z"></path>
  <path d="M12.75 13.313V22.5l9-5.3V7.968l-9 5.343ZM15 19.875c-.414 0-.75-.504-.75-1.125s.336-1.125.75-1.125.75.504.75 1.125-.336 1.125-.75 1.125Zm0-4.125c-.414 0-.75-.504-.75-1.125s.336-1.125.75-1.125.75.504.75 1.125-.336 1.125-.75 1.125Zm4.5 1.5c-.414 0-.75-.504-.75-1.125S19.086 15 19.5 15s.75.504.75 1.125-.336 1.125-.75 1.125Zm0-4.125c-.414 0-.75-.504-.75-1.125s.336-1.125.75-1.125.75.504.75 1.125-.336 1.125-.75 1.125Z"></path>
  <path d="M12 1.5 3 6.75 12 12l9-5.25-9-5.25Zm0 5.625c-.621 0-1.125-.336-1.125-.75s.504-.75 1.125-.75 1.125.336 1.125.75-.504.75-1.125.75Z"></path>
</svg>