<svg fill="currentColor" viewBox="0 0 24 24" xmlns="http://www.w3.org/2000/svg">
  <path d="m14.435 11.624-4.31-4.382v4.1a.281.281 0 0 0 .281.282h4.029Z"></path>
  <path d="M8.625 12.563V6.75H2.812a.563.563 0 0 0-.562.563v15.375a.562.562 0 0 0 .563.562h11.624a.562.562 0 0 0 .563-.563v-9.562H9.187a.563.563 0 0 1-.562-.563Z"></path>
  <path d="M17.156 5.624h4.029l-4.31-4.382v4.1a.281.281 0 0 0 .281.282Z"></path>
  <path d="M15.938 7.125a.562.562 0 0 1-.563-.563V.75H8.062a.563.563 0 0 0-.562.563V5.25h1.974a1.913 1.913 0 0 1 1.354.57l5.117 5.202c.357.362.556.851.555 1.36v6.368h4.688a.562.562 0 0 0 .562-.563V7.126h-5.813Z"></path>
</svg>