<svg fill="currentColor" viewBox="0 0 24 24" xmlns="http://www.w3.org/2000/svg">
  <path d="M12.938 8.999h6.858a.094.094 0 0 0 .092-.112.094.094 0 0 0-.026-.048L12.91 1.887a.093.093 0 0 0-.16.066v6.858a.188.188 0 0 0 .188.188Z"></path>
  <path d="M12 12.75c-.413 0-.75.294-.75.656v.844h1.5v-.844c0-.362-.337-.656-.75-.656Z"></path>
  <path d="M11.625 10.5a.375.375 0 0 1-.375-.375V1.5H4.312a.563.563 0 0 0-.562.563v19.875a.562.562 0 0 0 .563.562h15.375a.562.562 0 0 0 .562-.563V10.5h-8.625Zm4.125 8.246a.755.755 0 0 1-.754.754H9.004a.755.755 0 0 1-.754-.754V15c0-.469.328-.75.75-.75h.75v-.844c0-1.189 1.01-2.156 2.25-2.156s2.25.967 2.25 2.156v.844H15a.741.741 0 0 1 .75.75v3.746Z"></path>
</svg>