<svg fill="currentColor" viewBox="0 0 24 24" xmlns="http://www.w3.org/2000/svg">
  <path d="M5.25 3.75h13.5V2.625A1.125 1.125 0 0 0 17.625 1.5H3.094A1.594 1.594 0 0 0 1.5 3.094v14.531a1.125 1.125 0 0 0 1.125 1.125H3.75V5.25a1.5 1.5 0 0 1 1.5-1.5Z"></path>
  <path d="M21.375 5.25h-15A1.125 1.125 0 0 0 5.25 6.375v15A1.125 1.125 0 0 0 6.375 22.5h15a1.125 1.125 0 0 0 1.125-1.125v-15a1.125 1.125 0 0 0-1.125-1.125Zm-3 9.375h-3.75v3.75h-1.5v-3.75h-3.75v-1.5h3.75v-3.75h1.5v3.75h3.75v1.5Z"></path>
</svg>