<svg fill="currentColor" viewBox="0 0 24 24" xmlns="http://www.w3.org/2000/svg">
  <path d="M17.835 3.192A8.179 8.179 0 0 0 12 .75C7.453.75 3.75 4.453 3.75 9v9.683c0 1.2.47 2.354 1.313 3.21A4.43 4.43 0 0 0 8.25 23.25c.934 0 1.925-.36 2.944-1.072a8.515 8.515 0 0 0 1.213-1.025C15.345 18.29 20.25 13.503 20.25 9a8.19 8.19 0 0 0-2.415-5.808Zm-.585 6.183h-1.5v-.75c0-1.86-1.682-3.375-3.75-3.375S8.25 6.764 8.25 8.625v1.425c1.29-.367 2.807-.31 3.012-.3a2.25 2.25 0 0 1 1.766 3.614c-.776.89-1.688 2.132-1.803 2.578l-.19.725-1.45-.381.19-.725c.258-.982 1.73-2.729 2.093-3.148a.75.75 0 0 0-.626-1.163H11.2c-.5-.027-2-.012-2.912.375l-.038.016V15h-1.5V8.625C6.75 5.937 9.105 3.75 12 3.75s5.25 2.187 5.25 4.875v.75Z"></path>
</svg>