<svg fill="currentColor" viewBox="0 0 24 24" xmlns="http://www.w3.org/2000/svg">
  <path d="m12.516 22.217-.037-.006a.04.04 0 0 0 .037.006Z"></path>
  <path d="M21.042 8.802a.258.258 0 0 0-.5-.03.258.258 0 0 1-.245.181h-.725a.257.257 0 0 1-.133-.037l-1.05-.629a.257.257 0 0 0-.133-.037h-1.678a.257.257 0 0 0-.143.044l-2.07 1.38a.26.26 0 0 0-.115.217v1.956a.259.259 0 0 0 .137.229l2.713 1.448a.26.26 0 0 1 .137.225l.013 1.101a.26.26 0 0 0 .134.223l1.09.603a.26.26 0 0 1 .134.226v2.278a.259.259 0 0 0 .43.195c.439-.388 1.07-.953 1.153-1.082a9.746 9.746 0 0 0 1.028-2.113c.595-1.72.125-4.814-.177-6.378Z"></path>
  <path d="m13.425 14.194-2.875-2.156a.188.188 0 0 0-.112-.037H9.074a.176.176 0 0 1-.126-.052l-.643-.643a.187.187 0 0 0-.133-.055H5.68a.178.178 0 0 1-.126-.303l.395-.395a.179.179 0 0 1 .126-.052H7.59a.375.375 0 0 0 .36-.274l.324-1.148a.187.187 0 0 1 .094-.116L9.656 8.3a.178.178 0 0 0 .096-.158v-.585a.18.18 0 0 1 .032-.102l.684-.986a.172.172 0 0 1 .084-.064l.958-.36a.178.178 0 0 0 .115-.166v-.535a.178.178 0 0 0-.08-.148l-.96-.638a.18.18 0 0 0-.179-.01L9.1 5.2a.177.177 0 0 1-.187-.02l-.62-.489a.178.178 0 0 1 .005-.281l.502-.37a.177.177 0 0 0-.004-.289l-.784-.547a.177.177 0 0 0-.188-.01c-.283.155-1.115.614-1.41.821a9.82 9.82 0 0 0-3.196 3.75c-.085.176-.19.356-.2.55-.011.193-.163.625-.226.8a.177.177 0 0 0 .011.145l1.673 3.075a.175.175 0 0 0 .065.067l1.76 1.057a.177.177 0 0 1 .085.127l.352 2.557a.18.18 0 0 0 .076.122l1.373.944c.04.028.068.07.077.117l.729 3.46c.004.02.012.039.023.056.068.11.341.516.67.576-.03.008-.057.028-.088.037.08.013.157.032.234.054.094.025.188.047.282.067.146.029.16.052.231-.079.094-.174.201-.234.281-.256a.18.18 0 0 0 .136-.136l.472-2.188a.188.188 0 0 1 .075-.113l2.11-1.496a.186.186 0 0 0 .079-.153v-2.81a.189.189 0 0 0-.073-.15Z"></path>
  <path d="M12.281 2.25s-.17.01-.206.01a9.724 9.724 0 0 0-3.44.74c.114.079-.082.15-.082.15l.306.6h1.64l1.126.563.984-.563-.328-1.5Z"></path>
  <path d="m16.605 5.63.755-.657a.187.187 0 0 0-.044-.312l-.881-.409a.187.187 0 0 0-.249.089l-.363.76a.187.187 0 0 0 .07.24l.49.306a.188.188 0 0 0 .222-.018Z"></path>
  <path d="m20.14 6.598-.274-.422a.311.311 0 0 1-.011-.02c-.05-.101-.457-.924-.797-1.243-.256-.242-.328-.172-.348-.119a.177.177 0 0 1-.056.075l-1.352 1.093a.187.187 0 0 1-.118.042h-.7a.188.188 0 0 0-.132.054l-.563.563a.186.186 0 0 0-.04.204c.01.023.023.044.04.061l.563.563a.188.188 0 0 0 .133.055h3.523a.187.187 0 0 0 .188-.196l-.026-.616a.187.187 0 0 0-.03-.094Z"></path>
  <path d="M12 3.375a8.625 8.625 0 1 1-6.098 2.527A8.567 8.567 0 0 1 12 3.375ZM12 1.5C6.202 1.5 1.5 6.202 1.5 12S6.202 22.5 12 22.5 22.5 17.798 22.5 12 17.798 1.5 12 1.5Z"></path>
</svg>