<svg fill="currentColor" viewBox="0 0 24 24" xmlns="http://www.w3.org/2000/svg">
  <path d="M19.612 17.862c-.379 1.016-.926 1.88-1.627 2.566-.674.66-1.505 1.17-2.47 1.516-1.027.369-2.21.556-3.515.556-1.306 0-2.488-.188-3.516-.556-.964-.346-1.794-.856-2.469-1.516-.703-.687-1.248-1.55-1.627-2.566-.423-1.136-.638-2.462-.638-3.943 0-1.42.313-2.933.93-4.5a17.39 17.39 0 0 1 2.398-4.196C9.178 2.51 11.297 1.5 12 1.5c.703 0 2.938 1.05 4.922 3.723.86 1.158 1.822 2.734 2.398 4.197.618 1.566.931 3.08.931 4.5-.001 1.48-.216 2.806-.639 3.942Z"></path>
</svg>