<svg fill="currentColor" viewBox="0 0 24 24" xmlns="http://www.w3.org/2000/svg">
  <path d="M16.178 22.5H12v-2.142a1.465 1.465 0 0 0-.45-1.062c-.359-.354-.882-.553-1.433-.546a2.08 2.08 0 0 0-1.333.5 1.507 1.507 0 0 0-.534 1.145V22.5H4.107A2.61 2.61 0 0 1 1.5 19.893V15.75h2.143c.43 0 .847-.183 1.176-.515a1.972 1.972 0 0 0 .572-1.403C5.377 12.84 4.559 12 3.605 12H1.5V7.814a2.52 2.52 0 0 1 .775-1.828 2.62 2.62 0 0 1 1.832-.735h2.965v-.678A3.072 3.072 0 0 1 10.197 1.5c1.664.03 3.017 1.425 3.017 3.11v.64h2.964a2.544 2.544 0 0 1 2.572 2.572v2.964h.64c1.715 0 3.11 1.36 3.11 3.03 0 1.716-1.378 3.113-3.071 3.113h-.679v2.964c0 1.438-1.154 2.607-2.572 2.607Z"></path>
</svg>