<svg fill="currentColor" viewBox="0 0 24 24" xmlns="http://www.w3.org/2000/svg">
  <path d="M18 16.5H8.642L6.72 18.14 4.798 16.5H.75v1.125c0 1.434.99 2.602 2.215 2.625.114.709.39 1.35.805 1.85.613.741 1.505 1.15 2.511 1.15h6.188c1.006 0 1.898-.409 2.511-1.15.415-.502.69-1.142.805-1.85.65-.013 1.235-.348 1.64-.874A2.87 2.87 0 0 0 18 17.625V16.5Z"></path>
  <path d="m4.922 15 1.797 1.321L8.53 15H18v-.375a1.878 1.878 0 0 0-1.5-1.838c-.038-1.391-.61-2.556-1.665-3.375-.976-.76-2.28-1.162-3.773-1.162H7.688c-3.198 0-5.364 1.817-5.438 4.537a1.878 1.878 0 0 0-1.5 1.838V15h4.172Z"></path>
  <path d="M21.707 4.5H18.21l.419-1.672 2.09-.719L20.25.75l-2.906.938-.68 2.812H9.75V6h.879l.087.75h.347c1.828 0 3.452.51 4.693 1.477a5.714 5.714 0 0 1 2.138 3.525 3.376 3.376 0 0 1 1.307 4.261 4.5 4.5 0 0 1 .299 1.612 4.346 4.346 0 0 1-1.003 2.81c-.4.477-.913.847-1.492 1.076a5.117 5.117 0 0 1-1.039 1.741H19.5c.75 0 1.078-.375 1.172-1.078l1.706-16.172h.872V4.5h-1.543Z"></path>
</svg>