<svg fill="currentColor" viewBox="0 0 24 24" xmlns="http://www.w3.org/2000/svg">
  <path d="m2.662 9.406.58.352.344-.637c.776-1.3 3.153-4.336 8.414-4.336 5.39 0 7.687 3.296 8.442 4.381l.383.595 1.2-.757-.4-.626c-.416-.603-1.29-1.853-2.849-2.958C16.882 4.074 14.601 3.39 12 3.39c-6.004 0-8.751 3.521-9.656 5.028l-.346.586.533.321a.66.66 0 0 0 .13.081Z"></path>
  <path d="M17.775 8.074C16.11 6.718 14.114 6 12 6c-4.57 0-7.608 3.094-8.593 6.163-.903 2.834.194 6.94.24 7.116l.206.648 1.403-.302-.223-.703c-.01-.035-1.036-3.887-.253-6.338.422-1.316 1.3-2.597 2.407-3.506C8.523 7.984 10.189 7.403 12 7.403c4.246 0 6.653 3.31 7.334 5.068.528 1.356.406 2.897-.294 3.843-.26.347-.717.754-1.412.718-1.585-.08-1.86-.863-2.24-2.355-.183-.718-.37-1.461-.838-2.063-.57-.738-1.397-1.095-2.544-1.095-1.235 0-2.17.407-2.784 1.206-1.34 1.748-.469 4.731-.432 4.857l.01.04c.067.18 1.692 4.53 6.044 5.61l.693.15.379-1.346-.716-.16c-3.479-.864-4.932-4.425-5.043-4.706a7.149 7.149 0 0 1-.24-1.397c-.05-.677-.014-1.612.443-2.21.335-.436.873-.647 1.64-.647 1.397 0 1.63.683 1.996 2.1.356 1.38.844 3.274 3.555 3.41 1.041.05 1.981-.412 2.641-1.296.99-1.326 1.179-3.355.478-5.163-.548-1.423-1.604-2.838-2.894-3.893Z"></path>
  <path d="M7.228 16.088c-.163-1.326.066-3.328 1.244-4.63.818-.905 2.006-1.36 3.525-1.36 1.757 0 3.088.784 3.961 2.326.43.773.714 1.62.838 2.496l.067.688 1.407-.103a5.274 5.274 0 0 0-.047-.73c-.005-.06-.168-1.523-.985-2.99-1.127-2.02-2.935-3.09-5.237-3.09-1.946 0-3.495.618-4.597 1.834-1.493 1.647-1.798 4.043-1.59 5.735v.015c.374 2.556 1.358 4.6 3.1 6.429l.544.526.982-1.022-.485-.459c-1.534-1.607-2.402-3.405-2.727-5.665Z"></path>
  <path d="M6.21 3.406C6.729 3.09 8.566 2.15 12 2.15c4.103 0 5.927 1.346 5.947 1.356l.652.415.76-1.181-.62-.401a2.186 2.186 0 0 0-.074-.053C18.07 1.9 15.963.75 12 .75c-4.111 0-6.223 1.241-6.722 1.58l-.637.413.759 1.182.81-.52Z"></path>
  <path d="M18.31 19.464c-1.565.176-2.834-.125-3.784-.884-1.605-1.285-1.813-3.52-1.819-3.562l-.057-.698-1.431.105.061.703c.01.115.244 2.848 2.326 4.525 1.037.839 2.332 1.26 3.855 1.26.338 0 .675-.02 1.01-.06l.778-.098-.286-1.392-.654.1Z"></path>
</svg>