<svg fill="currentColor" viewBox="0 0 24 24" xmlns="http://www.w3.org/2000/svg">
  <path d="M15.724 12c0-1.778.47-3.525 1.363-5.063l.358-.621a13.156 13.156 0 0 0-2.28-.335c-1.029-.792-2.562-1.732-4.329-2.031l-1.086-.2.627 2.9C8.423 7.312 6.7 8.659 5.56 9.585c-.22-.185-.452-.365-.693-.541C3.006 7.684.995 7.553.911 7.548L0 7.5l.125.905c.014.094.318 2.097 1.484 3.587C.443 13.482.14 15.484.125 15.579L0 16.5l.91-.064c.085-.004 2.096-.135 3.957-1.495a13.2 13.2 0 0 0 .683-.533c1.142.93 2.865 2.278 4.821 2.94L9.75 20.25l1.086-.198c1.757-.297 3.285-1.237 4.313-2.03a13.282 13.282 0 0 0 2.312-.34l-.371-.617A10.074 10.074 0 0 1 15.724 12Z"></path>
  <path d="M23.419 10.396a7.85 7.85 0 0 0-1.603-1.888 9.837 9.837 0 0 0-2.906-1.735l-.524.916a8.589 8.589 0 0 0-.004 8.619l.55.917a9.81 9.81 0 0 0 2.88-1.71C23.3 14.227 24 12.61 24 12c0-.577-.375-1.253-.581-1.605ZM19.5 12a.75.75 0 1 1 0-1.5.75.75 0 0 1 0 1.5Z"></path>
</svg>