<svg fill="currentColor" viewBox="0 0 24 24" xmlns="http://www.w3.org/2000/svg">
  <path d="M22.5 12.75h-1.75c-.25.52-.535 1.02-.855 1.5H22.5v-1.5Z"></path>
  <path d="M1.5 11.25v1.5h1.75a10.55 10.55 0 0 1-.58-1.5H1.5Z"></path>
  <path d="m14.25 12.174-2.425 4.85-2.25-7.5-1.612 3.223H3.25c.469.98 1.102 1.94 1.905 2.89 1.88 2.226 4.417 3.74 6.421 5.078l.422.282.422-.282c2.005-1.339 4.543-2.852 6.422-5.077.377-.443.728-.908 1.052-1.391h-4.608l-1.036-2.073Z"></path>
  <path d="m9.926 5.473 2.25 7.5 2.075-4.15 1.963 3.927h4.536a9.99 9.99 0 0 0 1-4.47C21.722 5.37 19.386 3 16.545 3 14.289 3 12.789 4.313 12 5.26 11.212 4.313 9.713 3 7.458 3 4.616 3 2.28 5.37 2.25 8.28a9.901 9.901 0 0 0 .419 2.97h4.367l2.889-5.777Z"></path>
</svg>