<svg fill="currentColor" viewBox="0 0 24 24" xmlns="http://www.w3.org/2000/svg">
  <path d="M18.48 9.26a14.095 14.095 0 0 0-2.502-4.218C14.118 2.89 11.25 1.5 9 1.5c.89 3.281-.673 5.49-2.1 7.677-1.18 1.809-2.4 3.68-2.4 5.823 0 4.135 3.365 7.5 7.5 7.5s7.5-3.365 7.5-7.5c0-2.03-.343-3.96-1.02-5.74Zm-4.965 10.366c-.484.516-1.09.624-1.515.624-.424 0-1.031-.108-1.515-.624-.485-.516-.735-1.334-.735-2.376 0-1.178.413-2.076.813-2.943.304-.66.687-1.276.708-2.085.53.275 1.11.792 1.62 1.466.85 1.125 1.358 2.457 1.358 3.562.001 1.043-.253 1.864-.734 2.376Z"></path>
</svg>