<svg fill="currentColor" viewBox="0 0 24 24" xmlns="http://www.w3.org/2000/svg">
  <path d="M12 14.016a2.016 2.016 0 1 0 0-4.032 2.016 2.016 0 0 0 0 4.032Z"></path>
  <path d="M22.31 14.244a3.164 3.164 0 0 0-2.233-5.419c-.135 0-.29.007-.465.02.129-.11.245-.216.343-.314a3.18 3.18 0 0 0-2.236-5.424h-.012a3.154 3.154 0 0 0-2.242.938 6.18 6.18 0 0 0-.315.343c.014-.175.021-.331.021-.465a3.173 3.173 0 0 0-6.346 0c0 .135.007.29.02.465a6.585 6.585 0 0 0-.314-.343 3.153 3.153 0 0 0-2.242-.938h-.008A3.183 3.183 0 0 0 4.045 8.53c.098.098.215.204.344.315a6.124 6.124 0 0 0-.466-.02 3.173 3.173 0 1 0 0 6.346c.134 0 .29-.007.465-.02a6.18 6.18 0 0 0-.343.314 3.166 3.166 0 0 0 2.241 5.41h.012a3.157 3.157 0 0 0 2.233-.92c.098-.1.204-.215.315-.344-.013.175-.02.33-.02.465a3.173 3.173 0 1 0 6.346 0c0-.134-.008-.29-.021-.466.11.13.216.246.315.344a3.156 3.156 0 0 0 2.235.923h.011a3.164 3.164 0 0 0 2.243-5.41 6.19 6.19 0 0 0-.343-.314c.175.014.331.02.465.02a3.152 3.152 0 0 0 2.232-.928ZM12 15.983a3.984 3.984 0 1 1 0-7.97 3.984 3.984 0 0 1 0 7.97Z"></path>
</svg>