<svg fill="currentColor" viewBox="0 0 24 24" xmlns="http://www.w3.org/2000/svg">
  <path d="M6.119 16.796c-.602.088-1.592.252-2.25-.495-.659-.748-1.229-2.552-1.479-4.164-.37-2.377-.003-4.38 1.031-5.64.61-.742 1.41-1.172 2.313-1.24.774-.06 1.93.243 3.047 2.024.7 1.116 1.231 2.6 1.46 4.068.275 1.772.544 3.664-.396 4.343-.53.383-.91.515-1.81.73a21.41 21.41 0 0 1-1.916.374Z"></path>
  <path d="m5.05 18.32 5.103-1.052c.432-.09.778.148.938.859.526 2.332-.228 5.123-2.589 5.123-2.235 0-3.725-2.548-3.968-3.918-.111-.62.047-.915.515-1.011Z"></path>
  <path d="M15.965 11.921c-.9-.213-1.28-.346-1.81-.73-.94-.678-.671-2.57-.396-4.342.229-1.469.76-2.953 1.46-4.068C16.335 1.001 17.49.697 18.266.757c.903.069 1.703.498 2.312 1.24 1.035 1.26 1.402 3.263 1.031 5.64-.25 1.612-.818 3.41-1.48 4.163-.663.753-1.647.583-2.25.495a21.218 21.218 0 0 1-1.914-.373Z"></path>
  <path d="m18.95 13.82-5.103-1.052c-.432-.09-.777.148-.938.859-.525 2.332.228 5.123 2.59 5.123 2.234 0 3.724-2.548 3.967-3.918.111-.62-.047-.915-.515-1.011Z"></path>
</svg>