<svg fill="currentColor" viewBox="0 0 24 24" xmlns="http://www.w3.org/2000/svg">
  <path d="M12 2.25c-5.376 0-9.75 4.374-9.75 9.75s4.374 9.75 9.75 9.75 9.75-4.374 9.75-9.75S17.376 2.25 12 2.25Zm6.593 13.879H16.4l-.792-1.36.704-2.833 1.397-.592 2 1.72a7.728 7.728 0 0 1-1.116 3.065ZM6.29 11.344l1.396.594.704 2.833-.792 1.36H5.407a7.729 7.729 0 0 1-1.115-3.064l2-1.723Zm11.675-4.335-.863 2.453-1.459.618-2.66-2.23V6.21l2.056-1.37a7.822 7.822 0 0 1 2.926 2.17ZM8.96 4.838l2.056 1.37v1.64l-2.66 2.231-1.46-.617-.862-2.453A7.822 7.822 0 0 1 8.96 4.838ZM10.2 19.57l-.943-2.374.75-1.29h3.984l.753 1.29-.937 2.372a7.792 7.792 0 0 1-3.61 0l.002.002Z"></path>
</svg>