<svg fill="currentColor" viewBox="0 0 24 24" xmlns="http://www.w3.org/2000/svg">
  <path d="m22.41 16.729-1.832-9.65C20.163 5.186 19.5 3.75 16.453 3.75H6.797c-3.094 0-3.71 1.437-4.125 3.328l-1.828 9.65c-.328 1.6.207 2.872 1.564 3.367 1.357.495 2.42-.267 3.179-1.753l.722-1.43a.75.75 0 0 1 .67-.412h9.294a.75.75 0 0 1 .67.412l.722 1.43c.757 1.486 1.823 2.25 3.179 1.753 1.356-.497 1.89-1.767 1.566-3.366ZM10.5 11.25H8.25v2.25h-1.5v-2.25H4.5v-1.5h2.25V7.5h1.5v2.25h2.25v1.5Zm3.188.188a.937.937 0 1 1 0-1.875.937.937 0 0 1 0 1.874ZM15.75 13.5a.937.937 0 1 1 0-1.875.937.937 0 0 1 0 1.875Zm0-4.125a.937.937 0 1 1 0-1.874.937.937 0 0 1 0 1.874Zm2.063 2.063a.937.937 0 1 1 0-1.875.937.937 0 0 1 0 1.874Z"></path>
</svg>