<svg fill="currentColor" viewBox="0 0 24 24" xmlns="http://www.w3.org/2000/svg">
  <path d="M9.797 18H8.062a1.313 1.313 0 0 1-1.312-1.313V7.125a3 3 0 1 0-3-.055v9.617A4.317 4.317 0 0 0 8.062 21h1.735v2.588l4.002-4.088-4.002-4.088V18Zm-4.5-15a1.5 1.5 0 1 1 0 3 1.5 1.5 0 0 1 0-3Z"></path>
  <path d="M20.25 16.907V7.316a4.317 4.317 0 0 0-4.313-4.313h-1.64V.47l-4.12 4.034 4.12 4.035V6.003h1.64a1.313 1.313 0 0 1 1.312 1.313v9.59a3 3 0 1 0 3 0Zm-1.5 4.096a1.5 1.5 0 1 1 0-3 1.5 1.5 0 0 1 0 3Z"></path>
</svg>