<svg fill="currentColor" viewBox="0 0 24 24" xmlns="http://www.w3.org/2000/svg">
  <path d="m13.794 12.044-2.551-2.55a.561.561 0 0 0-.797 0L.583 18.799a.563.563 0 0 0-.013.806l3.096 3.107a.563.563 0 0 0 .807-.01l9.32-9.862a.562.562 0 0 0 0-.796Z"></path>
  <path d="M23.406 9.344 21.35 7.3a1.006 1.006 0 0 0-.716-.294c-.216 0-.425.068-.6.194 0-.02.003-.04.004-.057.021-.304.054-.765-.244-1.182a12.09 12.09 0 0 0-1.166-1.35c-.624-.616-1.983-1.774-4.065-2.623a6.542 6.542 0 0 0-2.489-.489c-1.48 0-2.604.667-3.035 1.063A2.503 2.503 0 0 0 8.25 4.04L9 4.5s.378-.094.65-.159a2.94 2.94 0 0 1 .864-.054c.619.051 1.35.358 1.674.614.548.44.812 1.035.855 1.926.01.198-.446 1-1.132 1.867a.375.375 0 0 0 .029.498l2.126 2.127a.375.375 0 0 0 .516.012c.566-.516 1.43-1.313 1.625-1.434.36-.222.618-.265.69-.272a.899.899 0 0 1 .528.111.058.058 0 0 1-.014.045l-.085.081-.015.013a1.008 1.008 0 0 0 .003 1.432l2.06 2.047a.375.375 0 0 0 .529 0l3.5-3.478a.376.376 0 0 0 .003-.532Z"></path>
</svg>