<svg fill="currentColor" viewBox="0 0 24 24" xmlns="http://www.w3.org/2000/svg">
  <path d="M3.863 9.8c.706-.31 1.518.062 1.805.827l1.644 3.998h.529V3.75c0-.825.623-1.5 1.385-1.5s1.385.675 1.385 1.5v7.113l.693.012V1.5c0-.825.623-1.5 1.385-1.5.764 0 1.385.675 1.385 1.5v9.363l.692.012V3c0-.825.623-1.5 1.385-1.5s1.385.675 1.385 1.5v8.613l.693.012V6c0-.825.623-1.5 1.385-1.5S21 5.175 21 6v10.125C21 19.678 19.26 24 13.078 24c-1.912 0-3.723-.328-4.718-.984a5.69 5.69 0 0 1-1.581-1.562 6.467 6.467 0 0 1-.75-1.49l-2.928-8.21c-.286-.764.056-1.643.762-1.953Z"></path>
</svg>