<svg fill="currentColor" viewBox="0 0 24 24" xmlns="http://www.w3.org/2000/svg">
  <path d="M20.137 9.8c-.706-.31-1.518.062-1.805.827l-1.645 3.998h-.528V3.75c0-.825-.623-1.5-1.385-1.5s-1.385.675-1.385 1.5v7.113l-.693.012V1.5c0-.825-.623-1.5-1.385-1.5S9.926.675 9.926 1.5v9.363l-.692.012V3c0-.825-.623-1.5-1.385-1.5S6.464 2.175 6.464 3v8.613l-.694.012V6c0-.825-.623-1.5-1.385-1.5S3 5.175 3 6v10.125C3 19.678 4.74 24 10.922 24c1.912 0 3.723-.328 4.718-.984a5.688 5.688 0 0 0 1.58-1.562c.314-.462.566-.963.75-1.49l2.928-8.21c.29-.764-.055-1.643-.761-1.953Z"></path>
</svg>