<svg fill="currentColor" viewBox="0 0 24 24" xmlns="http://www.w3.org/2000/svg">
  <path d="M16.5 7.5h-9v9h9v-9Z"></path>
  <path d="M22.5 9.281V7.22H21V4.125A1.125 1.125 0 0 0 19.875 3h-3.094V1.5H14.72V3h-1.69V1.5h-2.06V3H9.28V1.5H7.22V3H4.125A1.125 1.125 0 0 0 3 4.125v3.094H1.5V9.28H3v1.688H1.5v2.062H3v1.688H1.5v2.062H3v3.094A1.125 1.125 0 0 0 4.125 21h3.094v1.5H9.28V21h1.688v1.5h2.062V21h1.688v1.5h2.062V21h3.094A1.125 1.125 0 0 0 21 19.875v-3.094h1.5V14.72H21v-1.69h1.5v-2.06H21V9.28h1.5ZM6 6h12v12H6V6Z"></path>
</svg>