<svg fill="currentColor" viewBox="0 0 24 24" xmlns="http://www.w3.org/2000/svg">
  <path d="M19.273 4.568C17.27 2.618 14.62 1.5 12 1.5S6.73 2.618 4.727 4.568C2.647 6.594 1.5 9.188 1.5 12c0 2.813 1.258 5.554 2.13 7.137.87 1.582 2.042 3.363 3.12 3.363 1.5 0 4.5-1.5 4.5-1.5L6 11.25l-2.55 1.487a8.254 8.254 0 0 1-.048-.883c0-2.276.906-4.41 2.632-6.094C7.7 4.14 9.844 3.281 12 3.281s4.3.86 5.966 2.481c1.726 1.681 2.631 3.816 2.631 6.094 0 .295-.015.59-.047.882L18 11.25 12.75 21s3 1.5 4.5 1.5c1.078 0 2.25-1.781 3.12-3.363.872-1.582 2.13-4.325 2.13-7.137 0-2.813-1.146-5.406-3.227-7.432Z"></path>
</svg>