<svg fill="currentColor" viewBox="0 0 24 24" xmlns="http://www.w3.org/2000/svg">
  <path d="M12 2.25c-5.376 0-9.75 4.374-9.75 9.75s4.374 9.75 9.75 9.75 9.75-4.374 9.75-9.75S17.376 2.25 12 2.25Zm2.987 14.548L6.403 8.253l1.066-1.055 8.587 8.548-1.069 1.052Zm-2.977.228c-1.657-1.172-3.108-2.434-3.51-2.926-.938-1.142-1.387-2.316-1.374-3.586.002-.146.015-.292.04-.436l6.104 6.065c-.16.122-.76.537-1.259.882Zm3.491-2.925-.014.018L9.25 7.922c.158-.031.318-.047.478-.047a2.781 2.781 0 0 1 2.068.91L12 9l.204-.216a2.782 2.782 0 0 1 2.068-.909c1.42 0 2.588 1.185 2.603 2.64.013 1.27-.437 2.444-1.374 3.586Z"></path>
</svg>