<svg fill="currentColor" viewBox="0 0 24 24" xmlns="http://www.w3.org/2000/svg">
  <path d="M1.5 3.021 19.756 21.3l1.071-1.053L2.571 1.97 1.5 3.02Z"></path>
  <path d="M2.938 9.045c-.026 2.608.927 5.013 2.914 7.354 1.886 2.223 4.432 3.734 6.444 5.072l.422.282.421-.282c.867-.576 1.833-1.186 2.803-1.87L3.363 7a5.373 5.373 0 0 0-.425 2.045Z"></path>
  <path d="M19.585 16.395c1.988-2.341 2.94-4.746 2.914-7.354-.03-2.906-2.372-5.275-5.223-5.275-2.262 0-3.767 1.312-4.558 2.258-.791-.947-2.297-2.258-4.557-2.258-.497 0-.99.073-1.466.217L19.352 16.66c.08-.088.157-.177.233-.266Z"></path>
</svg>