<svg fill="currentColor" viewBox="0 0 24 24" xmlns="http://www.w3.org/2000/svg">
  <path d="M16.544 3C14.289 3 12.789 4.313 12 5.26 11.212 4.313 9.713 3 7.457 3 4.616 3 2.28 5.37 2.251 8.28c-.027 2.61.923 5.016 2.906 7.36 1.88 2.224 4.418 3.738 6.422 5.077L12 21l.422-.282c2.006-1.339 4.543-2.852 6.422-5.077 1.98-2.344 2.93-4.75 2.906-7.36C21.721 5.37 19.386 3 16.544 3ZM17.7 14.672c-1.49 1.762-3.5 3.082-5.274 4.246L12 19.2V7.604l1.152-1.385c.654-.782 1.772-1.72 3.39-1.72 2.023 0 3.686 1.702 3.707 3.797a8.372 8.372 0 0 1-.595 3.215c-.423 1.07-1.062 2.105-1.955 3.16Z"></path>
</svg>