<svg fill="currentColor" viewBox="0 0 24 24" xmlns="http://www.w3.org/2000/svg">
  <path d="M12 3c-4.969 0-9 4.031-9 9s4.031 9 9 9 9-4.031 9-9-4.031-9-9-9Zm.49 14.156h-1.417a.12.12 0 0 1-.12-.12V15.62a.12.12 0 0 1 .12-.12h1.416a.12.12 0 0 1 .12.12v1.416a.12.12 0 0 1-.12.12Zm.796-4.64c-.76.51-.864.977-.864 1.406v.515a.14.14 0 0 1-.14.141H11.25a.14.14 0 0 1-.14-.14v-.516c0-1.027.472-1.844 1.444-2.497.904-.606 1.415-.99 1.415-1.836 0-.574-.328-1.01-1.008-1.334-.16-.076-.515-.15-.953-.145-.55.007-.976.139-1.305.403-.62.499-.672 1.042-.672 1.05-.026.159-.039.32-.04.481a.14.14 0 0 1-.14.141h-.996a.14.14 0 0 1-.14-.126 2.892 2.892 0 0 1 .004-.563c.01-.114.084-1.14 1.16-2.006.56-.449 1.27-.682 2.11-.693.595-.007 1.155.094 1.534.273 1.135.54 1.758 1.435 1.758 2.52 0 1.585-1.06 2.297-1.995 2.926Z"></path>
</svg>