<svg fill="currentColor" viewBox="0 0 24 24" xmlns="http://www.w3.org/2000/svg">
  <path d="M12 1.5C6.201 1.5 1.5 6.201 1.5 12S6.201 22.5 12 22.5 22.5 17.799 22.5 12 17.799 1.5 12 1.5ZM9 12a3 3 0 1 1 6 0 3 3 0 0 1-6 0Zm11.12-2.92-4.046.248a4.915 4.915 0 0 0-1.4-1.4l.246-4.046a8.67 8.67 0 0 1 5.203 5.203l-.002-.005ZM5.902 5.901a8.599 8.599 0 0 1 3.18-2.022l.247 4.047a4.915 4.915 0 0 0-1.402 1.402L3.88 9.083A8.599 8.599 0 0 1 5.901 5.9ZM3.88 14.92l4.047-.246a4.916 4.916 0 0 0 1.402 1.4l-.245 4.047A8.671 8.671 0 0 1 3.88 14.92Zm14.22 3.179a8.598 8.598 0 0 1-3.18 2.022l-.245-4.047a4.914 4.914 0 0 0 1.4-1.4l4.047.246a8.598 8.598 0 0 1-2.022 3.179Z"></path>
</svg>