<svg fill="currentColor" viewBox="0 0 24 24" xmlns="http://www.w3.org/2000/svg">
  <path d="M16.862 5.268a4.875 4.875 0 0 0-9.724 0A3.756 3.756 0 0 0 3.75 9c0 1.845 1.236 3.34 2.924 3.678a.094.094 0 0 1 .076.094v1.82c0 1.024.806 1.885 1.828 1.91a1.875 1.875 0 0 0 1.922-1.875v-2.243a.093.093 0 0 1 .083-.093c.015-.002.03 0 .044.006.438.17.903.26 1.373.266a2.962 2.962 0 0 0 1.98-.778.094.094 0 0 1 .128 0c.646.615 1.501.96 2.392.965a3.75 3.75 0 0 0 .362-7.482Z"></path>
  <path d="M12 14.06v.562a3.38 3.38 0 0 1-2.729 3.311l2.73 5.314 4.314-9.004a4.935 4.935 0 0 1-2.305-.673 4.39 4.39 0 0 1-2.01.49Z"></path>
</svg>