<svg fill="currentColor" viewBox="0 0 24 24" xmlns="http://www.w3.org/2000/svg">
  <path d="M3.75 6.188v15.375a.937.937 0 0 0 .938.937h18.375a.938.938 0 0 0 .937-.938V6.188a.938.938 0 0 0-.938-.937H4.688a.937.937 0 0 0-.937.938Zm13.74 1.937a2.157 2.157 0 1 1-2.168 2.156 2.165 2.165 0 0 1 2.169-2.156ZM5.238 21.062v-4.475l5.755-5.166 4.396 4.376-5.297 5.265H5.237Zm17.263 0H12.14l6.778-6.75 3.582 3.06v3.69Z"></path>
  <path d="M.938 1.5A.937.937 0 0 0 0 2.438v16.125a.938.938 0 0 0 .938.937H2.25V4.687a.937.937 0 0 1 .938-.937H21V2.437a.938.938 0 0 0-.938-.937H.938Z"></path>
</svg>