<svg fill="currentColor" viewBox="0 0 24 24" xmlns="http://www.w3.org/2000/svg">
  <path d="M17.906 6.375c-1.915 0-3.443.962-4.387 1.77l-.034.029-.537.584 1.187 1.95.878-.88c.92-.776 1.945-1.203 2.893-1.203 1.913 0 3.469 1.514 3.469 3.375 0 1.86-1.556 3.375-3.469 3.375-2.906 0-4.881-3.841-4.901-3.88-.114-.231-2.62-5.12-6.911-5.12C2.94 6.375.375 8.898.375 12s2.565 5.625 5.719 5.625c1.544 0 3.064-.614 4.396-1.777l.029-.026.533-.58-1.187-1.95-.883.884c-.92.796-1.892 1.199-2.888 1.199-1.913 0-3.469-1.514-3.469-3.375 0-1.86 1.556-3.375 3.469-3.375 2.906 0 4.881 3.841 4.901 3.88.114.231 2.62 5.12 6.911 5.12 3.154 0 5.719-2.523 5.719-5.625s-2.566-5.625-5.719-5.625Z"></path>
</svg>