<svg fill="currentColor" viewBox="0 0 24 24" xmlns="http://www.w3.org/2000/svg">
  <path d="M7.875.75h-3.75a.375.375 0 0 0-.375.375v3.75c0 .207.168.375.375.375h3.75a.375.375 0 0 0 .375-.375v-3.75A.375.375 0 0 0 7.875.75Z"></path>
  <path d="M13.875.75h-3.75a.375.375 0 0 0-.375.375v3.75c0 .207.168.375.375.375h3.75a.375.375 0 0 0 .375-.375v-3.75a.375.375 0 0 0-.375-.375Z"></path>
  <path d="M19.875.75h-3.75a.375.375 0 0 0-.375.375v3.75c0 .207.168.375.375.375h3.75a.375.375 0 0 0 .375-.375v-3.75a.375.375 0 0 0-.375-.375Z"></path>
  <path d="M7.875 6.75h-3.75a.375.375 0 0 0-.375.375v3.75c0 .207.168.375.375.375h3.75a.375.375 0 0 0 .375-.375v-3.75a.375.375 0 0 0-.375-.375Z"></path>
  <path d="M13.875 6.75h-3.75a.375.375 0 0 0-.375.375v3.75c0 .207.168.375.375.375h3.75a.375.375 0 0 0 .375-.375v-3.75a.375.375 0 0 0-.375-.375Z"></path>
  <path d="M19.875 6.75h-3.75a.375.375 0 0 0-.375.375v3.75c0 .207.168.375.375.375h3.75a.375.375 0 0 0 .375-.375v-3.75a.375.375 0 0 0-.375-.375Z"></path>
  <path d="M7.875 12.75h-3.75a.375.375 0 0 0-.375.375v3.75c0 .207.168.375.375.375h3.75a.375.375 0 0 0 .375-.375v-3.75a.375.375 0 0 0-.375-.375Z"></path>
  <path d="M13.875 12.75h-3.75a.375.375 0 0 0-.375.375v3.75c0 .207.168.375.375.375h3.75a.375.375 0 0 0 .375-.375v-3.75a.375.375 0 0 0-.375-.375Z"></path>
  <path d="M13.875 18.75h-3.75a.375.375 0 0 0-.375.375v3.75c0 .207.168.375.375.375h3.75a.375.375 0 0 0 .375-.375v-3.75a.375.375 0 0 0-.375-.375Z"></path>
  <path d="M19.875 12.75h-3.75a.375.375 0 0 0-.375.375v3.75c0 .207.168.375.375.375h3.75a.375.375 0 0 0 .375-.375v-3.75a.375.375 0 0 0-.375-.375Z"></path>
</svg>