<svg fill="currentColor" viewBox="0 0 24 24" xmlns="http://www.w3.org/2000/svg">
  <path d="m17.016 8.25-5.485 13.5h2.215l1.148-2.719h4.244l1.148 2.719H22.5l-5.484-13.5Zm-1.251 8.719 1.25-3.851 1.252 3.85h-2.502Z"></path>
  <path d="M12.75 15c-.012-.009-.965-.74-2.13-2 1.856-2.514 2.907-5.372 3.336-6.719H16.5V4.22h-6.469V2.25H7.97v1.969H1.5V6.28h10.277c-.446 1.264-1.268 3.258-2.521 5.08-1.532-2.037-2.21-3.557-2.219-3.573l-.334-.663-1.781 1.031.322.65c.042.073.806 1.777 2.564 4.058l.13.167c-2.33 2.666-4.178 3.708-4.202 3.725L3 17.25l1.078 1.688.905-.538c.103-.078 1.937-1.125 4.312-3.787 1.15 1.232 2.026 1.914 2.077 1.954l.581.402L12.75 15Z"></path>
</svg>