<svg fill="currentColor" viewBox="0 0 24 24" xmlns="http://www.w3.org/2000/svg">
  <path d="M3.938 22.5H1.312a.563.563 0 0 1-.562-.563V4.313a.563.563 0 0 1 .563-.562h2.625a.563.563 0 0 1 .562.563v17.625a.562.562 0 0 1-.563.562Z"></path>
  <path d="M11.25 9.75V7.312a.563.563 0 0 0-.563-.562H5.814a.563.563 0 0 0-.563.563V9.75h6Z"></path>
  <path d="M5.25 19.5v2.438a.562.562 0 0 0 .563.562h4.875a.562.562 0 0 0 .562-.563V19.5h-6Z"></path>
  <path d="M11.25 11.25h-6V18h6v-6.75Z"></path>
  <path d="M15.938 22.5h-3.376a.562.562 0 0 1-.562-.563V2.063a.563.563 0 0 1 .563-.562h3.374a.562.562 0 0 1 .563.563v19.875a.562.562 0 0 1-.563.562Z"></path>
  <path d="m17.297 4.718 1.406 17.242a.562.562 0 0 0 .63.512l3.383-.422a.562.562 0 0 0 .49-.604l-1.41-17.172a.563.563 0 0 0-.618-.513l-3.381.352a.562.562 0 0 0-.5.605Z"></path>
</svg>