<svg fill="currentColor" viewBox="0 0 24 24" xmlns="http://www.w3.org/2000/svg">
  <path d="M12 2.25c-5.376 0-9.75 4.374-9.75 9.75s4.374 9.75 9.75 9.75 9.75-4.374 9.75-9.75S17.376 2.25 12 2.25ZM9 15.727a.75.75 0 0 1-.75.75H7.5a.75.75 0 0 1-.75-.75v-.75a.75.75 0 0 1 .75-.75h.75a.75.75 0 0 1 .75.75v.75Zm0-3.329a.75.75 0 0 1-.75.75H7.5a.75.75 0 0 1-.75-.75v-.75a.75.75 0 0 1 .75-.75h.75a.75.75 0 0 1 .75.75v.75Zm0-3.375a.75.75 0 0 1-.75.75H7.5a.75.75 0 0 1-.75-.75v-.75a.75.75 0 0 1 .75-.75h.75a.75.75 0 0 1 .75.75v.75Zm8.25 7.079H9.969v-1.5h7.281v1.5Zm0-3.329H9.969v-1.5h7.281v1.5Zm0-3.375H9.969v-1.5h7.281v1.5Z"></path>
</svg>