<svg fill="currentColor" viewBox="0 0 24 24" xmlns="http://www.w3.org/2000/svg">
  <path d="M17.536 4.732a7.989 7.989 0 0 0-.061.139l-.018.042-.037.1a2.133 2.133 0 0 0-.046.144l-.016.054a3.578 3.578 0 0 0-.066.305l-.014.098-.007.059-.01.108-.003.051a3.032 3.032 0 0 0 0 .298v.029l.009.132.003.022a3.494 3.494 0 0 0 .041.27l.006.029c.01.043.018.086.03.128a2.746 2.746 0 0 0 .085.276l.008.02c.013.036.028.072.043.109l.008.02c.016.038.034.077.052.115l.012.025c.02.038.038.077.058.114A3.01 3.01 0 0 0 19 8.714l.017.008c.084.038.169.072.256.102l.044.015.07.022.065.018.09.024.08.018.054.011.086.015.043.008.128.016.036.003.104.008.04.002c.047 0 .09.004.137.004.054 0 .108 0 .161-.005l.051-.004c.036 0 .072-.005.108-.009.02 0 .039-.004.059-.007l.098-.013.06-.011.093-.018.058-.014a1.29 1.29 0 0 0 .094-.024l.055-.015.096-.03.05-.017c.033-.011.065-.023.098-.036l.044-.017c.035-.014.07-.03.103-.045l.036-.016c.037-.017.074-.036.11-.054l.025-.013.126-.07.005-.004a2.998 2.998 0 1 0-4.181-3.978l-.01.018c-.014.048-.034.087-.052.126Z"></path>
  <path d="m17.415 9.489-4.955 3.853a.75.75 0 0 1-.92 0l-7.342-5.71.92-1.184L12 11.8l4.423-3.44a4.492 4.492 0 0 1-.064-4.61H2.25a.75.75 0 0 0-.75.75v15a.75.75 0 0 0 .75.75h19.5a.75.75 0 0 0 .75-.75V9.897a4.488 4.488 0 0 1-5.085-.408Z"></path>
</svg>