<svg fill="currentColor" viewBox="0 0 24 24" xmlns="http://www.w3.org/2000/svg">
  <path d="M6 6.75v15.563a.188.188 0 0 0 .188.187h4.69a.375.375 0 0 0 .367-.455L9.783 16.5h1.092a.375.375 0 0 0 .375-.375V6.75H6Z"></path>
  <path d="M21.196 8.745 21 8.695V1.687a.188.188 0 0 0-.188-.187H18.82a.188.188 0 0 0-.123.047L12.75 6.75v7.5l5.947 5.203c.034.03.078.047.123.047h1.992a.188.188 0 0 0 .188-.188v-7.007l.196-.05c.45-.122 1.304-.646 1.304-1.755 0-1.11-.853-1.633-1.304-1.755Z"></path>
  <path d="M4.5 6.75H2.437a.187.187 0 0 0-.187.188v1.668a2.016 2.016 0 0 0-.199.204c-.251.299-.551.834-.551 1.69 0 .946.37 1.553.75 1.895v1.668a.188.188 0 0 0 .188.187H4.5v-7.5Z"></path>
</svg>