<svg fill="currentColor" viewBox="0 0 24 24" xmlns="http://www.w3.org/2000/svg">
  <path d="M12 2.25c-5.376 0-9.75 4.374-9.75 9.75s4.374 9.75 9.75 9.75 9.75-4.374 9.75-9.75S17.376 2.25 12 2.25Zm-2.25 6A2.257 2.257 0 0 1 12 6a2.257 2.257 0 0 1 2.25 2.25v3A2.256 2.256 0 0 1 12 13.5a2.256 2.256 0 0 1-2.25-2.25v-3Zm6.75 3.385c0 1.095-.513 2.138-1.443 2.938a4.86 4.86 0 0 1-2.307 1.095v.832h1.5V18h-4.5v-1.5h1.5v-.832a4.861 4.861 0 0 1-2.307-1.095c-.93-.8-1.443-1.843-1.443-2.938v-1.87H9v1.87c0 1.203 1.313 2.6 3 2.6 1.387 0 3-1.135 3-2.6v-1.87h1.5v1.87Z"></path>
</svg>