<svg fill="currentColor" viewBox="0 0 24 24" xmlns="http://www.w3.org/2000/svg">
  <path d="M12 2.25c-5.376 0-9.75 4.374-9.75 9.75s4.374 9.75 9.75 9.75 9.75-4.374 9.75-9.75S17.376 2.25 12 2.25Zm3 9.385V9.75h1.5v1.885a3.634 3.634 0 0 1-.627 2.021l-1.06-1.168c.122-.268.186-.558.187-.853ZM12 6a2.257 2.257 0 0 1 2.25 2.25v3c0 .184-.023.367-.068.546l-4.171-4.59A2.257 2.257 0 0 1 12 6Zm2.25 12h-4.5v-1.5h1.5v-.832a4.861 4.861 0 0 1-2.307-1.095c-.93-.8-1.443-1.843-1.443-2.938V9.75H9v1.885c0 1.203 1.313 2.6 3 2.6.11 0 .22-.006.328-.02l1.15 1.265c-.237.082-.48.145-.727.188v.832h1.5L14.25 18Zm-4.496-6.616 1.899 2.089a2.259 2.259 0 0 1-1.899-2.089Zm6.379 5.855L6.734 6.997l1.11-1.01 9.399 10.243-1.11 1.009Z"></path>
</svg>