<svg fill="currentColor" viewBox="0 0 24 24" xmlns="http://www.w3.org/2000/svg">
  <path d="M20.13 1.503c-1.105.307-9.634 2.757-11.743 3.349a.188.188 0 0 0-.137.18v11.577a.094.094 0 0 1-.062.089l-1.306.448c-.89.348-3.132.781-3.132 2.774 0 1.666 1.155 2.416 2.15 2.545.12.021.243.034.366.037.345 0 1.705-.332 2.498-.847.986-.643.986-.655.986-2.342V9.469c0-.042.03-.04.07-.05l8.812-2.434a.094.094 0 0 1 .118.094v7.29a.095.095 0 0 1-.063.09c-.418.14-.902.304-1.242.427-1.442.521-3.195.848-3.195 2.74 0 1.804 1.325 2.558 2.17 2.616.334.025.67.01 1-.047a4.959 4.959 0 0 0 1.788-.696c1.042-.665 1.042-.678 1.042-2.624V1.594a.094.094 0 0 0-.076-.092.094.094 0 0 0-.043.001Z"></path>
</svg>