<svg fill="currentColor" viewBox="0 0 24 24" xmlns="http://www.w3.org/2000/svg">
  <path d="M21.938 5.25H19.5V19.5a1.5 1.5 0 1 0 3 0V5.812a.563.563 0 0 0-.563-.562Z"></path>
  <path d="M20.21 22.395A3.004 3.004 0 0 1 18 19.5V2.062a.563.563 0 0 0-.563-.562H2.063a.563.563 0 0 0-.562.563v17.812A2.625 2.625 0 0 0 4.125 22.5h16.071a.053.053 0 0 0 .014-.105ZM4.5 9.75v-4.5H9v4.5H4.5Zm10.5 9H4.5v-1.5H15v1.5Zm0-3H4.5v-1.5H15v1.5Zm0-3H4.5v-1.5H15v1.5Zm0-3h-4.5v-1.5H15v1.5Zm0-3h-4.5v-1.5H15v1.5Z"></path>
</svg>