<svg fill="currentColor" viewBox="0 0 24 24" xmlns="http://www.w3.org/2000/svg">
  <path d="M12 2.25c-5.376 0-9.75 4.374-9.75 9.75s4.374 9.75 9.75 9.75 9.75-4.374 9.75-9.75S17.376 2.25 12 2.25ZM6.75 14.438l1.313-1.688v-1.514c-.003-.4.034-.799.11-1.192l5.23 5.706H6.75v-1.313ZM12.008 18c-1.058 0-1.883-.48-1.883-1.5h3.75c-.014 1.002-.818 1.5-1.867 1.5Zm4.382-.175L6.5 7.185l1.11-1.01 9.89 10.64-1.11 1.01Zm.86-2.316-.015-.018-7.29-7.952c.238-.112.486-.197.742-.253L10.876 6h2.25l.188 1.286c1.874.418 2.624 2.062 2.624 3.95v1.514l1.313 1.688v1.07Z"></path>
</svg>