<svg fill="currentColor" viewBox="0 0 24 24" xmlns="http://www.w3.org/2000/svg">
  <path d="M12 14.25a2.25 2.25 0 1 0 0-4.5 2.25 2.25 0 0 0 0 4.5Z"></path>
  <path d="M18.895 5.106a9.75 9.75 0 1 0-13.79 13.789 9.75 9.75 0 0 0 13.79-13.79ZM16.03 12a4.037 4.037 0 0 1-2.506 3.73l2.424 3.188a7.956 7.956 0 0 1-7.898 0l2.424-3.187a4.031 4.031 0 0 1-2.37-4.77l-4.007.004A7.979 7.979 0 0 1 7.56 5.387l1.779 3.59a4.02 4.02 0 0 1 5.325 0l1.778-3.59a7.979 7.979 0 0 1 3.46 5.578l-4.006-.005c.09.34.136.69.136 1.04Z"></path>
</svg>