<svg fill="currentColor" viewBox="0 0 24 24" xmlns="http://www.w3.org/2000/svg">
  <path d="M20.564 7.473c-.825-1.327-2.132-2.053-3.997-2.22-1.07-.094-2.354.231-3.387.494-.465.119-.992.253-1.18.253-.188 0-.712-.134-1.172-.253-1.035-.265-2.323-.595-3.396-.494-1.806.17-3.094.9-3.937 2.232C2.65 8.818 2.25 10.734 2.25 13.5c0 2.872 1.384 5.37 2.21 6.604 1.016 1.521 2.536 3.146 3.753 3.146.87 0 1.599-.34 2.241-.64.937-.438 1.546-.485 1.546-.485s.516 0 1.497.474c.643.31 1.376.65 2.29.65 1.246 0 2.77-1.625 3.78-3.147.815-1.228 2.183-3.719 2.183-6.602 0-2.813-.375-4.727-1.186-6.027ZM10.125 16.5C9.504 16.5 9 15.492 9 14.25c0-1.243.504-2.25 1.125-2.25s1.125 1.007 1.125 2.25c0 1.242-.504 2.25-1.125 2.25Zm3.75 0c-.621 0-1.125-1.008-1.125-2.25 0-1.243.504-2.25 1.125-2.25S15 13.007 15 14.25c0 1.242-.504 2.25-1.125 2.25Z"></path>
  <path d="M15.174 3.88C16.58 2.475 16.5.757 16.5.756c0 0-1.677-.177-3.151 1.297-1.475 1.473-1.346 3.196-1.346 3.196s1.766.033 3.171-1.37Z"></path>
</svg>