<svg fill="currentColor" viewBox="0 0 24 24" xmlns="http://www.w3.org/2000/svg">
  <path d="M15.938 22.5H4.967c-1.382 0-2.574-.367-3.446-1.061C.526 20.646 0 19.469 0 18.038c0-1.25.472-2.335 1.366-3.137.714-.641 1.695-1.088 2.766-1.258.002 0 .003 0 .004-.002.302-1.829 1.117-3.38 2.358-4.485A6.574 6.574 0 0 1 10.875 7.5c1.417 0 2.741.44 3.83 1.274a6.688 6.688 0 0 1 2.126 2.843c1.379.226 2.565.802 3.431 1.666.972.972 1.488 2.266 1.488 3.742 0 1.54-.616 2.947-1.734 3.962-1.073.976-2.522 1.513-4.078 1.513Z"></path>
  <path d="M17.883 10.309c.75.19 1.467.491 2.13.89a4.5 4.5 0 0 0-7.1-4.939 7.616 7.616 0 0 1 2.705 1.324 8.18 8.18 0 0 1 2.265 2.725Z"></path>
  <path d="M24 9h-3v1.5h3V9Z"></path>
  <path d="M16.5 1.5H15v3h1.5v-3Z"></path>
  <path d="m11.97 6.074.583-.584-2.092-2.092-1.06 1.061 1.554 1.555h.028c.33 0 .66.02.986.06Z"></path>
  <path d="m21.04 3.4-2.093 2.092 1.06 1.06 2.093-2.09-1.06-1.06Z"></path>
</svg>