<svg fill="currentColor" viewBox="0 0 24 24" xmlns="http://www.w3.org/2000/svg">
  <path d="M20.756 16.96c-.412-1.176-1.374-1.773-2.302-2.35-.807-.501-1.57-.976-2.069-1.827C15.01 10.423 14.255 9 12.003 9s-3.01 1.424-4.388 3.782c-.5.854-1.266 1.33-2.074 1.832-.928.577-1.888 1.172-2.302 2.346A3.659 3.659 0 0 0 3 18.286c0 1.91 1.521 3.464 3.206 3.464s3.905-.85 5.802-.85c1.896 0 4.085.85 5.791.85 1.706 0 3.201-1.554 3.201-3.464a3.67 3.67 0 0 0-.244-1.326Z"></path>
  <path d="M3.375 13.5C4.825 13.5 6 11.989 6 10.125S4.825 6.75 3.375 6.75.75 8.261.75 10.125 1.925 13.5 3.375 13.5Z"></path>
  <path d="M8.625 9c1.45 0 2.625-1.511 2.625-3.375S10.075 2.25 8.625 2.25 6 3.761 6 5.625 7.175 9 8.625 9Z"></path>
  <path d="M15.375 9C16.825 9 18 7.489 18 5.625S16.825 2.25 15.375 2.25 12.75 3.761 12.75 5.625 13.925 9 15.375 9Z"></path>
  <path d="M20.625 13.5c1.45 0 2.625-1.511 2.625-3.375S22.075 6.75 20.625 6.75 18 8.261 18 10.125s1.175 3.375 2.625 3.375Z"></path>
</svg>