<svg fill="currentColor" viewBox="0 0 24 24" xmlns="http://www.w3.org/2000/svg">
  <path d="M12 2.25c-5.376 0-9.75 4.374-9.75 9.75s4.374 9.75 9.75 9.75 9.75-4.374 9.75-9.75S17.376 2.25 12 2.25Zm3.248 4.508a3.398 3.398 0 1 1-.009 6.796 3.398 3.398 0 0 1 .01-6.796Zm-7.27 1.236a2.78 2.78 0 1 1-.007 5.56 2.78 2.78 0 0 1 .007-5.56Zm-3.555 7.265c1.148-.623 2.619-.934 3.555-.934.703 0 1.609.14 2.5.478a6.236 6.236 0 0 0-1.594 1.27c-.618.704-.973 1.544-.973 2.383v.703a8.3 8.3 0 0 1-3.488-3.897v-.003ZM12 20.25a8.21 8.21 0 0 1-2.784-.484v-1.268c0-2.465 4.02-3.708 6.032-3.708 1.079 0 2.737.358 4.042 1.07A8.257 8.257 0 0 1 12 20.25Z"></path>
</svg>