<svg fill="currentColor" viewBox="0 0 24 24" xmlns="http://www.w3.org/2000/svg">
  <path d="M20.733 3.18C17.996 2.095 14.896 1.5 12 1.5c-2.98 0-6.084.586-8.745 1.652-.95.386-1.286.598-1.286.598L3 5.813l1.76-.757c2.158-.86 4.577-1.306 7.264-1.306 2.695 0 5.067.433 7.254 1.324L21 5.813l1.031-2.063s-.328-.188-1.298-.57Z"></path>
  <path d="M19.202 6.602C17.07 5.743 14.445 5.25 12 5.25a19.922 19.922 0 0 0-7.205 1.355c-.012.004-.433.198-.89.408l1.04 2.265L12 22.5l8.144-15.508-.934-.386-.008-.004ZM10.52 9.097a1.5 1.5 0 1 1-.97-1.499 1.506 1.506 0 0 1 .97 1.499Zm3 6a1.5 1.5 0 1 1-.97-1.499 1.505 1.505 0 0 1 .97 1.499Zm3-5.25a1.5 1.5 0 1 1-.97-1.499 1.505 1.505 0 0 1 .97 1.499Z"></path>
</svg>