<svg fill="currentColor" viewBox="0 0 24 24" xmlns="http://www.w3.org/2000/svg">
  <path d="M3.797 12.875c.439 4.139 3.95 7.373 8.203 7.373a8.2 8.2 0 0 0 3.351-.712c-1.889-.775-3.94-1.79-5.99-2.97a51.24 51.24 0 0 1-5.564-3.691Z"></path>
  <path d="M23.096 15.915c-.398-.53-.937-1.116-1.593-1.735a9.627 9.627 0 0 1-.516 1.594c1.346 1.383 1.556 2.125 1.508 2.271-.094.104-.8.323-2.726-.166a19.213 19.213 0 0 1-1.552-.466c.345-.396.652-.823.916-1.277l.024-.041a8.22 8.22 0 0 0 1.046-4.986C19.755 6.976 16.247 3.75 12 3.75a8.22 8.22 0 0 0-4.987 1.682 8.316 8.316 0 0 0-2.149 2.43c-.007.014-.016.028-.024.041a8.225 8.225 0 0 0-.648 1.43 23.66 23.66 0 0 1-.506-.453 18.417 18.417 0 0 1-.676-.656c-1.386-1.418-1.55-2.138-1.507-2.27.101-.115.848-.307 2.725.166a9.839 9.839 0 0 1 1.125-1.245c-.884-.263-1.678-.439-2.346-.516-1.44-.165-2.384.119-2.803.844-.152.262-.298.707-.128 1.34.252.941 1.15 2.082 2.42 3.277.404.381.846.768 1.317 1.155a38.638 38.638 0 0 0 2.614 1.963 52.904 52.904 0 0 0 5.026 3.079 49.08 49.08 0 0 0 4.323 2.073c.413.172.816.33 1.21.477.558.207 1.096.39 1.608.543l.052.015c1.206.36 2.223.548 3.023.563h.081c1.014 0 1.702-.3 2.043-.89.426-.733.191-1.703-.697-2.883Z"></path>
</svg>