<svg fill="currentColor" viewBox="0 0 24 24" xmlns="http://www.w3.org/2000/svg">
  <path d="M18.75 4.5V2.625a.375.375 0 0 0-.375-.375H5.625a.375.375 0 0 0-.375.375V4.5"></path>
  <path d="M19.125 5.25H4.875A2.625 2.625 0 0 0 2.25 7.875v9.75a.375.375 0 0 0 .375.375H5.25v3.375a.375.375 0 0 0 .375.375h12.75a.375.375 0 0 0 .375-.375V18h2.625a.375.375 0 0 0 .375-.375v-9.75a2.625 2.625 0 0 0-2.625-2.625Zm-2.25 14.438a.188.188 0 0 1-.188.187H7.313a.188.188 0 0 1-.187-.188v-7.125a.188.188 0 0 1 .188-.187h9.375a.188.188 0 0 1 .187.188v7.124Zm1.594-9.942a1.125 1.125 0 1 1-.18-2.242 1.125 1.125 0 0 1 .18 2.242Z"></path>
</svg>