<svg fill="currentColor" viewBox="0 0 24 24" xmlns="http://www.w3.org/2000/svg">
  <path d="M19.5 15.75h-3.75v3.75h3.75v-3.75Z"></path>
  <path d="M15.75 12.75h-3v3h3v-3Z"></path>
  <path d="M22.5 19.5h-3v3h3v-3Z"></path>
  <path d="M22.5 12.75h-2.25V15h2.25v-2.25Z"></path>
  <path d="M15 20.25h-2.25v2.25H15v-2.25Z"></path>
  <path d="M19.5 4.5h-3.75v3.75h3.75V4.5Z"></path>
  <path d="M22.5 11.25h-9.75V1.5h9.75v9.75Zm-7.688-2.063h5.626V3.564h-5.625v5.624Z"></path>
  <path d="M8.25 4.5H4.5v3.75h3.75V4.5Z"></path>
  <path d="M11.25 11.25H1.5V1.5h9.75v9.75ZM3.562 9.187h5.626V3.564H3.561v5.624Z"></path>
  <path d="M8.25 15.75H4.5v3.75h3.75v-3.75Z"></path>
  <path d="M11.25 22.5H1.5v-9.75h9.75v9.75Zm-7.688-2.063h5.626v-5.625H3.561v5.626Z"></path>
</svg>