<svg fill="currentColor" viewBox="0 0 24 24" xmlns="http://www.w3.org/2000/svg">
  <path d="M12 13.687a1.687 1.687 0 1 0 0-3.375 1.687 1.687 0 0 0 0 3.375Z"></path>
  <path d="m8.832 16.441-.685-.77a5.527 5.527 0 0 1 0-7.346l.685-.77 1.541 1.37-.685.77a3.466 3.466 0 0 0 0 4.606l.685.77-1.54 1.37Z"></path>
  <path d="m15.169 16.441-1.542-1.37.685-.77a3.465 3.465 0 0 0 0-4.606l-.685-.77 1.54-1.37.686.77a5.527 5.527 0 0 1 0 7.346l-.684.77Z"></path>
  <path d="m6.48 18.83-.703-.753a8.9 8.9 0 0 1 0-12.16l.704-.753 1.506 1.409-.703.752a6.838 6.838 0 0 0 0 9.344l.703.752-1.506 1.409Z"></path>
  <path d="m17.52 18.833-1.506-1.406.703-.753a6.838 6.838 0 0 0 0-9.343l-.703-.753 1.506-1.406.703.753a8.9 8.9 0 0 1 0 12.16l-.703.748Z"></path>
  <path d="m20.19 20.953-1.537-1.375.687-.768a10.228 10.228 0 0 0 0-13.62l-.688-.768 1.537-1.375.688.768a12.29 12.29 0 0 1 0 16.37l-.687.768Z"></path>
  <path d="m3.81 20.953-.688-.768a12.29 12.29 0 0 1 0-16.37l.688-.768 1.537 1.375-.688.768a10.228 10.228 0 0 0 0 13.62l.687.768-1.536 1.375Z"></path>
</svg>