<svg fill="currentColor" viewBox="0 0 24 24" xmlns="http://www.w3.org/2000/svg">
  <path d="M17.063 15.75H6.092c-1.382 0-2.574-.367-3.446-1.061-.996-.793-1.522-1.97-1.522-3.402 0-1.25.472-2.334 1.366-3.136.714-.641 1.695-1.088 2.766-1.258.002 0 .003 0 .004-.002.302-1.828 1.117-3.38 2.358-4.485A6.574 6.574 0 0 1 12 .75c1.417 0 2.741.44 3.83 1.274a6.689 6.689 0 0 1 2.126 2.843c1.379.226 2.565.802 3.431 1.666.972.972 1.488 2.266 1.488 3.742 0 1.54-.616 2.947-1.734 3.962-1.073.976-2.522 1.513-4.078 1.513Z"></path>
  <path d="M6.73 16.682 4.399 20.18l1.249.832 2.332-3.498-1.248-.832Z"></path>
  <path d="M10.48 16.681 6.648 22.43l1.249.832 3.832-5.748-1.248-.832Z"></path>
  <path d="m14.229 16.682-2.332 3.498 1.248.832 2.332-3.498-1.248-.832Z"></path>
  <path d="m17.979 16.681-3.832 5.749 1.248.832 3.832-5.748-1.248-.832Z"></path>
</svg>