<svg fill="currentColor" viewBox="0 0 24 24" xmlns="http://www.w3.org/2000/svg">
  <path d="M16.064 10.497h.697a3.727 3.727 0 0 0 2.652-1.099l3.837-3.867-1.042-1.05L18.291 8.4l-.815-.814 3.918-3.918-1.078-1.046-3.903 3.903-.812-.815 3.918-3.918L18.469.75 14.6 4.587a3.726 3.726 0 0 0-1.098 2.652v.697L11.48 9.958 2.25.75C.174 3.322 1.4 8.049 3.737 10.386l4.008 4.008c1.244 1.244 1.491 1.355 2.903.787.304-.122.415-.108.698.175l.61.568c.137.141.14.182.14.451v.26c0 .988.632 1.556 1.049 1.98L18 23.25l3.375-3.375-7.333-7.356 2.022-2.022Z"></path>
  <path d="M10.658 16.62c-1.398.286-2.255.55-3.894-1.09a1.926 1.926 0 0 1-.08-.077l-.914-.914L.75 19.5l3.75 3.75 6.75-6.75-.592.12Z"></path>
</svg>