<svg fill="currentColor" viewBox="0 0 24 24" xmlns="http://www.w3.org/2000/svg">
  <path d="M12 15.753a8.256 8.256 0 0 1-6.881-3.706L.938 19.503h5.39l2.719 4.5 3.868-8.301a8.31 8.31 0 0 1-.915.05Z"></path>
  <path d="M18.891 12.031a8.292 8.292 0 0 1-4.133 3.241l-1.928 4.201 2.123 4.524 2.72-4.5h5.39L18.89 12.03Z"></path>
  <path d="M12 9.75a2.25 2.25 0 1 0 0-4.5 2.25 2.25 0 0 0 0 4.5Z"></path>
  <path d="M12 .75A6.758 6.758 0 0 0 5.25 7.5 6.758 6.758 0 0 0 12 14.25a6.758 6.758 0 0 0 6.75-6.75A6.758 6.758 0 0 0 12 .75Zm0 10.5a3.75 3.75 0 1 1 0-7.5 3.75 3.75 0 0 1 0 7.5Z"></path>
</svg>