<svg fill="currentColor" viewBox="0 0 24 24" xmlns="http://www.w3.org/2000/svg">
  <path d="M22.39 1.792a.222.222 0 0 0-.167-.171C19.477.95 13.133 3.34 9.697 6.777a14.859 14.859 0 0 0-1.67 1.974c-1.06-.094-2.12-.016-3.023.378-2.549 1.122-3.29 4.049-3.498 5.308a.452.452 0 0 0 .495.525l4.093-.452a9.2 9.2 0 0 0 .055.924.91.91 0 0 0 .268.562L8 17.577c.151.152.35.247.563.267.305.034.611.053.918.056l-.449 4.088a.452.452 0 0 0 .525.494c1.257-.201 4.189-.943 5.304-3.492.394-.903.474-1.958.383-3.013a14.886 14.886 0 0 0 1.98-1.67c3.447-3.43 5.825-9.633 5.164-12.514Zm-8.606 8.422a2.25 2.25 0 1 1 3.18-3.182 2.25 2.25 0 0 1-3.18 3.182Z"></path>
  <path d="M7.894 18.723c-.257.258-.67.358-1.165.444-1.114.19-2.098-.773-1.898-1.9.076-.427.302-1.025.443-1.166a.205.205 0 0 0-.171-.35 2.812 2.812 0 0 0-1.647.803C2.354 17.657 2.25 21.75 2.25 21.75s4.095-.104 5.197-1.207a2.798 2.798 0 0 0 .803-1.648c.017-.196-.221-.313-.356-.172Z"></path>
</svg>