<svg fill="currentColor" viewBox="0 0 24 24" xmlns="http://www.w3.org/2000/svg">
  <path d="M21 5.25s-.826 0-1.43.065c-.89.094-1.972.375-2.8.62-1.643.487-3.25 1.121-5.056 1.996-.872.424-1.218.626-2.25 1.225l-.21.125c-1.545.89-2.676 1.875-3.46 3.014C4.936 13.542 4.5 15 4.5 16.624c0 1.91.736 3.614 2.074 4.798C7.922 22.618 9.8 23.25 12 23.25c2.192 0 4.073-.671 5.438-1.942 1.328-1.235 2.062-2.971 2.062-4.889 0-1.171-.29-2.203-.57-3.197-.59-2.095-1.1-3.905 1.158-6.757.197-.248.912-1.215.912-1.215Z"></path>
  <path d="M10.266 5.604C7.897 4.316 4.909 3.75 3.75 3.75c0 0 1.089 1.321 1.366 2.597.278 1.275.307 2.278.137 4.153.84-.96 1.902-1.741 3.25-2.519l.21-.121c1.037-.604 1.423-.829 2.35-1.278.134-.066.269-.13.402-.193a8.003 8.003 0 0 0-1.2-.785Z"></path>
  <path d="M16.184 2.25s-1.993.017-4.037.998a13.14 13.14 0 0 0-1.512.857 13.785 13.785 0 0 1 .858.477 8.8 8.8 0 0 1 1.474 1.132c1.152-.488 3.422-1.223 4.255-1.466-.375-.898-1.038-1.998-1.038-1.998Z"></path>
  <path d="M8.25.75c-.75.508-1.56 1.927-1.56 1.927.777.198 1.542.437 2.294.714l.827-.541c.383-.251.776-.483 1.172-.693-.001 0-1.488-1.024-2.734-1.407Z"></path>
</svg>