<svg fill="currentColor" viewBox="0 0 24 24" xmlns="http://www.w3.org/2000/svg">
  <path d="M20.25 1.5H3.75A2.252 2.252 0 0 0 1.5 3.75v16.5a2.252 2.252 0 0 0 2.25 2.25h16.5a2.252 2.252 0 0 0 2.25-2.25V3.75a2.252 2.252 0 0 0-2.25-2.25Zm-.783 7.734-2.46 2.894a1.305 1.305 0 0 1-1.764.216c-.61-.435-1.841-1.166-3.243-1.166s-2.633.731-3.243 1.166a1.305 1.305 0 0 1-1.765-.216L4.533 9.234a1.506 1.506 0 0 1 .02-1.968c.887-1 3.389-3.322 7.447-3.322s6.56 2.324 7.447 3.322a1.506 1.506 0 0 1 .02 1.968Z"></path>
</svg>