<svg fill="currentColor" viewBox="0 0 24 24" xmlns="http://www.w3.org/2000/svg">
  <path d="M12 2.25c-5.376 0-9.75 4.374-9.75 9.75s4.374 9.75 9.75 9.75 9.75-4.374 9.75-9.75S17.376 2.25 12 2.25Zm-1.125 15H8.812a2.065 2.065 0 0 1-2.062-2.063v-2.062h1.5v2.063a.562.562 0 0 0 .563.562h2.062v1.5Zm0-9H8.812a.563.563 0 0 0-.562.563v2.062h-1.5V8.812A2.065 2.065 0 0 1 8.813 6.75h2.062v1.5Zm6.375 6.938a2.064 2.064 0 0 1-2.063 2.062h-2.062v-1.5h2.063a.562.562 0 0 0 .562-.563v-2.062h1.5v2.063Zm0-4.313h-1.5V8.812a.563.563 0 0 0-.563-.562h-2.062v-1.5h2.063a2.065 2.065 0 0 1 2.062 2.063v2.062Z"></path>
</svg>