<svg fill="currentColor" viewBox="0 0 24 24" xmlns="http://www.w3.org/2000/svg">
  <path d="M18.188 21.844H15V19.78h3.188a1.594 1.594 0 0 0 1.593-1.593V15h2.063v3.188a3.66 3.66 0 0 1-3.657 3.656Z"></path>
  <path d="M21.844 9H19.78V5.812a1.594 1.594 0 0 0-1.593-1.593H15V2.156h3.188a3.66 3.66 0 0 1 3.656 3.656V9Z"></path>
  <path d="M9 21.844H5.812a3.66 3.66 0 0 1-3.656-3.657V15H4.22v3.188a1.594 1.594 0 0 0 1.593 1.593H9v2.063Z"></path>
  <path d="M4.219 9H2.156V5.812a3.66 3.66 0 0 1 3.656-3.656H9V4.22H5.812A1.594 1.594 0 0 0 4.22 5.812V9Z"></path>
</svg>