<svg fill="currentColor" viewBox="0 0 24 24" xmlns="http://www.w3.org/2000/svg">
  <path d="M19.192 18.276c-2.223.943-4.876 1.461-7.192 1.461s-4.963-.53-7.192-1.461c-2.23-.932-2.558-1.721-2.558-1.721v1.79c0 1.46.844 2.046 3.156 3.017C7.178 22.106 9.524 22.5 12 22.5s4.822-.394 6.594-1.138c2.312-.971 3.156-1.556 3.156-3.017v-1.79s-.335.777-2.558 1.72Z"></path>
  <path d="M2.985 8.12c.526.46 1.304.913 2.25 1.308 1.991.833 4.521 1.33 6.767 1.33 2.246 0 4.776-.497 6.767-1.33.943-.395 1.721-.847 2.248-1.308.284-.25.508-.475.63-.603a.374.374 0 0 0 .105-.26V6.032c-.04-1.35-1.158-2.55-3.15-3.381C16.82 1.908 14.476 1.5 12 1.5c-2.477 0-4.82.408-6.598 1.15-1.988.83-3.106 2.027-3.15 3.373v1.235c0 .096.037.19.104.26.12.127.345.353.63.602Z"></path>
  <path d="M19.192 10.4c-2.083.895-4.876 1.462-7.192 1.462s-5.103-.575-7.192-1.462C2.719 9.514 2.25 8.68 2.25 8.68v2.22c.004.352.258.76.735 1.178.527.46 1.305.914 2.25 1.308 1.99.833 4.52 1.331 6.765 1.331 2.246 0 4.776-.497 6.767-1.33.944-.394 1.721-.847 2.248-1.308.48-.422.735-.83.735-1.185V8.68s-.475.826-2.558 1.72Z"></path>
  <path d="M19.192 14.361c-2.223.92-4.876 1.462-7.192 1.462s-5.15-.6-7.192-1.462c-2.042-.861-2.558-1.72-2.558-1.72v2.168c0 .354.255.763.735 1.184.527.46 1.304.914 2.25 1.308 1.992.833 4.521 1.33 6.767 1.33 2.247 0 4.776-.497 6.767-1.33.944-.395 1.722-.847 2.248-1.308.477-.419.732-.826.735-1.178V12.64s-.336.8-2.56 1.72Z"></path>
</svg>