<svg fill="currentColor" viewBox="0 0 24 24" xmlns="http://www.w3.org/2000/svg">
  <path d="m22.456 5.224-.037-.588-.58-.103c-4.054-.728-5.747-1.254-9.53-2.963l-.31-.14-.308.14C7.907 3.28 6.214 3.805 2.16 4.533l-.58.103-.037.588c-.18 2.864.205 5.533 1.145 7.933a16.382 16.382 0 0 0 3.359 5.274c2.506 2.659 5.167 3.814 5.675 4.018l.28.113.282-.113c.508-.204 3.169-1.359 5.675-4.018a16.38 16.38 0 0 0 3.352-5.274c.94-2.4 1.326-5.069 1.145-7.933ZM10.601 15.349l-3.412-3.345 1.05-1.072 2.272 2.226 5.162-5.962 1.135.981L10.6 15.35Z"></path>
</svg>