<svg fill="currentColor" viewBox="0 0 24 24" xmlns="http://www.w3.org/2000/svg">
  <path d="M12 1.5c-3.844 1.737-6.31 2.553-10.5 3 0 3.637.247 6.251 1.185 8.649a16.353 16.353 0 0 0 3.349 5.27C8.359 20.886 10.917 22.186 12 22.5c1.083-.313 3.641-1.613 5.966-4.082a16.351 16.351 0 0 0 3.348-5.27c.939-2.396 1.186-5.01 1.186-8.648-4.19-.447-6.656-1.263-10.5-3Zm7.569 10.966a14.493 14.493 0 0 1-2.968 4.666c-1.788 1.9-3.633 2.945-4.601 3.37V3.552c1.816.797 3.222 1.327 4.59 1.73a28.74 28.74 0 0 0 4.013.867c-.08 2.823-.392 4.673-1.034 6.316Z"></path>
</svg>