<svg fill="currentColor" viewBox="0 0 24 24" xmlns="http://www.w3.org/2000/svg">
  <path d="M12 2.25C5.787 2.25.75 7.338.75 13.62a11.4 11.4 0 0 0 2.828 7.54c.055.062.105.123.16.178.443.412.578.412.93.412.35 0 .582 0 .934-.416C7.125 19.53 9.469 18.75 12 18.75c2.531 0 4.878.783 6.398 2.584.352.416.578.416.935.416.356 0 .53 0 .929-.412.057-.058.105-.116.16-.177a11.404 11.404 0 0 0 2.828-7.541c0-6.282-5.037-11.37-11.25-11.37Zm-.75 3h1.5v3h-1.5v-3Zm-4.5 9h-3v-1.5h3v1.5Zm1.007-3.932-2.12-2.121 1.06-1.06 2.121 2.12-1.06 1.061Zm5.302 4.091a1.455 1.455 0 0 1-.328.329 1.411 1.411 0 0 1-1.64-2.297L15 10.5l-1.94 3.91Zm2.123-5.152 2.121-2.12 1.06 1.06-2.12 2.121-1.061-1.06Zm5.068 4.993h-3v-1.5h3v1.5Z"></path>
</svg>