<svg fill="currentColor" viewBox="0 0 24 24" xmlns="http://www.w3.org/2000/svg">
  <path d="M21.75 20.997v-8.444a4.914 4.914 0 0 1-1.573.308l-.16.002a5.061 5.061 0 0 1-2.665-.75 5.062 5.062 0 0 1-5.314-.009 5.05 5.05 0 0 1-2.68.76 4.976 4.976 0 0 1-2.666-.77 4.976 4.976 0 0 1-2.665.77c-.05 0-.102 0-.157-.003h-.003a4.905 4.905 0 0 1-1.617-.325v8.461H.75v1.5h22.5v-1.5h-1.5Zm-11.25-3H6v-3.562a.188.188 0 0 1 .188-.188h4.125a.187.187 0 0 1 .187.188v3.562Zm7.5 3h-3.75v-6.562a.188.188 0 0 1 .188-.188h3.374a.187.187 0 0 1 .188.188v6.562Z"></path>
  <path d="M23.089 7.982 20.9 3c-.652-1.5-.652-1.5-2.152-1.5H5.25c-1.5 0-1.5 0-2.153 1.5L.908 7.982c-.422.91.135 1.844.136 1.844l.019.031c.02.031.053.082.076.111l.013.02.246.299.249.24.02.018c.138.118.286.224.442.317v.003c.51.309 1.091.481 1.687.5h.116a3.566 3.566 0 0 0 2.703-1.233 3.566 3.566 0 0 0 2.703 1.233c1.091 0 2.066-.469 2.702-1.198a.005.005 0 0 1 .007 0l.265.246c.661.614 1.53.954 2.433.952 1.091 0 2.067-.468 2.702-1.2.636.732 1.612 1.2 2.704 1.2h.116a3.344 3.344 0 0 0 1.641-.501c.045-.027.087-.055.13-.083a3.32 3.32 0 0 0 .856-.836l.094-.14c.042-.096.526-.952.12-1.823Z"></path>
</svg>