<svg fill="currentColor" viewBox="0 0 24 24" xmlns="http://www.w3.org/2000/svg">
  <path d="M12 2.25A9.75 9.75 0 0 0 2.25 12c0 5.384 4.365 9.75 9.75 9.75 5.384 0 9.75-4.366 9.75-9.75 0-5.385-4.366-9.75-9.75-9.75Zm0 15a5.259 5.259 0 0 1-5.216-4.604l-.415.415L5.309 12l2.155-2.156 2.23 2.132-1.038 1.083-.337-.322a3.763 3.763 0 0 0 6.491 1.758l1.114 1.003A5.287 5.287 0 0 1 12 17.25Zm4.537-3.094-2.229-2.133 1.037-1.083.322.307a3.76 3.76 0 0 0-6.48-1.748L8.072 8.497a5.259 5.259 0 0 1 9.132 2.87l.427-.428L18.692 12l-2.155 2.156Z"></path>
</svg>