<svg fill="currentColor" viewBox="0 0 24 24" xmlns="http://www.w3.org/2000/svg">
  <path d="M18.956 7.969c-1.932 0-3.66 1.128-4.399 2.873l-.308.714 1.89.805.308-.713c.417-.985 1.402-1.62 2.51-1.62 1.619 0 2.707 1.09 2.707 2.714v.108a39.15 39.15 0 0 0-3.388.227c-2.555.302-4.08 1.698-4.08 3.737 0 1.086.408 2.063 1.15 2.747.698.642 1.648.97 2.677.97 1.447 0 2.695-.343 3.64-1.061v1.061h2.055v-7.788c0-2.767-2.003-4.774-4.762-4.774Zm-.933 10.55c-.818 0-1.774-.461-1.774-1.705 0-.5.179-.849.58-1.134.391-.277.99-.476 1.688-.558a36.69 36.69 0 0 1 3.14-.211c-.1 2.413-1.292 3.608-3.634 3.608Z"></path>
  <path d="M4.371 15.275h5.883l1.978 5.256h2.206L7.266 2.25.187 20.531h2.206l1.978-5.256Zm2.941-7.742L9.48 13.22H5.145l2.168-5.686Z"></path>
</svg>