<svg fill="currentColor" viewBox="0 0 24 24" xmlns="http://www.w3.org/2000/svg">
  <path d="M19.024 6.416a7.09 7.09 0 0 0-2.232-3.84A7.172 7.172 0 0 0 5.459 5.009 5.009 5.009 0 0 0 .75 9.998c0 2.758 2.246 5 5.006 5h3.39l-.896 4.5h2.25v3.75l5.25-6.75h-2.04l.375-1.5h4.868a4.292 4.292 0 0 0 .07-8.582Z"></path>
  <path d="m5.29 15.494-1.796 3.592 1.342.67 1.796-3.59-1.342-.672Z"></path>
  <path d="m6.038 19.244-1.42 2.842 1.34.67 1.422-2.84-1.342-.672Z"></path>
  <path d="m18.415 15.494-1.796 3.592 1.342.67 1.796-3.59-1.342-.672Z"></path>
  <path d="m19.165 19.244-1.42 2.842 1.34.67 1.422-2.84-1.342-.672Z"></path>
</svg>