<svg fill="currentColor" viewBox="0 0 24 24" xmlns="http://www.w3.org/2000/svg">
  <path d="m19.98 5.987-.513.513a1.392 1.392 0 0 1-1.969-1.97l.513-.512L14.743.75l-4.125 4.125-.187.567-.567.187L.75 14.743l3.27 3.27.513-.513a1.392 1.392 0 1 1 1.969 1.97l-.513.512 3.268 3.268 9.112-9.113.188-.566.567-.188 4.125-4.125-3.269-3.271Zm-9.776.254 1.025-1.025 1.547 1.547-1.026 1.025-1.546-1.547Zm2.015 2.016 1.026-1.026 1.524 1.525-1.025 1.025-1.525-1.524Zm1.995 1.995 1.026-1.026 1.524 1.525-1.023 1.028-1.527-1.527Zm3.543 3.542-1.547-1.547 1.025-1.026 1.547 1.547-1.025 1.026Z"></path>
</svg>