<svg fill="currentColor" viewBox="0 0 24 24" xmlns="http://www.w3.org/2000/svg">
  <path d="M12 2.25A9.75 9.75 0 0 0 2.25 12 9.75 9.75 0 0 0 12 21.75 9.75 9.75 0 0 0 21.75 12 9.75 9.75 0 0 0 12 2.25Zm0 18c-4.547 0-8.25-3.7-8.25-8.25a8.182 8.182 0 0 1 2.525-5.94l6.803 4.862-.89 1.406-5.86-4.265C5.718 9.14 5.077 10.219 5.077 12A6.931 6.931 0 0 0 12 18.923 6.931 6.931 0 0 0 18.923 12a6.93 6.93 0 0 0-6.26-6.89v2.577h-1.326V3.745c.199.003.419.005.663.005 4.55 0 8.25 3.703 8.25 8.25 0 4.547-3.7 8.25-8.25 8.25Z"></path>
</svg>