<svg fill="currentColor" viewBox="0 0 24 24" xmlns="http://www.w3.org/2000/svg">
  <path d="m22.5 21.044-2.294-2.3 1.544-1.545-1.458-1.458-1.542 1.542-1.104-1.106a7.015 7.015 0 0 0-.005-8.365l2.792-2.792v1.73h2.062V1.5h-5.25v2.063h1.729l-2.792 2.79a7.015 7.015 0 0 0-8.371 0L7.457 6l1.547-1.547-1.457-1.459L6 4.541l-.98-.979h1.73V1.5H1.5v5.25h2.063V5.02L4.54 6 2.994 7.547l1.46 1.455L6 7.455l.354.355a6.993 6.993 0 0 0-1.385 4.187A7.04 7.04 0 0 0 12 19.028a6.99 6.99 0 0 0 4.192-1.39l1.102 1.105-1.553 1.55L17.2 21.75l1.547-1.547 2.292 2.297 1.462-1.456ZM7.031 11.997a4.969 4.969 0 1 1 9.938 0 4.969 4.969 0 0 1-9.938 0Z"></path>
</svg>