<svg fill="currentColor" viewBox="0 0 24 24" xmlns="http://www.w3.org/2000/svg">
  <path d="m3 7.5 1.394 13.243a1.125 1.125 0 0 0 1.119 1.007h12.974a1.125 1.125 0 0 0 1.119-1.007L21 7.5H3Zm11.625 10.193L12 15.068l-2.625 2.625L8.182 16.5l2.625-2.625-2.625-2.625 1.193-1.193L12 12.682l2.625-2.625 1.193 1.193-2.625 2.625 2.625 2.625-1.193 1.193Z"></path>
  <path d="M21.938 2.25H2.063a.563.563 0 0 0-.563.563v2.624c0 .311.252.563.563.563h19.875c.31 0 .562-.252.562-.563V2.813a.562.562 0 0 0-.563-.562Z"></path>
</svg>