<svg fill="currentColor" viewBox="0 0 24 24" xmlns="http://www.w3.org/2000/svg">
  <path d="m6.044 13.128-.012-.014a2.352 2.352 0 0 0-.13-.098l.142.112Z"></path>
  <path d="m17.957 13.123.123-.1a3.214 3.214 0 0 0-.11.084l-.013.016Z"></path>
  <path d="M21.71 8.74a10.526 10.526 0 0 0-8.96-6.463V1.5h-1.5v.777A10.48 10.48 0 0 0 1.5 12.75v1.056l.574-.526a2.936 2.936 0 0 1 3.817-.275l.01.007a2.405 2.405 0 0 1 .318.268l.531.53.53-.53a2.934 2.934 0 0 1 3.816-.27l.154.115v7.125a.75.75 0 1 1-1.5 0v-.75h-1.5v.75a2.25 2.25 0 0 0 4.5 0v-7.125l.154-.116a2.933 2.933 0 0 1 3.816.271l.53.53.53-.53a2.493 2.493 0 0 1 .3-.254l.012-.01c1.154-.866 2.812-.756 3.835.264l.573.525V12.75a10.482 10.482 0 0 0-.79-4.01Z"></path>
</svg>