<svg fill="currentColor" viewBox="0 0 24 24" xmlns="http://www.w3.org/2000/svg">
  <path d="M2.227 4.874h18.024v-2.46a.75.75 0 0 0-.898-.735L2.104 4.514a.75.75 0 0 0-.562.49 1.86 1.86 0 0 1 .686-.13Z"></path>
  <path d="M21.727 6h-19.5a.75.75 0 0 0-.75.75v13.5a.75.75 0 0 0 .75.75h19.5a.75.75 0 0 0 .75-.75V6.75a.75.75 0 0 0-.75-.75Zm-4.477 9a1.5 1.5 0 1 1 0-3 1.5 1.5 0 0 1 0 3Z"></path>
  <path d="M1.469 12.164V5.438c0-.578.268-.867.723-.938 1.65-.26 5.09-.398 5.09-.398s-.391.75-1.282.75V6c.867 0 1.47 1.102 1.47 1.102l-3.492 3.96-2.508 1.102Z"></path>
</svg>