<svg fill="currentColor" viewBox="0 0 24 24" xmlns="http://www.w3.org/2000/svg">
  <path d="M17.25 6.375H6.75a.375.375 0 0 0-.375.375v10.5c0 .207.168.375.375.375h10.5a.375.375 0 0 0 .375-.375V6.75a.375.375 0 0 0-.375-.375Z"></path>
  <path d="M18 4.5h-2.25V.75h-7.5V4.5H6A1.5 1.5 0 0 0 4.5 6v12A1.5 1.5 0 0 0 6 19.5h2.25v3.75h7.5V19.5H18a1.5 1.5 0 0 0 1.5-1.5V6A1.5 1.5 0 0 0 18 4.5Zm.375 12.75a1.125 1.125 0 0 1-1.125 1.125H6.75a1.125 1.125 0 0 1-1.125-1.125V6.75A1.125 1.125 0 0 1 6.75 5.625h10.5a1.125 1.125 0 0 1 1.125 1.125v10.5Z"></path>
</svg>