<svg fill="currentColor" viewBox="0 0 24 24" xmlns="http://www.w3.org/2000/svg">
  <path d="M11.988 5.25a2.625 2.625 0 1 0 0-5.25 2.625 2.625 0 0 0 0 5.25Z"></path>
  <path d="M14.545 8.972h.003l.359-.107 1.724 5.746 2.156-.647-.76-2.538c0-.006 0-.011-.003-.017l-.79-2.63-.22-.739-.042-.14h-.002l-.118-.396A2.102 2.102 0 0 0 14.836 6H9.153a2.102 2.102 0 0 0-2.016 1.504L7.02 7.9h-.002l-.043.14-.22.738-.79 2.63c0 .007 0 .012-.003.018l-.76 2.538 2.156.647 1.724-5.746.353.105-2.484 8.28h2.414V24h2.438v-6.75h.375V24h2.437v-6.75h2.415l-2.484-8.278Z"></path>
</svg>