<svg fill="none" stroke="currentColor" stroke-linejoin="round" stroke-width="1" viewBox="0 0 24 24" xmlns="http://www.w3.org/2000/svg">
  <path d="M12 4.5a1.875 1.875 0 1 0 0-3.75 1.875 1.875 0 0 0 0 3.75Z"></path>
  <path d="M9.574 12.868c.135-.847.196-1.665-.024-2.231-.187-.487-.595-.759-1.087-.945L4.125 8.29C3.563 8.102 3.037 7.787 3 7.167a1.071 1.071 0 0 1 1.36-1.125s4.125 1.46 7.64 1.46c3.516 0 7.594-1.454 7.594-1.454C20.438 5.814 21 6.47 21 7.164c0 .666-.515.9-1.125 1.122L15.75 9.782c-.375.14-.984.421-1.219.852-.28.504-.234 1.384-.098 2.23l.277 1.39 1.753 7.682c.131.617-.295 1.193-.91 1.3-.613.108-1.115-.31-1.297-.907l-1.76-5.434c-.085-.26-.16-.524-.226-.791l-.27-1.1-.248 1.014c-.079.324-.17.644-.272.96l-1.73 5.346c-.187.603-.68 1.02-1.293.912-.615-.107-1.05-.73-.913-1.3l1.753-7.68.277-1.388Z"></path>
</svg>