<svg fill="none" stroke="currentColor" stroke-linecap="round" stroke-linejoin="round" stroke-width="1" viewBox="0 0 24 24" xmlns="http://www.w3.org/2000/svg">
  <path d="M19.112 10.5c-.16 0-.693.005-.844.014l-3.042.08a.086.086 0 0 1-.08-.042L9.074 3.167A.422.422 0 0 0 8.76 3H7.5l3.421 7.547a.11.11 0 0 1-.008.108.11.11 0 0 1-.098.049l-5.704.084a.377.377 0 0 1-.31-.145l-1.734-2.11c-.14-.182-.404-.28-.633-.28H1.55c-.06 0-.052.056-.035.113l.93 3.348c.07.18.07.379 0 .558l-.931 3.337c-.028.092-.025.141.083.141h.84c.381 0 .433-.05.628-.295l1.767-2.143a.384.384 0 0 1 .31-.145l5.657.127a.126.126 0 0 1 .114.175L7.5 21h1.25a.423.423 0 0 0 .312-.166l6.086-7.38c.019-.029.094-.043.126-.043l2.996.08c.154.009.684.014.844.014 2.075 0 3.387-.57 3.387-1.505 0-.934-1.307-1.5-3.388-1.5Z"></path>
</svg>