<svg fill="none" stroke="currentColor" stroke-linecap="round" stroke-linejoin="round" stroke-width="1" viewBox="0 0 24 24" xmlns="http://www.w3.org/2000/svg">
  <path d="M19.504 12.75a7.5 7.5 0 1 0-14.999 0 7.5 7.5 0 0 0 14.999 0Z"></path>
  <path d="M6.663 4.275A2.188 2.188 0 0 0 5.25 3.75l-.131.004C3.922 3.826 3 4.875 3.004 6.14c0 .619.218.908.51 1.276a.213.213 0 0 0 .152.083h.041a.151.151 0 0 0 .12-.061L6.674 4.64a.252.252 0 0 0-.012-.366v0Z"></path>
  <path d="M17.339 4.275a2.187 2.187 0 0 1 1.412-.525l.13.004c1.198.072 2.12 1.121 2.116 2.387 0 .619-.218.908-.51 1.276a.212.212 0 0 1-.151.083h-.042a.152.152 0 0 1-.119-.062l-2.848-2.797a.251.251 0 0 1 .012-.366v0Z"></path>
  <path d="M12.004 7.5v5.25h-3.75"></path>
  <path d="m19.504 20.25-1.875-1.875"></path>
  <path d="m4.504 20.25 1.875-1.875"></path>
</svg>