<svg fill="none" stroke="currentColor" stroke-linecap="round" stroke-linejoin="round" stroke-width="1" viewBox="0 0 24 24" xmlns="http://www.w3.org/2000/svg">
  <path d="M1.5 1.5v20.25a.75.75 0 0 0 .75.75H22.5"></path>
  <path d="M7.313 10.5H5.438a.937.937 0 0 0-.938.938v7.124c0 .518.42.938.938.938h1.875c.517 0 .937-.42.937-.938v-7.125a.937.937 0 0 0-.938-.937Z"></path>
  <path d="M14.063 8.25h-1.876a.937.937 0 0 0-.937.938v9.374c0 .518.42.938.938.938h1.874c.518 0 .938-.42.938-.938V9.188a.937.937 0 0 0-.938-.937Z"></path>
  <path d="M20.795 5.25H18.92a.938.938 0 0 0-.938.938v12.375c0 .517.42.937.938.937h1.875c.518 0 .937-.42.937-.938V6.188a.937.937 0 0 0-.937-.937Z"></path>
</svg>