<svg fill="none" stroke="currentColor" stroke-linecap="round" stroke-linejoin="round" stroke-width="1" viewBox="0 0 24 24" xmlns="http://www.w3.org/2000/svg">
  <path d="M2.25 12h19.5"></path>
  <path d="M19.5 6.75a.75.75 0 0 0-1.5 0v10.5a.75.75 0 0 0 1.5 0V6.75Z"></path>
  <path d="M6 6.75a.75.75 0 0 0-1.5 0v10.5a.75.75 0 0 0 1.5 0V6.75Z"></path>
  <path d="M2.25 9.375a.375.375 0 1 0-.75 0v5.25a.375.375 0 0 0 .75 0v-5.25Z"></path>
  <path d="M22.5 9.375a.375.375 0 0 0-.75 0v5.25a.375.375 0 0 0 .75 0v-5.25Z"></path>
</svg>