<svg fill="none" stroke="currentColor" stroke-linecap="round" stroke-linejoin="round" stroke-width="1" viewBox="0 0 24 24" xmlns="http://www.w3.org/2000/svg">
  <path d="m13.792 5.094-2.839.824"></path>
  <path d="m14.865 7.32-2.414 1.707"></path>
  <path d="m16.683 9.133-1.706 2.414"></path>
  <path d="m18.909 10.203-.825 2.84"></path>
  <path d="M12 21a9 9 0 1 0 0-18 9 9 0 0 0 0 18Z"></path>
  <path d="M20.294 11.955a9 9 0 0 1-8.265-8.47"></path>
  <path d="m5.088 13.792.824-2.839"></path>
  <path d="m7.314 14.867 1.707-2.414"></path>
  <path d="m9.13 16.683 2.415-1.706"></path>
  <path d="m10.205 18.91 2.84-.824"></path>
  <path d="M11.953 20.324a9 9 0 0 0-8.47-8.293"></path>
</svg>