<svg fill="none" stroke="currentColor" stroke-linecap="round" stroke-linejoin="round" stroke-width="1" viewBox="0 0 24 24" xmlns="http://www.w3.org/2000/svg">
  <path d="M16.5 9.375v11.25a1.88 1.88 0 0 1-1.875 1.875h-8.25A1.88 1.88 0 0 1 4.5 20.625V10.5"></path>
  <path d="M16.5 10.5h1.875A2.633 2.633 0 0 1 21 13.125v3.75a2.633 2.633 0 0 1-2.625 2.625H16.5"></path>
  <path d="M10.5 12v7.5"></path>
  <path d="M13.5 12v7.5"></path>
  <path d="M7.5 12v7.5"></path>
  <path d="M15 5.25a2.25 2.25 0 0 1 0 4.5c-.621 0-1.374-.343-1.781-.75H7.5c-.375 1.031-1.266 1.5-2.25 1.5a2.25 2.25 0 0 1 0-4.5c.439.018.862.165 1.219.422"></path>
  <path d="M4.305 6.207A1.875 1.875 0 1 1 7.14 3.769s.36.496.36.73"></path>
  <path d="M6.836 3.033C7.65 2.104 8.793 1.5 10.126 1.5c2.455 0 4.405 2.008 4.405 4.463 0 .28-.026.559-.078.834"></path>
</svg>