<svg fill="none" stroke="currentColor" stroke-linecap="round" stroke-linejoin="round" stroke-width="1" viewBox="0 0 24 24" xmlns="http://www.w3.org/2000/svg">
  <path d="M21.653 12.237c-.094-.223-.315-.367-.547-.445L12.332 8.3a1.115 1.115 0 0 0-.664 0l-8.766 3.493c-.234.073-.46.223-.554.447-.092.223-.137.439-.046.706l2.18 5.585a.349.349 0 0 0 .35.218c1.252-.079 2.36-.714 3.206-1.523a.359.359 0 0 1 .492 0c.905.867 2.11 1.523 3.47 1.523 1.36 0 2.557-.656 3.463-1.525a.36.36 0 0 1 .492 0c.847.81 1.955 1.446 3.206 1.525a.35.35 0 0 0 .35-.216l2.188-5.586c.093-.224.047-.488-.046-.711Z"></path>
  <path fill="currentColor" stroke="none" d="M19.499 22.177a.32.32 0 0 0-.167-.281c-1.27-.682-2.427-1.726-2.936-2.25a.471.471 0 0 0-.596-.07c-2.36 1.519-5.232 1.52-7.591.002a.473.473 0 0 0-.601.073c-.505.528-1.65 1.56-2.927 2.238a.335.335 0 0 0-.182.268.315.315 0 0 0 .371.336c.978-.196 1.922-.642 2.822-1.117a.408.408 0 0 1 .375-.003 8.677 8.677 0 0 0 7.87 0 .415.415 0 0 1 .379.004c.895.468 1.838.918 2.812 1.115a.315.315 0 0 0 .373-.314h-.002Z"></path>
  <path d="M15 4.5V3.375a1.128 1.128 0 0 0-1.125-1.125h-3.75A1.128 1.128 0 0 0 9 3.375V4.5"></path>
  <path d="M19.5 10.922V6.75a2.256 2.256 0 0 0-2.25-2.25H6.75A2.257 2.257 0 0 0 4.5 6.75v4.313"></path>
  <path d="M12 8.61v9.977"></path>
</svg>