<svg fill="none" stroke="currentColor" stroke-width="1" viewBox="0 0 24 24" xmlns="http://www.w3.org/2000/svg">
  <path d="M12 4.5a1.875 1.875 0 1 0 0-3.75 1.875 1.875 0 0 0 0 3.75Z"></path>
  <path d="m9.342 13.856-1.425 8.072a1.125 1.125 0 0 0 1.752 1.116 1.115 1.115 0 0 0 .456-.727l.984-5.62v.01s.244-1.524.82-1.524h.146c.586 0 .82 1.523.82 1.523v-.004l.985 5.62a1.121 1.121 0 1 0 2.207-.394l-1.425-8.072-.23-1.392c-.135-.848-.196-2.231.024-2.798.188-.488.663-.666 1.088-.666h4.331a1.125 1.125 0 1 0 0-2.25H4.125a1.125 1.125 0 0 0 0 2.25h4.336c.433 0 .9.178 1.087.666.22.567.16 1.95.024 2.798l-.23 1.392Z"></path>
</svg>