<svg fill="none" stroke="currentColor" stroke-linecap="round" stroke-width="1" viewBox="0 0 24 24" xmlns="http://www.w3.org/2000/svg">
  <path fill="currentColor" stroke="none" d="M12.815 17.263a.862.862 0 0 0-.87-.77.874.874 0 0 0-.853.66l-.853 4.143a1.677 1.677 0 0 0-.044.37c0 .934.782 1.583 1.75 1.583s1.75-.649 1.75-1.583c0-.15-.02-.299-.06-.443l-.82-3.96Z"></path>
  <path fill="currentColor" stroke="none" d="M19.268 19.116a1.954 1.954 0 0 0-.279-.204l-3.259-2.278c-.317-.199-.656-.193-.902.047a.634.634 0 0 0-.094.806l2.461 3.235c.056.078.119.152.188.22.426.476 1.372.503 1.892 0 .513-.512.507-1.423-.007-1.826Z"></path>
  <path fill="currentColor" stroke="none" d="M21.717 15.742h-3.3c-.214 0-.417.157-.417.383 0 .225.138.368.324.43l3.114.962c.453.106 1.062-.297 1.062-.8 0-.641-.356-.975-.783-.975Z"></path>
  <path fill="currentColor" stroke="none" d="M6.01 16.125c0-.235-.213-.383-.443-.383h-3.3c-.416 0-.767.45-.767.953 0 .503.592.93 1.045.824l3.161-.963c.206-.062.304-.197.304-.431Z"></path>
  <path fill="currentColor" stroke="none" d="m8.275 16.637-3.26 2.268a1.514 1.514 0 0 0-.281.204 1.234 1.234 0 0 0 0 1.807 1.378 1.378 0 0 0 2.079-.22l2.463-3.215a.618.618 0 0 0-.094-.8.703.703 0 0 0-.907-.044Z"></path>
  <path d="M17.25 5.864c0-2.611-2.306-4.18-4.415-4.363a.375.375 0 0 0-.407.362c-.146 3.562-5.127 5.188-5.619 8.375-.328 2.129.78 3.393 1.608 4.021a.747.747 0 0 0 1.122-.263c1.055-2.15 3.484-2.976 5.143-4.028 2.01-1.275 2.569-2.646 2.569-4.104Z"></path>
  <path d="M11.25 4.483C10.65 3.405 9.82 3.03 8.477 3a.18.18 0 0 0-.19.165C8.242 4.769 6.75 5.267 6.75 6.594c0 .908.253 1.36.804 1.841"></path>
  <path d="M16.521 8.383c.403.67.729 1.41.729 2.25 0 2.462-1.99 4.364-4.447 4.364a4.426 4.426 0 0 1-3.053-1.219"></path>
</svg>