<svg fill="none" stroke="currentColor" stroke-linecap="round" stroke-linejoin="round" stroke-width="1" viewBox="0 0 24 24" xmlns="http://www.w3.org/2000/svg">
  <path d="M20.25 6H3.75A2.25 2.25 0 0 0 1.5 8.25v10.5A2.25 2.25 0 0 0 3.75 21h16.5a2.25 2.25 0 0 0 2.25-2.25V8.25A2.25 2.25 0 0 0 20.25 6Z"></path>
  <path d="M6.75 6V4.5A1.5 1.5 0 0 1 8.25 3h7.5a1.5 1.5 0 0 1 1.5 1.5V6"></path>
  <path d="M22.5 11.25h-21"></path>
  <path d="M15 11.25v1.125a.375.375 0 0 1-.375.375h-5.25A.375.375 0 0 1 9 12.375V11.25"></path>
</svg>