<svg fill="none" stroke="currentColor" stroke-linecap="round" stroke-linejoin="round" stroke-width="1" viewBox="0 0 24 24" xmlns="http://www.w3.org/2000/svg">
  <path d="M17.344 17.719c1.354 1.102 2.156 2.16 2.156 4.031"></path>
  <path d="M6.656 17.719C5.302 18.82 4.5 19.878 4.5 21.75"></path>
  <path d="M18 9.75c1.354-1.102 1.5-2.628 1.5-4.5"></path>
  <path d="M6 9.656C4.646 8.554 4.5 7.122 4.5 5.25"></path>
  <path d="M21.75 13.508H18"></path>
  <path d="M6 13.508H2.25"></path>
  <path d="M12 9v12"></path>
  <path d="M12 21.003c-3.3 0-6-2.7-6-6V10.5C6 7.45 8.7 6 12 6s6 1.2 6 4.5v4.503c0 3.3-2.7 6-6 6Z"></path>
  <path d="M8.41 6.728a2.3 2.3 0 0 1-.16-.738 3.75 3.75 0 0 1 3.74-3.74h.02a3.75 3.75 0 0 1 3.74 3.74c-.01.23-.059.457-.146.67"></path>
</svg>