<svg fill="none" stroke="currentColor" stroke-linecap="round" stroke-linejoin="round" stroke-width="1" viewBox="0 0 24 24" xmlns="http://www.w3.org/2000/svg">
  <path d="M18.75 5.25H5.25a1.5 1.5 0 0 0-1.5 1.5v6a1.5 1.5 0 0 0 1.5 1.5h13.5a1.5 1.5 0 0 0 1.5-1.5v-6a1.5 1.5 0 0 0-1.5-1.5Z"></path>
  <path d="M18.75 14.25H5.25a1.5 1.5 0 0 0-1.5 1.5v3a1.5 1.5 0 0 0 1.5 1.5h13.5a1.5 1.5 0 0 0 1.5-1.5v-3a1.5 1.5 0 0 0-1.5-1.5Z"></path>
  <path d="M18.75 5.25H5.25a1.504 1.504 0 0 1-1.5-1.5v0a1.504 1.504 0 0 1 1.5-1.5h13.5a1.504 1.504 0 0 1 1.5 1.5v0a1.504 1.504 0 0 1-1.5 1.5v0Z"></path>
  <path d="M6.75 20.25v1.031a.469.469 0 0 1-.469.469H4.97a.469.469 0 0 1-.469-.469V20.25h2.25Z"></path>
  <path d="M19.5 20.25v1.031a.469.469 0 0 1-.469.469H17.72a.469.469 0 0 1-.469-.469V20.25h2.25Z"></path>
  <path d="M17.25 18a.75.75 0 1 0 0-1.5.75.75 0 0 0 0 1.5Z"></path>
  <path d="M6.75 18a.75.75 0 1 0 0-1.5.75.75 0 0 0 0 1.5Z"></path>
  <path d="M12 5.25v9"></path>
  <path d="M3.75 3.75v13.5"></path>
  <path d="M20.25 3.75v13.5"></path>
</svg>