<svg fill="none" stroke="currentColor" stroke-linecap="round" stroke-linejoin="round" stroke-width="1" viewBox="0 0 24 24" xmlns="http://www.w3.org/2000/svg">
  <path d="M17.25 2.25H6.75a1.5 1.5 0 0 0-1.5 1.5v16.5a1.5 1.5 0 0 0 1.5 1.5h10.5a1.5 1.5 0 0 0 1.5-1.5V3.75a1.5 1.5 0 0 0-1.5-1.5Z"></path>
  <path d="M16.5 5.25h-9v3h9v-3Z"></path>
  <path fill="currentColor" stroke="none" d="M7.875 12.75a1.125 1.125 0 1 0 0-2.25 1.125 1.125 0 0 0 0 2.25Z"></path>
  <path fill="currentColor" stroke="none" d="M12 12.75a1.125 1.125 0 1 0 0-2.25 1.125 1.125 0 0 0 0 2.25Z"></path>
  <path fill="currentColor" stroke="none" d="M16.125 12.75a1.125 1.125 0 1 0 0-2.25 1.125 1.125 0 0 0 0 2.25Z"></path>
  <path fill="currentColor" stroke="none" d="M7.875 16.5a1.125 1.125 0 1 0 0-2.25 1.125 1.125 0 0 0 0 2.25Z"></path>
  <path fill="currentColor" stroke="none" d="M12 16.5a1.125 1.125 0 1 0 0-2.25 1.125 1.125 0 0 0 0 2.25Z"></path>
  <path fill="currentColor" stroke="none" d="M7.875 20.25a1.125 1.125 0 1 0 0-2.25 1.125 1.125 0 0 0 0 2.25Z"></path>
  <path fill="currentColor" stroke="none" d="M12 20.25A1.125 1.125 0 1 0 12 18a1.125 1.125 0 0 0 0 2.25Z"></path>
  <path fill="currentColor" stroke="none" d="M17.25 15.375a1.125 1.125 0 0 0-2.25 0v3.75a1.125 1.125 0 0 0 2.25 0v-3.75Z"></path>
</svg>