<svg fill="none" stroke="currentColor" stroke-linecap="round" stroke-linejoin="round" stroke-width="1" viewBox="0 0 24 24" xmlns="http://www.w3.org/2000/svg">
  <path d="M19.5 3.75h-15A2.25 2.25 0 0 0 2.25 6v13.5a2.25 2.25 0 0 0 2.25 2.25h15a2.25 2.25 0 0 0 2.25-2.25V6a2.25 2.25 0 0 0-2.25-2.25Z"></path>
  <path d="M6 2.25v1.5"></path>
  <path d="M18 2.25v1.5"></path>
  <path d="M21.75 7.5H2.25"></path>
  <path d="m14.25 12.188 2.035-1.5h.215v7.874"></path>
  <path d="M8.995 14.373c.427 0 1.209-.2 1.721-.725a1.777 1.777 0 0 0 .522-1.278c0-1.224-1.06-1.87-2.245-1.87-1.003 0-1.571.544-1.774.887"></path>
  <path d="M6.984 17.54c.23.388.924 1.212 2.057 1.212 1.34 0 2.443-.747 2.443-2.054 0-.592-.171-1.125-.542-1.504-.58-.592-1.465-.819-1.948-.819"></path>
</svg>