<svg fill="none" stroke="currentColor" stroke-linecap="round" stroke-linejoin="round" stroke-width="1" viewBox="0 0 24 24" xmlns="http://www.w3.org/2000/svg">
  <path d="M22.017 10.997c-.343-.456-1.62-.77-2.16-1.591-.54-.82-.982-2.598-2.356-3.281C16.127 5.442 13.5 5.25 12 5.25s-4.125.188-5.501.873c-1.377.686-1.817 2.462-2.357 3.282-.54.819-1.816 1.136-2.16 1.592-.343.456-.585 3.34-.438 4.753.147 1.414.422 2.25.422 2.25h4.031c.66 0 .875-.248 2.225-.375A43.135 43.135 0 0 1 12 17.437c.844 0 2.344.047 3.824.188 1.35.128 1.572.375 2.225.375h3.984s.275-.836.422-2.25c.147-1.414-.096-4.297-.438-4.753Z"></path>
  <path d="M21.375 18H18.75v.75h2.625V18Z"></path>
  <path d="M5.25 18H2.625v.75H5.25V18Z"></path>
  <path fill="currentColor" stroke="none" d="M17.084 14.492c-.276-.32-1.18-.588-2.375-.767-1.195-.179-1.63-.225-2.7-.225-1.068 0-1.555.077-2.7.226-1.146.148-2.006.412-2.375.766-.553.536.258 1.138.894 1.211.617.07 1.85.045 4.186.045 2.337 0 3.57.025 4.187-.045.636-.077 1.388-.637.883-1.211Z"></path>
  <path fill="currentColor" stroke="none" d="M20.23 11.395a.151.151 0 0 0-.146-.14c-.553-.02-1.115.019-2.112.313a4.4 4.4 0 0 0-1.41.706c-.107.083-.07.309.065.333a21.34 21.34 0 0 0 2.476.145c.496 0 1.009-.14 1.104-.583.048-.255.056-.517.023-.774Z"></path>
  <path fill="currentColor" stroke="none" d="M3.77 11.395a.151.151 0 0 1 .146-.14c.553-.02 1.115.019 2.112.313a4.4 4.4 0 0 1 1.41.706c.107.083.07.309-.065.333a21.34 21.34 0 0 1-2.476.145c-.496 0-1.009-.14-1.104-.583a2.457 2.457 0 0 1-.023-.774Z"></path>
  <path d="M20.25 9H21"></path>
  <path d="M3 9h.75"></path>
  <path d="M3.656 9.89S5.83 9.329 12 9.329c6.171 0 8.344.563 8.344.563"></path>
</svg>