<svg fill="none" stroke="currentColor" stroke-linejoin="round" stroke-width="1" viewBox="0 0 24 24" xmlns="http://www.w3.org/2000/svg">
  <path d="M22.125 4.5h-2.25a.375.375 0 0 0-.375.375v14.25c0 .207.168.375.375.375h2.25a.375.375 0 0 0 .375-.375V4.875a.375.375 0 0 0-.375-.375Z"></path>
  <path d="M16.125 8.25h-2.25a.375.375 0 0 0-.375.375v10.5c0 .207.168.375.375.375h2.25a.375.375 0 0 0 .375-.375v-10.5a.375.375 0 0 0-.375-.375Z"></path>
  <path d="M10.125 11.25h-2.25a.375.375 0 0 0-.375.375v7.5c0 .207.168.375.375.375h2.25a.375.375 0 0 0 .375-.375v-7.5a.375.375 0 0 0-.375-.375Z"></path>
  <path d="M4.125 14.25h-2.25a.375.375 0 0 0-.375.375v4.5c0 .207.168.375.375.375h2.25a.375.375 0 0 0 .375-.375v-4.5a.375.375 0 0 0-.375-.375Z"></path>
</svg>