<svg fill="none" stroke="currentColor" stroke-linecap="round" stroke-width="1" viewBox="0 0 24 24" xmlns="http://www.w3.org/2000/svg">
  <path d="M4.101 17.813c.056-.206-.067-.491-.185-.697a2.108 2.108 0 0 0-.12-.178 9.366 9.366 0 0 1-1.546-5.156C2.234 6.52 6.597 2.25 11.992 2.25c4.705 0 8.633 3.26 9.55 7.587a9.32 9.32 0 0 1 .208 1.952c0 5.269-4.195 9.606-9.59 9.606-.858 0-2.016-.216-2.647-.393a17.713 17.713 0 0 1-1.425-.474A1.458 1.458 0 0 0 7 20.545l-3.18 1.148a.751.751 0 0 1-.218.057.45.45 0 0 1-.449-.457.744.744 0 0 1 .028-.154l.92-3.326Z"></path>
</svg>