<svg fill="none" stroke="currentColor" stroke-linecap="round" stroke-linejoin="round" stroke-width="1" viewBox="0 0 24 24" xmlns="http://www.w3.org/2000/svg">
  <path d="M18.202 12.75c2.238 0 4.208-1.302 5.048-3.23-.666.29-1.448.403-2.22.403a5.452 5.452 0 0 1-5.453-5.452c0-.773.114-1.555.404-2.221-1.93.84-3.231 2.81-3.231 5.048 0 .445.054.889.161 1.32"></path>
  <path d="M4.247 14.384a.753.753 0 0 0 .628-.622c.567-3.442 3.076-5.512 6-5.512 2.716 0 4.53 1.77 5.26 3.644a.742.742 0 0 0 .571.463C19.05 12.739 21 14.304 21 17.025c0 2.784-2.278 4.725-5.063 4.725H4.97c-2.32 0-4.219-1.158-4.219-3.712 0-2.273 1.813-3.386 3.497-3.654Z"></path>
</svg>