<svg fill="none" stroke="currentColor" stroke-width="1" viewBox="0 0 24 24" xmlns="http://www.w3.org/2000/svg">
  <path fill="currentColor" stroke="none" d="M15.65 11.278a.375.375 0 0 1-.312-.313c-.306-1.928-1.706-3.09-3.338-3.09-1.518 0-2.528.995-2.929 2.043a.372.372 0 0 1-.289.234c-1.297.204-2.382 1.058-2.407 2.546-.024 1.477 1.196 2.676 2.672 2.676h6.234c1.29 0 2.344-.643 2.344-2.062 0-1.276-1.031-1.894-1.975-2.034Z"></path>
  <path d="M21 12c0-4.969-4.031-9-9-9s-9 4.031-9 9 4.031 9 9 9 9-4.031 9-9Z"></path>
</svg>