<svg fill="none" stroke="currentColor" stroke-width="1" viewBox="0 0 24 24" xmlns="http://www.w3.org/2000/svg">
  <path d="M19.645 15.818a.184.184 0 0 0-.286 0c-.492.581-2.109 2.182-2.109 3.64 0 1.266 1.008 2.292 2.25 2.292s2.25-1.031 2.25-2.292c0-1.458-1.608-3.059-2.105-3.64Z"></path>
  <path d="m9.782 5.206 8.359 8.292a.306.306 0 0 1-.214.525h-.014c-.492 0-1.074.061-1.346.333-.393.394-4.167 4.045-5.939 5.76a1.315 1.315 0 0 1-1.823.006l-6.15-5.907a1.313 1.313 0 0 1-.014-1.875l4.498-4.493 2.643-2.641Z"></path>
  <path d="M9.782 5.206 7.294 2.74a1.688 1.688 0 0 0-2.39 0l-.242.24a1.688 1.688 0 0 0 0 2.392L7.14 7.847"></path>
</svg>