<svg fill="none" stroke="currentColor" stroke-linecap="round" stroke-linejoin="round" stroke-width="1" viewBox="0 0 24 24" xmlns="http://www.w3.org/2000/svg">
  <path d="M20.47 8.63a1.274 1.274 0 0 1-1.796 0l-1.053-1.055a1.272 1.272 0 0 1 0-1.795l2.385-2.385a.04.04 0 0 0 .003-.053.04.04 0 0 0-.015-.012c-1.54-.659-3.536-.324-4.803.935-1.213 1.204-1.282 3.013-.838 4.594a1.266 1.266 0 0 1-.36 1.272l-8.109 7.535a1.911 1.911 0 1 0 2.699 2.698l7.6-8.124a1.266 1.266 0 0 1 1.255-.36c1.569.418 3.351.34 4.55-.842 1.29-1.269 1.567-3.512.943-4.796a.04.04 0 0 0-.03-.022.04.04 0 0 0-.034.011L20.47 8.63Z"></path>
  <path d="M10.5 13.311c-.819-.797-1.194-1.168-1.453-1.42a.855.855 0 0 1-.156-1c.045-.08.1-.153.164-.217l.735-.717a.849.849 0 0 1 1.201-.012l1.567 1.525"></path>
  <path d="M14.863 13.656c1.92 1.786 4.248 3.903 5.157 4.66a.63.63 0 0 1 .044.934l-1.565 1.564a.655.655 0 0 1-.951-.036c-.775-.899-2.864-3.145-4.653-5.015"></path>
  <path d="M.813 9.07 2.19 7.723a.22.22 0 0 1 .16-.063.23.23 0 0 1 .16.063v0a.462.462 0 0 0 .384.13c.18-.02.371-.075.496-.193.28-.272-.045-.808.203-1.15.283-.376.593-.73.927-1.06.281-.275 1.399-1.327 3.277-2.083A5.03 5.03 0 0 1 9.688 3c1.059 0 1.875.469 2.168.735.176.167.338.35.482.545a3.699 3.699 0 0 0-.432-.13 3.226 3.226 0 0 0-.937-.059c-.625.051-1.379.34-1.781.656-.652.516-.932 1.206-.976 2.096-.032.662.128 1.036 1.692 2.601a.31.31 0 0 1-.016.43l-.854.843a.322.322 0 0 1-.447.005C7.56 9.693 6.87 9.17 6.477 8.933c-.39-.238-.706-.305-.857-.321a1.446 1.446 0 0 0-.857.181.534.534 0 0 0-.123.094.663.663 0 0 0 .02.941l.08.075a.217.217 0 0 1 0 .311L3.362 11.56a.221.221 0 0 1-.16.066.228.228 0 0 1-.16-.063L.813 9.385a.229.229 0 0 1 0-.315v0Z"></path>
</svg>