<svg fill="none" stroke="currentColor" stroke-linecap="round" stroke-linejoin="round" stroke-width="1" viewBox="0 0 24 24" xmlns="http://www.w3.org/2000/svg">
  <path d="M4.875 9.75a2.625 2.625 0 1 0 0-5.25 2.625 2.625 0 0 0 0 5.25Z"></path>
  <path d="M4.875 19.5a2.625 2.625 0 1 0 0-5.25 2.625 2.625 0 0 0 0 5.25Z"></path>
  <path d="m7.36 8.203-.516.703 1.734.703s.162-.3.328-.468L7.36 8.203Z"></path>
  <path d="m7.227 15.678 14.336-8.083c-.117-.314-1.312-.563-3-.188-1.365.304-5.68 1.362-7.46 2.628C9.65 11.066 10.64 12.75 9 13.97c-1.2.89-2.083 1.07-2.083 1.07l.31.638Z"></path>
  <path d="m16.147 13.04-2.319 1.332c.667.316 3.072 1.56 5.485 1.703.699.041 1.406.018 1.828-.282l-4.994-2.754Z"></path>
  <path d="M12 12.75a1.5 1.5 0 1 0 0-3 1.5 1.5 0 0 0 0 3Z"></path>
</svg>