<svg fill="none" stroke="currentColor" stroke-linecap="round" stroke-linejoin="round" stroke-width="1" viewBox="0 0 24 24" xmlns="http://www.w3.org/2000/svg">
  <path d="m1.66 8.822 9.74 12.631a.758.758 0 0 0 1.202 0l9.739-12.63a.774.774 0 0 0 .044-.88l-3.303-5.332a.76.76 0 0 0-.647-.361H5.565a.76.76 0 0 0-.646.361L1.616 7.943a.774.774 0 0 0 .044.88v0Z"></path>
  <path d="M2.25 8.25h19.5"></path>
  <path d="M18.75 3 16.5 8.25l-4.5-6"></path>
  <path d="M5.25 3 7.5 8.25l4.5-6"></path>
  <path d="M12 21 7.5 8.25"></path>
  <path d="m12 21 4.5-12.75"></path>
</svg>