<svg fill="none" stroke="currentColor" stroke-linecap="round" stroke-linejoin="round" stroke-width="1" viewBox="0 0 24 24" xmlns="http://www.w3.org/2000/svg">
  <path d="M21 16V7.996a1.5 1.5 0 0 0-.745-1.294L13.13 2.555a2.247 2.247 0 0 0-2.261 0L3.745 6.702A1.5 1.5 0 0 0 3 7.996V16a1.5 1.5 0 0 0 .745 1.295l7.125 4.147a2.25 2.25 0 0 0 2.261 0l7.125-4.147A1.499 1.499 0 0 0 21 16Z"></path>
  <path d="M3.234 7.219 12 12.375l8.766-5.156"></path>
  <path d="M12 21.75v-9.375"></path>
  <path fill="currentColor" stroke="none" d="M12 7.875c.621 0 1.125-.336 1.125-.75s-.504-.75-1.125-.75-1.125.336-1.125.75.504.75 1.125.75Z"></path>
  <path fill="currentColor" stroke="none" d="M9.75 15c.414 0 .75-.504.75-1.125s-.336-1.125-.75-1.125-.75.504-.75 1.125S9.336 15 9.75 15Z"></path>
  <path fill="currentColor" stroke="none" d="M5.25 16.5c.414 0 .75-.504.75-1.125s-.336-1.125-.75-1.125-.75.504-.75 1.125.336 1.125.75 1.125Z"></path>
  <path fill="currentColor" stroke="none" d="M14.25 15c.414 0 .75-.504.75-1.125s-.336-1.125-.75-1.125-.75.504-.75 1.125.336 1.125.75 1.125Z"></path>
  <path fill="currentColor" stroke="none" d="M18.75 12.375c.414 0 .75-.504.75-1.125s-.336-1.125-.75-1.125-.75.504-.75 1.125.336 1.125.75 1.125Z"></path>
  <path fill="currentColor" stroke="none" d="M14.25 19.125c.414 0 .75-.504.75-1.125s-.336-1.125-.75-1.125-.75.504-.75 1.125.336 1.125.75 1.125Z"></path>
  <path fill="currentColor" stroke="none" d="M18.75 16.5c.414 0 .75-.504.75-1.125s-.336-1.125-.75-1.125-.75.504-.75 1.125.336 1.125.75 1.125Z"></path>
</svg>