<svg fill="none" stroke="currentColor" stroke-linecap="round" stroke-linejoin="round" stroke-width="1" viewBox="0 0 24 24" xmlns="http://www.w3.org/2000/svg">
  <path d="M15.75 12.381v8.056c0 1.14-.893 2.063-2.013 2.063H5.016C3.893 22.5 3 21.577 3 20.437V8.063A2.075 2.075 0 0 1 5.063 6h4.411a1.15 1.15 0 0 1 .82.345l5.117 5.203c.217.223.34.522.339.833v0Z"></path>
  <path d="M9.375 6v5.063a1.328 1.328 0 0 0 1.313 1.312h5.062"></path>
  <path d="M8.25 6V3.562A2.075 2.075 0 0 1 10.313 1.5h4.406a1.164 1.164 0 0 1 .825.345l5.117 5.203c.217.22.34.517.339.827v8.063C21 17.076 20.107 18 18.987 18h-2.862"></path>
  <path d="M14.625 1.5v5.063a1.328 1.328 0 0 0 1.313 1.312H21"></path>
</svg>