<svg fill="none" stroke="currentColor" stroke-linecap="round" stroke-linejoin="round" stroke-width="1" viewBox="0 0 24 24" xmlns="http://www.w3.org/2000/svg">
  <path d="M15.737 15.504C17.894 14.04 19.5 11.782 19.5 9a7.5 7.5 0 0 0-15 0v9.683c0 2.075 1.675 3.817 3.75 3.817s3.133-1.216 3.623-1.875c.692-.929 1.955-3.823 3.864-5.12Z"></path>
  <path d="M7.5 14.25V8.625C7.5 6.356 9.525 4.5 12 4.5s4.5 1.856 4.5 4.125"></path>
  <path d="M7.5 11.204c1.172-.844 3.742-.703 3.742-.703 1.218 0 1.93 1.379 1.218 2.372 0 0-1.728 1.987-1.962 2.878"></path>
</svg>