<svg fill="none" stroke="currentColor" stroke-width="1" viewBox="0 0 24 24" xmlns="http://www.w3.org/2000/svg">
  <path d="M21.75 12c0-5.385-4.366-9.75-9.75-9.75A9.75 9.75 0 0 0 2.25 12c0 5.384 4.365 9.75 9.75 9.75 5.384 0 9.75-4.366 9.75-9.75Z"></path>
  <path fill="currentColor" stroke="none" d="M20.885 8.066c-.753.005-.678 1.394-1.616.738-.349-.242-.563-.595-1-.703-.382-.093-.774.004-1.151.07-.429.073-.938.107-1.263.431-.314.313-.48.733-.815 1.047-.648.61-.921 1.275-.502 2.136.403.829 1.246 1.278 2.156 1.219.894-.06 1.823-.578 1.797.72-.01.46.087.779.228 1.206.13.394.122.775.152 1.182.055.76.195 1.61.572 2.281l.703-.992c.086-.122.268-.295.31-.44.077-.256-.073-.696-.09-.984-.018-.287-.01-.578-.053-.866-.062-.402-.3-.78-.333-1.178-.06-.74.075-1.332-.496-1.952-.552-.598-1.36-.741-2.132-.62-.389.061-1.955.312-1.326-.578.124-.174.341-.318.48-.484.122-.145.228-.411.37-.524.143-.113.797-.243.984-.185.188.057.384.328.546.448.3.226.651.377 1.023.438.64.094 1.979-.278 1.968-1.1-.002-.393-.367-.941-.512-1.31Z"></path>
  <path fill="currentColor" stroke="none" d="M13.475 14.829c-.25-1.052-1.679-1.404-2.45-1.974-.443-.328-.837-.835-1.418-.876-.269-.02-.493.039-.759-.03-.244-.063-.435-.194-.695-.16-.485.063-.79.582-1.312.512-.495-.067-1.004-.645-1.117-1.117-.144-.605.335-.801.848-.855.215-.023.455-.047.66.031.272.1.4.366.643.5.456.25.548-.15.479-.554-.105-.607-.227-.854.314-1.272.375-.287.696-.496.636-1.013-.036-.303-.202-.44-.047-.743.118-.23.44-.438.651-.575.543-.355 2.327-.328 1.598-1.32-.214-.291-.609-.812-.984-.883-.469-.088-.677.435-1.004.665-.337.239-.994.51-1.332.14-.455-.495.301-.659.469-1.005.167-.346-.388-1.001-.685-1.167L6.572 4.7a1.946 1.946 0 0 0 .391 1.493c.278.358.72.473.74.961.02.469-.053.709-.36 1.039-.132.14-.225.34-.36.472-.166.16-.105.111-.363.155-.485.082-.899.209-1.368.338-.782.216-.854-1.061-1.21-1.562l-1.172.946c-.013.155.192.44.248.61.32.964.966 1.71 1.383 2.632.44.977 1.619.706 2.14 1.562.462.76-.032 1.72.314 2.516.251.577.844.703 1.252 1.125.418.426.41 1.009.473 1.564.072.652.188 1.298.35 1.934.056.22.108.51.258.692.103.125.457.232.314.274.2.032.556.219.722.082.22-.18.161-.734.199-.984.114-.746.487-1.474.99-2.032.498-.55 1.18-.923 1.6-1.547.409-.609.532-1.43.362-2.141Zm-1.565 1.233c-.281.502-.908.838-1.31 1.237-.11.109-.342.484-.479.403-.098-.059-.131-.545-.167-.657a2.867 2.867 0 0 0-1.018-1.404c-.146-.11-.51-.255-.594-.407-.094-.166-.01-.556-.006-.736.005-.263-.115-.7-.05-.938.075-.275-.07-.11.177-.163.13-.03.666.065.828.098.257.054.398.214.6.376.533.426 1.12.757 1.716 1.084.462.256.598.58.303 1.107Z"></path>
  <path fill="currentColor" stroke="none" d="M8.646 3.142c.223.217.432.474.763.495.314.021.61-.149.883.065.304.234.523.53.926.604.39.07.803-.157.9-.556.093-.38-.109-.794-.12-1.175 0-.053.028-.288-.009-.328-.027-.03-.254.004-.289.004a9.707 9.707 0 0 0-3.44.74c.114.078.257.11.386.15Z"></path>
  <path fill="currentColor" stroke="none" d="M16.706 5.774c.398 0 .802-.178.674-.638-.108-.386-.292-.804-.74-.596-.284.132-.687.468-.72.802-.038.379.52.432.786.432Z"></path>
  <path fill="currentColor" stroke="none" d="M16.389 7.795c.406.243 1.01.13 1.316-.218.24-.272.38-.744.811-.744.19 0 .372.074.507.207.178.184.143.357.181.588.085.518.64.03.785-.171.094-.131.221-.325.178-.495-.039-.16-.225-.328-.307-.474-.24-.422-.44-.913-.8-1.254-.348-.328-.774-.29-1.104.051-.27.281-.584.504-.768.846a.743.743 0 0 1-.541.418c-.146.034-.311.047-.433.144-.34.267-.147.91.175 1.102Z"></path>
</svg>