<svg fill="none" stroke="currentColor" stroke-width="1" viewBox="0 0 24 24" xmlns="http://www.w3.org/2000/svg">
  <path fill="currentColor" stroke="none" d="M12 13.219a1.219 1.219 0 1 0 0-2.438 1.219 1.219 0 0 0 0 2.438Z"></path>
  <path fill="currentColor" stroke="none" d="M12 17.438A1.219 1.219 0 1 0 12 15a1.219 1.219 0 0 0 0 2.438Z"></path>
  <path fill="currentColor" stroke="none" d="M12 9a1.219 1.219 0 1 0 0-2.438A1.219 1.219 0 0 0 12 9Z"></path>
  <path d="M21 12c0-4.969-4.031-9-9-9s-9 4.031-9 9 4.031 9 9 9 9-4.031 9-9Z"></path>
</svg>