<svg fill="none" stroke="currentColor" stroke-linecap="round" stroke-linejoin="round" stroke-width="1" viewBox="0 0 24 24" xmlns="http://www.w3.org/2000/svg">
  <path d="M19.39 11.536h-1.296a.093.093 0 0 1-.094-.094v-3.62A1.822 1.822 0 0 0 16.178 6h-3.62a.094.094 0 0 1-.094-.094V4.61c0-1.273-1.008-2.338-2.28-2.36a2.322 2.322 0 0 0-2.362 2.321v1.335A.094.094 0 0 1 7.728 6h-3.62A1.863 1.863 0 0 0 2.25 7.857v3.3a.094.094 0 0 0 .094.093h1.261c1.377 0 2.516 1.194 2.536 2.571.02 1.4-1.102 2.679-2.498 2.679h-1.3a.094.094 0 0 0-.093.094v3.299a1.863 1.863 0 0 0 1.857 1.857h3.3a.094.094 0 0 0 .093-.094v-.98c0-1.42 1.16-2.642 2.578-2.676 1.411-.032 2.672.952 2.672 2.357v1.3a.094.094 0 0 0 .094.093h3.334A1.822 1.822 0 0 0 18 19.928v-3.656a.094.094 0 0 1 .094-.094h1.335c1.295 0 2.321-1.062 2.321-2.362s-1.087-2.28-2.36-2.28Z"></path>
</svg>