<svg fill="none" stroke="currentColor" stroke-linecap="round" stroke-linejoin="round" stroke-width="1" viewBox="0 0 24 24" xmlns="http://www.w3.org/2000/svg">
  <path d="m12.305 9.57-9.024 9.022c-.583.584-1.031 3.155-1.031 3.155s2.55-.426 3.155-1.03l9.023-9.024"></path>
  <path d="M17.612 10.635 13.366 6.39a1.501 1.501 0 1 0-2.123 2.123l4.246 4.245a1.501 1.501 0 1 0 2.123-2.123Z"></path>
  <path d="M13.59 6.61s.964.401 1.745-.38l2.562-3.31c.867-.91 2.31-.876 3.185 0a2.23 2.23 0 0 1 0 3.184l-3.313 2.563c-.734.733-.379 1.744-.379 1.744"></path>
  <path d="M5.404 20.718s-1.24.813-2.088-.035c-.848-.847-.035-2.09-.035-2.09"></path>
</svg>