<svg fill="none" stroke="currentColor" stroke-linejoin="round" stroke-width="1" viewBox="0 0 24 24" xmlns="http://www.w3.org/2000/svg">
  <path d="M20.438 4.5H3.563c-.725 0-1.313.588-1.313 1.313v12.375c0 .724.588 1.312 1.313 1.312h16.875c.724 0 1.312-.588 1.312-1.313V5.813c0-.724-.588-1.312-1.313-1.312Z"></path>
  <path d="M20.438 15.75h-1.125c-.725 0-1.313.588-1.313 1.313v1.125c0 .724.588 1.312 1.313 1.312h1.125c.724 0 1.312-.588 1.312-1.313v-1.125c0-.724-.588-1.312-1.313-1.312Z"></path>
  <path d="M20.438 12h-1.125c-.725 0-1.313.588-1.313 1.313v1.124c0 .725.588 1.313 1.313 1.313h1.125c.724 0 1.312-.588 1.312-1.313v-1.124c0-.725-.588-1.313-1.313-1.313Z"></path>
  <path d="M20.438 8.25h-1.125c-.725 0-1.313.588-1.313 1.313v1.124c0 .725.588 1.313 1.313 1.313h1.125c.724 0 1.312-.588 1.312-1.313V9.563c0-.725-.588-1.313-1.313-1.313Z"></path>
  <path d="M20.438 4.5h-1.125C18.587 4.5 18 5.088 18 5.813v1.125c0 .724.588 1.312 1.313 1.312h1.125c.724 0 1.312-.588 1.312-1.313V5.813c0-.724-.588-1.312-1.313-1.312Z"></path>
  <path d="M4.688 15.75H3.563c-.725 0-1.313.588-1.313 1.313v1.125c0 .724.588 1.312 1.313 1.312h1.124C5.412 19.5 6 18.912 6 18.187v-1.125c0-.724-.588-1.312-1.313-1.312Z"></path>
  <path d="M4.688 12H3.563c-.725 0-1.313.588-1.313 1.313v1.124c0 .725.588 1.313 1.313 1.313h1.124c.725 0 1.313-.588 1.313-1.313v-1.124C6 12.588 5.412 12 4.687 12Z"></path>
  <path d="M4.688 8.25H3.563c-.725 0-1.313.588-1.313 1.313v1.124c0 .725.588 1.313 1.313 1.313h1.124C5.412 12 6 11.412 6 10.687V9.563c0-.725-.588-1.313-1.313-1.313Z"></path>
  <path d="M4.688 4.5H3.563c-.725 0-1.313.588-1.313 1.313v1.125c0 .724.588 1.312 1.313 1.312h1.124C5.412 8.25 6 7.662 6 6.937V5.813C6 5.088 5.412 4.5 4.687 4.5Z"></path>
  <path d="M16.688 4.5H7.313C6.588 4.5 6 5.088 6 5.813v4.875C6 11.412 6.588 12 7.313 12h9.375c.724 0 1.312-.588 1.312-1.313V5.814c0-.725-.588-1.313-1.313-1.313Z"></path>
  <path d="M16.688 12H7.313C6.588 12 6 12.588 6 13.313v4.874c0 .725.588 1.313 1.313 1.313h9.375c.724 0 1.312-.588 1.312-1.313v-4.875c0-.724-.588-1.312-1.313-1.312Z"></path>
</svg>