<svg fill="none" stroke="currentColor" stroke-linecap="round" stroke-width="1" viewBox="0 0 24 24" xmlns="http://www.w3.org/2000/svg">
  <path d="m21.405 7.634-5.04-5.039c-.616-.616-1.344-.336-1.96.281l-.56.563c-1.225 1.225-1.295 2.736-1.38 3.905-.041.574-.458 1.291-.867 1.7l-8.852 8.847c-.767.765-.595 1.848.175 2.617l.57.57c.767.767 1.848.946 2.619.176l8.851-8.85c.41-.41 1.125-.823 1.701-.868 1.166-.087 2.748-.227 3.903-1.382l.56-.56c.616-.616.896-1.344.28-1.96Z"></path>
  <path fill="currentColor" stroke="none" d="M10.531 14.406a.938.938 0 1 0 0-1.875.938.938 0 0 0 0 1.875Z"></path>
  <path d="m13.547 3.797 6.656 6.656"></path>
</svg>