<svg fill="none" stroke="currentColor" stroke-linecap="round" stroke-width="1" viewBox="0 0 24 24" xmlns="http://www.w3.org/2000/svg">
  <path d="M10.081 7.356c-.23-1.125-.505-2.638-.505-3.433A2.408 2.408 0 0 1 12 1.5v0a2.44 2.44 0 0 1 2.423 2.423c0 .773-.274 2.295-.505 3.433"></path>
  <path d="M10.081 16.64c-.23 1.128-.505 2.633-.505 3.433A2.408 2.408 0 0 0 12 22.496v0a2.44 2.44 0 0 0 2.423-2.423c0-.775-.274-2.293-.505-3.432"></path>
  <path d="M16.645 10.083c1.127-.23 2.632-.505 3.432-.505a2.407 2.407 0 0 1 2.423 2.423v0a2.44 2.44 0 0 1-2.423 2.423c-.773 0-2.294-.274-3.433-.505"></path>
  <path d="M7.356 10.083c-1.125-.23-2.637-.505-3.433-.505A2.407 2.407 0 0 0 1.5 12.001v0a2.44 2.44 0 0 0 2.423 2.423c.773 0 2.295-.274 3.433-.505"></path>
  <path d="M13.918 7.356c.635-.96 1.514-2.215 2.08-2.78a2.407 2.407 0 0 1 3.426 0v0a2.44 2.44 0 0 1 0 3.426c-.546.547-1.812 1.438-2.78 2.08"></path>
  <path d="M7.356 13.922c-.96.635-2.215 1.514-2.78 2.08a2.407 2.407 0 0 0 0 3.426 2.44 2.44 0 0 0 3.426 0c.547-.546 1.438-1.812 2.08-2.78"></path>
  <path d="M16.644 13.922c.96.635 2.215 1.514 2.78 2.08a2.408 2.408 0 0 1 0 3.426v0a2.44 2.44 0 0 1-3.426 0c-.548-.548-1.437-1.811-2.08-2.78"></path>
  <path d="M10.082 7.356c-.634-.958-1.517-2.218-2.08-2.78a2.407 2.407 0 0 0-3.426 0v0a2.44 2.44 0 0 0 0 3.426c.544.544 1.814 1.438 2.78 2.08"></path>
  <path d="M12 15a3 3 0 1 0 0-6 3 3 0 0 0 0 6Z"></path>
</svg>