<svg fill="none" stroke="currentColor" stroke-width="1" viewBox="0 0 24 24" xmlns="http://www.w3.org/2000/svg">
  <path d="M9.375 11.57c.413 2.749-.344 4.251-2.48 4.567-2.375.351-3.353-1.24-3.766-3.987-.555-3.698.75-5.997 2.611-6.146 1.695-.134 3.221 2.82 3.635 5.567Z"></path>
  <path d="M10.484 19.2c.147 1.56-.696 3.016-1.969 3.265-1.284.251-2.752-.767-3.05-2.306-.3-1.538.831-1.62 2.217-1.885 1.387-.265 2.625-.956 2.802.926Z"></path>
  <path d="M14.626 7.07c-.413 2.748.343 4.25 2.48 4.566 2.374.351 3.352-1.24 3.765-3.987.556-3.698-.75-6.01-2.611-6.145-1.706-.124-3.22 2.818-3.634 5.566Z"></path>
  <path d="M13.517 14.7c-.147 1.56.696 3.016 1.968 3.266 1.285.25 2.752-.768 3.051-2.306.3-1.539-.832-1.62-2.218-1.886-1.386-.265-2.624-.956-2.802.926Z"></path>
</svg>