<svg fill="none" stroke="currentColor" stroke-linecap="round" stroke-linejoin="round" stroke-width="1" viewBox="0 0 24 24" xmlns="http://www.w3.org/2000/svg">
  <path d="M13.003 11.576a1.154 1.154 0 0 0-.191-.257l-.86-.848a.98.98 0 0 0-1.399-.014c-.298.294-.843.829-1.828 1.802-1.882 1.862-5.378 4.983-6.958 6.314a.75.75 0 0 0-.051 1.104l1.828 1.848a.756.756 0 0 0 1.11-.041c1.37-1.612 4.513-5.11 6.374-6.949.956-.94 1.492-1.48 1.795-1.778a1.02 1.02 0 0 0 .18-1.181v0Z"></path>
  <path d="m22.427 9.426-1.609-1.594a.254.254 0 0 0-.187-.075.262.262 0 0 0-.188.075.534.534 0 0 1-.447.153c-.21-.023-.434-.088-.578-.228-.328-.321.05-.954-.238-1.359a11.38 11.38 0 0 0-1.082-1.253c-.33-.328-1.632-1.568-3.823-2.462a5.803 5.803 0 0 0-2.203-.433c-1.235 0-2.185.551-2.531.868-.276.249-.562.645-.562.645.165-.06.334-.11.506-.15.359-.077.726-.1 1.091-.07.73.06 1.609.403 2.08.773.76.61 1.087 1.425 1.138 2.477.037.782-.714 1.77-1.427 2.575a.368.368 0 0 0 .019.508l.996.995a.375.375 0 0 0 .522.005c.653-.634 1.457-1.335 1.913-1.616.456-.28.824-.36 1-.38.348-.033.697.043 1 .217a.64.64 0 0 1 .144.112.79.79 0 0 1-.024 1.113l-.094.089a.258.258 0 0 0 0 .367l1.609 1.594a.258.258 0 0 0 .187.074.265.265 0 0 0 .188-.074l2.6-2.571a.273.273 0 0 0 0-.375v0Z"></path>
</svg>