<svg fill="none" stroke="currentColor" stroke-linecap="round" stroke-linejoin="round" stroke-width="1" viewBox="0 0 24 24" xmlns="http://www.w3.org/2000/svg">
  <path d="M3.75 15V6.75a1.5 1.5 0 0 1 1.5-1.5v0a1.5 1.5 0 0 1 1.5 1.5V12"></path>
  <path d="M6.75 12V3.75a1.5 1.5 0 0 1 3 0v7.5"></path>
  <path d="M12.75 11.297V4.5a1.5 1.5 0 0 1 1.5-1.5v0a1.5 1.5 0 0 1 1.5 1.5V15"></path>
  <path d="M9.75 11.25v-9a1.5 1.5 0 0 1 3 0v9"></path>
  <path d="M3.75 15.002c0 5.503 3 8.25 7.125 8.25s5.799-1.856 6.75-4.125l2.47-6.75c.313-.846.171-1.63-.556-2.044-.727-.413-1.683-.2-2.077.548L15.75 15"></path>
</svg>