<svg fill="none" stroke="currentColor" stroke-width="1" viewBox="0 0 24 24" xmlns="http://www.w3.org/2000/svg">
  <path fill="currentColor" stroke="none" d="M8.625 12a1.125 1.125 0 1 0 0-2.25 1.125 1.125 0 0 0 0 2.25Z"></path>
  <path fill="currentColor" stroke="none" d="M12.002 18c-2.129 0-3.92-1.384-4.486-3.273a.375.375 0 0 1 .367-.477h8.235a.374.374 0 0 1 .367.477C15.923 16.616 14.132 18 12.002 18Z"></path>
  <path fill="currentColor" stroke="none" d="M15.375 12a1.125 1.125 0 1 0 0-2.25 1.125 1.125 0 0 0 0 2.25Z"></path>
  <path d="M12 21.75c5.385 0 9.75-4.365 9.75-9.75S17.385 2.25 12 2.25 2.25 6.615 2.25 12s4.365 9.75 9.75 9.75Z"></path>
</svg>