<svg fill="none" stroke="currentColor" stroke-linecap="round" stroke-linejoin="round" stroke-width="1" viewBox="0 0 24 24" xmlns="http://www.w3.org/2000/svg">
  <path d="M18 3.75H6A2.25 2.25 0 0 0 3.75 6v12A2.25 2.25 0 0 0 6 20.25h12A2.25 2.25 0 0 0 20.25 18V6A2.25 2.25 0 0 0 18 3.75Z"></path>
  <path d="M16.5 6.75h-9a.75.75 0 0 0-.75.75v9c0 .414.336.75.75.75h9a.75.75 0 0 0 .75-.75v-9a.75.75 0 0 0-.75-.75Z"></path>
  <path d="M12 3.75v-1.5"></path>
  <path d="M15.75 3.75v-1.5"></path>
  <path d="M8.25 3.75v-1.5"></path>
  <path d="M12 21.75v-1.5"></path>
  <path d="M15.75 21.75v-1.5"></path>
  <path d="M8.25 21.75v-1.5"></path>
  <path d="M20.25 12h1.5"></path>
  <path d="M20.25 15.75h1.5"></path>
  <path d="M20.25 8.25h1.5"></path>
  <path d="M2.25 12h1.5"></path>
  <path d="M2.25 15.75h1.5"></path>
  <path d="M2.25 8.25h1.5"></path>
</svg>