<svg fill="none" stroke="currentColor" stroke-linecap="round" stroke-linejoin="round" stroke-width="1" viewBox="0 0 24 24" xmlns="http://www.w3.org/2000/svg">
  <path d="M3.89 18c-.609-1.547-1.64-4.377-1.64-6C2.25 6.615 7 2.25 12 2.25s9.75 4.365 9.75 9.75c0 1.623-1.078 4.547-1.64 6"></path>
  <path d="m5.08 12.662-.642.375c-1.417.83-1.486 3.394-.158 5.728C5.607 21.1 7.836 22.32 9.253 21.49l.642-.375a.757.757 0 0 0 .271-1.025l-4.073-7.152a.736.736 0 0 0-1.013-.276v0Z"></path>
  <path d="m18.92 12.662.641.375c1.417.83 1.488 3.394.158 5.728-1.329 2.334-3.556 3.554-4.973 2.724l-.642-.375a.757.757 0 0 1-.27-1.025l4.072-7.151a.736.736 0 0 1 1.013-.276v0Z"></path>
</svg>