<svg fill="none" stroke="currentColor" stroke-width="1" viewBox="0 0 24 24" xmlns="http://www.w3.org/2000/svg">
  <path d="M21 12c0-4.969-4.031-9-9-9s-9 4.031-9 9 4.031 9 9 9 9-4.031 9-9Z"></path>
  <path fill="currentColor" stroke="none" d="M12 16.876a.75.75 0 0 1-.422-.13c-1.842-1.251-2.64-2.11-3.08-2.645-.937-1.142-1.386-2.315-1.373-3.586.015-1.455 1.182-2.64 2.603-2.64.957 0 1.64.498 2.067.957a.282.282 0 0 0 .41 0c.426-.459 1.11-.957 2.066-.957 1.421 0 2.589 1.185 2.603 2.64.014 1.27-.436 2.444-1.373 3.586-.44.537-1.238 1.394-3.08 2.645a.75.75 0 0 1-.42.13Z"></path>
</svg>