<svg fill="none" stroke="currentColor" stroke-width="1" viewBox="0 0 24 24" xmlns="http://www.w3.org/2000/svg">
  <path d="M21 12c0-4.969-4.031-9-9-9s-9 4.031-9 9 4.031 9 9 9 9-4.031 9-9Z"></path>
  <path fill="currentColor" stroke="none" d="M15.62 13.955c.856-1.097 1.268-2.224 1.255-3.44-.014-1.455-1.182-2.64-2.603-2.64-.956 0-1.64.499-2.067.957a.278.278 0 0 1-.408 0c-.427-.458-1.112-.957-2.068-.957h-.072a.188.188 0 0 0-.129.321l5.813 5.776a.183.183 0 0 0 .219.034.184.184 0 0 0 .06-.051Z"></path>
  <path fill="currentColor" stroke="none" d="M7.445 10.36a.187.187 0 0 0-.32.127v.03c-.013 1.27.437 2.443 1.374 3.586.44.536 1.237 1.393 3.08 2.644a.746.746 0 0 0 .843 0c.242-.164.464-.32.67-.469a.188.188 0 0 0 .022-.284l-5.669-5.635Z"></path>
  <path fill="currentColor" stroke="none" d="M15.75 17.252a.746.746 0 0 1-.53-.22l-8.25-8.25a.75.75 0 0 1 1.06-1.06l8.25 8.25a.75.75 0 0 1-.53 1.28Z"></path>
</svg>