<svg fill="none" stroke="currentColor" stroke-linecap="round" stroke-width="1" viewBox="0 0 24 24" xmlns="http://www.w3.org/2000/svg">
  <path d="M12 3.75a8.25 8.25 0 1 0 0 16.5 8.25 8.25 0 0 0 0-16.5Z"></path>
  <path fill="currentColor" stroke="none" d="M11.719 17.25a.937.937 0 1 0 0-1.875.937.937 0 0 0 0 1.875Z"></path>
  <path d="M9.375 9.483s.04-.82.917-1.527c.521-.42 1.146-.541 1.708-.55.512-.006.97.079 1.244.21.468.222 1.381.767 1.381 1.925 0 1.219-.797 1.773-1.705 2.381-.908.61-1.154 1.27-1.154 1.953"></path>
</svg>