<svg fill="none" stroke="currentColor" stroke-linecap="round" stroke-linejoin="round" stroke-width="1" viewBox="0 0 24 24" xmlns="http://www.w3.org/2000/svg">
  <path d="M6.825 21.75h10.35c.927 0 1.666-.764 1.566-1.643-.645-5.67-4.491-5.576-4.491-8.107 0-2.531 3.895-2.39 4.49-8.107.094-.88-.638-1.643-1.566-1.643H6.825c-.928 0-1.658.763-1.566 1.643C5.854 9.61 9.75 9.422 9.75 12c0 2.578-3.846 2.438-4.49 8.107-.1.88.638 1.643 1.566 1.643Z"></path>
  <path fill="currentColor" stroke="none" d="M16.091 20.25H7.927c-.731 0-.937-.844-.424-1.367 1.24-1.258 3.746-2.159 3.746-3.602V10.5c0-.93-1.781-1.64-2.883-3.15-.182-.249-.164-.6.299-.6h6.69c.394 0 .48.348.3.598-1.086 1.511-2.906 2.217-2.906 3.152v4.781c0 1.431 2.612 2.203 3.769 3.603.466.565.303 1.366-.427 1.366Z"></path>
</svg>