<svg fill="none" stroke="currentColor" stroke-linecap="round" stroke-linejoin="round" stroke-width="1" viewBox="0 0 24 24" xmlns="http://www.w3.org/2000/svg">
  <path d="M16.5 12 12 22.5l-2.906-6.797"></path>
  <path d="M14.035 10.476c-.36.762-1.136 1.336-2.035 1.336-.614 0-1.266-.234-1.576-.457-.286-.205-.674-.105-.674.364v2.906a1.128 1.128 0 0 1-1.125 1.125v0A1.128 1.128 0 0 1 7.5 14.625V12h-.094C5.75 12 4.5 10.657 4.5 9a3 3 0 0 1 3-3h.375v-.375a4.125 4.125 0 0 1 8.25 0V6h.375a3 3 0 0 1 0 6c-1.02 0-1.969-.61-2.465-1.524h0Z"></path>
</svg>