<svg fill="none" stroke="currentColor" stroke-linecap="round" stroke-linejoin="round" stroke-width="1" viewBox="0 0 24 24" xmlns="http://www.w3.org/2000/svg">
  <path d="M19.5 3.75h-15A2.25 2.25 0 0 0 2.25 6v12a2.25 2.25 0 0 0 2.25 2.25h15A2.25 2.25 0 0 0 21.75 18V6a2.25 2.25 0 0 0-2.25-2.25Z"></path>
  <path d="M15.75 9.75a1.5 1.5 0 1 0 0-3 1.5 1.5 0 0 0 0 3Z"></path>
  <path d="M14.25 15.743 10 11.502a1.5 1.5 0 0 0-2.056-.061L2.25 16.503"></path>
  <path d="m10.5 20.253 5.782-5.781a1.5 1.5 0 0 1 2.02-.094l3.448 2.875"></path>
</svg>