<svg fill="none" stroke="currentColor" stroke-linecap="round" stroke-linejoin="round" stroke-width="1" viewBox="0 0 24 24" xmlns="http://www.w3.org/2000/svg">
  <path d="M20.25 5.25V4.5A2.256 2.256 0 0 0 18 2.25H3A2.257 2.257 0 0 0 .75 4.5v12A2.257 2.257 0 0 0 3 18.75h.75"></path>
  <path d="M21.094 6H6.656C5.466 6 4.5 6.965 4.5 8.156v11.438c0 1.19.965 2.156 2.156 2.156h14.438c1.19 0 2.156-.965 2.156-2.156V8.156c0-1.19-.965-2.156-2.156-2.156Z"></path>
  <path d="M17.48 11.731c.797 0 1.443-.64 1.443-1.432 0-.79-.646-1.432-1.443-1.432-.796 0-1.442.641-1.442 1.432 0 .791.646 1.432 1.442 1.432Z"></path>
  <path d="m16.038 17.445-4.085-4.05a1.45 1.45 0 0 0-1.977-.057L4.5 18.17"></path>
  <path d="m12.433 21.75 5.558-5.519a1.453 1.453 0 0 1 1.944-.088l3.315 2.743"></path>
</svg>