<svg fill="none" stroke="currentColor" stroke-linecap="round" stroke-linejoin="round" stroke-width="1" viewBox="0 0 24 24" xmlns="http://www.w3.org/2000/svg">
  <path d="M3.75 4.5h-1.5a.75.75 0 0 0-.75.75V21c0 .414.336.75.75.75h1.5A.75.75 0 0 0 4.5 21V5.25a.75.75 0 0 0-.75-.75Z"></path>
  <path d="M5.25 10.5h6"></path>
  <path d="M5.25 18.75h6"></path>
  <path d="M10.5 7.5H6a.75.75 0 0 0-.75.75V21c0 .414.336.75.75.75h4.5a.75.75 0 0 0 .75-.75V8.25a.75.75 0 0 0-.75-.75Z"></path>
  <path d="M15.75 2.25h-3A.75.75 0 0 0 12 3v18c0 .414.336.75.75.75h3a.75.75 0 0 0 .75-.75V3a.75.75 0 0 0-.75-.75Z"></path>
  <path d="m19.803 4.505-1.894.2c-.521.054-.9.542-.84 1.082l1.636 15.075c.06.54.533.937 1.055.883l1.893-.2c.522-.054.9-.542.84-1.082L20.86 5.39c-.061-.543-.535-.94-1.056-.886Z"></path>
</svg>