<svg fill="none" stroke="currentColor" stroke-linecap="round" stroke-linejoin="round" stroke-width="1" viewBox="0 0 24 24" xmlns="http://www.w3.org/2000/svg">
  <path d="M19.773 13.773a6.75 6.75 0 0 0-9.546-9.546"></path>
  <path d="M16.59 10.594a2.25 2.25 0 0 0-3.182-3.182"></path>
  <path d="M9 21.75V19.5"></path>
  <path d="m4.227 19.77 1.59-1.59"></path>
  <path d="M2.25 15H4.5"></path>
  <path d="m13.41 7.409-5.304 5.303a1.5 1.5 0 0 1-2.121 0l-1.063-1.06a1.5 1.5 0 0 1 0-2.122l5.305-5.303"></path>
  <path d="M19.772 13.776 14.47 19.08a1.5 1.5 0 0 1-2.122 0l-1.06-1.06a1.5 1.5 0 0 1 0-2.122l5.303-5.305"></path>
  <path d="m6.543 7.969 3.182 3.182"></path>
  <path d="m12.908 14.328 3.182 3.182"></path>
</svg>