<svg fill="none" stroke="currentColor" stroke-linecap="round" stroke-linejoin="round" stroke-width="1" viewBox="0 0 24 24" xmlns="http://www.w3.org/2000/svg">
  <path d="m20.7 8.044-8.19-4.042a1.151 1.151 0 0 0-1.02 0L3.3 8.044a1.875 1.875 0 0 0-1.05 1.677v8.654c0 1.035.85 1.875 1.9 1.875h15.702c1.05 0 1.9-.84 1.9-1.875V9.72A1.875 1.875 0 0 0 20.7 8.044v0Z"></path>
  <path d="m18.625 17.247-6.06-4.713a1.125 1.125 0 0 0-1.38 0l-6.06 4.713"></path>
  <path d="M14.5 13.828 20.875 9"></path>
  <path d="m2.875 9 6.516 4.922"></path>
</svg>