<svg fill="none" stroke="currentColor" stroke-linecap="round" stroke-width="1" viewBox="0 0 24 24" xmlns="http://www.w3.org/2000/svg">
  <path d="M9.75 9.75v12.375a1.112 1.112 0 0 0 1.125 1.125v0A1.111 1.111 0 0 0 12 22.125"></path>
  <path d="M12 15.75v6.375a1.11 1.11 0 0 0 1.125 1.125 1.111 1.111 0 0 0 1.125-1.125V9.75"></path>
  <path d="M9.75 9v4.125a1.112 1.112 0 0 1-1.125 1.125v0A1.11 1.11 0 0 1 7.5 13.125V9a2.25 2.25 0 0 1 2.25-2.25h4.5A2.25 2.25 0 0 1 16.5 9v4.125a1.11 1.11 0 0 1-1.125 1.125v0a1.11 1.11 0 0 1-1.125-1.125V9"></path>
  <path d="M12 4.5a1.875 1.875 0 1 0 0-3.75 1.875 1.875 0 0 0 0 3.75Z"></path>
</svg>