<svg fill="none" stroke="currentColor" stroke-linecap="round" stroke-linejoin="round" stroke-width="1" viewBox="0 0 24 24" xmlns="http://www.w3.org/2000/svg">
  <path d="M14.684 5.843 9.316 2.408a1.5 1.5 0 0 0-1.372.017L2.649 5.977a.75.75 0 0 0-.399.663v13.865a.75.75 0 0 0 1.101.663l4.585-2.99a1.5 1.5 0 0 1 1.383-.011l5.244 3.421a1.499 1.499 0 0 0 1.372-.005l5.41-3.56a.75.75 0 0 0 .405-.665V3.496a.75.75 0 0 0-1.101-.663l-4.594 2.994a1.5 1.5 0 0 1-1.37.016Z"></path>
  <path d="M15.375 6v15.75"></path>
  <path d="M8.625 2.25V18"></path>
</svg>