<svg fill="none" stroke="currentColor" stroke-linecap="round" stroke-linejoin="round" stroke-width="1" viewBox="0 0 24 24" xmlns="http://www.w3.org/2000/svg">
  <path d="M12 21.75a5.25 5.25 0 1 0 0-10.5 5.25 5.25 0 0 0 0 10.5Z"></path>
  <path d="M12 18.75a2.25 2.25 0 1 0 0-4.5 2.25 2.25 0 0 0 0 4.5Z"></path>
  <path d="m6.891 15.14-4.93-7.672a1.5 1.5 0 0 1-.079-1.482L3.335 3.08a1.5 1.5 0 0 1 1.343-.83h14.645a1.5 1.5 0 0 1 1.342.83l1.453 2.905a1.501 1.501 0 0 1-.08 1.482l-4.928 7.674"></path>
  <path d="M17.39 6.75H1.735"></path>
  <path d="m20.097 2.469-5.8 9.253"></path>
  <path d="m6.588 6.75 3.115 4.969"></path>
</svg>