<svg fill="none" stroke="currentColor" stroke-linecap="round" stroke-linejoin="round" stroke-width="1" viewBox="0 0 24 24" xmlns="http://www.w3.org/2000/svg">
  <path d="m20.153 8.169-.772-1.34a.726.726 0 0 0-.991-.267l-4.613 2.671a.187.187 0 0 1-.28-.164L13.5 3.75a.75.75 0 0 0-.75-.75h-1.5a.75.75 0 0 0-.75.75l.003 5.324a.188.188 0 0 1-.281.164L5.61 6.566a.726.726 0 0 0-.991.267l-.772 1.34a.723.723 0 0 0 .267.99l4.616 2.675a.188.188 0 0 1 0 .324l-4.616 2.675a.729.729 0 0 0-.267.99l.772 1.34a.726.726 0 0 0 .991.267l4.612-2.672a.186.186 0 0 1 .257.07.188.188 0 0 1 .025.094L10.5 20.25a.75.75 0 0 0 .75.75h1.5a.75.75 0 0 0 .75-.75l-.003-5.328a.188.188 0 0 1 .281-.164l4.612 2.672a.726.726 0 0 0 .991-.268l.772-1.34a.72.72 0 0 0-.266-.989l-4.617-2.675a.187.187 0 0 1 0-.324l4.617-2.676a.727.727 0 0 0 .266-.99v0Z"></path>
</svg>