<svg fill="none" stroke="currentColor" stroke-linecap="round" stroke-width="1" viewBox="0 0 24 24" xmlns="http://www.w3.org/2000/svg">
  <path d="M20.25 18.75 4.5 3"></path>
  <path fill="currentColor" stroke="none" d="M18.75 11.25V9.77c0-.404-.31-.75-.714-.77a.75.75 0 0 0-.786.749v1.5c0 .367-.038.733-.115 1.093a.19.19 0 0 0 .05.173l1.023 1.022a.093.093 0 0 0 .154-.034 6.716 6.716 0 0 0 .388-2.254Z"></path>
  <path fill="currentColor" stroke="none" d="M12 16.5a5.267 5.267 0 0 1-5.25-5.25V9.77c0-.404-.31-.75-.714-.77a.75.75 0 0 0-.786.749v1.5c0 3.469 2.63 6.334 6 6.708v2.292H9.021c-.404 0-.75.31-.77.714A.75.75 0 0 0 9 21.75h5.979c.404 0 .75-.31.77-.714A.75.75 0 0 0 15 20.25h-2.25v-2.292a6.706 6.706 0 0 0 2.438-.76.188.188 0 0 0 .042-.298l-.84-.84a.187.187 0 0 0-.21-.036A5.193 5.193 0 0 1 12 16.5Z"></path>
  <path fill="currentColor" stroke="none" d="M12 3.75A2.212 2.212 0 0 1 14.25 6v3.503c0 .05.02.097.055.132l1.286 1.287a.093.093 0 0 0 .144-.014.094.094 0 0 0 .015-.052V6.043c0-2.058-1.64-3.764-3.696-3.792a3.734 3.734 0 0 0-3.21 1.714.187.187 0 0 0 .026.234l.916.916a.094.094 0 0 0 .152-.03A2.224 2.224 0 0 1 12 3.752Z"></path>
  <path fill="currentColor" stroke="none" d="M9.716 11.39 8.41 10.082a.094.094 0 0 0-.102-.02.093.093 0 0 0-.058.087v1.058c0 1 .396 1.958 1.1 2.667a3.682 3.682 0 0 0 3.646.993.094.094 0 0 0 .04-.157l-1.167-1.167a.191.191 0 0 0-.114-.054c-1.014-.118-1.85-.958-1.986-1.99a.188.188 0 0 0-.053-.11Z"></path>
</svg>