<svg fill="none" stroke="currentColor" stroke-linecap="round" stroke-linejoin="round" stroke-width="1" viewBox="0 0 24 24" xmlns="http://www.w3.org/2000/svg">
  <path d="M9 10.216v-.28c0-.696.469-1.266 1.136-1.435l8.184-2.188a.937.937 0 0 1 1.18.903v1.032"></path>
  <path d="M19.5 13.87v3.75c0 .652-.419 1.2-1.031 1.406l-1.032.375C16.224 19.81 15 18.913 15 17.62a1.564 1.564 0 0 1 1.078-1.5l2.39-.85c.613-.207 1.032-.748 1.032-1.4Zm0 0V2.717a.468.468 0 0 0-.59-.45L9.561 4.778A.773.773 0 0 0 9 5.53v10.594c0 .652-.419 1.2-1.031 1.406l-2.438.844c-.65.22-1.031.807-1.031 1.5 0 1.293 1.243 2.182 2.438 1.781l1.03-.375C8.582 21.073 9 20.525 9 19.873v-3.75"></path>
</svg>