<svg fill="none" stroke="currentColor" stroke-linecap="round" stroke-linejoin="round" stroke-width="1" viewBox="0 0 24 24" xmlns="http://www.w3.org/2000/svg">
  <path d="M17.25 19.493V3.375a1.128 1.128 0 0 0-1.125-1.125H3.375A1.128 1.128 0 0 0 2.25 3.375v16.5a1.88 1.88 0 0 0 1.875 1.875H19.5"></path>
  <path d="M19.5 21.75a2.25 2.25 0 0 1-2.25-2.25V6h3.375a1.125 1.125 0 0 1 1.125 1.125V19.5a2.25 2.25 0 0 1-2.25 2.25Z"></path>
  <path d="M11.25 6h3"></path>
  <path d="M11.25 9h3"></path>
  <path d="M5.25 12h9"></path>
  <path d="M5.25 15h9"></path>
  <path d="M5.25 18h9"></path>
  <path fill="currentColor" stroke="none" d="M8.25 9.75h-3A.75.75 0 0 1 4.5 9V6a.75.75 0 0 1 .75-.75h3A.75.75 0 0 1 9 6v3a.75.75 0 0 1-.75.75Z"></path>
</svg>