<svg fill="none" stroke="currentColor" stroke-width="1" viewBox="0 0 24 24" xmlns="http://www.w3.org/2000/svg">
  <path d="M21 12c0-4.969-4.031-9-9-9s-9 4.031-9 9 4.031 9 9 9 9-4.031 9-9Z"></path>
  <path fill="currentColor" stroke="none" d="M10.323 16.5a.188.188 0 0 0-.187.207C10.24 17.585 11.02 18 12 18c.979 0 1.757-.415 1.862-1.293a.187.187 0 0 0-.188-.207h-3.35Z"></path>
  <path fill="currentColor" stroke="none" d="M16.5 17.72a.747.747 0 0 1-.555-.246l-9-9.937a.75.75 0 0 1 1.11-1.009l9 9.937a.75.75 0 0 1-.555 1.255Z"></path>
  <path fill="currentColor" stroke="none" d="M8.188 10.886c0 2.5-.54 2.88-1.306 3.787-.317.375-.03 1.078.524 1.078h5.57a.188.188 0 0 0 .185-.218.187.187 0 0 0-.046-.096l-4.594-5.01a.187.187 0 0 0-.325.119c-.005.11-.008.223-.008.34Z"></path>
  <path fill="currentColor" stroke="none" d="M17.118 14.672c-.765-.907-1.306-1.288-1.306-3.788 0-2.29-1.208-3.104-2.203-3.5a.534.534 0 0 1-.297-.313C13.138 6.497 12.65 6 11.999 6c-.65 0-1.14.497-1.312 1.072a.533.533 0 0 1-.297.313 6.49 6.49 0 0 0-.182.076.187.187 0 0 0-.06.298l6.773 7.391a.188.188 0 0 0 .326-.138.562.562 0 0 0-.129-.34Z"></path>
</svg>