<svg fill="none" stroke="currentColor" stroke-width="1" viewBox="0 0 24 24" xmlns="http://www.w3.org/2000/svg">
  <path d="M21 12c0-4.969-4.031-9-9-9s-9 4.031-9 9 4.031 9 9 9 9-4.031 9-9Z"></path>
  <path fill="currentColor" stroke="none" d="M17.12 14.672c-.766-.907-1.307-1.288-1.307-3.788 0-2.29-1.208-3.104-2.203-3.5a.533.533 0 0 1-.297-.313C13.14 6.497 12.651 6 12.001 6c-.651 0-1.14.497-1.313 1.072a.531.531 0 0 1-.297.313c-.995.396-2.203 1.21-2.203 3.5 0 2.5-.54 2.88-1.306 3.787-.317.375-.03 1.079.524 1.079h9.188c.552-.001.841-.704.525-1.08Z"></path>
  <path fill="currentColor" stroke="none" d="M10.323 16.5a.188.188 0 0 0-.187.207C10.24 17.585 11.02 18 12 18c.969 0 1.74-.429 1.859-1.29a.189.189 0 0 0-.11-.194.187.187 0 0 0-.078-.016h-3.348Z"></path>
</svg>