<svg fill="none" stroke="currentColor" stroke-linecap="round" stroke-linejoin="round" stroke-width="1" viewBox="0 0 24 24" xmlns="http://www.w3.org/2000/svg">
  <path d="M6.023 9.594a9.969 9.969 0 0 0-.017.598c0 4.062-.85 4.812-2.054 6.285-.498.61-.062 1.527.81 1.527H15"></path>
  <path d="M19.43 15.717c-.867-1.099-1.436-2.205-1.436-5.531 0-3.717-1.899-5.042-3.463-5.686a.835.835 0 0 1-.466-.495C13.79 3.072 13.023 2.25 12 2.25s-1.79.823-2.063 1.756a.824.824 0 0 1-.468.494c-.29.118-.572.256-.844.412"></path>
  <path d="M15 18v.75a3 3 0 0 1-6 0V18"></path>
  <path d="M21 21 3 3"></path>
</svg>