<svg fill="none" stroke="currentColor" stroke-width="1" viewBox="0 0 24 24" xmlns="http://www.w3.org/2000/svg">
  <path d="M16.5 6c-1.512-.136-3 .75-4.5.75S9.012 5.858 7.5 6C4.5 6.28 3 9 3 13.5c0 3.75 3 9 5.213 9 2.212 0 2.434-1.126 3.787-1.126 1.353 0 1.575 1.125 3.787 1.125C18 22.5 21 17.25 21 13.5 21 9 19.64 6.281 16.5 6Z"></path>
  <path fill="currentColor" stroke="none" d="M15.184 3.898c-.985.984-2.14 1.265-2.757 1.35a.375.375 0 0 1-.427-.41 4.575 4.575 0 0 1 1.341-2.781c1.031-1.031 2.156-1.26 2.753-1.305a.375.375 0 0 1 .406.418 4.594 4.594 0 0 1-1.316 2.728Z"></path>
  <path fill="currentColor" stroke="none" d="M10.125 16.5c.621 0 1.125-1.007 1.125-2.25S10.746 12 10.125 12 9 13.007 9 14.25s.504 2.25 1.125 2.25Z"></path>
  <path fill="currentColor" stroke="none" d="M13.875 16.5c.621 0 1.125-1.007 1.125-2.25S14.496 12 13.875 12s-1.125 1.007-1.125 2.25.504 2.25 1.125 2.25Z"></path>
</svg>