<svg fill="none" stroke="currentColor" stroke-linecap="round" stroke-linejoin="round" stroke-width="1" viewBox="0 0 24 24" xmlns="http://www.w3.org/2000/svg">
  <path d="M4.247 14.384a.753.753 0 0 0 .628-.622c.567-3.442 3.076-5.512 6-5.512 2.716 0 4.53 1.77 5.26 3.644a.742.742 0 0 0 .571.463C19.05 12.739 21 14.304 21 17.025c0 2.784-2.278 4.725-5.063 4.725H4.97c-2.32 0-4.219-1.158-4.219-3.712 0-2.273 1.813-3.386 3.497-3.654Z"></path>
  <path d="M18.038 12.72a3.75 3.75 0 1 0-5.792-4.313"></path>
  <path d="M21.75 9.75h1.5"></path>
  <path d="M15.75 2.25v1.5"></path>
  <path d="m10.447 4.445 1.061 1.061"></path>
  <path d="m21.053 4.445-1.06 1.061"></path>
</svg>