<svg fill="none" stroke="currentColor" stroke-width="1" viewBox="0 0 24 24" xmlns="http://www.w3.org/2000/svg">
  <path d="M21.456 7.973a1.418 1.418 0 0 0-.523-.098h-.018c-.946.014-2.006.9-2.563 2.239-.667 1.602-.36 3.241.691 3.663.167.065.344.099.523.098.95 0 2.025-.89 2.586-2.239.662-1.602.35-3.241-.696-3.663Z"></path>
  <path d="M15.356 14.226C14.053 12.063 13.49 11.25 12 11.25c-1.49 0-2.058.818-3.361 2.976-1.116 1.845-3.37 1.998-3.933 3.565a2.386 2.386 0 0 0-.169.903c0 1.274.975 2.306 2.175 2.306 1.49 0 3.52-1.19 5.292-1.19 1.772 0 3.793 1.19 5.283 1.19 1.2 0 2.17-1.031 2.17-2.306a2.39 2.39 0 0 0-.173-.903c-.562-1.572-2.812-1.72-3.928-3.565Z"></path>
  <path d="M9.023 9.188c.063 0 .126-.005.188-.015 1.088-.158 1.767-1.665 1.52-3.368C10.5 4.2 9.525 3 8.507 3a1.31 1.31 0 0 0-.188.014c-1.088.158-1.767 1.666-1.52 3.368.232 1.6 1.206 2.806 2.224 2.806Z"></path>
  <path d="M17.199 6.382c.246-1.702-.433-3.21-1.52-3.368A1.243 1.243 0 0 0 15.49 3c-1.019 0-1.991 1.2-2.224 2.805-.246 1.703.433 3.21 1.521 3.368.062.01.125.015.188.015 1.018 0 1.992-1.206 2.223-2.806Z"></path>
  <path d="M4.958 13.777c1.05-.422 1.356-2.063.69-3.663-.56-1.348-1.635-2.239-2.583-2.239-.18 0-.357.033-.523.098-1.05.422-1.356 2.063-.69 3.663.56 1.348 1.634 2.239 2.583 2.239.18 0 .356-.033.523-.098Z"></path>
</svg>