<svg fill="none" stroke="currentColor" stroke-linecap="round" stroke-linejoin="round" stroke-width="1" viewBox="0 0 24 24" xmlns="http://www.w3.org/2000/svg">
  <path d="M6.208 7.594C5.915 6 5.998 5.459 6.064 4.388L6.2 2.203a.75.75 0 0 1 .747-.703h10.105a.75.75 0 0 1 .747.703l.137 2.185c.067 1.072.15 1.612-.144 3.209-.278 1.513-2.049 6.247-2.049 11.17v3.358a.375.375 0 0 1-.375.375H8.631a.375.375 0 0 1-.375-.375v-3.358c0-4.334-1.756-9.576-2.048-11.173Z"></path>
  <path d="M6.338 4.5h11.324"></path>
</svg>