<svg fill="none" stroke="currentColor" stroke-width="1" viewBox="0 0 24 24" xmlns="http://www.w3.org/2000/svg">
  <path d="M18.974 5.77C16.8 4.882 14.518 4.5 12.001 4.5c-2.517 0-4.973.422-6.98 1.25-.378.155-.715.423-.472.915.198.4 4.968 10.913 6.78 14.663a.747.747 0 0 0 1.346 0l6.752-14.635c.15-.324.043-.722-.453-.924Z"></path>
  <path d="M20.455 3.876C18.015 2.91 15.008 2.25 12 2.25s-5.97.6-8.462 1.598c-.22.09-.632.297-.519.646l.454 1.131c.187.384.406.384.706.384.084 0 .201-.046.341-.102A20.74 20.74 0 0 1 12 4.5c2.66 0 5.386.563 7.481 1.406.168.066.262.102.341.102.309 0 .487.103.704-.38l.458-1.128c.094-.281-.234-.507-.529-.624Z"></path>
  <path fill="currentColor" stroke="none" d="M9 10.5a1.5 1.5 0 1 0 0-3 1.5 1.5 0 0 0 0 3Z"></path>
  <path fill="currentColor" stroke="none" d="M15 11.25a1.5 1.5 0 1 0 0-3 1.5 1.5 0 0 0 0 3Z"></path>
  <path fill="currentColor" stroke="none" d="M12 16.5a1.5 1.5 0 1 0 0-3 1.5 1.5 0 0 0 0 3Z"></path>
</svg>