<svg fill="none" stroke="currentColor" stroke-linecap="round" stroke-linejoin="round" stroke-width="1" viewBox="0 0 24 24" xmlns="http://www.w3.org/2000/svg">
  <path d="m2.696 2.234 17.27 17.27a1.748 1.748 0 0 1 0 2.472v0a1.748 1.748 0 0 1-2.471 0l-4.22-4.292a1.5 1.5 0 0 1-.43-1.051v-.26a1.5 1.5 0 0 0-.447-1.067l-.544-.503a1.5 1.5 0 0 0-1.397-.349v0a2.274 2.274 0 0 1-2.183-.592L4.27 9.857C1.894 7.482 1.02 3.894 2.696 2.234Z"></path>
  <path d="m18.75 1.5-3.621 3.621a3 3 0 0 0-.879 2.122v.696a.75.75 0 0 1-.22.53L13.5 9"></path>
  <path d="m15 10.5.53-.53a.749.749 0 0 1 .53-.22h.697a3 3 0 0 0 2.122-.879L22.5 5.25"></path>
  <path d="m20.625 3.375-3.75 3.75"></path>
  <path d="M9.375 17.25 4.7 21.95a1.875 1.875 0 0 1-2.651 0v0a1.875 1.875 0 0 1 0-2.65l3.95-3.925"></path>
</svg>