<svg fill="none" stroke="currentColor" stroke-linecap="round" stroke-linejoin="round" stroke-width="1" viewBox="0 0 24 24" xmlns="http://www.w3.org/2000/svg">
  <path d="M19.5 6c-.886.2-1.725.42-2.517.654-1.899.562-3.54 1.273-4.94 1.952-.905.44-1.229.634-2.415 1.324-2.737 1.579-4.378 3.628-4.378 6.694 0 3.464 2.606 5.876 6.75 5.876s6.75-2.616 6.75-6.08c0-3.465-2.86-5.862.75-10.42Z"></path>
  <path d="M12.375 8.446c-.923-1.265-1.79-1.813-2.47-2.183C7.622 5.02 4.5 4.5 4.5 4.5c1.945 2.048 1.744 4.223 1.5 6 0 0-.181 1.541.09 2.738"></path>
  <path d="M17.437 6.523C16.712 4.809 15.749 3 15.749 3s-2.968 0-6.36 3"></path>
  <path d="M11.882 4.105C10.37 2.147 8.25 1.5 8.25 1.5c-.717.975-1.35 2.418-1.635 3.477"></path>
</svg>