<svg fill="none" stroke="currentColor" stroke-linecap="round" stroke-linejoin="round" stroke-width="1" viewBox="0 0 24 24" xmlns="http://www.w3.org/2000/svg">
  <path d="M17.856 2.69a1.5 1.5 0 0 0-1.06-.44H4.415A2.166 2.166 0 0 0 2.25 4.417v15.166a2.166 2.166 0 0 0 2.167 2.167h15.166a2.173 2.173 0 0 0 2.167-2.167V7.205a1.5 1.5 0 0 0-.44-1.061l-3.454-3.455ZM12 19.5a3 3 0 1 1 0-5.999 3 3 0 0 1 0 5.999v0ZM14.25 9h-9a.75.75 0 0 1-.75-.75v-3a.75.75 0 0 1 .75-.75h9a.75.75 0 0 1 .75.75v3a.75.75 0 0 1-.75.75Z"></path>
</svg>