<svg fill="none" stroke="currentColor" stroke-linecap="round" stroke-linejoin="round" stroke-width="1" viewBox="0 0 24 24" xmlns="http://www.w3.org/2000/svg">
  <path d="M21 10.577v4.64a3 3 0 0 1-1.886 2.786l-1.11.444a1.5 1.5 0 0 0-.913 1.1l-.47 2.35a.75.75 0 0 1-.736.603h-7.77a.75.75 0 0 1-.735-.603l-.47-2.35a1.5 1.5 0 0 0-.914-1.099l-1.11-.444A3 3 0 0 1 3 15.22V10.5a9 9 0 0 1 8.984-9C16.947 1.491 21 5.618 21 10.577Z"></path>
  <path d="M7.875 15a1.875 1.875 0 1 0 0-3.75 1.875 1.875 0 0 0 0 3.75Z"></path>
  <path d="M16.125 15a1.875 1.875 0 1 0 0-3.75 1.875 1.875 0 0 0 0 3.75Z"></path>
  <path d="M12 15.75 11.25 18h1.5L12 15.75Z"></path>
  <path d="M12 21v1.5"></path>
  <path d="M9.75 21v1.5"></path>
  <path d="M14.25 21v1.5"></path>
</svg>