<svg fill="none" stroke="currentColor" stroke-linecap="round" stroke-linejoin="round" stroke-width="1" viewBox="0 0 24 24" xmlns="http://www.w3.org/2000/svg">
  <path d="M4.875 15h-1.5a.375.375 0 0 0-.375.375v6.75c0 .207.168.375.375.375h1.5a.375.375 0 0 0 .375-.375v-6.75A.375.375 0 0 0 4.875 15Z"></path>
  <path d="M15.375 10.5h-1.5a.375.375 0 0 0-.375.375v11.25c0 .207.168.375.375.375h1.5a.375.375 0 0 0 .375-.375v-11.25a.375.375 0 0 0-.375-.375Z"></path>
  <path d="M20.625 5.25h-1.5a.375.375 0 0 0-.375.375v16.5c0 .207.168.375.375.375h1.5a.375.375 0 0 0 .375-.375v-16.5a.375.375 0 0 0-.375-.375Z"></path>
  <path d="M10.125 1.5h-1.5a.375.375 0 0 0-.375.375v20.25c0 .207.168.375.375.375h1.5a.375.375 0 0 0 .375-.375V1.875a.375.375 0 0 0-.375-.375Z"></path>
</svg>