<svg fill="none" stroke="currentColor" stroke-linecap="round" stroke-linejoin="round" stroke-width="1" viewBox="0 0 24 24" xmlns="http://www.w3.org/2000/svg">
  <path d="M21 21v-9.75"></path>
  <path d="M3 11.25V21"></path>
  <path d="M17.928 2.25H6.072c-1.022 0-1.944.563-2.34 1.428l-2.03 4.431c-.684 1.491.45 3.18 2.211 3.235h.094c1.472 0 2.665-1.18 2.665-2.449 0 1.266 1.193 2.449 2.665 2.449S12 10.248 12 8.895c0 1.266 1.193 2.449 2.665 2.449s2.665-1.096 2.665-2.449c0 1.353 1.193 2.449 2.665 2.449h.091c1.76-.055 2.896-1.744 2.212-3.235l-2.03-4.431c-.396-.865-1.319-1.428-2.34-1.428Z"></path>
  <path d="M1.5 21.75h21"></path>
  <path d="M6.375 13.5h3.75a1.125 1.125 0 0 1 1.125 1.125v4.125h-6v-4.125A1.125 1.125 0 0 1 6.375 13.5Z"></path>
  <path d="M13.5 21.75v-7.125a1.125 1.125 0 0 1 1.125-1.125h3a1.125 1.125 0 0 1 1.125 1.125v7.125"></path>
</svg>