<svg fill="none" stroke="currentColor" stroke-linecap="round" stroke-linejoin="round" stroke-width="1" viewBox="0 0 24 24" xmlns="http://www.w3.org/2000/svg">
  <path d="M16.5 1.5h-9a2.25 2.25 0 0 0-2.25 2.25v12A2.25 2.25 0 0 0 7.5 18h9a2.25 2.25 0 0 0 2.25-2.25v-12A2.25 2.25 0 0 0 16.5 1.5Z"></path>
  <path d="M9.75 3.75h4.5"></path>
  <path d="M17.25 6H6.75a1.5 1.5 0 0 0-1.5 1.5V9a1.5 1.5 0 0 0 1.5 1.5h10.5a1.5 1.5 0 0 0 1.5-1.5V7.5a1.5 1.5 0 0 0-1.5-1.5Z"></path>
  <path d="M8.25 15.75a.75.75 0 1 0 0-1.5.75.75 0 0 0 0 1.5Z"></path>
  <path d="M15.75 15.75a.75.75 0 1 0 0-1.5.75.75 0 0 0 0 1.5Z"></path>
  <path d="M6.75 21.75h10.5"></path>
  <path d="M15.75 20.25 18 22.5"></path>
  <path d="M8.25 20.25 6 22.5"></path>
</svg>