<svg fill="none" stroke="currentColor" stroke-linecap="round" stroke-linejoin="round" stroke-width="1" viewBox="0 0 24 24" xmlns="http://www.w3.org/2000/svg">
  <path d="m1.872 15.35-.221-.38a1.125 1.125 0 0 1 .411-1.538l4.072-2.347a.75.75 0 0 1 1.027.275l.595 1.031a.75.75 0 0 1-.274 1.025L3.41 15.763a1.128 1.128 0 0 1-1.54-.412v0Z"></path>
  <path d="m8 12.832-1.103-1.91a1.125 1.125 0 0 1 .412-1.536l5.834-3.363a.75.75 0 0 1 1.026.275l1.48 2.559a.75.75 0 0 1-.274 1.023L9.54 13.243A1.126 1.126 0 0 1 8 12.832Z"></path>
  <path d="m16.024 9.478-2.18-3.77a1.126 1.126 0 0 1 .412-1.536L18.63 1.65a1.128 1.128 0 0 1 1.54.411l2.18 3.77a1.126 1.126 0 0 1-.413 1.537L17.563 9.89a1.128 1.128 0 0 1-1.539-.412v0Z"></path>
  <path d="m5.98 22.5 4.507-9.75"></path>
  <path d="m12.74 12 4.535 9"></path>
</svg>