<svg fill="none" stroke="currentColor" stroke-linecap="round" stroke-linejoin="round" stroke-width="1" viewBox="0 0 24 24" xmlns="http://www.w3.org/2000/svg">
  <path d="M15 21.476s-.75.274-3 .274-3.469-.75-4.5-1.5h-3a3 3 0 0 1-3-3V15a3 3 0 0 1 3-3h1.406a1.515 1.515 0 0 0 1.283-.722s.405-.88 1.623-2.991C10.033 6.176 12.376 3 12.75 2.25c1.36 0 2.016 1.031 1.594 2.236-.482 1.378-1.112 2.55-1.287 4.083-.026.224.147.562.372.562l6.071.478"></path>
  <path d="m19.5 12.703-3.75-.094c-.938-.086-1.5-.58-1.5-1.406 0-.825.656-1.352 1.5-1.406l3.75-.188c.825 0 1.5.77 1.5 1.594v.008a1.5 1.5 0 0 1-1.5 1.492Z"></path>
  <path d="m21 15.75-5.25-.094c-.844-.04-1.5-.582-1.5-1.406 0-.825.656-1.353 1.5-1.406L21 12.75a1.505 1.505 0 0 1 1.5 1.5v0a1.505 1.505 0 0 1-1.5 1.5v0Z"></path>
  <path d="m18.75 21.75-3-.14c-.984-.087-1.5-.535-1.5-1.36 0-.825.675-1.406 1.5-1.406l3-.094a1.504 1.504 0 0 1 1.5 1.5v0a1.504 1.504 0 0 1-1.5 1.5v0Z"></path>
  <path d="m20.25 18.75-4.5-.094c-.89-.04-1.5-.581-1.5-1.406s.61-1.352 1.5-1.406l4.5-.094a1.504 1.504 0 0 1 1.5 1.5v0a1.504 1.504 0 0 1-1.5 1.5Z"></path>
</svg>