<svg fill="none" stroke="currentColor" stroke-linecap="round" stroke-linejoin="round" stroke-width="1" viewBox="0 0 24 24" xmlns="http://www.w3.org/2000/svg">
  <path d="M5.625 16.5 4.5 18.75"></path>
  <path d="m6.375 20.25-.75 1.5"></path>
  <path d="m18.75 16.5-1.125 2.25"></path>
  <path d="m19.5 20.25-.75 1.5"></path>
  <path d="M9.75 14.25 9 18.75h2.25v3.75L15 17.25h-2.25l.75-3"></path>
  <path d="M18.953 7.167h-.569C18.034 3.977 15.288 1.5 12 1.5a6.393 6.393 0 0 0-6.03 4.25h-.214C3.416 5.75 1.5 7.663 1.5 10c0 2.338 1.915 4.25 4.256 4.25h13.197a3.553 3.553 0 0 0 3.547-3.542 3.553 3.553 0 0 0-3.547-3.541Z"></path>
</svg>