<svg fill="none" stroke="currentColor" stroke-linecap="round" stroke-width="1" viewBox="0 0 24 24" xmlns="http://www.w3.org/2000/svg">
  <path d="M17.159 6.844a2.19 2.19 0 0 1-.114-2.973.181.181 0 0 0-.01-.247l-2.069-2.07a.182.182 0 0 0-.258 0L11.411 4.85a1.12 1.12 0 0 0-.268.433v0a1.109 1.109 0 0 1-.7.703v0a1.11 1.11 0 0 0-.434.267l-8.456 8.454a.182.182 0 0 0 0 .258l2.069 2.069a.181.181 0 0 0 .247.01 2.189 2.189 0 0 1 3.086 3.086.181.181 0 0 0 .01.247l2.069 2.069a.182.182 0 0 0 .257 0l8.457-8.456a1.11 1.11 0 0 0 .267-.434v0a1.11 1.11 0 0 1 .701-.703v0c.163-.054.312-.146.433-.268l3.297-3.297a.182.182 0 0 0 0-.258l-2.068-2.068a.181.181 0 0 0-.247-.01 2.19 2.19 0 0 1-2.973-.11v0Z"></path>
  <path d="m11.743 6.586-.774-.774"></path>
  <path d="m13.805 8.648-.516-.515"></path>
  <path d="m15.87 10.711-.516-.516"></path>
  <path d="m18.19 13.032-.774-.774"></path>
</svg>