<svg fill="none" stroke="currentColor" stroke-linecap="round" stroke-linejoin="round" stroke-width="1" viewBox="0 0 24 24" xmlns="http://www.w3.org/2000/svg">
  <path d="M5.293 6a8.993 8.993 0 0 0-2.292 5.906c-.056 4.986 4.014 9.085 9 9.094 4.978.01 9-4.023 9-9 0-4.9-3.917-8.888-8.79-9a.205.205 0 0 0-.21.205v3.92"></path>
  <path fill="currentColor" stroke="none" d="M10.94 13.06 7.237 7.763a.381.381 0 0 1 .53-.53l5.297 3.703a1.523 1.523 0 0 1-1.746 2.496 1.557 1.557 0 0 1-.378-.372Z"></path>
</svg>