<svg fill="none" stroke="currentColor" stroke-linecap="round" stroke-linejoin="round" stroke-width="1" viewBox="0 0 24 24" xmlns="http://www.w3.org/2000/svg">
  <path d="M19.5 3.75h-15A2.25 2.25 0 0 0 2.25 6v13.5a2.25 2.25 0 0 0 2.25 2.25h15a2.25 2.25 0 0 0 2.25-2.25V6a2.25 2.25 0 0 0-2.25-2.25Z"></path>
  <path d="M6 2.25v1.5"></path>
  <path d="M18 2.25v1.5"></path>
  <path d="M9.14 10.5H5.86a.61.61 0 0 0-.61.61v3.28c0 .337.273.61.61.61h3.28a.61.61 0 0 0 .61-.61v-3.28a.61.61 0 0 0-.61-.61Z"></path>
  <path d="M21.75 7.5H2.25"></path>
</svg>