<svg fill="none" stroke="currentColor" stroke-linecap="round" stroke-linejoin="round" stroke-width="1" viewBox="0 0 24 24" xmlns="http://www.w3.org/2000/svg">
  <path d="M16.125 2.25H15a.75.75 0 0 0-.75-.75h-4.5a.75.75 0 0 0-.75.75H7.875A2.633 2.633 0 0 0 5.25 4.875v11.578C5.25 18.108 12 19.5 12 19.5s6.75-1.392 6.75-3.047V4.875a2.625 2.625 0 0 0-2.625-2.625v0ZM12 16.5a2.25 2.25 0 1 1 0-4.5 2.25 2.25 0 0 1 0 4.5ZM16.5 9a.75.75 0 0 1-.75.75h-7.5A.75.75 0 0 1 7.5 9V6a.75.75 0 0 1 .75-.75h7.5a.75.75 0 0 1 .75.75v3Z"></path>
  <path d="M6.75 21.75h10.5"></path>
  <path d="M15.75 20.25 18 22.5"></path>
  <path d="M8.25 20.25 6 22.5"></path>
</svg>