<svg fill="none" stroke="currentColor" stroke-linecap="round" stroke-linejoin="round" stroke-width="1" viewBox="0 0 24 24" xmlns="http://www.w3.org/2000/svg">
  <path d="m17.568 14.476 3.877 2.73a.75.75 0 0 0 1.055-.686V7.484a.75.75 0 0 0-1.055-.685l-3.877 2.73a.75.75 0 0 0-.318.612v3.722a.75.75 0 0 0 .318.613Z"></path>
  <path d="M2.353 6.586A2.435 2.435 0 0 0 1.5 8.434v7.125a2.444 2.444 0 0 0 2.438 2.438h8.624c.357 0 .71-.078 1.032-.23"></path>
  <path d="M9.75 6h2.835A2.423 2.423 0 0 1 15 8.415v3.21"></path>
  <path d="M19.5 19.5 3.75 3.75"></path>
</svg>