<svg fill="none" stroke="currentColor" stroke-linecap="round" stroke-linejoin="round" stroke-width="1" viewBox="0 0 24 24" xmlns="http://www.w3.org/2000/svg">
  <path d="M5.906 9H2.625a.375.375 0 0 0-.375.374v5.25a.375.375 0 0 0 .375.375H5.89a.746.746 0 0 1 .475.166l4.288 3.51a.374.374 0 0 0 .597-.3V5.624a.374.374 0 0 0-.597-.302l-4.288 3.51A.703.703 0 0 1 5.906 9Z"></path>
  <path d="M15 15c.457-.908.75-1.914.75-3 0-1.1-.281-2.082-.75-3"></path>
  <path d="M17.25 17.25c.913-1.59 1.5-3.003 1.5-5.25s-.563-3.644-1.5-5.25"></path>
  <path d="M19.5 19.5c1.406-2.156 2.25-4.286 2.25-7.5 0-3.214-.844-5.297-2.25-7.5"></path>
</svg>