<svg fill="none" stroke="currentColor" stroke-linecap="round" stroke-width="1" viewBox="0 0 24 24" xmlns="http://www.w3.org/2000/svg">
  <path d="M19.5 20.25 3 3.75"></path>
  <path fill="currentColor" stroke="none" d="M10.5 6.418v1.585c0 .05.02.097.054.132L11.68 9.26a.187.187 0 0 0 .32-.132V5.652a1.15 1.15 0 0 0-.593-1.018 1.12 1.12 0 0 0-1.229.11L8.68 5.969a.188.188 0 0 0-.014.278l.8.8a.187.187 0 0 0 .251.012l.782-.64Z"></path>
  <path fill="currentColor" stroke="none" d="m10.5 17.582-3.66-2.996a1.5 1.5 0 0 0-.95-.336H3v-4.5h2.378a.187.187 0 0 0 .132-.32L4.385 8.305a.188.188 0 0 0-.132-.055H2.625A1.125 1.125 0 0 0 1.5 9.375v5.25a1.125 1.125 0 0 0 1.125 1.125h3.27l4.283 3.506.03.024a1.122 1.122 0 0 0 1.212.08 1.149 1.149 0 0 0 .58-1.01v-2.353c0-.05-.02-.097-.055-.132L10.82 14.74a.187.187 0 0 0-.32.133v2.709Z"></path>
  <path fill="currentColor" stroke="none" d="M16.5 12.004c0-1.152-.273-2.245-.832-3.341a.75.75 0 0 0-1.336.681c.45.881.668 1.751.668 2.66 0 .125-.005.252-.015.38a.376.376 0 0 0 .109.293l.921.923a.188.188 0 0 0 .317-.094 6.89 6.89 0 0 0 .168-1.502Z"></path>
  <path fill="currentColor" stroke="none" d="M19.5 12c0-2.4-.612-3.933-1.601-5.628a.75.75 0 0 0-1.296.755C17.49 8.645 18.001 9.93 18.001 12c0 1.117-.154 2.01-.44 2.843a.375.375 0 0 0 .09.387l.786.786a.188.188 0 0 0 .305-.06c.482-1.149.759-2.366.759-3.956Z"></path>
  <path fill="currentColor" stroke="none" d="M22.5 12c0-3.48-.947-5.676-2.369-7.903a.75.75 0 1 0-1.265.807c1.28 2.005 2.133 3.98 2.133 7.097 0 2.224-.417 3.849-1.106 5.296a.187.187 0 0 0 .036.214l.836.836a.187.187 0 0 0 .3-.047c1.007-1.977 1.434-3.909 1.434-6.3Z"></path>
</svg>