<svg fill="none" stroke="currentColor" stroke-linecap="round" stroke-linejoin="round" stroke-width="1" viewBox="0 0 24 24" xmlns="http://www.w3.org/2000/svg">
  <path d="M9.75 17.25v4.875a1.112 1.112 0 0 0 1.125 1.125v0A1.111 1.111 0 0 0 12 22.125"></path>
  <path d="M12 17.25v4.875a1.11 1.11 0 0 0 1.125 1.125 1.111 1.111 0 0 0 1.125-1.125V17.25"></path>
  <path d="M8.578 12.844a1.113 1.113 0 0 1-1.4.758 1.111 1.111 0 0 1-.757-1.399l1.172-3.95A2.102 2.102 0 0 1 9.609 6.75h4.781a2.102 2.102 0 0 1 2.016 1.504l1.172 3.95a1.112 1.112 0 0 1-.758 1.4v0a1.113 1.113 0 0 1-1.396-.76"></path>
  <path d="M12 4.5a1.875 1.875 0 1 0 0-3.75 1.875 1.875 0 0 0 0 3.75Z"></path>
  <path d="M9.75 9 7.5 16.5h9L14.25 9"></path>
</svg>