<svg xmlns="http://www.w3.org/2000/svg" viewBox="0 0 878.6 306.46">
    <defs>
        <style>
            .cls-1{
                stroke:#000000
                ;stroke-miterlimit:10
                ;stroke-width:7px;
                }
        </style>
    </defs>

    <g id="Ebene_2" data-name="Ebene 2">
        <g id="Ebene_1-2" data-name="Ebene 1">
            <path class="cls-1" d="M3.9,10.66h6.6l40.2,71.1,40-71.1h6.1v115H3.9v-115ZM10,119.76H90.7V23.06L53.5,88.56H47.7L10,22.16Z"/>
            <path class="cls-1" d="M260,126H151.5L205.8,8.36Zm-98.9-6.2h89.3l-44.6-96.9Z"/>
            <path class="cls-1" d="M408.7,126H320.3V11h44.8c9.6,0,17.4,1.7,23.5,5.1a35,35,0,0,1,13.9,13.6,37.45,37.45,0,0,1,5,19,36.54,36.54,0,0,1-7.9,23.1,37.45,37.45,0,0,1-20,13.5ZM326.4,21v59.3h42.5Zm0,98.8h70.7L373,86.16l-5.1.2H326.4v33.4ZM330.7,17l45,62.8A30.84,30.84,0,0,0,394,68.66a31,31,0,0,0,7.3-20.2A31,31,0,0,0,396.8,32a29,29,0,0,0-12.6-11.4c-4.9-2.4-11.2-3.6-19-3.6Z"/>
            <path class="cls-1" d="M562.9,10.86V17H519.4v108.9h-6V17H469.9v-6.1Z"/><path class="cls-1" d="M709.2,10.86V17H674.8v102.8h34.4v6.1H634.7v-6.1h34.2V17H634.7v-6.1Z"/>
            <path class="cls-1" d="M782.3,126V11h6.4L869,89V11h6.1V126H869V97.56l-80.7-78.7V126Z"/>
            <path class="cls-1" d="M3.5,303V188H9.6v32.6a81.62,81.62,0,0,1,32.2,6.5,82.89,82.89,0,0,1,26.6,18.2A83,83,0,0,1,85.9,272V188H92V303H85.9a75.23,75.23,0,0,0-10.2-38.3,76.19,76.19,0,0,0-27.9-27.9,75,75,0,0,0-38.3-10.2V303Z"/>
            <path class="cls-1" d="M268.8,187.86h81V194H274.9v46.6H340v6.1H274.9v50.1h74.9v6.1h-81Z"/>
            <path class="cls-1" d="M616.7,303H528.3V188h44.8c9.6,0,17.4,1.7,23.5,5.1a35,35,0,0,1,13.9,13.6,37.45,37.45,0,0,1,5,19,36.54,36.54,0,0,1-7.9,23.1,37.45,37.45,0,0,1-20,13.5ZM534.4,198v59.3h42.5Zm0,98.8h70.7L581,263.16l-5.1.2H534.4v33.4ZM538.7,194l45,62.8A32.08,32.08,0,0,0,604.8,209a29,29,0,0,0-12.6-11.4c-4.8-2.4-11.2-3.6-19-3.6Z"/>
            <path class="cls-1" d="M864.7,194H789v-6.1h83.6v115H787.1v-6.1Zm1.8,102.8v-95l-71.7,95Z"/>
        </g>
    </g>
</svg>